<svg width="32" height="33" viewBox="0 0 32 33" fill="none" xmlns="http://www.w3.org/2000/svg">
<mask id="mask0_96_18140" style="mask-type:luminance" maskUnits="userSpaceOnUse" x="0" y="0" width="28" height="29">
<path d="M28 0.916016H0V28.916H28V0.916016Z" fill="white"/>
</mask>
<g mask="url(#mask0_96_18140)">
<mask id="mask1_96_18140" style="mask-type:luminance" maskUnits="userSpaceOnUse" x="0" y="0" width="28" height="29">
<path d="M27.9798 0.924072H0V28.9084H27.9798V0.924072Z" fill="white"/>
</mask>
<g mask="url(#mask1_96_18140)">
<path d="M27.9798 14.9162C27.9798 22.6421 21.7158 28.9061 13.9865 28.9072C6.26288 28.9072 -0.00111877 22.6421 5.99904e-07 14.915C-0.00223814 7.18807 6.26176 0.924072 13.9888 0.924072C21.7158 0.924072 27.9798 7.18919 27.9798 14.9162Z" fill="#EAB300"/>
<path d="M19.2529 11.6176C19.0727 9.74379 17.4552 9.11582 15.4113 8.93672V6.33643H13.8296V8.86732C13.4143 8.86732 12.9889 8.87516 12.5669 8.88411V6.33643H10.9853L10.9842 8.93448C10.6416 8.9412 10.3047 8.94792 9.97672 8.94792V8.94008L7.79507 8.93896V10.6292C7.79507 10.6292 8.96368 10.6068 8.94353 10.6281C9.58493 10.6281 9.79314 10.9997 9.85359 11.321V14.2828C9.89836 14.2828 9.95545 14.2851 10.0204 14.294H9.85359L9.85247 18.4435C9.82448 18.645 9.70582 18.9663 9.25807 18.9674C9.27822 18.9853 8.10849 18.9674 8.10849 18.9674L7.79395 20.8569H9.85359C10.2364 20.8569 10.6136 20.8636 10.983 20.8659L10.9842 23.4953H12.5647V20.8938C12.9979 20.9028 13.4177 20.9062 13.8285 20.9062L13.8274 23.4953H15.409V20.8715C18.0686 20.7192 19.9324 20.0487 20.163 17.5503C20.3499 15.5388 19.4041 14.6399 17.894 14.2772C18.813 13.8116 19.3873 12.9888 19.2529 11.6176ZM17.0388 17.2391C17.0388 19.2036 13.6751 18.9808 12.6016 18.9808V15.4962C13.6751 15.4985 17.0388 15.1906 17.0388 17.2391ZM16.3023 12.3239C16.3023 14.1116 13.4949 13.9023 12.6016 13.9034V10.7445C13.496 10.7445 16.3034 10.4602 16.3023 12.3239Z" fill="white"/>
<path d="M9.85547 14.214H10.0907V14.3876H9.85547V14.214Z" fill="white"/>
</g>
</g>
<path d="M24 32.916C28.4183 32.916 32 29.3343 32 24.916C32 20.4977 28.4183 16.916 24 16.916C19.5817 16.916 16 20.4977 16 24.916C16 29.3343 19.5817 32.916 24 32.916Z" fill="white"/>
<path fill-rule="evenodd" clip-rule="evenodd" d="M31.9778 25.516C31.9925 25.3179 32 25.1178 32 24.916C32 24.7142 31.9925 24.5141 31.9778 24.316H16.0222C16.0075 24.5141 16 24.7142 16 24.916C16 25.1178 16.0075 25.3179 16.0222 25.516H31.9778ZM31.781 26.7828H16.219C16.3178 27.1962 16.4487 27.5971 16.6089 27.9828H31.3911C31.5513 27.5971 31.6822 27.1962 31.781 26.7828ZM30.7684 29.1827H17.2316C17.5028 29.612 17.8137 30.0138 18.1592 30.3827H29.8408C30.1863 30.0138 30.4972 29.612 30.7684 29.1827ZM28.4234 31.5829H19.5766C20.8436 32.4252 22.3645 32.916 24 32.916C25.6355 32.916 27.1564 32.4252 28.4234 31.5829ZM16.2033 23.1162H31.7967C31.7018 22.7031 31.5748 22.3022 31.4186 21.9162H16.5814C16.4252 22.3022 16.2982 22.7031 16.2033 23.1162ZM17.2313 20.6497H30.7687C30.4975 20.2203 30.1866 19.8186 29.8412 19.4497H18.1588C17.8134 19.8186 17.5025 20.2203 17.2313 20.6497ZM18.9713 18.6938H29.0287C27.6548 17.582 25.9052 16.916 24 16.916C22.0948 16.916 20.3452 17.582 18.9713 18.6938Z" fill="#B22233"/>
<path fill-rule="evenodd" clip-rule="evenodd" d="M24 16.916C19.5817 16.916 16 20.4977 16 24.916H24V16.916Z" fill="#112999"/>
<path fill-rule="evenodd" clip-rule="evenodd" d="M23.394 16.9387C23.3988 16.9383 23.4035 16.938 23.4082 16.9376L23.5434 17.316H23.8672L23.6101 17.503L23.7338 17.8494L23.4208 17.6407L23.1338 17.8494L23.2298 17.5134L22.9338 17.316H23.2862L23.394 16.9387ZM21.1626 17.434C21.2864 17.387 21.4117 17.343 21.5383 17.3021L21.5433 17.316H21.8671L21.6101 17.503L21.7338 17.8494L21.4338 17.6312L21.1338 17.8494L21.237 17.4881L21.1626 17.434ZM17.132 20.8119C17.1512 20.7798 17.1706 20.748 17.1902 20.7162H17.3243L17.4671 20.3162L17.5814 20.7162H17.9338L17.6378 20.9135L17.7338 21.2495L17.4468 21.0408L17.1338 21.2495L17.2575 20.9031L17.132 20.8119ZM16.1518 23.3594C16.1591 23.3227 16.1666 23.286 16.1743 23.2494H16.3389L16.4671 22.916L16.5697 23.2494H16.8671L16.6241 23.4261L16.7338 23.7827L16.4338 23.5645L16.1338 23.7827L16.2649 23.4417L16.1518 23.3594ZM16.5748 21.9338C16.5978 21.8766 16.6214 21.8197 16.6457 21.7632L16.7338 22.0494L16.5748 21.9338ZM16.7013 21.6367C16.7195 21.5963 16.738 21.5561 16.7568 21.5161H16.8671L16.7013 21.6367ZM20.2649 18.3085L20.1338 18.6495L20.4338 18.4313L20.7338 18.6495L20.6241 18.2929L20.8671 18.1161H20.5697L20.4671 17.7828L20.3389 18.1161H20.0005L20.2649 18.3085ZM22.1338 18.6495L22.236 18.3175L21.9338 18.1161H22.2979L22.4005 17.7828L22.5287 18.1161H22.8672L22.6027 18.3085L22.7338 18.6495L22.4208 18.4408L22.1338 18.6495ZM19.2649 19.1752L19.1338 19.5162L19.4468 19.3075L19.7338 19.5162L19.6317 19.1843L19.9338 18.9829H19.5697L19.4671 18.6496L19.3389 18.9829H19.0005L19.2649 19.1752ZM23.1338 19.5162L23.236 19.1843L22.9338 18.9829H23.2979L23.4005 18.6496L23.5287 18.9829H23.8672L23.6027 19.1752L23.7338 19.5162L23.4208 19.3075L23.1338 19.5162ZM21.2435 19.1596L21.1338 19.5162L21.4338 19.298L21.7338 19.5162L21.6026 19.1752L21.8671 18.9829H21.5287L21.4005 18.6496L21.2979 18.9829H21.0005L21.2435 19.1596ZM20.1338 20.3827L20.2649 20.0418L20.0005 19.8494H20.3389L20.4671 19.5161L20.5697 19.8494H20.8671L20.6241 20.0262L20.7338 20.3827L20.4338 20.1646L20.1338 20.3827ZM22.236 20.0508L22.1338 20.3827L22.4208 20.174L22.7338 20.3827L22.6027 20.0418L22.8672 19.8494H22.5287L22.4005 19.5161L22.2979 19.8494H21.9338L22.236 20.0508ZM18.1338 20.3827L18.2649 20.0418L18.0005 19.8494H18.3389L18.4671 19.5161L18.5697 19.8494H18.9338L18.6317 20.0508L18.7338 20.3827L18.4468 20.174L18.1338 20.3827ZM23.2298 20.9135L23.1338 21.2495L23.4208 21.0408L23.7338 21.2495L23.6101 20.9031L23.8672 20.7162H23.5434L23.4005 20.3162L23.2862 20.7162H22.9338L23.2298 20.9135ZM17.1338 24.6494L17.2649 24.3085L17.0005 24.1161H17.3389L17.4671 23.7828L17.5697 24.1161H17.8671L17.6241 24.2929L17.7338 24.6494L17.4338 24.4313L17.1338 24.6494ZM23.236 24.3175L23.1338 24.6494L23.4208 24.4407L23.7338 24.6494L23.6027 24.3085L23.8672 24.1161H23.5287L23.4005 23.7828L23.2979 24.1161H22.9338L23.236 24.3175ZM21.1338 24.6494L21.2435 24.2929L21.0005 24.1161H21.2979L21.4005 23.7828L21.5287 24.1161H21.8671L21.6026 24.3085L21.7338 24.6494L21.4338 24.4313L21.1338 24.6494ZM19.2649 24.3085L19.1338 24.6494L19.4338 24.4313L19.7338 24.6494L19.6241 24.2929L19.8671 24.1161H19.5697L19.4671 23.7828L19.3389 24.1161H19.0005L19.2649 24.3085ZM22.1338 23.7827L22.236 23.4508L21.9338 23.2494H22.2979L22.4005 22.916L22.5287 23.2494H22.8672L22.6027 23.4417L22.7338 23.7827L22.4208 23.574L22.1338 23.7827ZM20.2649 23.4417L20.1338 23.7827L20.4338 23.5645L20.7338 23.7827L20.6241 23.4261L20.8671 23.2494H20.5697L20.4671 22.916L20.3389 23.2494H20.0005L20.2649 23.4417ZM18.1338 23.7827L18.2649 23.4417L18.0005 23.2494H18.3389L18.4671 22.916L18.5697 23.2494H18.9338L18.6317 23.4508L18.7338 23.7827L18.4468 23.574L18.1338 23.7827ZM17.1338 22.9162L17.2649 22.5752L17.0005 22.3828H17.3389L17.4671 22.0495L17.5697 22.3828H17.9338L17.6317 22.5842L17.7338 22.9162L17.4468 22.7075L17.1338 22.9162ZM23.236 22.5842L23.1338 22.9162L23.4208 22.7075L23.7338 22.9162L23.6027 22.5752L23.8672 22.3828H23.5287L23.4005 22.0495L23.2979 22.3828H22.9338L23.236 22.5842ZM21.1338 22.9162L21.2435 22.5596L21.0005 22.3828H21.2979L21.4005 22.0495L21.5287 22.3828H21.8671L21.6026 22.5752L21.7338 22.9162L21.4338 22.698L21.1338 22.9162ZM19.2649 22.5752L19.1338 22.9162L19.4468 22.7075L19.7338 22.9162L19.6317 22.5842L19.9338 22.3828H19.5697L19.4671 22.0495L19.3389 22.3828H19.0005L19.2649 22.5752ZM22.1338 22.0494L22.236 21.7175L21.9338 21.5161H22.2979L22.4005 21.1828L22.5287 21.5161H22.8672L22.6027 21.7084L22.7338 22.0494L22.4208 21.8407L22.1338 22.0494ZM20.2649 21.7084L20.1338 22.0494L20.4338 21.8312L20.7338 22.0494L20.6241 21.6929L20.8671 21.5161H20.5697L20.4671 21.1828L20.3389 21.5161H20.0005L20.2649 21.7084ZM18.1338 22.0494L18.2649 21.7084L18.0005 21.5161H18.3389L18.4671 21.1828L18.5697 21.5161H18.9338L18.6317 21.7175L18.7338 22.0494L18.4468 21.8407L18.1338 22.0494ZM19.1338 21.2495L19.2575 20.9031L19.0005 20.7162H19.3243L19.4671 20.3162L19.5814 20.7162H19.9338L19.6378 20.9135L19.7338 21.2495L19.4468 21.0408L19.1338 21.2495ZM21.237 20.8882L21.1338 21.2495L21.4338 21.0314L21.7338 21.2495L21.6101 20.9031L21.8671 20.7162H21.5433L21.4005 20.3162L21.2862 20.7162H21.0005L21.237 20.8882Z" fill="white"/>
</svg>
