<svg width="256" height="203" viewBox="0 0 256 203" fill="none" xmlns="http://www.w3.org/2000/svg">
<mask id="mask0_88_5171" style="mask-type:luminance" maskUnits="userSpaceOnUse" x="0" y="-27" width="256" height="257">
<path d="M256 -26.5H0V229.5H256V-26.5Z" fill="white"/>
</mask>
<g mask="url(#mask0_88_5171)">
<path d="M121.352 178.335C184.624 184.738 217.233 169.174 219.18 131.642C222.098 75.3432 172.923 81.425 158.602 66.5874C144.281 51.7498 160.324 72.8359 132.743 42.0888C114.355 21.5904 89.8533 21.4851 59.2378 41.7737C34.5429 61.8725 31.8721 88.231 51.2244 120.848C70.5767 153.465 93.9525 172.627 121.352 178.335Z" fill="#F4F4F4"/>
<mask id="mask1_88_5171" style="mask-type:luminance" maskUnits="userSpaceOnUse" x="91" y="37" width="100" height="30">
<path d="M190.748 37.5386H91.1729L91.1155 66.0112H190.69L190.748 37.5386Z" fill="white"/>
</mask>
<g mask="url(#mask1_88_5171)">
<path d="M92.5981 38.983C105.358 38.983 106.953 46.525 106.953 54.0535V62.267C106.953 63.5685 107.943 64.626 109.161 64.626L184.346 63.9721C185.564 63.9721 186.553 62.9154 186.553 61.6138V52.7591C186.553 44.6819 180.427 38.1328 172.87 38.1328C172.358 38.1328 92.0638 38.983 92.5981 38.983Z" fill="#718EBF"/>
<path d="M92.596 40.3634C92.596 41.5948 93.5969 42.594 94.829 42.594C172.887 42.594 172.901 42.5932 172.915 42.594C178.031 42.6028 182.175 46.7833 182.183 51.944V62.5254H184.391C185.609 62.5254 186.597 61.5285 186.597 60.2995V51.944C186.63 44.3127 180.524 38.1001 172.96 38.0674H172.872H172.048C171.845 38.0793 171.648 38.112 171.448 38.1336H94.8258C93.5945 38.1336 92.596 39.1321 92.596 40.3634Z" fill="#718EBF"/>
</g>
<mask id="mask2_88_5171" style="mask-type:luminance" maskUnits="userSpaceOnUse" x="60" y="36" width="124" height="134">
<path d="M183.109 36.1045H60.6105V169.488H183.109V36.1045Z" fill="white"/>
</mask>
<g mask="url(#mask2_88_5171)">
<path d="M172.871 42.3197V38.1328H93.3703C82.9532 38.1488 74.5124 46.6606 74.4965 57.1637V166.444C74.4965 167.672 75.4854 168.669 76.7032 168.669H144.773C155.176 168.636 163.596 160.128 163.604 149.638V51.9281V51.8236C163.668 46.706 167.797 42.3341 172.871 42.3269C172.892 42.3269 172.911 42.3205 172.931 42.3197H172.871Z" fill="white"/>
<path d="M93.3272 38.1327C82.9094 38.1495 74.4678 46.6613 74.4518 57.1645V121.142L121.985 38.0737L93.3272 38.1327Z" fill="#E1DAFF"/>
<path d="M74.4953 82.9684V58.5742C74.5121 48.0702 82.9529 39.5592 93.3708 39.5425H172.871M68.8458 165.643C73.5934 165.643 74.4523 160.599 74.4523 157.411C74.4523 131.343 74.4953 112.916 74.4953 106.305M74.9108 90.4211V93.3519" stroke="#718EBF" stroke-width="7.2" stroke-miterlimit="10" stroke-linecap="round"/>
<path d="M172.871 38.0664H172.047C164.831 38.5058 159.199 44.531 159.189 51.8242V52.0324V149.583C159.175 156.23 154.723 162.033 148.348 163.712C147.651 163.893 146.937 163.983 146.224 163.99V163.992H146.169H146.112H63.5878C66.9006 166.917 71.2343 168.694 75.9818 168.698H76.0113H99.805H144.773C145.258 168.698 146.008 168.698 146.494 168.624C147.352 168.545 148.202 168.402 149.038 168.194C157.584 166.187 163.637 158.508 163.648 149.657V51.8984V51.7947C163.711 46.9977 167.355 43.0269 172.09 42.5931C172.352 42.5787 172.853 42.5803 173.113 42.5931L172.871 38.0664Z" fill="#718EBF"/>
</g>
<mask id="mask3_88_5171" style="mask-type:luminance" maskUnits="userSpaceOnUse" x="55" y="144" width="92" height="26">
<path d="M146.292 144.002H55.8259V169.089H146.292V144.002Z" fill="white"/>
</mask>
<g mask="url(#mask3_88_5171)">
<path d="M172.87 38.0659H172.046C164.83 38.5061 159.2 44.5305 159.189 51.8237V52.0319V149.582C159.176 156.229 154.723 162.033 148.348 163.712C146.901 164.089 145.381 164.089 143.934 163.712C137.539 162.009 133.088 156.166 133.105 149.494V146.525C133.114 145.296 132.133 144.292 130.915 144.284H116.927H105.681H88.3445H70.1924H59.3431C58.1253 144.284 57.1364 145.282 57.1364 146.511V149.657C57.1268 160.164 65.566 168.689 75.9823 168.698H76.0102H99.8039H144.771C145.257 168.698 146.007 168.698 146.493 168.624C147.351 168.545 148.202 168.402 149.039 168.194C157.585 166.187 163.636 158.509 163.647 149.657V51.8987V51.7942C163.71 46.998 167.355 43.0256 172.091 42.5934C172.365 42.5782 172.639 42.5782 172.915 42.5934C178.03 42.6013 182.174 46.7827 182.183 51.9425V62.5247H184.39C185.609 62.5247 186.597 61.5278 186.597 60.2988V51.9425C186.629 44.3112 180.524 38.0994 172.959 38.0659H172.87Z" fill="#718EBF"/>
</g>
<mask id="mask4_88_5171" style="mask-type:luminance" maskUnits="userSpaceOnUse" x="114" y="37" width="89" height="124">
<path d="M202.956 37.0889C197.772 37.0889 130.782 37.0889 130.782 37.0889L119.019 45.4627L114.632 70.7836V140.366C114.632 140.366 168.065 140.366 169.66 140.366C171.255 140.366 171.455 141.762 171.455 142.759C171.455 143.756 172.452 160.304 184.215 160.304C195.978 160.304 197.573 149.537 197.573 143.556C197.573 137.575 197.573 48.4534 197.573 46.4596C197.573 44.4658 199.966 38.4845 202.956 37.0889Z" fill="white"/>
</mask>
<g mask="url(#mask4_88_5171)">
<path d="M217.991 121.676C232.2 114.576 237.974 97.3262 230.889 83.1464C223.804 68.9659 206.543 63.2262 192.334 70.3256C178.125 77.425 172.348 94.6753 179.434 108.856C186.518 123.036 203.781 128.775 217.991 121.676Z" fill="#E1DAFF"/>
<path d="M217.991 121.676C232.2 114.576 237.974 97.3262 230.889 83.1464C223.804 68.9659 206.543 63.2262 192.334 70.3256C178.125 77.425 172.348 94.6753 179.434 108.856C186.518 123.036 203.781 128.775 217.991 121.676Z" stroke="#E1DAFF" stroke-width="7.19781" stroke-miterlimit="10"/>
</g>
<path d="M92.2757 124.874H113.852" stroke="#B6A4FF" stroke-width="7.2" stroke-miterlimit="10" stroke-linecap="round"/>
<path d="M92.2757 104.777H113.852" stroke="#B6A4FF" stroke-width="7.2" stroke-miterlimit="10" stroke-linecap="round"/>
<path d="M92.2751 84.6792H141.182" stroke="#718EBF" stroke-width="7.2" stroke-miterlimit="10" stroke-linecap="round"/>
<path d="M92.2751 63.147H146.833" stroke="#718EBF" stroke-width="7.2" stroke-miterlimit="10" stroke-linecap="round"/>
<path d="M182.734 122.338C181.975 120.971 182.466 119.249 183.832 118.489L183.838 118.485C183.839 118.485 183.839 118.485 183.839 118.485C185.213 117.725 186.943 118.221 187.706 119.593L187.706 119.593L200.738 143.011C200.738 143.011 200.738 143.011 200.738 143.011C201.497 144.376 201.007 146.099 199.641 146.86L199.635 146.862C199.635 146.863 199.635 146.863 199.635 146.863C198.26 147.622 196.53 147.127 195.766 145.754L195.766 145.754L182.735 122.338C182.735 122.338 182.734 122.338 182.734 122.338Z" fill="#0070E4" stroke="#0070E4" stroke-width="1.99939"/>
<path d="M186.168 122.488C200.377 115.388 206.152 98.1382 199.067 83.9584C191.982 69.7779 174.721 64.0382 160.512 71.1376C146.303 78.237 140.526 95.4873 147.611 109.668C154.696 123.848 171.959 129.587 186.168 122.488Z" fill="white"/>
<path d="M186.168 122.488C200.377 115.388 206.152 98.1382 199.067 83.9584C191.982 69.7779 174.721 64.0382 160.512 71.1376C146.303 78.237 140.526 95.4873 147.611 109.668C154.696 123.848 171.959 129.587 186.168 122.488Z" stroke="#0070E4" stroke-width="7.19781" stroke-miterlimit="10"/>
</g>
</svg>
