<svg width="186" height="154" viewBox="0 0 186 154" fill="none" xmlns="http://www.w3.org/2000/svg">
<path d="M83.3522 151.835C146.624 158.238 179.233 142.674 181.179 105.142C184.098 48.8432 134.923 54.925 120.602 40.0874C106.281 25.2498 122.324 46.3359 94.743 15.5888C76.3549 -4.90959 51.8531 -5.01485 21.2375 15.2737C-3.45729 35.3725 -6.12814 61.731 13.2242 94.3482C32.5765 126.965 55.9523 146.127 83.3522 151.835Z" fill="#292929"/>
<mask id="mask0_161_3119" style="mask-type:luminance" maskUnits="userSpaceOnUse" x="53" y="11" width="100" height="29">
<path d="M152.748 11.0386H53.1727L53.1152 39.5112H152.69L152.748 11.0386Z" fill="white"/>
</mask>
<g mask="url(#mask0_161_3119)">
<path d="M54.5974 12.483C67.3575 12.483 68.9525 20.025 68.9525 27.5535V35.767C68.9525 37.0685 69.9422 38.126 71.16 38.126L146.345 37.4721C147.564 37.4721 148.553 36.4154 148.553 35.1138V26.2591C148.553 18.1819 142.426 11.6328 134.87 11.6328C134.358 11.6328 54.063 12.483 54.5974 12.483Z" fill="#718EBF"/>
<path d="M54.5957 13.8634C54.5957 15.0948 55.5966 16.094 56.8287 16.094C134.886 16.094 134.901 16.0932 134.915 16.094C140.03 16.1028 144.175 20.2833 144.183 25.444V36.0254H146.39C147.608 36.0254 148.597 35.0285 148.597 33.7995V25.444C148.63 17.8127 142.524 11.6001 134.96 11.5674H134.871H134.047C133.845 11.5793 133.648 11.612 133.448 11.6336H56.8255C55.5942 11.6336 54.5957 12.6321 54.5957 13.8634Z" fill="#718EBF"/>
</g>
<mask id="mask1_161_3119" style="mask-type:luminance" maskUnits="userSpaceOnUse" x="22" y="9" width="124" height="134">
<path d="M145.109 9.60449H22.6104V142.988H145.109V9.60449Z" fill="white"/>
</mask>
<g mask="url(#mask1_161_3119)">
<path d="M134.871 15.8197V11.6328H55.3699C44.9529 11.6488 36.512 20.1606 36.4961 30.6637V139.944C36.4961 141.172 37.485 142.169 38.7028 142.169H106.772C117.176 142.136 125.596 133.628 125.603 123.138V25.4281V25.3236C125.668 20.206 129.797 15.8341 134.871 15.8269C134.892 15.8269 134.911 15.8205 134.931 15.8197H134.871Z" fill="#202020"/>
<path d="M55.3271 11.6327C44.9092 11.6495 36.4676 20.1613 36.4517 30.6645V94.6421L83.9847 11.5737L55.3271 11.6327Z" fill="#484848"/>
<path d="M36.4948 56.4684V32.0742C36.5115 21.5702 44.9523 13.0592 55.3702 13.0425H134.871M30.8452 139.143C35.5928 139.143 36.4517 134.099 36.4517 130.911C36.4517 104.843 36.4948 86.4156 36.4948 79.805M36.9103 63.9211V66.8519" stroke="#718EBF" stroke-width="7.2" stroke-miterlimit="10" stroke-linecap="round"/>
<path d="M134.871 11.5664H134.047C126.831 12.0058 121.198 18.031 121.189 25.3242V25.5324V123.083C121.175 129.73 116.723 135.533 110.347 137.212C109.65 137.393 108.937 137.483 108.224 137.49V137.492H108.169H108.112H25.5874C28.9002 140.417 33.2339 142.194 37.9815 142.198H38.011H61.8046H106.773C107.258 142.198 108.007 142.198 108.494 142.124C109.351 142.045 110.201 141.902 111.038 141.694C119.584 139.687 125.636 132.008 125.648 123.157V25.3984V25.2947C125.711 20.4977 129.355 16.5269 134.09 16.0931C134.352 16.0787 134.852 16.0803 135.112 16.0931L134.871 11.5664Z" fill="#718EBF"/>
</g>
<mask id="mask2_161_3119" style="mask-type:luminance" maskUnits="userSpaceOnUse" x="17" y="117" width="92" height="26">
<path d="M108.292 117.502H17.8257V142.589H108.292V117.502Z" fill="white"/>
</mask>
<g mask="url(#mask2_161_3119)">
<path d="M134.87 11.5659H134.046C126.83 12.0061 121.2 18.0305 121.189 25.3237V25.5319V123.082C121.176 129.729 116.723 135.533 110.348 137.212C108.901 137.589 107.38 137.589 105.934 137.212C99.5386 135.509 95.0877 129.666 95.1052 122.994V120.025C95.114 118.796 94.1331 117.792 92.9145 117.784H78.927H67.6813H50.3443H32.1922H21.3429C20.1251 117.784 19.1362 118.782 19.1362 120.011V123.157C19.1267 133.664 27.5659 142.189 37.9821 142.198H38.0101H61.8037H106.771C107.257 142.198 108.007 142.198 108.493 142.124C109.351 142.045 110.202 141.902 111.039 141.694C119.585 139.687 125.636 132.009 125.647 123.157V25.3987V25.2942C125.71 20.498 129.355 16.5256 134.091 16.0934C134.365 16.0782 134.639 16.0782 134.914 16.0934C140.03 16.1013 144.174 20.2827 144.183 25.4425V36.0247H146.39C147.608 36.0247 148.597 35.0278 148.597 33.7988V25.4425C148.629 17.8112 142.523 11.5994 134.959 11.5659H134.87Z" fill="#718EBF"/>
</g>
<mask id="mask3_161_3119" style="mask-type:luminance" maskUnits="userSpaceOnUse" x="76" y="10" width="89" height="124">
<path d="M164.956 10.5889C159.772 10.5889 92.7814 10.5889 92.7814 10.5889L81.0181 18.9627L76.6318 44.2836V113.866C76.6318 113.866 130.065 113.866 131.66 113.866C133.255 113.866 133.454 115.262 133.454 116.259C133.454 117.256 134.451 133.804 146.214 133.804C157.978 133.804 159.573 123.037 159.573 117.056C159.573 111.075 159.573 21.9534 159.573 19.9596C159.573 17.9658 161.965 11.9845 164.956 10.5889Z" fill="white"/>
</mask>
<g mask="url(#mask3_161_3119)">
<path d="M179.99 95.1759C194.199 88.0765 199.974 70.8262 192.889 56.6464C185.804 42.4659 168.543 36.7262 154.334 43.8256C140.125 50.925 134.348 68.1753 141.433 82.3558C148.518 96.5356 165.781 102.275 179.99 95.1759Z" fill="#484848"/>
<path d="M179.99 95.1759C194.199 88.0765 199.974 70.8262 192.889 56.6464C185.804 42.4659 168.543 36.7262 154.334 43.8256C140.125 50.925 134.348 68.1753 141.433 82.3558C148.518 96.5356 165.781 102.275 179.99 95.1759Z" stroke="#484848" stroke-width="7.19781" stroke-miterlimit="10"/>
</g>
<path d="M54.2754 98.374H75.852" stroke="#B6A4FF" stroke-width="7.2" stroke-miterlimit="10" stroke-linecap="round"/>
<path d="M54.2754 78.2769H75.852" stroke="#B6A4FF" stroke-width="7.2" stroke-miterlimit="10" stroke-linecap="round"/>
<path d="M54.2749 58.1792H103.182" stroke="#718EBF" stroke-width="7.2" stroke-miterlimit="10" stroke-linecap="round"/>
<path d="M54.2749 36.647H108.833" stroke="#718EBF" stroke-width="7.2" stroke-miterlimit="10" stroke-linecap="round"/>
<path d="M144.735 95.8375C143.975 94.4713 144.466 92.7486 145.832 91.9888L145.838 91.9851C145.839 91.9849 145.839 91.9848 145.839 91.9847C147.213 91.225 148.943 91.721 149.706 93.0934L149.706 93.0934L162.738 116.511C162.738 116.511 162.738 116.511 162.738 116.511C163.498 117.876 163.007 119.599 161.641 120.36L161.635 120.362C161.635 120.363 161.635 120.363 161.635 120.363C160.261 121.122 158.53 120.627 157.766 119.254L157.766 119.254L144.735 95.8378C144.735 95.8377 144.735 95.8376 144.735 95.8375Z" fill="#0070E4" stroke="#0070E4" stroke-width="1.99939"/>
<path d="M148.169 95.9879C162.378 88.8885 168.152 71.6382 161.067 57.4584C153.982 43.2779 136.721 37.5382 122.512 44.6376C108.303 51.737 102.526 68.9873 109.612 83.1678C116.696 97.3476 133.959 103.087 148.169 95.9879Z" fill="#202020"/>
<path d="M148.169 95.9879C162.378 88.8885 168.152 71.6382 161.067 57.4584C153.982 43.2779 136.721 37.5382 122.512 44.6376C108.303 51.737 102.526 68.9873 109.612 83.1678C116.696 97.3476 133.959 103.087 148.169 95.9879Z" stroke="#0070E4" stroke-width="7.19781" stroke-miterlimit="10"/>
</svg>
