<svg width="32" height="32" viewBox="0 0 32 32" fill="none" xmlns="http://www.w3.org/2000/svg">
<path d="M14 28C21.732 28 28 21.732 28 14C28 6.26801 21.732 0 14 0C6.26801 0 0 6.26801 0 14C0 21.732 6.26801 28 14 28Z" fill="#C61C1C"/>
<path d="M23.1982 9.85515C22.4041 9.29974 21.555 8.70761 20.7241 8.12007C20.7058 8.1063 20.6874 8.09253 20.6645 8.07876C20.5727 8.0099 20.4671 7.93646 20.3386 7.89515L20.3294 7.89056C18.1077 7.35351 15.8494 6.80269 13.6645 6.27023C11.6815 5.78826 9.70315 5.3063 7.7202 4.82433C7.66971 4.81056 7.61921 4.79679 7.56413 4.78302C7.38512 4.73253 7.17856 4.67745 6.95823 4.70499C6.89397 4.71417 6.83889 4.73712 6.78839 4.76925L6.73331 4.81515C6.6461 4.89777 6.6002 5.00335 6.57725 5.06302L6.56348 5.09974V5.31089L6.57266 5.34302C7.82577 8.85449 9.11102 12.4165 10.3504 15.8637C11.3051 18.5168 12.2966 21.2663 13.2651 23.9653C13.3248 24.1489 13.4946 24.2683 13.7058 24.2866H13.7517C13.9491 24.2866 14.1235 24.1902 14.2107 24.0342L17.8461 18.7325C18.732 17.4427 19.6179 16.1483 20.5038 14.8584C20.8664 14.3306 21.229 13.7981 21.5917 13.2702C22.1884 12.3981 22.8035 11.4984 23.414 10.6217L23.4461 10.5758V10.5207C23.4599 10.3601 23.4645 10.0296 23.1982 9.85515ZM18.9386 11.7876C18.0848 12.2329 17.2127 12.6919 16.3359 13.1463C16.8454 12.6001 17.3595 12.0492 17.869 11.503C18.5071 10.8145 19.1727 10.103 19.8245 9.40531L19.8382 9.39154C19.8933 9.3181 19.9622 9.24925 20.0356 9.1758C20.0861 9.12531 20.1412 9.07482 20.1917 9.01515C20.5313 9.24925 20.8756 9.48794 21.2061 9.72203C21.4448 9.89187 21.6881 10.0617 21.9359 10.2315C20.9261 10.7456 19.9163 11.2735 18.9386 11.7876ZM16.7445 11.5673C16.0881 12.2788 15.4087 13.0086 14.734 13.7292C13.4258 12.1411 12.09 10.5299 10.7956 8.97384C10.2081 8.26695 9.61594 7.55548 9.02839 6.84859L9.0238 6.844C8.89069 6.69253 8.76217 6.52728 8.63364 6.37122C8.55102 6.26564 8.4638 6.16466 8.37659 6.05908C8.90905 6.19679 9.4461 6.32531 9.97397 6.44925C10.4376 6.55941 10.9195 6.67417 11.3923 6.79351C14.0546 7.44072 16.7215 8.08794 19.3838 8.73515C18.4979 9.68072 17.6074 10.6401 16.7445 11.5673ZM14.4356 20.5135C14.4861 20.0315 14.5412 19.5358 14.5871 19.0492C14.6284 18.6591 14.6697 18.2597 14.711 17.8788C14.7753 17.2683 14.8441 16.6348 14.8992 16.0151L14.913 15.905C14.9589 15.5102 15.0048 15.1017 15.0323 14.6932C15.0828 14.6656 15.1379 14.6381 15.1976 14.6151C15.2664 14.583 15.3353 14.5555 15.4041 14.5142C16.4645 13.9588 17.5248 13.4033 18.5897 12.8525C19.65 12.3017 20.7379 11.7325 21.8166 11.1679C20.8343 12.5909 19.8474 14.0276 18.8927 15.4276C18.071 16.6256 17.2264 17.8604 16.3864 19.0768C16.0559 19.5633 15.7117 20.0591 15.3858 20.5365C15.0186 21.0689 14.6422 21.6151 14.275 22.1614C14.3209 21.6106 14.3759 21.0551 14.4356 20.5135ZM8.03692 7.14236C7.97725 6.97712 7.91298 6.80728 7.8579 6.64663C9.09725 8.14302 10.3458 9.64859 11.5622 11.1083C12.191 11.8656 12.8199 12.6184 13.4487 13.3804C13.5727 13.5227 13.6966 13.6742 13.8159 13.821C13.972 14.0092 14.1281 14.2066 14.2979 14.3948C14.2428 14.8676 14.1969 15.345 14.1464 15.804C14.1143 16.1253 14.0822 16.4466 14.0454 16.7725V16.7771C14.0317 16.9837 14.0041 17.1902 13.9812 17.3922C13.9491 17.6722 13.8756 18.3056 13.8756 18.3056L13.871 18.3378C13.7884 19.265 13.6874 20.2014 13.591 21.1102C13.5497 21.4866 13.513 21.8722 13.4717 22.2578C13.4487 22.1889 13.4212 22.1201 13.3982 22.0558C13.3294 21.8722 13.2605 21.6794 13.1963 21.4912L12.7051 20.1279C11.149 15.7994 9.59298 11.4755 8.03692 7.14236Z" fill="white"/>
<circle cx="24" cy="24" r="8" fill="white"/>
<path fill-rule="evenodd" clip-rule="evenodd" d="M31.9778 24.6C31.9925 24.4019 32 24.2018 32 24C32 23.7982 31.9925 23.5981 31.9778 23.4H16.0222C16.0075 23.5981 16 23.7982 16 24C16 24.2018 16.0075 24.4019 16.0222 24.6H31.9778ZM31.781 25.8668H16.219C16.3178 26.2801 16.4487 26.6811 16.6089 27.0668H31.3911C31.5513 26.6811 31.6822 26.2801 31.781 25.8668ZM30.7684 28.2667H17.2316C17.5028 28.696 17.8137 29.0977 18.1592 29.4667H29.8408C30.1863 29.0977 30.4972 28.696 30.7684 28.2667ZM28.4234 30.6669H19.5766C20.8436 31.5092 22.3645 32 24 32C25.6355 32 27.1564 31.5092 28.4234 30.6669ZM16.2033 22.2002H31.7967C31.7018 21.7871 31.5748 21.3862 31.4186 21.0002H16.5814C16.4252 21.3862 16.2982 21.7871 16.2033 22.2002ZM17.2313 19.7336H30.7687C30.4975 19.3043 30.1866 18.9026 29.8412 18.5336H18.1588C17.8134 18.9026 17.5025 19.3043 17.2313 19.7336ZM18.9713 17.7778H29.0287C27.6548 16.666 25.9052 16 24 16C22.0948 16 20.3452 16.666 18.9713 17.7778Z" fill="#B22233"/>
<path fill-rule="evenodd" clip-rule="evenodd" d="M24 16C19.5817 16 16 19.5817 16 24H24V16Z" fill="#112999"/>
<path fill-rule="evenodd" clip-rule="evenodd" d="M23.394 16.0227C23.3988 16.0223 23.4035 16.022 23.4082 16.0216L23.5434 16.4H23.8672L23.6101 16.587L23.7338 16.9333L23.4208 16.7247L23.1338 16.9333L23.2298 16.5973L22.9338 16.4H23.2862L23.394 16.0227ZM21.1626 16.518C21.2864 16.471 21.4117 16.427 21.5383 16.3861L21.5433 16.4H21.8671L21.6101 16.587L21.7338 16.9333L21.4338 16.7152L21.1338 16.9333L21.237 16.5721L21.1626 16.518ZM17.132 19.8959C17.1512 19.8638 17.1706 19.8319 17.1902 19.8002H17.3243L17.4671 19.4002L17.5814 19.8002H17.9338L17.6378 19.9975L17.7338 20.3335L17.4468 20.1248L17.1338 20.3335L17.2575 19.9871L17.132 19.8959ZM16.1518 22.4434C16.1591 22.4066 16.1666 22.3699 16.1743 22.3333H16.3389L16.4671 22L16.5697 22.3333H16.8671L16.6241 22.5101L16.7338 22.8667L16.4338 22.6485L16.1338 22.8667L16.2649 22.5257L16.1518 22.4434ZM16.5748 21.0178C16.5978 20.9606 16.6214 20.9037 16.6457 20.8472L16.7338 21.1334L16.5748 21.0178ZM16.7013 20.7207C16.7195 20.6803 16.738 20.6401 16.7568 20.6001H16.8671L16.7013 20.7207ZM20.2649 17.3925L20.1338 17.7334L20.4338 17.5153L20.7338 17.7334L20.6241 17.3769L20.8671 17.2001H20.5697L20.4671 16.8668L20.3389 17.2001H20.0005L20.2649 17.3925ZM22.1338 17.7334L22.236 17.4015L21.9338 17.2001H22.2979L22.4005 16.8668L22.5287 17.2001H22.8672L22.6027 17.3925L22.7338 17.7334L22.4208 17.5247L22.1338 17.7334ZM19.2649 18.2592L19.1338 18.6002L19.4468 18.3915L19.7338 18.6002L19.6317 18.2683L19.9338 18.0669H19.5697L19.4671 17.7335L19.3389 18.0669H19.0005L19.2649 18.2592ZM23.1338 18.6002L23.236 18.2683L22.9338 18.0669H23.2979L23.4005 17.7335L23.5287 18.0669H23.8672L23.6027 18.2592L23.7338 18.6002L23.4208 18.3915L23.1338 18.6002ZM21.2435 18.2436L21.1338 18.6002L21.4338 18.382L21.7338 18.6002L21.6026 18.2592L21.8671 18.0669H21.5287L21.4005 17.7335L21.2979 18.0669H21.0005L21.2435 18.2436ZM20.1338 19.4667L20.2649 19.1257L20.0005 18.9334H20.3389L20.4671 18.6001L20.5697 18.9334H20.8671L20.6241 19.1102L20.7338 19.4667L20.4338 19.2485L20.1338 19.4667ZM22.236 19.1348L22.1338 19.4667L22.4208 19.258L22.7338 19.4667L22.6027 19.1257L22.8672 18.9334H22.5287L22.4005 18.6001L22.2979 18.9334H21.9338L22.236 19.1348ZM18.1338 19.4667L18.2649 19.1257L18.0005 18.9334H18.3389L18.4671 18.6001L18.5697 18.9334H18.9338L18.6317 19.1348L18.7338 19.4667L18.4468 19.258L18.1338 19.4667ZM23.2298 19.9975L23.1338 20.3335L23.4208 20.1248L23.7338 20.3335L23.6101 19.9871L23.8672 19.8002H23.5434L23.4005 19.4002L23.2862 19.8002H22.9338L23.2298 19.9975ZM17.1338 23.7334L17.2649 23.3924L17.0005 23.2001H17.3389L17.4671 22.8668L17.5697 23.2001H17.8671L17.6241 23.3768L17.7338 23.7334L17.4338 23.5152L17.1338 23.7334ZM23.236 23.4015L23.1338 23.7334L23.4208 23.5247L23.7338 23.7334L23.6027 23.3924L23.8672 23.2001H23.5287L23.4005 22.8668L23.2979 23.2001H22.9338L23.236 23.4015ZM21.1338 23.7334L21.2435 23.3768L21.0005 23.2001H21.2979L21.4005 22.8668L21.5287 23.2001H21.8671L21.6026 23.3924L21.7338 23.7334L21.4338 23.5152L21.1338 23.7334ZM19.2649 23.3924L19.1338 23.7334L19.4338 23.5152L19.7338 23.7334L19.6241 23.3768L19.8671 23.2001H19.5697L19.4671 22.8668L19.3389 23.2001H19.0005L19.2649 23.3924ZM22.1338 22.8667L22.236 22.5348L21.9338 22.3333H22.2979L22.4005 22L22.5287 22.3333H22.8672L22.6027 22.5257L22.7338 22.8667L22.4208 22.658L22.1338 22.8667ZM20.2649 22.5257L20.1338 22.8667L20.4338 22.6485L20.7338 22.8667L20.6241 22.5101L20.8671 22.3333H20.5697L20.4671 22L20.3389 22.3333H20.0005L20.2649 22.5257ZM18.1338 22.8667L18.2649 22.5257L18.0005 22.3333H18.3389L18.4671 22L18.5697 22.3333H18.9338L18.6317 22.5348L18.7338 22.8667L18.4468 22.658L18.1338 22.8667ZM17.1338 22.0001L17.2649 21.6592L17.0005 21.4668H17.3389L17.4671 21.1335L17.5697 21.4668H17.9338L17.6317 21.6682L17.7338 22.0001L17.4468 21.7914L17.1338 22.0001ZM23.236 21.6682L23.1338 22.0001L23.4208 21.7914L23.7338 22.0001L23.6027 21.6592L23.8672 21.4668H23.5287L23.4005 21.1335L23.2979 21.4668H22.9338L23.236 21.6682ZM21.1338 22.0001L21.2435 21.6436L21.0005 21.4668H21.2979L21.4005 21.1335L21.5287 21.4668H21.8671L21.6026 21.6592L21.7338 22.0001L21.4338 21.782L21.1338 22.0001ZM19.2649 21.6592L19.1338 22.0001L19.4468 21.7914L19.7338 22.0001L19.6317 21.6682L19.9338 21.4668H19.5697L19.4671 21.1335L19.3389 21.4668H19.0005L19.2649 21.6592ZM22.1338 21.1334L22.236 20.8015L21.9338 20.6001H22.2979L22.4005 20.2667L22.5287 20.6001H22.8672L22.6027 20.7924L22.7338 21.1334L22.4208 20.9247L22.1338 21.1334ZM20.2649 20.7924L20.1338 21.1334L20.4338 20.9152L20.7338 21.1334L20.6241 20.7768L20.8671 20.6001H20.5697L20.4671 20.2667L20.3389 20.6001H20.0005L20.2649 20.7924ZM18.1338 21.1334L18.2649 20.7924L18.0005 20.6001H18.3389L18.4671 20.2667L18.5697 20.6001H18.9338L18.6317 20.8015L18.7338 21.1334L18.4468 20.9247L18.1338 21.1334ZM19.1338 20.3335L19.2575 19.9871L19.0005 19.8002H19.3243L19.4671 19.4002L19.5814 19.8002H19.9338L19.6378 19.9975L19.7338 20.3335L19.4468 20.1248L19.1338 20.3335ZM21.237 19.9722L21.1338 20.3335L21.4338 20.1153L21.7338 20.3335L21.6101 19.9871L21.8671 19.8002H21.5433L21.4005 19.4002L21.2862 19.8002H21.0005L21.237 19.9722Z" fill="white"/>
</svg>
