<svg width="32" height="32" viewBox="0 0 32 32" fill="none" xmlns="http://www.w3.org/2000/svg">
<g clip-path="url(#clip0)">
<path d="M-0.0212402 16C-0.0212402 24.8365 7.14221 32 15.9788 32C24.8153 32 31.9788 24.8365 31.9788 16C31.9788 7.16344 24.8153 0 15.9788 0C7.14221 0 -0.0212402 7.16344 -0.0212402 16Z" fill="#339DC7"/>
<path d="M18.468 13.9681C20.236 13.9681 20.4921 13.9121 20.4921 15.81C20.4921 17.71 20.2341 17.636 18.4661 17.636H16.446V13.964L18.468 13.9681ZM19.1 16.4481V15.1681H17.822V16.4481H19.1ZM21.7701 17.6481H20.326L22.038 13.9761H23.456L25.18 17.642H23.7381L23.5381 17.2161H21.98L21.7701 17.6481ZM22.75 15.286L22.35 16.162H23.15L22.75 15.286ZM13.02 13.9681C12.08 13.9841 12.086 14.598 12.088 15.1201C12.088 15.646 12.062 16.286 13.02 16.3V13.9681ZM13.02 16.3H14.892V16.5521H12.232V17.6401H15.1541C16.116 17.626 16.088 16.9841 16.088 16.458C16.088 15.93 16.1141 15.294 15.1541 15.278H13.204V15.03H15.804V13.97H13.004L13.02 16.3ZM4.20405 15.922L5.92405 17.644H7.18005V13.97H5.86005V15.6881L4.14005 13.97H2.90005V17.642H4.21004L4.20405 15.922ZM25.004 15.806C25.004 17.714 25.27 17.66 27.038 17.66C28.806 17.66 29.064 17.714 29.064 15.806C29.064 13.8961 28.806 13.95 27.038 13.95C25.27 13.95 25.004 13.8961 25.004 15.806ZM26.4041 16.444V15.164H27.6841V16.444H26.4041ZM28.926 18.858V17.61H27.6821V18.8561L28.926 18.858ZM8.94604 17.218H10.5L10.7 17.644H12.144L10.4181 13.97H9.00204L7.28805 17.642H8.73205L8.94604 17.218ZM10.126 16.158H9.32604L9.72603 15.282L10.126 16.158Z" fill="white"/>
</g>
<defs>
<clipPath id="clip0">
<rect width="32" height="32" fill="white"/>
</clipPath>
</defs>
</svg>
