<svg width="32" height="32" viewBox="0 0 32 32" fill="none" xmlns="http://www.w3.org/2000/svg">
<path d="M0 16C0 24.8365 7.16344 32 16 32C24.8365 32 32 24.8365 32 16C32 7.16344 24.8365 0 16 0C7.16344 0 0 7.16344 0 16Z" fill="#246DD3"/>
<path d="M15.7849 8.04888C16.1774 7.84837 16.6609 8.30489 16.4479 8.6894C16.3329 8.99391 15.8749 9.07441 15.6289 8.84191C15.3834 8.6174 15.4654 8.16888 15.7929 8.04088L15.7844 8.04838L15.7849 8.04888ZM11.5679 8.48889C11.8134 8.39289 12.1079 8.6014 12.0839 8.84991C12.1084 9.12191 11.7644 9.32992 11.5189 9.19392C11.1994 9.07391 11.2404 8.5689 11.5679 8.48889ZM20.2139 9.20242C19.8374 9.15391 19.7799 8.5934 20.1324 8.48139C20.4189 8.35289 20.6724 8.5934 20.7134 8.84991C20.6564 9.06591 20.4679 9.26642 20.2139 9.20242ZM12.5259 10.2114C12.9269 9.97144 13.4919 10.3315 13.4264 10.772C13.4104 11.229 12.7964 11.493 12.4439 11.189C12.1004 10.9485 12.1574 10.3955 12.5259 10.2114ZM18.6094 10.476C18.7894 10.0354 19.5099 10.0189 19.7144 10.444C19.9109 10.78 19.6654 11.1965 19.3054 11.309C18.8384 11.389 18.3884 10.9085 18.6094 10.476ZM15.2769 11.277C15.2769 10.9005 15.6369 10.62 16.0139 10.596C16.2594 10.644 16.5299 10.748 16.6359 10.9885C16.8324 11.317 16.6609 11.7735 16.3004 11.9335C16.1364 12.0135 15.9404 11.9815 15.7604 11.9735C15.4899 11.8455 15.2604 11.5895 15.2769 11.285V11.277ZM9.00543 11.8375C9.36543 11.6215 9.85693 12.014 9.71743 12.3985C9.64393 12.7185 9.18543 12.855 8.92343 12.6465C8.64493 12.4465 8.68593 11.974 9.00543 11.8375ZM22.4819 11.8375C22.7929 11.5975 23.3009 11.8695 23.2599 12.238C23.2844 12.5825 22.8504 12.847 22.5394 12.6705C22.2034 12.5185 22.1624 12.03 22.4819 11.8375ZM17.0454 12.5185C17.3009 12.4355 17.5762 12.4368 17.8309 12.522C18.0859 12.6075 18.3044 12.772 18.4539 12.991C18.8304 13.5195 18.6339 14.3366 18.0359 14.6411C17.4219 15.0096 16.5214 14.6971 16.2924 14.0406C16.0304 13.4475 16.4069 12.7025 17.0454 12.5185ZM14.0569 12.5745C14.6219 12.318 15.3834 12.5345 15.6534 13.087C15.9809 13.6321 15.7274 14.3851 15.1544 14.6651C14.5809 14.9856 13.7624 14.7451 13.4919 14.1606C13.1729 13.6001 13.4509 12.8305 14.0569 12.5745ZM11.0604 13.5595C11.1014 13.2075 11.4454 12.983 11.7974 12.959C12.1659 12.999 12.4604 13.279 12.5014 13.6401C12.4764 14.0001 12.1904 14.3606 11.7974 14.3606C11.3549 14.3931 10.9784 13.9681 11.0604 13.5595ZM19.9029 13.031C20.3529 12.791 20.9674 13.151 20.9509 13.6401C20.9839 14.1686 20.2959 14.5371 19.8539 14.2326C19.3869 13.9766 19.4199 13.2555 19.9029 13.031ZM12.8369 14.8811C13.0976 14.8142 13.3728 14.833 13.6219 14.9346C13.8704 15.0356 14.0779 15.2146 14.2124 15.4421C14.4989 15.9071 14.3764 16.5636 13.9424 16.9002C13.3854 17.4052 12.3539 17.1967 12.0594 16.5156C11.7154 15.8906 12.1244 15.0496 12.8369 14.8816V14.8811ZM18.5109 14.8811C19.0189 14.7371 19.6159 14.9296 19.8864 15.3701C20.2549 15.8826 20.0749 16.6516 19.5424 16.9722C18.9694 17.3572 18.1014 17.1567 17.7904 16.5556C17.4139 15.9391 17.7904 15.0656 18.5109 14.8736V14.8816V14.8811ZM9.46393 15.4501C9.91393 15.2901 10.4139 15.7706 10.2334 16.2031C10.1184 16.5956 9.54593 16.7401 9.25093 16.4431C8.89893 16.1791 9.02993 15.5706 9.46393 15.4501ZM21.7204 16.0831C21.7161 15.9951 21.7294 15.9071 21.7594 15.8243C21.7895 15.7414 21.8357 15.6654 21.8954 15.6006C22.0169 15.4681 22.1864 15.3886 22.3674 15.3781C22.6704 15.4261 22.9734 15.6666 22.9489 15.9951C22.9814 16.4196 22.4409 16.7161 22.0644 16.5076C21.8844 16.4276 21.7944 16.2511 21.7204 16.0826V16.0831ZM7.23693 15.6666C7.51493 15.5546 7.85093 15.7786 7.78543 16.0666C7.76893 16.3956 7.26943 16.5236 7.08144 16.2516C6.91744 16.0591 7.01593 15.7706 7.24493 15.6666H7.23693ZM24.3899 15.6666C24.5864 15.5306 24.8889 15.6186 24.9629 15.8346C25.0939 16.0746 24.8564 16.3956 24.5864 16.3551C24.2014 16.3876 24.0704 15.8266 24.3899 15.6586V15.6666ZM14.3109 17.2367C15.0234 17.0602 15.7929 17.6367 15.8009 18.3417C15.8419 19.0627 15.0884 19.7037 14.3519 19.5357C14.0736 19.4873 13.821 19.3429 13.6379 19.1277C13.4572 18.9153 13.3589 18.6451 13.3609 18.3662C13.3609 17.8452 13.7709 17.3487 14.3109 17.2447V17.2367ZM17.1439 17.2367C17.8724 17.0442 18.6584 17.6292 18.6504 18.3582C18.6909 19.0547 17.9544 19.6717 17.2339 19.5277C16.5624 19.4477 16.0629 18.7347 16.2514 18.1017C16.3494 17.6852 16.7099 17.3407 17.1439 17.2367ZM11.6744 17.6767C12.1819 17.5967 12.6569 18.1337 12.4444 18.5902C12.2969 19.0787 11.5594 19.2152 11.2324 18.8147C10.8474 18.4297 11.1339 17.7252 11.6744 17.6772V17.6767ZM19.9929 17.7012C20.4349 17.5167 20.9919 17.8932 20.9509 18.3582C20.9759 18.8707 20.2959 19.2312 19.8539 18.9267C19.3624 18.6542 19.4444 17.8617 19.9929 17.7012ZM22.3099 19.9442C22.1379 19.6237 22.4574 19.2072 22.8179 19.2632C22.9979 19.2632 23.1289 19.3992 23.2434 19.5192C23.2684 19.7037 23.3089 19.9202 23.1449 20.0723C22.9239 20.3368 22.4329 20.2563 22.3099 19.9442ZM8.99693 19.3512C9.33293 19.1352 9.81593 19.4632 9.74193 19.8397C9.70143 20.1848 9.25893 20.3768 8.97243 20.1848C8.66143 20.0082 8.66943 19.5117 8.99743 19.3512H8.99693ZM15.7029 20.0642C16.1449 19.8717 16.7099 20.2483 16.6689 20.7133C16.7014 21.2333 16.0059 21.5943 15.5719 21.2818C15.0804 21.0173 15.1619 20.2243 15.7029 20.0642ZM12.5914 20.7613C12.9764 20.5688 13.4839 20.8973 13.4429 21.3063C13.4594 21.6423 13.1154 21.9308 12.7799 21.8743C12.4934 21.8743 12.3049 21.6263 12.2149 21.3943C12.2149 21.1378 12.3299 20.8573 12.5999 20.7533L12.5914 20.7613ZM18.8959 20.7613C19.2809 20.5288 19.8294 20.8653 19.7964 21.2978C19.8044 21.7628 19.1824 22.0508 18.8139 21.7543C18.4699 21.5143 18.5109 20.9533 18.8959 20.7693V20.7613ZM19.9849 23.3644C19.8129 23.1243 20.0174 22.8118 20.2959 22.7558C20.5254 22.8038 20.7624 22.9638 20.7054 23.2123C20.6804 23.5569 20.1649 23.6609 19.9849 23.3724V23.3644ZM11.2979 23.1483C11.3629 22.9483 11.5269 22.7478 11.7729 22.8033C12.1329 22.8278 12.2394 23.3483 11.9279 23.5084C11.6419 23.6849 11.3224 23.4369 11.2979 23.1483ZM15.4899 23.3804C15.5549 23.0843 15.9564 22.9403 16.2184 23.1003C16.3824 23.1723 16.4394 23.3564 16.4804 23.5169L16.4154 23.7569C16.3084 23.8854 16.1694 24.0054 15.9974 23.9969C15.6619 24.0374 15.3589 23.6769 15.4899 23.3804Z" fill="white"/>
</svg>
