<svg width="32" height="32" viewBox="0 0 32 32" fill="none" xmlns="http://www.w3.org/2000/svg">
<path d="M0 16C0 24.8365 7.16344 32 16 32C24.8365 32 32 24.8365 32 16C32 7.16344 24.8365 0 16 0C7.16344 0 0 7.16344 0 16Z" fill="#EFEFEF"/>
<path d="M11.8778 21.8939C12.0778 22.2578 11.8639 22.7458 11.5018 22.7458H6.33387C5.97187 22.7458 5.75587 22.2578 5.95787 21.8939L6.99987 19.9998C7.03509 19.929 7.08879 19.8688 7.15533 19.8259C7.22185 19.7829 7.29873 19.7587 7.37787 19.7559H10.4499C10.529 19.7587 10.6059 19.7829 10.6724 19.8259C10.7389 19.8688 10.7927 19.929 10.8279 19.9998L11.8778 21.8939ZM17.9039 19.9998C17.8688 19.9293 17.8154 19.8693 17.7493 19.8264C17.6831 19.7835 17.6067 19.7591 17.5279 19.7559H14.4618C14.3828 19.7587 14.3059 19.7829 14.2393 19.8259C14.1728 19.8688 14.1191 19.929 14.0839 19.9998L13.0339 21.8939C12.8339 22.2578 13.0479 22.7458 13.4119 22.7458H18.5779C18.9399 22.7458 19.1559 22.2578 18.9539 21.8939L17.9039 19.9998ZM17.9039 11.7858C17.8688 11.7152 17.8154 11.6553 17.7493 11.6124C17.6831 11.5694 17.6067 11.5451 17.5279 11.5419H14.4618C14.3828 11.5448 14.3059 11.569 14.2393 11.6119C14.1728 11.6548 14.1191 11.715 14.0839 11.7858L13.0339 13.6798C12.8339 14.0439 13.0479 14.5319 13.4119 14.5319H18.5779C18.9399 14.5319 19.1559 14.0439 18.9539 13.6798L17.9039 11.7858ZM24.9798 19.9998C24.9445 19.9286 24.8904 19.8684 24.8235 19.8254C24.7566 19.7824 24.6793 19.7584 24.5999 19.7559H21.5379C21.4587 19.7587 21.3818 19.7829 21.3153 19.8259C21.2488 19.8688 21.1951 19.929 21.1599 19.9998L20.1098 21.8939C19.9098 22.2578 20.1238 22.7458 20.4879 22.7458H25.6538C26.0159 22.7458 26.2319 22.2578 26.0298 21.8939L24.9798 19.9998ZM21.5799 15.8919C21.5442 15.821 21.4901 15.7612 21.4231 15.7185C21.3563 15.6759 21.2791 15.6522 21.1999 15.6498H18.1319C18.053 15.6527 17.9764 15.6767 17.9098 15.7193C17.8434 15.7618 17.7895 15.8214 17.7539 15.8919L16.7039 17.7879C16.5039 18.1499 16.7199 18.6379 17.0819 18.6379H22.2479C22.6099 18.6379 22.8259 18.1499 22.6259 17.7879L21.5799 15.8919ZM14.2399 15.8919C14.2042 15.8214 14.1503 15.7618 14.0839 15.7193C14.0174 15.6767 13.9407 15.6527 13.8618 15.6498H10.7999C10.7213 15.6531 10.6451 15.6773 10.579 15.7198C10.5129 15.7623 10.4594 15.8218 10.4239 15.8919L9.37387 17.7879C9.17387 18.1499 9.38787 18.6379 9.74983 18.6379H14.9059C15.2698 18.6379 15.4858 18.1499 15.2839 17.7879L14.2399 15.8919Z" fill="#D18C74"/>
<path d="M15.9999 10.2319C15.9331 10.2319 15.869 10.2053 15.8217 10.1581C15.7745 10.1109 15.748 10.0468 15.748 9.97994V7.90593C15.748 7.8391 15.7745 7.775 15.8217 7.72775C15.869 7.68048 15.9331 7.65393 15.9999 7.65393C16.0667 7.65393 16.1308 7.68048 16.1782 7.72775C16.2254 7.775 16.252 7.8391 16.252 7.90593V9.97994C16.252 10.0468 16.2254 10.1109 16.1782 10.1581C16.1308 10.2053 16.0667 10.2319 15.9999 10.2319Z" fill="#D18C74"/>
<path d="M18.8279 10.5498C18.783 10.5494 18.739 10.5377 18.6999 10.5158C18.6426 10.4813 18.6013 10.4256 18.5849 10.3608C18.5684 10.296 18.5781 10.2274 18.6119 10.1697L19.7658 8.22578C19.8006 8.16979 19.8558 8.12963 19.9198 8.11388C19.9837 8.09812 20.0513 8.10805 20.1081 8.14151C20.1648 8.17498 20.2062 8.22933 20.2233 8.29293C20.2405 8.35652 20.2321 8.42431 20.1998 8.48178L19.0458 10.4278C19.0234 10.4655 18.9914 10.4965 18.9532 10.518C18.9149 10.5393 18.8717 10.5503 18.8279 10.5498Z" fill="#D18C74"/>
<path d="M13.16 10.5497C13.1165 10.5495 13.0739 10.5382 13.036 10.5168C12.9982 10.4955 12.9665 10.4648 12.944 10.4276L11.8 8.48166C11.7797 8.45326 11.7655 8.42095 11.7583 8.38678C11.7512 8.35262 11.7512 8.31733 11.7584 8.28318C11.7656 8.24901 11.7799 8.21673 11.8002 8.18835C11.8205 8.15998 11.8465 8.13613 11.8765 8.11834C11.9065 8.10054 11.94 8.08917 11.9746 8.08497C12.0092 8.08076 12.0444 8.0838 12.0778 8.09389C12.1112 8.10398 12.1422 8.1209 12.1688 8.14358C12.1953 8.16627 12.2168 8.19422 12.232 8.22566L13.386 10.1696C13.403 10.1982 13.4142 10.2297 13.4189 10.2625C13.4237 10.2954 13.422 10.3288 13.4138 10.3609C13.4056 10.3931 13.3912 10.4233 13.3713 10.4498C13.3514 10.4764 13.3265 10.4988 13.298 10.5156C13.2559 10.5393 13.2082 10.551 13.16 10.5497Z" fill="#D18C74"/>
<path d="M16 0.666666C24.4 0.666666 31.3334 7.6 31.3334 16C31.3334 24.4 24.4 31.3334 16 31.3334C7.6 31.3334 0.666666 24.4 0.666666 16C0.666666 7.6 7.6 0.666666 16 0.666666ZM16 0C7.2 0 0 7.2 0 16C0 24.8 7.2 32 16 32C24.8 32 32 24.8 32 16C32 7.2 24.8 0 16 0Z" fill="#999999"/>
</svg>
