<svg width="32" height="32" viewBox="0 0 32 32" fill="none" xmlns="http://www.w3.org/2000/svg">
<path d="M0 16C0 24.8365 7.16344 32 16 32C24.8365 32 32 24.8365 32 16C32 7.16344 24.8365 0 16 0C7.16344 0 0 7.16344 0 16Z" fill="#EFEFEF"/>
<path d="M16 0.666666C24.4 0.666666 31.3334 7.6 31.3334 16C31.3334 24.4 24.4 31.3334 16 31.3334C7.6 31.3334 0.666666 24.4 0.666666 16C0.666666 7.6 7.6 0.666666 16 0.666666ZM16 0C7.2 0 0 7.2 0 16C0 24.8 7.2 32 16 32C24.8 32 32 24.8 32 16C32 7.2 24.8 0 16 0Z" fill="#999999"/>
<path d="M22.284 8.64419C22.5079 8.64315 22.7224 8.55402 22.881 8.39608C23.0397 8.23813 23.1299 8.02407 23.132 7.80019V7.72219C23.1315 7.49726 23.042 7.28167 22.8832 7.12243C22.7243 6.9632 22.5089 6.87325 22.284 6.87219H9.71595C9.49111 6.87325 9.27569 6.9632 9.11683 7.12243C8.95797 7.28167 8.86852 7.49726 8.86799 7.72219V7.80019C8.86852 8.02511 8.95797 8.24071 9.11683 8.39995C9.27569 8.55918 9.49111 8.64913 9.71595 8.65019H9.77195V12.2502H9.71595C9.49139 12.2512 9.27633 12.3409 9.11752 12.4997C8.95872 12.6585 8.86904 12.8736 8.86799 13.0982V13.1782C8.86904 13.4028 8.95872 13.6178 9.11752 13.7767C9.27633 13.9355 9.49139 14.0252 9.71595 14.0262H9.77195V17.5782H9.71595C9.49139 17.5792 9.27633 17.6689 9.11752 17.8277C8.95872 17.9865 8.86904 18.2016 8.86799 18.4262V18.5062C8.86904 18.7308 8.95872 18.9458 9.11752 19.1047C9.27633 19.2635 9.49139 19.3532 9.71595 19.3542H9.77195V22.9542H9.71595C9.49176 22.9552 9.27698 23.0447 9.11823 23.2031C8.95948 23.3614 8.86957 23.5759 8.86799 23.8002V23.8782C8.86852 24.1031 8.95797 24.3187 9.11683 24.478C9.27569 24.6372 9.49111 24.7271 9.71595 24.7282H22.284C22.5089 24.7271 22.7243 24.6372 22.8832 24.478C23.042 24.3187 23.1315 24.1031 23.132 23.8782V23.8002C23.1315 23.5753 23.042 23.3597 22.8832 23.2004C22.7243 23.0412 22.5089 22.9513 22.284 22.9502H22.228V19.3502H22.284C22.5086 19.3491 22.7237 19.2594 22.8824 19.1007C23.0412 18.9419 23.1309 18.7267 23.132 18.5022V18.4222C23.1309 18.1976 23.0412 17.9825 22.8824 17.8238C22.7237 17.6649 22.5086 17.5753 22.284 17.5742H22.228V14.0222H22.284C22.5086 14.0211 22.7237 13.9314 22.8824 13.7727C23.0412 13.6139 23.1309 13.3987 23.132 13.1742V13.0942C23.1309 12.8696 23.0412 12.6545 22.8824 12.4958C22.7237 12.3369 22.5086 12.2473 22.284 12.2462H22.228V8.64619L22.284 8.64419Z" fill="#040403"/>
<path d="M16 18.69C17.7485 18.69 19.166 17.2726 19.166 15.5241C19.166 13.7754 17.7485 12.358 16 12.358C14.2515 12.358 12.834 13.7754 12.834 15.5241C12.834 17.2726 14.2515 18.69 16 18.69Z" fill="#EDA11B"/>
<path d="M17.3999 15.7621C17.3999 16.1334 17.2524 16.4894 16.9899 16.752C16.7273 17.0146 16.3713 17.1621 16 17.1621C15.6286 17.1621 15.2726 17.0146 15.01 16.752C14.7475 16.4894 14.6 16.1334 14.6 15.7621C14.6 14.99 16 13.5221 16 13.5221C16 13.5221 17.3999 15.0001 17.3999 15.7621Z" fill="#040403"/>
</svg>
