<svg width="32" height="32" viewBox="0 0 32 32" fill="none" xmlns="http://www.w3.org/2000/svg">
<mask id="mask0" mask-type="alpha" maskUnits="userSpaceOnUse" x="0" y="0" width="28" height="28">
<circle cx="14" cy="14" r="14" fill="#C4C4C4"/>
</mask>
<g mask="url(#mask0)">
<path d="M0.00524902 0H28.0052V28H0.00524902V0Z" fill="#00237C"/>
<path d="M5.89053 15.5452L6.35078 16.975L7.75427 16.443L6.92478 17.6942L8.21452 18.4608L6.72002 18.5903L6.92478 20.0777L5.89053 18.9893L4.85628 20.0777L5.06277 18.5903L3.56653 18.4608L4.85803 17.6942L4.02678 16.443L5.43203 16.975L5.89053 15.5452Z" fill="white"/>
<path d="M21.7823 18.1195L22.001 18.8002L22.6695 18.5465L22.274 19.1415L22.89 19.5072L22.1778 19.5685L22.2758 20.2772L21.7823 19.7592L21.2905 20.2772L21.3885 19.5685L20.6763 19.5072L21.2905 19.1415L20.895 18.5465L21.5635 18.8002L21.7823 18.1195Z" fill="white"/>
<path d="M17.8097 11.8282L18.0285 12.509L18.697 12.2552L18.3015 12.852L18.9157 13.216L18.2035 13.2772L18.3015 13.9859L17.8097 13.468L17.318 13.9859L17.416 13.2772L16.7037 13.216L17.318 12.852L16.9225 12.2552L17.591 12.509L17.8097 11.8282Z" fill="white"/>
<path d="M21.7823 7.52502L22.001 8.20578L22.6695 7.95204L22.274 8.54704L22.89 8.91278L22.1778 8.97403L22.2758 9.68279L21.7823 9.16477L21.2905 9.68279L21.3885 8.97403L20.6763 8.91278L21.2905 8.54704L20.895 7.95204L21.5635 8.20578L21.7823 7.52502Z" fill="white"/>
<path d="M25.3137 10.7695L25.5325 11.4503L26.2009 11.1965L25.8055 11.7915L26.4214 12.1573L25.7092 12.2185L25.8072 12.9273L25.3137 12.4093L24.822 12.9273L24.92 12.2185L24.2077 12.1573L24.822 11.7915L24.4265 11.1965L25.095 11.4503L25.3137 10.7695Z" fill="white"/>
<path d="M23.3712 13.9562L23.5445 14.3815L24.0012 14.4147L23.6512 14.7105L23.7615 15.155L23.3712 14.9135L22.9827 15.155L23.0912 14.7105L22.743 14.4147L23.1997 14.3815L23.3712 13.9562Z" fill="white"/>
<path d="M6.23699 0H8.73249V3.54027H14.9642V6.5485H8.73249V10.0887H6.23699V6.5485H0.00524902V3.53326H6.23699V0Z" fill="white"/>
<path d="M0.00524902 0H1.6765L14.9607 8.96699V10.0958H13.2825L0.00524902 1.12351V0Z" fill="white"/>
<path d="M14.9607 0H13.2825L0 8.96699V10.0958H1.67125L14.9607 1.12351V0Z" fill="white"/>
<path d="M6.73399 0H8.23024V4.21226H14.9607V5.88174H8.23024V10.0958H6.73399V5.88174H0.00524902V4.21226H6.73399V0Z" fill="#B22233"/>
<path d="M0.00524902 0L5.16424 3.54027H4.04949L0.00524902 0.752508V0ZM14.9607 0H13.846L8.86024 3.54027H9.97499L14.9607 0Z" fill="#B22233"/>
<path d="M14.9607 10.0957L9.79999 6.54846H10.9147L14.9607 9.34846V10.0957ZM0.00524902 10.0957H1.12L6.10749 6.54846H4.99275L0.00524902 10.0957Z" fill="#B22233"/>
</g>
<path d="M16 24C16 28.4183 19.5817 32 24 32C28.4183 32 32 28.4183 32 24C32 19.5817 28.4183 16 24 16C19.5817 16 16 19.5817 16 24Z" fill="white"/>
<path d="M24 16.3333C28.2 16.3333 31.6667 19.8 31.6667 24C31.6667 28.2 28.2 31.6667 24 31.6667C19.8 31.6667 16.3333 28.2 16.3333 24C16.3333 19.8 19.8 16.3333 24 16.3333ZM24 16C19.6 16 16 19.6 16 24C16 28.4 19.6 32 24 32C28.4 32 32 28.4 32 24C32 19.6 28.4 16 24 16Z" fill="#999999"/>
<path d="M24.0001 27.5C25.9331 27.5 27.5001 25.933 27.5001 24C27.5001 22.067 25.9331 20.5 24.0001 20.5C22.0671 20.5 20.5001 22.067 20.5001 24C20.5001 25.933 22.0671 27.5 24.0001 27.5Z" fill="#B22233"/>
</svg>
