<svg width="32" height="32" viewBox="0 0 32 32" fill="none" xmlns="http://www.w3.org/2000/svg">
<path d="M0 14C0 21.732 6.26801 28 14 28C21.732 28 28 21.732 28 14C28 6.26801 21.732 0 14 0C6.26801 0 0 6.26801 0 14Z" fill="#00237C"/>
<path d="M3.41873 12.4024L3.81203 13.6219H5.08747L4.05645 14.3781L4.44086 15.5975L3.41873 14.8435L2.38771 15.5975L2.78102 14.3781L1.75 13.6219H3.02321L3.41873 12.4024ZM4.46752 8.24751H3.19431L4.21866 9.0015L3.82536 10.2232L4.85638 9.46688L5.8874 10.2232L5.49409 9.0015L6.52511 8.24751H5.25634L4.86304 7.02592L4.46752 8.24751ZM8.26275 4.42598H6.98956L8.02057 5.18L7.625 6.39269L8.66271 5.64762L9.68923 6.39269L9.29376 5.17105L10.3248 4.41703H9.05159L8.66271 3.20434L8.26275 4.42598ZM13.5956 2.97164H12.3268L13.3578 3.72566L12.9645 4.94731L13.9956 4.19328L15.0266 4.94731L14.6333 3.72566L15.6643 2.97164H14.3888L13.9956 1.75L13.5956 2.97164ZM18.9284 4.42598H17.6663L18.6973 5.18L18.3018 6.39269L19.3284 5.64762L20.3638 6.39269L19.9727 5.17105L21.0015 4.41703H19.7284L19.3284 3.20434L18.9284 4.42598ZM22.7236 8.24751H21.4481L22.4792 9.0015L22.0859 10.2232L23.1169 9.46688L24.1479 10.2232L23.7724 9.0015L24.8034 8.24751H23.5303L23.1347 7.02592L22.7236 8.24751ZM24.1679 13.6174H22.8925L23.9235 14.3737L23.5502 15.5975L24.5812 14.8435L25.6123 15.5975L25.219 14.3781L26.25 13.6219H24.9745L24.5812 12.4024L24.1679 13.6174ZM4.45642 18.9872H3.19431L4.21866 19.7525L3.82536 20.9741L4.85638 20.2201L5.8874 20.9741L5.49409 19.7525L6.52511 18.9984H5.25634L4.86304 17.7768L4.45642 18.9872ZM8.26275 22.8199H6.98956L8.02057 23.574L7.625 24.7956L8.66271 24.0394L9.69373 24.7956L9.29816 23.574L10.3292 22.8199H9.05159L8.66271 21.6073L8.26275 22.8199ZM13.5956 24.2743H12.3268L13.3578 25.0283L12.9645 26.25L13.9956 25.4937L15.0266 26.25L14.6333 25.0283L15.6643 24.2743H14.3888L13.9956 23.0526L13.5956 24.2743ZM18.9284 22.8199H17.6663L18.6973 23.574L18.3018 24.7956L19.3328 24.0394L20.3638 24.7956L19.9727 23.574L21.0015 22.8199H19.7284L19.3284 21.6073L18.9284 22.8199ZM22.7236 18.9984H21.4481L22.4792 19.7525L22.0859 20.9741L23.1169 20.2201L24.1479 20.9741L23.7724 19.7525L24.8034 18.9984H23.5303L23.1347 17.7768L22.7236 18.9984Z" fill="#FFC300"/>
<mask id="mask0" mask-type="alpha" maskUnits="userSpaceOnUse" x="16" y="16" width="16" height="16">
<circle cx="24" cy="24" r="8" fill="#C4C4C4"/>
</mask>
<g mask="url(#mask0)">
<path d="M32 16H16V32H32V16Z" fill="#00237C"/>
<path d="M27.945 21.5989V22.0619L28.871 21.5989H27.945Z" fill="white"/>
<path d="M28.122 22.1419L27.85 21.7679L28.871 21.5979L28.122 22.1419Z" fill="white"/>
<path d="M27.945 21.5989V22.0619L27.019 21.5989H27.945Z" fill="white"/>
<path d="M27.768 22.1419L28.04 21.7679L27.019 21.5979L27.768 22.1419Z" fill="white"/>
<path d="M28.2311 21.807L27.7911 21.95L28.5171 22.687L28.2311 21.807Z" fill="white"/>
<path d="M27.768 22.1419L28.04 21.7679L28.517 22.6859L27.768 22.1419Z" fill="white"/>
<path d="M27.659 21.807L28.099 21.95L27.945 20.927L27.659 21.807Z" fill="white"/>
<path d="M28.2311 21.807L27.7911 21.95L27.9451 20.927L28.2311 21.807Z" fill="white"/>
<path d="M27.659 21.807L28.099 21.95L27.373 22.687L27.659 21.807Z" fill="white"/>
<path d="M28.122 22.1419L27.85 21.7679L27.373 22.6859L28.122 22.1419Z" fill="white"/>
<path d="M27.9451 21.701V22.0071L28.5571 21.701H27.9451Z" fill="#B22233"/>
<path d="M28.062 22.061L27.882 21.813L28.557 21.701L28.062 22.061Z" fill="#B22233"/>
<path d="M27.945 21.701V22.0071L27.333 21.701H27.945Z" fill="#B22233"/>
<path d="M27.828 22.061L28.008 21.813L27.333 21.701L27.828 22.061Z" fill="#B22233"/>
<path d="M28.134 21.842L27.843 21.942L28.323 22.429L28.134 21.842Z" fill="#B22233"/>
<path d="M27.828 22.0611L28.008 21.8131L28.323 22.4201L27.828 22.0611Z" fill="#B22233"/>
<path d="M27.756 21.8421L28.047 21.9421L27.947 21.2661L27.756 21.8421Z" fill="#B22233"/>
<path d="M28.134 21.8421L27.843 21.9421L27.943 21.2661L28.134 21.8421Z" fill="#B22233"/>
<path d="M27.756 21.842L28.047 21.942L27.567 22.429L27.756 21.842Z" fill="#B22233"/>
<path d="M28.062 22.0611L27.882 21.8131L27.567 22.4201L28.062 22.0611Z" fill="#B22233"/>
<path d="M30.3681 23.7419V24.1529L31.1921 23.7419H30.3681Z" fill="white"/>
<path d="M30.525 24.2229L30.283 23.8889L31.192 23.7389L30.525 24.2229Z" fill="white"/>
<path d="M30.3681 23.7419V24.1529L29.5441 23.7419H30.3681Z" fill="white"/>
<path d="M30.2111 24.2229L30.4531 23.8889L29.5441 23.7389L30.2111 24.2229Z" fill="white"/>
<path d="M30.622 23.923L30.231 24.051L30.877 24.707L30.622 23.923Z" fill="white"/>
<path d="M30.2111 24.2229L30.4531 23.8889L30.8771 24.7069L30.2111 24.2229Z" fill="white"/>
<path d="M30.1131 23.9229L30.5051 24.0509L30.3681 23.1399L30.1131 23.9229Z" fill="white"/>
<path d="M30.622 23.9229L30.231 24.0509L30.368 23.1399L30.622 23.9229Z" fill="white"/>
<path d="M30.1131 23.923L30.5051 24.051L29.8591 24.707L30.1131 23.923Z" fill="white"/>
<path d="M30.5251 24.2229L30.2831 23.8889L29.8591 24.7069L30.5251 24.2229Z" fill="white"/>
<path d="M30.368 23.8419V24.0959L30.878 23.8419H30.368Z" fill="#B22233"/>
<path d="M30.4649 24.1419L30.3149 23.9359L30.8779 23.8429L30.4649 24.1419Z" fill="#B22233"/>
<path d="M30.368 23.8419V24.0959L29.858 23.8419H30.368Z" fill="#B22233"/>
<path d="M30.271 24.1419L30.42 23.9359L29.858 23.8429L30.271 24.1419Z" fill="#B22233"/>
<path d="M30.525 23.955L30.283 24.034L30.683 24.44L30.525 23.955Z" fill="#B22233"/>
<path d="M30.271 24.1419L30.42 23.9359L30.687 24.4419L30.271 24.1419Z" fill="#B22233"/>
<path d="M30.2099 23.955L30.4529 24.034L30.3679 23.47L30.2099 23.955Z" fill="#B22233"/>
<path d="M30.5249 23.955L30.2829 24.034L30.3679 23.47L30.5249 23.955Z" fill="#B22233"/>
<path d="M30.21 23.955L30.453 24.034L30.053 24.44L30.21 23.955Z" fill="#B22233"/>
<path d="M30.465 24.1419L30.315 23.9359L30.053 24.4419L30.465 24.1419Z" fill="#B22233"/>
<path d="M25.1181 24.4419V24.9049L26.0441 24.4419H25.1181Z" fill="white"/>
<path d="M25.2951 24.987L25.0231 24.613L26.0441 24.443L25.2951 24.987Z" fill="white"/>
<path d="M25.118 24.4419V24.9049L24.192 24.4419H25.118Z" fill="white"/>
<path d="M24.941 24.987L25.213 24.613L24.192 24.443L24.941 24.987Z" fill="white"/>
<path d="M25.404 24.6509L24.964 24.7939L25.69 25.5309L25.404 24.6509Z" fill="white"/>
<path d="M24.941 24.9869L25.213 24.6129L25.69 25.5309L24.941 24.9869Z" fill="white"/>
<path d="M24.832 24.651L25.272 24.794L25.118 23.771L24.832 24.651Z" fill="white"/>
<path d="M25.404 24.651L24.964 24.794L25.118 23.771L25.404 24.651Z" fill="white"/>
<path d="M24.832 24.6509L25.272 24.7939L24.546 25.5309L24.832 24.6509Z" fill="white"/>
<path d="M25.295 24.9869L25.023 24.6129L24.546 25.5309L25.295 24.9869Z" fill="white"/>
<path d="M25.118 24.5421V24.8481L25.73 24.5421H25.118Z" fill="#B22233"/>
<path d="M25.235 24.905L25.055 24.657L25.73 24.545L25.235 24.905Z" fill="#B22233"/>
<path d="M25.1181 24.5421V24.8481L24.506 24.5421H25.1181Z" fill="#B22233"/>
<path d="M25.001 24.905L25.181 24.657L24.506 24.545L25.001 24.905Z" fill="#B22233"/>
<path d="M25.307 24.6831L25.0161 24.7771L25.496 25.2641L25.307 24.6831Z" fill="#B22233"/>
<path d="M25.0011 24.9051L25.1811 24.6571L25.4961 25.2641L25.0011 24.9051Z" fill="#B22233"/>
<path d="M24.9291 24.6831L25.2201 24.7771L25.1201 24.1011L24.9291 24.6831Z" fill="#B22233"/>
<path d="M25.307 24.6831L25.0161 24.7771L25.1161 24.1011L25.307 24.6831Z" fill="#B22233"/>
<path d="M24.9291 24.6831L25.22 24.7771L24.7401 25.2641L24.9291 24.6831Z" fill="#B22233"/>
<path d="M25.235 24.9051L25.0551 24.6571L24.7401 25.2641L25.235 24.9051Z" fill="#B22233"/>
<path d="M27.9449 28.9061V29.4201L28.9729 28.9061H27.9449Z" fill="white"/>
<path d="M28.1409 29.5101L27.8409 29.0951L28.9749 28.9061L28.1409 29.5101Z" fill="white"/>
<path d="M27.945 28.9061V29.4201L26.917 28.9061H27.945Z" fill="white"/>
<path d="M27.749 29.5101L28.049 29.0951L26.915 28.9061L27.749 29.5101Z" fill="white"/>
<path d="M28.2629 29.1421L27.7739 29.3011L28.5799 30.1191L28.2629 29.1421Z" fill="white"/>
<path d="M27.749 29.5101L28.049 29.0951L28.578 30.1141L27.749 29.5101Z" fill="white"/>
<path d="M27.627 29.142L28.116 29.301L27.9449 28.165L27.627 29.142Z" fill="white"/>
<path d="M28.2619 29.142L27.7739 29.301L27.9449 28.165L28.2619 29.142Z" fill="white"/>
<path d="M27.6269 29.1421L28.1159 29.3011L27.3099 30.1191L27.6269 29.1421Z" fill="white"/>
<path d="M28.141 29.5101L27.841 29.0951L27.312 30.1141L28.141 29.5101Z" fill="white"/>
<path d="M27.9449 29.0081V29.3651L28.6589 29.0081H27.9449Z" fill="#B22233"/>
<path d="M28.0809 29.4281L27.8709 29.1391L28.6589 29.0081L28.0809 29.4281Z" fill="#B22233"/>
<path d="M27.9449 29.0081V29.3651L27.2309 29.0081H27.9449Z" fill="#B22233"/>
<path d="M27.8089 29.4281L28.0179 29.1391L27.2309 29.0081L27.8089 29.4281Z" fill="#B22233"/>
<path d="M28.1649 29.1691L27.8259 29.2791L28.3859 29.8471L28.1649 29.1691Z" fill="#B22233"/>
<path d="M27.8089 29.428L28.0179 29.139L28.3859 29.847L27.8089 29.428Z" fill="#B22233"/>
<path d="M27.7239 29.1691L28.0639 29.2791L27.9449 28.4901L27.7239 29.1691Z" fill="#B22233"/>
<path d="M28.1648 29.1691L27.8258 29.2791L27.9448 28.4901L28.1648 29.1691Z" fill="#B22233"/>
<path d="M27.7238 29.1691L28.0638 29.2791L27.5038 29.8471L27.7238 29.1691Z" fill="#B22233"/>
<path d="M28.0808 29.428L27.8708 29.139L27.5038 29.847L28.0808 29.428Z" fill="#B22233"/>
<path d="M23.59 16L20.981 17.865V16H19.565V17.766L16.958 16H16V16.629L17.895 18.014H16V19.736H17.919L16 21.129L16.001 21.763H16.954L19.565 19.907V21.763H20.981V20.007L23.59 21.763H24.544L24.543 21.12L22.653 19.736H24.543V18.014H22.678L24.543 16.639L24.544 16H23.59Z" fill="white"/>
<path d="M24.544 18.391H20.697V16H19.84V18.391H16.001V19.265H19.84V21.763H20.697V19.265H24.544V18.391Z" fill="#B22233"/>
<path d="M18.849 18.021H18.212L16 16.429V16L18.849 18.021Z" fill="#B22233"/>
<path d="M21.059 18.02H21.703L24.546 16H23.91L21.059 18.02Z" fill="#B22233"/>
<path d="M21.697 19.7351H22.328L24.544 21.3331V21.7631L21.697 19.7351Z" fill="#B22233"/>
<path d="M19.487 19.7351H18.857L16 21.7631H16.635L19.487 19.7351Z" fill="#B22233"/>
</g>
</svg>
