<svg width="32" height="32" viewBox="0 0 32 32" fill="none" xmlns="http://www.w3.org/2000/svg">
<circle cx="14" cy="14" r="14" fill="white"/>
<path d="M14 0.58329C21.35 0.58329 27.4167 6.65 27.4167 14C27.4167 21.35 21.35 27.4167 14 27.4167C6.65 27.4167 0.58329 21.35 0.58329 14C0.58329 6.65 6.65 0.58329 14 0.58329ZM14 0C6.3 0 0 6.3 0 14C0 21.7 6.3 28 14 28C21.7 28 28 21.7 28 14C28 6.3 21.7 0 14 0Z" fill="#999999"/>
<path d="M8.57358 8.94036V6.04438H9.12379V9.92788H8.68007L6.55021 7.02635V9.92788H6V6.04438H6.44372L8.57358 8.94036Z" fill="#141528"/>
<path d="M10.2167 6.6491C10.1181 6.6491 10.0353 6.61766 9.96824 6.55478C9.90119 6.49191 9.86767 6.41609 9.86767 6.32732C9.86767 6.23856 9.90119 6.16274 9.96824 6.09986C10.0353 6.03329 10.1181 6 10.2167 6C10.3114 6 10.3922 6.03329 10.4593 6.09986C10.5263 6.16274 10.5599 6.23856 10.5599 6.32732C10.5599 6.41609 10.5263 6.49191 10.4593 6.55478C10.3922 6.61766 10.3114 6.6491 10.2167 6.6491ZM10.4711 9.92788H9.95641V7.15395H10.4711V9.92788Z" fill="#141528"/>
<path d="M12.2976 8.49653L13.759 9.92788H13.12L11.7711 8.61304V9.92788H11.2564V6.04438H11.7711V8.38003L13.049 7.15395H13.7116L12.2976 8.49653Z" fill="#141528"/>
<path d="M15.2789 8.49653L16.7402 9.92788H16.1012L14.7523 8.61304V9.92788H14.2376V6.04438H14.7523V8.38003L16.0302 7.15395H16.6929L15.2789 8.49653Z" fill="#141528"/>
<path d="M19.7871 8.76283H17.3082C17.3595 9.00693 17.4798 9.19926 17.6691 9.33981C17.8584 9.47665 18.0951 9.54508 18.379 9.54508C18.7695 9.54508 19.0535 9.41008 19.231 9.14008L19.6688 9.37309C19.3769 9.79103 18.9431 10 18.3672 10C17.9018 10 17.5192 9.86315 17.2195 9.58946C16.9276 9.30837 16.7817 8.95885 16.7817 8.54092C16.7817 8.11928 16.9256 7.77161 17.2135 7.49792C17.5015 7.22053 17.8742 7.08183 18.3317 7.08183C18.7656 7.08183 19.1186 7.22607 19.3907 7.51456C19.6668 7.79565 19.8049 8.13962 19.8049 8.54646C19.8049 8.61674 19.799 8.68886 19.7871 8.76283ZM18.3317 7.53675C18.0596 7.53675 17.8308 7.60888 17.6454 7.75312C17.464 7.89736 17.3516 8.09339 17.3082 8.34119H19.2842C19.2409 8.08599 19.1324 7.88812 18.9588 7.74757C18.7853 7.60703 18.5763 7.53675 18.3317 7.53675Z" fill="#141528"/>
<path d="M20.6569 6.6491C20.5583 6.6491 20.4754 6.61766 20.4084 6.55478C20.3413 6.49191 20.3078 6.41609 20.3078 6.32732C20.3078 6.23856 20.3413 6.16274 20.4084 6.09986C20.4754 6.03329 20.5583 6 20.6569 6C20.7515 6 20.8324 6.03329 20.8994 6.09986C20.9665 6.16274 21 6.23856 21 6.32732C21 6.41609 20.9665 6.49191 20.8994 6.55478C20.8324 6.61766 20.7515 6.6491 20.6569 6.6491ZM20.9113 9.92788H20.3965V7.15395H20.9113V9.92788Z" fill="#141528"/>
<path d="M10.8927 22.8462H6.05172V21.7143L8.52391 19.011C9.07559 18.3883 9.35143 17.8755 9.35143 17.4725C9.35143 17.1722 9.26178 16.9304 9.08248 16.7473C8.91009 16.5641 8.68597 16.4725 8.41013 16.4725C7.85845 16.4725 7.45504 16.7729 7.19989 17.3736L6 16.6264C6.22067 16.1062 6.54133 15.707 6.96198 15.4286C7.38953 15.1429 7.86535 15 8.38944 15C9.04456 15 9.60657 15.2198 10.0755 15.6593C10.5444 16.0916 10.7789 16.6777 10.7789 17.4176C10.7789 18.2161 10.3824 19.0366 9.58933 19.8791L8.17222 21.3846H10.8927V22.8462Z" fill="#141528"/>
<path d="M16.3879 22.8462H11.5469V21.7143L14.0191 19.011C14.5708 18.3883 14.8466 17.8755 14.8466 17.4725C14.8466 17.1722 14.757 16.9304 14.5777 16.7473C14.4053 16.5641 14.1812 16.4725 13.9053 16.4725C13.3537 16.4725 12.9502 16.7729 12.6951 17.3736L11.4952 16.6264C11.7159 16.1062 12.0365 15.707 12.4572 15.4286C12.8847 15.1429 13.3605 15 13.8846 15C14.5398 15 15.1018 15.2198 15.5707 15.6593C16.0396 16.0916 16.2741 16.6777 16.2741 17.4176C16.2741 18.2161 15.8776 19.0366 15.0845 19.8791L13.6674 21.3846H16.3879V22.8462Z" fill="#141528"/>
<path d="M18.783 17.956H19.5278C20.2312 17.956 20.8173 18.1795 21.2863 18.6264C21.7621 19.0659 22 19.6813 22 20.4725C22 21.2637 21.7483 21.8828 21.2449 22.3297C20.7553 22.7766 20.145 23 19.414 23C18.821 23 18.3003 22.8608 17.8521 22.5824C17.4108 22.2967 17.0901 21.8864 16.8901 21.3516L18.1107 20.5934C18.2831 21.2088 18.7175 21.5165 19.414 21.5165C19.7795 21.5165 20.0622 21.4249 20.2622 21.2418C20.4691 21.0513 20.5725 20.7949 20.5725 20.4725C20.5725 20.1575 20.4725 19.9048 20.2726 19.7143C20.0726 19.5238 19.8002 19.4286 19.4554 19.4286H17.2625L17.5521 15.1538H21.6587V16.5714H18.8761L18.783 17.956Z" fill="#141528"/>
<mask id="mask0" mask-type="alpha" maskUnits="userSpaceOnUse" x="16" y="16" width="16" height="16">
<path d="M24 32C28.4183 32 32 28.4183 32 24C32 19.5817 28.4183 16 24 16C19.5817 16 16 19.5817 16 24C16 28.4183 19.5817 32 24 32Z" fill="#006C35"/>
</mask>
<g mask="url(#mask0)">
<path d="M24 32C28.4183 32 32 28.4183 32 24C32 19.5817 28.4183 16 24 16C19.5817 16 16 19.5817 16 24C16 28.4183 19.5817 32 24 32Z" fill="white"/>
<path d="M24 27.25C25.7949 27.25 27.25 25.7949 27.25 24C27.25 22.2051 25.7949 20.75 24 20.75C22.2051 20.75 20.75 22.2051 20.75 24C20.75 25.7949 22.2051 27.25 24 27.25Z" fill="#D22F27"/>
<path d="M24 16.3333C28.2 16.3333 31.6667 19.8 31.6667 24C31.6667 28.2 28.2 31.6667 24 31.6667C19.8 31.6667 16.3333 28.2 16.3333 24C16.3333 19.8 19.8 16.3333 24 16.3333ZM24 16C19.6 16 16 19.6 16 24C16 28.4 19.6 32 24 32C28.4 32 32 28.4 32 24C32 19.6 28.4 16 24 16Z" fill="#999999"/>
</g>
</svg>
