<svg width="32" height="32" viewBox="0 0 32 32" fill="none" xmlns="http://www.w3.org/2000/svg">
<mask id="mask0" mask-type="alpha" maskUnits="userSpaceOnUse" x="0" y="0" width="28" height="28">
<path d="M0 14C0 21.732 6.26801 28 14 28C21.732 28 28 21.732 28 14C28 6.26801 21.732 0 14 0C6.26801 0 0 6.26801 0 14Z" fill="#3A4782"/>
</mask>
<g mask="url(#mask0)">
<path d="M28 0H0V28H28V0Z" fill="white"/>
<path d="M28 0H0V2.13559H28V0Z" fill="#B22233"/>
<path d="M28 4.27136H0V6.40695H28V4.27136Z" fill="#B22233"/>
<path d="M28 8.66101H0V10.7966H28V8.66101Z" fill="#B22233"/>
<path d="M28 12.932H0V15.0676H28V12.932Z" fill="#B22233"/>
<path d="M28 17.3221H0V19.4577H28V17.3221Z" fill="#B22233"/>
<path d="M28 21.5933H0V23.7288H28V21.5933Z" fill="#B22233"/>
<path d="M28 25.8644H0V28H28V25.8644Z" fill="#B22233"/>
<path d="M0 0H15.305V15.0678H0" fill="#3C3B6E"/>
<path d="M13.0509 2.195L13.5255 0.652588L14.1187 2.195L12.6949 1.24576H14.3559" fill="white"/>
<path d="M9.49164 2.195L9.96626 0.652588L10.5594 2.195L9.25439 1.24576H10.7967" fill="white"/>
<path d="M5.93231 2.195L6.52549 0.652588L7.0001 2.195L5.69507 1.24576H7.35604" fill="white"/>
<path d="M2.37299 2.195L2.96616 0.652588L3.44078 2.195L2.13574 1.24576H3.79671" fill="white"/>
<path d="M7.71198 3.73735L8.30515 2.19507L8.77977 3.73735L7.47473 2.78824H9.1357" fill="white"/>
<path d="M11.2713 3.73735L11.7459 2.19507L12.3391 3.73735L11.0341 2.78824H12.5763" fill="white"/>
<path d="M4.15265 3.73735L4.74582 2.19507L5.22044 3.73735L3.91541 2.78824H5.57637" fill="white"/>
<path d="M0.71201 3.73735L1.1865 2.19507L1.66112 3.73735L0.356079 2.78824H2.01705" fill="white"/>
<path d="M5.93231 5.16119L6.52549 3.61877L7.0001 5.16119L5.69507 4.21208H7.35604" fill="white"/>
<path d="M13.0509 5.16119L13.5255 3.61877L14.1187 5.16119L12.6949 4.21208H14.3559" fill="white"/>
<path d="M9.49164 5.16119L9.96626 3.61877L10.5594 5.16119L9.25439 4.21208H10.7967" fill="white"/>
<path d="M2.37299 5.16119L2.96616 3.61877L3.44078 5.16119L2.13574 4.21208H3.79671" fill="white"/>
<path d="M7.71198 6.70354L8.30515 5.16113L8.77977 6.70354L7.47473 5.75431H9.1357" fill="white"/>
<path d="M11.2713 6.70354L11.7459 5.16113L12.3391 6.70354L11.0341 5.75431H12.5763" fill="white"/>
<path d="M4.15265 6.70354L4.74582 5.16113L5.22044 6.70354L3.91541 5.75431H5.57637" fill="white"/>
<path d="M0.71201 6.70354L1.1865 5.16113L1.66112 6.70354L0.356079 5.75431H2.01705" fill="white"/>
<path d="M13.0509 8.24578L13.5255 6.70337L14.1187 8.24578L12.6949 7.29667H14.3559" fill="white"/>
<path d="M2.37299 14.2964L2.96616 12.7542L3.44078 14.2964L2.13574 13.3473H3.79671" fill="white"/>
<path d="M13.0509 14.2964L13.5255 12.7542L14.1187 14.2964L12.6949 13.3473H14.3559" fill="white"/>
<path d="M9.49164 14.2964L9.96626 12.7542L10.5594 14.2964L9.25439 13.3473H10.7967" fill="white"/>
<path d="M5.93231 14.2964L6.52549 12.7542L7.0001 14.2964L5.69507 13.3473H7.35604" fill="white"/>
<path d="M11.2713 12.7541L11.7459 11.2117L12.3391 12.7541L11.0341 11.8048H12.5763" fill="white"/>
<path d="M7.71198 12.7541L8.30515 11.2117L8.77977 12.7541L7.47473 11.8048H9.1357" fill="white"/>
<path d="M4.15265 12.7541L4.74582 11.2117L5.22044 12.7541L3.91541 11.8048H5.57637" fill="white"/>
<path d="M0.71201 12.7541L1.1865 11.2117L1.66112 12.7541L0.356079 11.8048H2.01705" fill="white"/>
<path d="M2.37299 11.2121L2.96616 9.66968L3.44078 11.2121L2.13574 10.2629H3.79671" fill="white"/>
<path d="M13.0509 11.2121L13.5255 9.66968L14.1187 11.2121L12.6949 10.2629H14.3559" fill="white"/>
<path d="M9.49164 11.2121L9.96626 9.66968L10.5594 11.2121L9.25439 10.2629H10.7967" fill="white"/>
<path d="M5.93231 11.2121L6.52549 9.66968L7.0001 11.2121L5.69507 10.2629H7.35604" fill="white"/>
<path d="M11.2713 9.78829L11.7459 8.1272L12.3391 9.78829L11.0341 8.83906H12.5763" fill="white"/>
<path d="M7.71198 9.78829L8.30515 8.1272L8.77977 9.78829L7.47473 8.83906H9.1357" fill="white"/>
<path d="M4.15265 9.78829L4.74582 8.1272L5.22044 9.78829L3.91541 8.83906H5.57637" fill="white"/>
<path d="M0.71201 9.78829L1.1865 8.1272L1.66112 9.78829L0.356079 8.83906H2.01705" fill="white"/>
<path d="M5.93231 8.24578L6.52549 6.70337L7.0001 8.24578L5.69507 7.29667H7.35604" fill="white"/>
<path d="M9.49164 8.24578L9.96626 6.70337L10.5594 8.24578L9.25439 7.29667H10.7967" fill="white"/>
<path d="M2.37299 8.24578L2.96616 6.70337L3.44078 8.24578L2.13574 7.29667H3.79671" fill="white"/>
</g>
<mask id="mask1" mask-type="alpha" maskUnits="userSpaceOnUse" x="16" y="16" width="16" height="16">
<circle cx="24" cy="24" r="8" fill="#C4C4C4"/>
</mask>
<g mask="url(#mask1)">
<path d="M32 16H16V32H32V16Z" fill="white"/>
<path d="M32 24H16V32H32V24Z" fill="#C61C1C"/>
<path d="M24 16.3333C28.2 16.3333 31.6667 19.8 31.6667 24C31.6667 28.2 28.2 31.6667 24 31.6667C19.8 31.6667 16.3333 28.2 16.3333 24C16.3333 19.8 19.8 16.3333 24 16.3333ZM24 16C19.6 16 16 19.6 16 24C16 28.4 19.6 32 24 32C28.4 32 32 28.4 32 24C32 19.6 28.4 16 24 16Z" fill="#999999"/>
</g>
</svg>
