<svg width="32" height="32" viewBox="0 0 32 32" fill="none" xmlns="http://www.w3.org/2000/svg">
<g clip-path="url(#clip0)">
<path fill-rule="evenodd" clip-rule="evenodd" d="M16 32C19.1645 32 22.2579 31.0616 24.8891 29.3035C27.5203 27.5454 29.5711 25.0466 30.7821 22.1229C31.9931 19.1993 32.3099 15.9823 31.6926 12.8786C31.0752 9.77486 29.5513 6.92394 27.3137 4.6863C25.0761 2.44866 22.2251 0.924806 19.1214 0.307442C16.0177 -0.309921 12.8007 0.00693303 9.87706 1.21793C6.95345 2.42894 4.45459 4.4797 2.69648 7.11088C0.938383 9.74207 0 12.8355 0 16C0.0146467 20.239 1.70506 24.3001 4.70247 27.2975C7.69988 30.2949 11.761 31.9854 16 32Z" fill="#EFEFEF"/>
<path d="M16 0.666666C24.4 0.666666 31.3334 7.6 31.3334 16C31.3334 24.4 24.4 31.3334 16 31.3334C7.6 31.3334 0.666666 24.4 0.666666 16C0.666666 7.6 7.6 0.666666 16 0.666666ZM16 0C7.2 0 0 7.2 0 16C0 24.8 7.2 32 16 32C24.8 32 32 24.8 32 16C32 7.2 24.8 0 16 0Z" fill="#999999"/>
<g clip-path="url(#clip1)">
<path d="M11.7732 14.9268H10.2832V17.1034H11.7732C12.1432 17.1034 12.6132 16.7468 12.6099 16.0501C12.6291 15.7946 12.5548 15.5409 12.4009 15.3361C12.247 15.1313 12.0239 14.9894 11.7732 14.9368" fill="#EF3E42"/>
<path d="M16.0464 15.4535C15.3598 15.4535 14.9131 15.8835 14.9131 16.4135C14.9131 16.9435 15.3598 17.3735 16.0464 17.3735C16.7331 17.3735 17.1764 16.9435 17.1764 16.4135C17.1764 15.8835 16.7331 15.4535 16.0464 15.4535Z" fill="#EF3E42"/>
<path d="M16.0129 11.3334L2.25293 16L16.0129 20.8634L29.9596 16.03L16.0129 11.3234V11.3334ZM11.8596 17.92H9.00959V17.7167C9.22959 17.7167 9.40626 17.6534 9.40626 17.58V14.4367C9.38626 14.37 9.2196 14.3134 9.00627 14.3134V14.13H11.8563C12.5796 14.13 13.4229 15.0267 13.4229 16.0634C13.4396 17.1767 12.4763 17.93 11.8596 17.93V17.92ZM16.0429 18.07C14.8296 18.07 14.0429 17.4034 14.0429 16.3567C14.0429 15.4167 14.8329 14.6467 16.0429 14.6467C17.2529 14.6467 18.0429 15.4134 18.0429 16.3567C18.0529 17.4167 17.2563 18.08 16.0429 18.08V18.07ZM23.9396 15.07C23.8694 15.0821 23.8063 15.1202 23.7629 15.1767L22.6763 17.6034C22.6763 17.7034 22.6763 17.75 22.9029 17.75V17.9634H21.4029V17.77C21.5496 17.77 21.5896 17.7267 21.5896 17.61C21.5896 17.5634 21.0663 16.2267 21.0663 16.2267L20.4529 17.56C20.4411 17.5752 20.4352 17.5942 20.4363 17.6134C20.4363 17.7367 20.4996 17.77 20.6696 17.77V17.9834H19.0496V17.77C19.1829 17.77 19.2929 17.7434 19.2929 17.6167C19.2964 17.5924 19.2964 17.5677 19.2929 17.5434L18.3896 15.21C18.3496 15.1367 18.3663 15.0834 18.1329 15.0834V14.86H19.6129V15.0834C19.4996 15.0834 19.4229 15.0834 19.4229 15.21L19.9263 16.7L20.5496 14.96H21.5763L22.2429 16.7734L22.8363 15.22C22.8363 15.15 22.8096 15.0967 22.6229 15.0934H22.5763V14.8634H24.0963V15.1034L23.9396 15.07Z" fill="#EF3E42"/>
<path d="M9.4162 17.5999C9.4162 17.6732 9.23953 17.7299 9.01953 17.7332V17.9399H11.8695C12.4862 17.9399 13.4362 17.1832 13.4362 16.0632C13.4362 15.0266 12.5929 14.1299 11.8695 14.1299H9.01953V14.3132C9.23286 14.3132 9.39954 14.3699 9.41954 14.4366V17.5799L9.4162 17.5999ZM10.2895 14.9332H11.7729C12.0236 14.9858 12.2467 15.1277 12.4006 15.3325C12.5545 15.5374 12.6287 15.7911 12.6095 16.0465C12.6095 16.7432 12.1462 17.0999 11.7729 17.0999H10.2829L10.2895 14.9332Z" fill="white"/>
<path d="M18.0537 16.3732C18.0537 15.4299 17.257 14.6632 16.0537 14.6632C14.8504 14.6632 14.0537 15.4332 14.0537 16.3732C14.0537 17.3132 14.7404 17.9865 15.8104 18.0765H16.3237C17.3704 17.9865 18.0537 17.3465 18.0537 16.3732ZM14.9137 16.4199C14.9137 15.8899 15.3604 15.4632 16.047 15.4632C16.7337 15.4632 17.177 15.8899 17.177 16.4199C17.177 16.9499 16.7337 17.3799 16.047 17.3799C15.3604 17.3799 14.9137 16.9499 14.9137 16.4365V16.4199Z" fill="white"/>
<path d="M22.6797 17.6332C22.6797 17.6332 23.7631 15.2066 23.7664 15.2066C23.8094 15.1512 23.871 15.1133 23.9397 15.0999H24.1064V14.8632H22.5864V15.1032H22.6331C22.8231 15.1032 22.8464 15.1632 22.8464 15.2299L22.2397 16.7699L21.5731 14.9566H20.5397L19.9197 16.6966L19.4131 15.2066C19.4131 15.0899 19.4897 15.0799 19.603 15.0799V14.8566H18.123V15.1032C18.3564 15.1032 18.343 15.1566 18.383 15.2299L19.2864 17.5632C19.2915 17.5874 19.2915 17.6124 19.2864 17.6366C19.2864 17.7632 19.173 17.7866 19.0397 17.7899V18.0099H20.6597V17.7932C20.4864 17.7932 20.4231 17.7599 20.4231 17.6366C20.422 17.6174 20.4279 17.5984 20.4397 17.5832L21.0531 16.2499C21.0531 16.2499 21.5764 17.5832 21.5764 17.6332C21.5764 17.7499 21.5364 17.7932 21.3897 17.7932V18.0099H22.8931V17.7699C22.6764 17.7699 22.6764 17.7332 22.6797 17.6332Z" fill="white"/>
</g>
</g>
<defs>
<clipPath id="clip0">
<rect width="32" height="32" fill="white"/>
</clipPath>
<clipPath id="clip1">
<rect width="28" height="10" fill="white" transform="translate(2 11)"/>
</clipPath>
</defs>
</svg>
