<svg width="32" height="32" viewBox="0 0 32 32" fill="none" xmlns="http://www.w3.org/2000/svg">
<mask id="mask0" mask-type="alpha" maskUnits="userSpaceOnUse" x="0" y="0" width="28" height="28">
<circle cx="14" cy="14" r="14" fill="#C4C4C4"/>
</mask>
<g mask="url(#mask0)">
<path d="M28 0H0V28H28V0Z" fill="#C61C1C"/>
<path d="M23.7772 0H4.22095V28H23.7772V0Z" fill="white"/>
<path d="M14 6.05505L12.6648 8.54355C12.5143 8.81305 12.243 8.78853 11.9648 8.63803L10.9988 8.13754L11.718 11.9596C11.8703 12.6596 11.3838 12.6595 11.144 12.3568L9.45877 10.4685L9.18401 11.4275C9.16072 11.5057 9.10897 11.5722 9.03898 11.614C8.96898 11.6558 8.88583 11.6698 8.806 11.6533L6.67451 11.2053L7.2345 13.2423C7.3535 13.6938 7.44801 13.881 7.11376 14.0018L6.35425 14.3518L10.0292 17.3268C10.1043 17.3835 10.1609 17.461 10.192 17.5498C10.2231 17.6385 10.2274 17.7344 10.2042 17.8255L9.88225 18.8755C11.1458 18.7285 12.278 18.5098 13.5433 18.375C13.6535 18.3628 13.8408 18.5501 13.8408 18.6761L13.6658 22.5383H14.28L14.1838 18.6883C14.1838 18.5588 14.3588 18.3663 14.4638 18.3785C15.7273 18.5133 16.8595 18.7285 18.123 18.879L17.8028 17.829C17.7796 17.7379 17.7839 17.642 17.815 17.5533C17.8461 17.4646 17.9027 17.387 17.9778 17.3303L21.6528 14.3553L20.8933 14.0053C20.559 13.8845 20.6518 13.6973 20.7725 13.2458L21.3325 11.2088L19.201 11.6568C19.1209 11.6734 19.0376 11.6595 18.9673 11.6177C18.897 11.5759 18.8449 11.5093 18.8213 11.431L18.5483 10.4721L16.863 12.3603C16.6233 12.6613 16.1368 12.6613 16.289 11.963L17.0082 8.14104L16.0423 8.64154C15.771 8.79204 15.4998 8.81655 15.3423 8.54705" fill="#C61C1C"/>
<path d="M14 0.583333C21.35 0.583333 27.4167 6.65 27.4167 14C27.4167 21.35 21.35 27.4167 14 27.4167C6.65 27.4167 0.583333 21.35 0.583333 14C0.583333 6.65 6.65 0.583333 14 0.583333ZM14 0C6.3 0 0 6.3 0 14C0 21.7 6.3 28 14 28C21.7 28 28 21.7 28 14C28 6.3 21.7 0 14 0Z" fill="#999999"/>
</g>
<path d="M16 24C16 28.4183 19.5817 32 24 32C28.4183 32 32 28.4183 32 24C32 19.5817 28.4183 16 24 16C19.5817 16 16 19.5817 16 24Z" fill="white"/>
<path d="M24 16.3333C28.2 16.3333 31.6667 19.8 31.6667 24C31.6667 28.2 28.2 31.6667 24 31.6667C19.8 31.6667 16.3333 28.2 16.3333 24C16.3333 19.8 19.8 16.3333 24 16.3333ZM24 16C19.6 16 16 19.6 16 24C16 28.4 19.6 32 24 32C28.4 32 32 28.4 32 24C32 19.6 28.4 16 24 16Z" fill="#999999"/>
<path d="M24.0001 27.5C25.9331 27.5 27.5001 25.933 27.5001 24C27.5001 22.067 25.9331 20.5 24.0001 20.5C22.0671 20.5 20.5001 22.067 20.5001 24C20.5001 25.933 22.0671 27.5 24.0001 27.5Z" fill="#B22233"/>
</svg>
