<svg width="32" height="32" viewBox="0 0 32 32" fill="none" xmlns="http://www.w3.org/2000/svg">
<mask id="mask0" mask-type="alpha" maskUnits="userSpaceOnUse" x="0" y="0" width="28" height="28">
<path d="M0 14C0 21.732 6.26801 28 14 28C21.732 28 28 21.732 28 14C28 6.26801 21.732 0 14 0C6.26801 0 0 6.26801 0 14Z" fill="#3A4782"/>
</mask>
<g mask="url(#mask0)">
<path d="M28 0H0V28H28V0Z" fill="white"/>
<path d="M28 0H0V2.13559H28V0Z" fill="#B22233"/>
<path d="M28 4.27136H0V6.40695H28V4.27136Z" fill="#B22233"/>
<path d="M28 8.66101H0V10.7966H28V8.66101Z" fill="#B22233"/>
<path d="M28 12.932H0V15.0676H28V12.932Z" fill="#B22233"/>
<path d="M28 17.3221H0V19.4577H28V17.3221Z" fill="#B22233"/>
<path d="M28 21.5933H0V23.7288H28V21.5933Z" fill="#B22233"/>
<path d="M28 25.8644H0V28H28V25.8644Z" fill="#B22233"/>
<path d="M0 0H15.305V15.0678H0" fill="#3C3B6E"/>
<path d="M13.0508 2.195L13.5254 0.652588L14.1186 2.195L12.6949 1.24576H14.3559" fill="white"/>
<path d="M9.49164 2.195L9.96626 0.652588L10.5594 2.195L9.25439 1.24576H10.7967" fill="white"/>
<path d="M5.93231 2.195L6.52549 0.652588L7.0001 2.195L5.69507 1.24576H7.35604" fill="white"/>
<path d="M2.37299 2.195L2.96616 0.652588L3.44078 2.195L2.13574 1.24576H3.79671" fill="white"/>
<path d="M7.71198 3.73735L8.30515 2.19507L8.77977 3.73735L7.47473 2.78824H9.1357" fill="white"/>
<path d="M11.2713 3.73735L11.7459 2.19507L12.3391 3.73735L11.0341 2.78824H12.5763" fill="white"/>
<path d="M4.15265 3.73735L4.74582 2.19507L5.22044 3.73735L3.91541 2.78824H5.57637" fill="white"/>
<path d="M0.712071 3.73735L1.18656 2.19507L1.66118 3.73735L0.35614 2.78824H2.01711" fill="white"/>
<path d="M5.93231 5.16119L6.52549 3.61877L7.0001 5.16119L5.69507 4.21208H7.35604" fill="white"/>
<path d="M13.0508 5.16119L13.5254 3.61877L14.1186 5.16119L12.6949 4.21208H14.3559" fill="white"/>
<path d="M9.49164 5.16119L9.96626 3.61877L10.5594 5.16119L9.25439 4.21208H10.7967" fill="white"/>
<path d="M2.37299 5.16119L2.96616 3.61877L3.44078 5.16119L2.13574 4.21208H3.79671" fill="white"/>
<path d="M7.71198 6.70354L8.30515 5.16113L8.77977 6.70354L7.47473 5.75431H9.1357" fill="white"/>
<path d="M11.2713 6.70354L11.7459 5.16113L12.3391 6.70354L11.0341 5.75431H12.5763" fill="white"/>
<path d="M4.15265 6.70354L4.74582 5.16113L5.22044 6.70354L3.91541 5.75431H5.57637" fill="white"/>
<path d="M0.712071 6.70354L1.18656 5.16113L1.66118 6.70354L0.35614 5.75431H2.01711" fill="white"/>
<path d="M13.0508 8.24578L13.5254 6.70337L14.1186 8.24578L12.6949 7.29667H14.3559" fill="white"/>
<path d="M2.37299 14.2964L2.96616 12.7542L3.44078 14.2964L2.13574 13.3473H3.79671" fill="white"/>
<path d="M13.0508 14.2964L13.5254 12.7542L14.1186 14.2964L12.6949 13.3473H14.3559" fill="white"/>
<path d="M9.49164 14.2964L9.96626 12.7542L10.5594 14.2964L9.25439 13.3473H10.7967" fill="white"/>
<path d="M5.93231 14.2964L6.52549 12.7542L7.0001 14.2964L5.69507 13.3473H7.35604" fill="white"/>
<path d="M11.2713 12.7541L11.7459 11.2117L12.3391 12.7541L11.0341 11.8048H12.5763" fill="white"/>
<path d="M7.71198 12.7541L8.30515 11.2117L8.77977 12.7541L7.47473 11.8048H9.1357" fill="white"/>
<path d="M4.15265 12.7541L4.74582 11.2117L5.22044 12.7541L3.91541 11.8048H5.57637" fill="white"/>
<path d="M0.712071 12.7541L1.18656 11.2117L1.66118 12.7541L0.35614 11.8048H2.01711" fill="white"/>
<path d="M2.37299 11.2121L2.96616 9.66968L3.44078 11.2121L2.13574 10.2629H3.79671" fill="white"/>
<path d="M13.0508 11.2121L13.5254 9.66968L14.1186 11.2121L12.6949 10.2629H14.3559" fill="white"/>
<path d="M9.49164 11.2121L9.96626 9.66968L10.5594 11.2121L9.25439 10.2629H10.7967" fill="white"/>
<path d="M5.93231 11.2121L6.52549 9.66968L7.0001 11.2121L5.69507 10.2629H7.35604" fill="white"/>
<path d="M11.2713 9.78829L11.7459 8.1272L12.3391 9.78829L11.0341 8.83906H12.5763" fill="white"/>
<path d="M7.71198 9.78829L8.30515 8.1272L8.77977 9.78829L7.47473 8.83906H9.1357" fill="white"/>
<path d="M4.15265 9.78829L4.74582 8.1272L5.22044 9.78829L3.91541 8.83906H5.57637" fill="white"/>
<path d="M0.712071 9.78829L1.18656 8.1272L1.66118 9.78829L0.35614 8.83906H2.01711" fill="white"/>
<path d="M5.93231 8.24578L6.52549 6.70337L7.0001 8.24578L5.69507 7.29667H7.35604" fill="white"/>
<path d="M9.49164 8.24578L9.96626 6.70337L10.5594 8.24578L9.25439 7.29667H10.7967" fill="white"/>
<path d="M2.37299 8.24578L2.96616 6.70337L3.44078 8.24578L2.13574 7.29667H3.79671" fill="white"/>
</g>
<mask id="mask1" mask-type="alpha" maskUnits="userSpaceOnUse" x="16" y="16" width="16" height="16">
<circle cx="24" cy="24" r="8" fill="#C4C4C4"/>
</mask>
<g mask="url(#mask1)">
<path d="M32 16H16V32H32V16Z" fill="#C61C1C"/>
<path d="M24.039 23.776C21.513 22.708 22.633 19.419 25.048 19.584C24.56 19.835 24.489 20.304 24.768 20.738C25.08 21.224 24.739 22.006 24.317 22.196C23.617 22.509 23.483 23.342 24.039 23.776Z" fill="white"/>
<path d="M23.9019 21.4001L23.7599 21.6231L23.7089 21.3641L23.4529 21.2981L23.6829 21.1681L23.6669 20.9041L23.8609 21.0841L24.1069 20.9841L23.9969 21.2241L24.1649 21.4241L23.9019 21.4001Z" fill="#DE2910"/>
<path d="M24.0531 23.748C23.8899 23.6544 23.7473 23.5287 23.6341 23.3785C23.5208 23.2283 23.4392 23.0567 23.3941 22.874C23.3333 22.6524 23.3192 22.4205 23.3526 22.1932C23.386 21.9658 23.4662 21.7478 23.5881 21.553L23.5351 21.52C23.4087 21.7221 23.3257 21.9482 23.2913 22.184C23.2569 22.4199 23.2718 22.6603 23.3351 22.89C23.381 23.0818 23.4661 23.262 23.585 23.4192C23.7039 23.5765 23.8541 23.7075 24.0261 23.804L24.0531 23.748Z" fill="#DE2910"/>
<path d="M24.041 23.776C24.276 21.044 27.751 21.093 28.341 23.441C27.951 23.054 27.484 23.131 27.157 23.531C26.791 23.978 25.942 23.895 25.631 23.552C25.119 22.989 24.283 23.114 24.042 23.776H24.041Z" fill="white"/>
<path d="M26.2581 22.912L26.0021 22.846L26.2331 22.717L26.2171 22.453L26.4111 22.633L26.6571 22.533L26.5471 22.773L26.7151 22.973L26.4521 22.942L26.3101 23.165L26.2581 22.912Z" fill="#DE2910"/>
<path d="M24.072 23.781C24.1103 23.5963 24.1857 23.4213 24.2937 23.2666C24.4016 23.1119 24.5398 22.9807 24.7 22.881C24.8921 22.755 25.1082 22.6701 25.3347 22.6317C25.5612 22.5933 25.7932 22.6023 26.016 22.658L26.031 22.597C25.7998 22.5392 25.5591 22.53 25.3242 22.5699C25.0892 22.6098 24.8651 22.6981 24.666 22.829C24.4982 22.9323 24.3533 23.0689 24.2405 23.2304C24.1276 23.3919 24.0492 23.5749 24.01 23.768L24.072 23.781Z" fill="#DE2910"/>
<path d="M24.0422 23.779C26.7132 23.158 27.7422 26.479 25.6892 27.764C25.9372 27.273 25.7182 26.852 25.2372 26.664C24.6992 26.455 24.5152 25.621 24.7452 25.219C25.1232 24.558 24.7452 23.802 24.0452 23.778L24.0422 23.779Z" fill="white"/>
<path d="M25.5482 25.62L25.5322 25.3571L25.7262 25.5361L25.9732 25.4361L25.8622 25.6771L26.0302 25.8771L25.7672 25.845L25.6252 26.0681L25.5742 25.8091L25.3182 25.7431L25.5482 25.62Z" fill="#DE2910"/>
<path d="M24.0462 23.81C24.2333 23.7896 24.4226 23.8073 24.6026 23.8624C24.7826 23.9174 24.9495 24.0084 25.0932 24.13C25.2727 24.2734 25.4205 24.4525 25.5272 24.656C25.6339 24.8594 25.6972 25.0828 25.7132 25.312H25.7752C25.7588 25.0741 25.6933 24.8422 25.5826 24.631C25.4719 24.4198 25.3185 24.2339 25.1322 24.085C24.9818 23.9565 24.8064 23.8605 24.6171 23.8032C24.4277 23.7458 24.2286 23.7284 24.0322 23.752L24.0462 23.81Z" fill="#DE2910"/>
<path d="M24.039 23.78C25.455 26.128 22.616 28.132 20.759 26.58C21.302 26.664 21.634 26.326 21.659 25.811C21.692 25.234 22.427 24.802 22.881 24.897C23.626 25.052 24.229 24.46 24.034 23.782L24.039 23.78Z" fill="white"/>
<path d="M22.753 25.7821L22.999 25.6821L22.889 25.9221L23.057 26.1221L22.794 26.0911L22.652 26.3141L22.601 26.0551L22.345 25.9891L22.575 25.8591L22.559 25.5961L22.753 25.7821Z" fill="#DE2910"/>
<path d="M24.011 23.794C24.0887 23.9664 24.1306 24.1528 24.1341 24.3419C24.1375 24.5311 24.1024 24.7189 24.031 24.894C23.9496 25.1087 23.8247 25.3043 23.6641 25.4685C23.5036 25.6327 23.3108 25.7619 23.098 25.848L23.121 25.906C23.342 25.817 23.5422 25.683 23.7088 25.5126C23.8755 25.3422 24.0049 25.139 24.089 24.916C24.1642 24.7339 24.201 24.5382 24.1972 24.3412C24.1934 24.1442 24.1491 23.9501 24.067 23.771L24.011 23.794Z" fill="#DE2910"/>
<path d="M24.037 23.7781C22.242 25.8501 19.459 23.7691 20.363 21.5231C20.451 22.0651 20.874 22.2771 21.374 22.1461C21.932 21.9991 22.574 22.5651 22.621 23.0261C22.704 23.7831 23.453 24.1721 24.037 23.7781Z" fill="white"/>
<path d="M21.7361 23.174L21.9041 23.374L21.6421 23.3431L21.4991 23.5661L21.4481 23.3061L21.1921 23.2401L21.4231 23.1111L21.4071 22.847L21.6021 23.0321L21.8481 22.9321L21.7361 23.174Z" fill="#DE2910"/>
<path d="M24.016 23.756C23.8762 23.8821 23.7124 23.9788 23.5344 24.0401C23.3564 24.1015 23.1679 24.1263 22.9801 24.113C22.7499 24.1027 22.5243 24.0447 22.3177 23.9426C22.1112 23.8405 21.9281 23.6966 21.7801 23.52L21.7321 23.56C21.8855 23.7426 22.075 23.8915 22.2888 23.9973C22.5025 24.1032 22.7358 24.1637 22.974 24.175C23.1705 24.1903 23.368 24.1648 23.5541 24.1003C23.7403 24.0358 23.9112 23.9336 24.0561 23.8L24.016 23.756Z" fill="#DE2910"/>
</g>
</svg>
