<svg width="32" height="32" viewBox="0 0 32 32" fill="none" xmlns="http://www.w3.org/2000/svg">
<mask id="mask0" mask-type="alpha" maskUnits="userSpaceOnUse" x="0" y="0" width="28" height="28">
<circle cx="14" cy="14" r="14" fill="#C4C4C4"/>
</mask>
<g mask="url(#mask0)">
<path d="M0 0V28H28V0H0Z" fill="#00237C"/>
<path d="M28 2.16664L17.864 9.51186V0H10.2375V9.51359L0 2.11765V7.25597L4.018 10.1384H0V17.7986H4.0985L0 20.7213V25.8264L10.2375 18.4427V28H17.864V18.4444L28 25.7791V20.674L23.9995 17.7986H28V10.1384H24.08L28 7.30322V2.16664Z" fill="white"/>
<path d="M28 11.6918H16.324V0H11.7407V11.6918H0V16.275H11.7407V28H16.324V16.275H28V11.6918Z" fill="#B22233"/>
<path d="M8.75 9.625H5.27753L0 5.84919V3.5L8.75 9.625Z" fill="#B22233"/>
<path d="M20.125 17.5H23.0855L28 21.3663V23.625L20.125 17.5Z" fill="#B22233"/>
<path d="M18.375 9.625H21.8194L28 5.10284V2.625L18.375 9.625Z" fill="#B22233"/>
<path d="M9.625 17.5H6.38414L0 22.794V25.375L9.625 17.5Z" fill="#B22233"/>
</g>
<mask id="mask1" mask-type="alpha" maskUnits="userSpaceOnUse" x="16" y="16" width="16" height="16">
<circle cx="24" cy="24" r="8" fill="#C4C4C4"/>
</mask>
<g mask="url(#mask1)">
<path d="M16.0029 16H32.0029V32H16.0029V16Z" fill="#00237C"/>
<path d="M19.366 24.8831L19.629 25.7001L20.431 25.3961L19.957 26.1111L20.694 26.5491L19.84 26.6231L19.957 27.4731L19.366 26.8511L18.775 27.4731L18.893 26.6231L18.038 26.5491L18.776 26.1111L18.301 25.3961L19.104 25.7001L19.366 24.8831Z" fill="white"/>
<path d="M28.4471 26.354L28.5721 26.743L28.9541 26.598L28.7281 26.938L29.0801 27.147L28.6731 27.182L28.7291 27.587L28.4471 27.291L28.1661 27.587L28.2221 27.182L27.8151 27.147L28.1661 26.938L27.9401 26.598L28.3221 26.743L28.4471 26.354Z" fill="white"/>
<path d="M26.1769 22.759L26.3019 23.148L26.6839 23.0031L26.4579 23.344L26.8089 23.552L26.4019 23.587L26.4579 23.992L26.1769 23.696L25.8959 23.992L25.9519 23.587L25.5449 23.552L25.8959 23.344L25.6699 23.0031L26.0519 23.148L26.1769 22.759Z" fill="white"/>
<path d="M28.4471 20.3L28.5721 20.689L28.9541 20.5441L28.7281 20.8841L29.0801 21.0931L28.6731 21.1281L28.7291 21.5331L28.4471 21.237L28.1661 21.5331L28.2221 21.1281L27.8151 21.0931L28.1661 20.8841L27.9401 20.5441L28.3221 20.689L28.4471 20.3Z" fill="white"/>
<path d="M30.4649 22.1541L30.5899 22.5431L30.9719 22.3981L30.7459 22.738L31.0979 22.9471L30.6909 22.982L30.7469 23.387L30.4649 23.0911L30.1839 23.387L30.2399 22.982L29.8329 22.9471L30.1839 22.738L29.9579 22.3981L30.3399 22.5431L30.4649 22.1541Z" fill="white"/>
<path d="M29.355 23.975L29.454 24.218L29.715 24.237L29.515 24.406L29.578 24.66L29.355 24.522L29.133 24.66L29.195 24.406L28.996 24.237L29.257 24.218L29.355 23.975Z" fill="white"/>
<path d="M19.5639 16H20.9899V18.023H24.5509V19.742H20.9899V21.765H19.5639V19.742H16.0029V18.019H19.5639V16Z" fill="white"/>
<path d="M16.0029 16H16.9579L24.5489 21.124V21.769H23.5899L16.0029 16.642V16Z" fill="white"/>
<path d="M24.549 16H23.59L16 21.124V21.769H16.955L24.549 16.642V16Z" fill="white"/>
<path d="M19.8479 16H20.7029V18.407H24.5489V19.361H20.7029V21.769H19.8479V19.361H16.0029V18.407H19.8479V16Z" fill="#B22233"/>
<path d="M16.0029 16L18.9509 18.023H18.3139L16.0029 16.43V16ZM24.5489 16H23.9119L21.0629 18.023H21.6999L24.5489 16Z" fill="#B22233"/>
<path d="M24.5489 21.7689L21.5999 19.7419H22.2369L24.5489 21.3419V21.7689ZM16.0029 21.7689H16.6399L19.4899 19.7419H18.8529L16.0029 21.7689Z" fill="#B22233"/>
</g>
</svg>
