<svg width="32" height="32" viewBox="0 0 32 32" fill="none" xmlns="http://www.w3.org/2000/svg">
<path d="M0 16C0 24.8365 7.16344 32 16 32C24.8365 32 32 24.8365 32 16C32 7.16344 24.8365 0 16 0C7.16344 0 0 7.16344 0 16Z" fill="#EC1C24"/>
<path d="M24.296 18.656L24.22 18.724C24.11 18.822 23.998 18.924 23.864 18.874C23.8452 18.8637 23.829 18.8492 23.8168 18.8315C23.8046 18.8137 23.7968 18.7933 23.7941 18.772C23.8114 18.4942 23.8936 18.2243 24.0341 17.984L24.0661 17.918C24.416 17.334 24.822 16.648 25.4181 16.17C25.4598 16.1286 25.5117 16.0988 25.5686 16.0837C25.6254 16.0686 25.6853 16.0687 25.742 16.084C25.759 16.0985 25.7729 16.1162 25.7829 16.1361C25.7928 16.1561 25.7987 16.1777 25.8 16.2C25.7968 16.2207 25.7908 16.241 25.782 16.26C25.614 16.53 25.456 16.812 25.302 17.084C25.0125 17.6359 24.678 18.163 24.302 18.66L24.296 18.656ZM21.064 17.28C20.9427 17.2528 20.8312 17.1925 20.7422 17.1055C20.6532 17.0187 20.5901 16.9087 20.56 16.788C20.5407 16.6476 20.5658 16.5045 20.6318 16.379C20.6978 16.2535 20.8014 16.1517 20.928 16.088C20.9748 16.0525 21.0292 16.0286 21.0869 16.0182C21.1446 16.0077 21.2039 16.0111 21.26 16.028C21.3033 16.0637 21.337 16.1097 21.3579 16.1617C21.3789 16.2138 21.3865 16.2702 21.38 16.326C21.3782 16.4003 21.3721 16.4744 21.3621 16.548V16.564C21.2942 16.8142 21.1947 17.0549 21.0661 17.28H21.064ZM19.524 18.8C19.4856 18.7405 19.4662 18.6708 19.468 18.6C19.468 18.156 19.936 17.362 20.268 16.93C20.41 17.1997 20.6411 17.4118 20.9221 17.53C20.6821 18.064 19.86 19.206 19.5221 18.808L19.524 18.8ZM25.34 18.88C25.262 18.934 25.14 18.892 25.19 18.768C25.3362 18.4333 25.5101 18.1116 25.71 17.806L26.8661 15.756H26.0661C26.028 15.818 25.948 15.956 25.948 15.956C25.8932 15.871 25.8258 15.7948 25.748 15.73C25.6414 15.6798 25.5237 15.6576 25.406 15.6657C25.2885 15.6738 25.1749 15.7117 25.076 15.776C24.224 16.274 23.604 17.256 23.1141 18.024C23.1141 18.024 22.598 18.876 22.3141 18.94C22.0901 18.958 22.1141 18.656 22.1141 18.586C22.2134 18.092 22.3774 17.6131 22.6021 17.162C23.0647 16.8398 23.5019 16.4829 23.91 16.094C24.5893 15.4573 25.1988 14.75 25.728 13.984C25.6395 14 25.5499 14.0093 25.46 14.012C24.748 15.012 23.2901 16.448 22.86 16.664C23.06 16.192 24.32 13.946 25.3941 12.864L25.564 12.702C25.8261 12.446 26.096 12.184 26.308 12.14C26.3301 12.14 26.36 12.14 26.384 12.192C26.3836 12.3741 26.3316 12.5523 26.2341 12.706L26.116 12.95C26.2098 12.9321 26.3026 12.9094 26.3941 12.882C26.5605 12.6365 26.638 12.3416 26.614 12.046C26.6059 11.9959 26.5822 11.9497 26.5463 11.9137C26.5104 11.8779 26.4642 11.8541 26.414 11.846C26.094 11.786 25.744 12.022 25.462 12.216H25.4501C24.004 13.35 22.782 14.982 21.716 17.216C21.5859 17.2893 21.4371 17.3228 21.288 17.312C21.4227 17.0501 21.5247 16.7727 21.592 16.486C21.6054 16.3952 21.6127 16.3037 21.614 16.212C21.6225 16.1163 21.6068 16.02 21.5683 15.932C21.5299 15.8439 21.4699 15.7669 21.3941 15.708C21.2937 15.6672 21.1859 15.648 21.0776 15.6518C20.9695 15.6557 20.8632 15.6823 20.766 15.73C20.0021 16.048 19.432 16.83 19.02 17.474C18.7688 17.8882 18.5986 18.3463 18.518 18.824C18.4741 19.224 18.5621 19.472 18.7861 19.598C18.8895 19.635 18.9999 19.6486 19.1093 19.6375C19.2186 19.6264 19.3241 19.5911 19.4181 19.534C20.192 19.134 20.732 18.312 21.158 17.564C21.3064 17.5631 21.4544 17.5484 21.6 17.52C21.6 17.554 21.4981 17.826 21.4981 17.826C21.228 18.626 21.0981 19.156 21.358 19.474C21.7221 19.926 22.326 19.46 22.816 18.844C22.712 19.582 23.094 19.696 23.384 19.644C23.72 19.554 24.092 19.196 24.2661 19.014C24.2101 19.228 24.224 19.614 24.5301 19.65C24.7301 19.69 24.894 19.576 25.0741 19.478C25.7221 19.126 26.4981 17.95 26.7 17.61H26.436C26.15 18.042 25.7861 18.61 25.326 18.88H25.34ZM15.356 14.48H16.0981L16.518 13.8H15.776L15.356 14.48ZM27.206 12.68C26.6518 13.0312 25.998 13.1919 25.344 13.138C25.144 13.358 24.956 13.588 24.7781 13.822C25.7781 14.076 26.83 13.512 27.42 12.976C27.8072 12.6315 28.1266 12.2177 28.3621 11.756C28.0232 12.1205 27.6315 12.4319 27.2 12.68H27.206ZM20.968 12.508C20.8501 13.86 19.798 14.654 19.5381 14.718C19.382 14.75 19.112 14.68 19.352 14.118C19.6844 13.3796 20.2454 12.7675 20.952 12.372C20.9618 12.4189 20.9618 12.4671 20.952 12.514L20.968 12.508ZM18.92 15.908C18.8793 15.8261 18.8152 15.7582 18.7357 15.7131C18.6563 15.6678 18.5652 15.6473 18.4741 15.654C17.856 15.71 17.2501 16.218 16.932 16.95C16.7628 17.3227 16.656 17.7207 16.616 18.128C16.9032 17.7997 17.2536 17.5324 17.646 17.342C17.6993 17.0203 17.8259 16.715 18.016 16.45C18.132 16.276 18.366 15.994 18.63 16.07C18.8581 16.146 18.7781 16.782 18.472 17.398C18.2417 17.8557 17.93 18.2678 17.552 18.614C17.2421 18.876 16.7861 19.194 16.3861 18.948C16.134 18.8 16.004 18.488 16.032 18.084C16.152 16.942 16.672 15.97 17.416 14.862C18.184 13.832 19.03 12.776 20.168 12.212C20.2626 12.1559 20.368 12.1204 20.4774 12.108C20.5866 12.0957 20.6973 12.1065 20.8021 12.14C20.1279 12.5386 19.5802 13.1196 19.222 13.816C19.094 14.092 18.912 14.466 19.094 14.796C19.1347 14.8627 19.1948 14.9154 19.2664 14.9469C19.3379 14.9783 19.4174 14.9871 19.494 14.972C20.118 14.828 20.5221 14.244 20.852 13.71C21.0657 13.3239 21.1895 12.8946 21.214 12.454C21.214 12.4 21.214 12.328 21.214 12.274C21.512 12.116 22.124 12.396 22.124 12.396C22.604 12.554 23.622 13.334 23.966 13.484C24.132 13.284 24.408 12.996 24.566 12.848L24.34 12.71C23.982 12.492 23.6021 12.282 23.228 12.078C22.9452 11.9108 22.6288 11.8085 22.3016 11.7784C21.9744 11.7483 21.6446 11.7912 21.336 11.904L21.06 12C20.8 11.714 20.372 11.742 20.06 11.818C18.926 12.144 17.872 12.938 16.742 14.316C15.908 15.4 15.4 16.33 15.118 17.252C14.9061 17.872 14.8421 18.782 15.358 19.324C15.798 19.782 16.38 19.682 16.792 19.524C17.6821 19.084 18.484 18.14 18.8821 17.052C18.9781 16.728 19.0821 16.272 18.92 15.922V15.908ZM9.04405 14.868L8.89205 15.216C8.87005 15.234 8.83605 15.216 8.79805 15.216L8.73005 15.2C8.63503 15.1769 8.54709 15.1309 8.47389 15.0661C8.40069 15.0013 8.34444 14.9196 8.31005 14.828C8.24205 14.502 8.52005 14.246 8.64405 14.154C8.69945 14.1089 8.76678 14.081 8.83781 14.0735C8.90883 14.0661 8.98049 14.0795 9.04405 14.112C9.11032 14.193 9.1445 14.2955 9.14005 14.4C9.13241 14.5594 9.10003 14.7165 9.04405 14.866V14.868ZM8.72205 15.522C8.72277 15.5307 8.72277 15.5393 8.72205 15.548L8.38205 16.102C8.18048 16.4157 7.91378 16.6825 7.60005 16.884C7.50605 16.916 7.37405 16.936 7.30805 16.854C7.16605 16.684 7.23805 16.454 7.29805 16.254L7.32005 16.186C7.49983 15.7423 7.73575 15.3236 8.02205 14.94H8.03405C8.10975 15.0717 8.21132 15.1868 8.33266 15.2781C8.45398 15.3696 8.59256 15.4355 8.74005 15.472C8.73801 15.4845 8.73397 15.4967 8.72805 15.508L8.72205 15.522ZM12.972 15.156C13.1912 14.855 13.4255 14.5653 13.6741 14.288C14.036 13.97 14.182 14.11 14.1941 14.21C13.856 14.81 13.456 15.51 13.08 16.134L12.9621 16.312C12.8184 16.5671 12.6119 16.7812 12.3621 16.934C12.338 16.9421 12.3125 16.945 12.2872 16.9421C12.262 16.9394 12.2377 16.9311 12.2161 16.918C12.1922 16.9021 12.1734 16.8797 12.1617 16.8535C12.15 16.8273 12.146 16.7984 12.15 16.77C12.166 16.57 12.364 15.98 12.976 15.156H12.972ZM9.20005 13.782C8.73005 13.474 7.78805 14.062 7.03405 15.07C6.34405 15.976 6.04605 17.028 6.37005 17.514C6.85205 18.086 7.74805 17.254 8.12805 16.808L8.17805 16.756C8.4262 16.4673 8.64464 16.1545 8.83005 15.822C8.83005 15.822 9.00805 15.528 9.01805 15.514C9.12805 15.494 9.26005 15.462 9.41807 15.42C9.41807 15.42 8.84605 16.382 8.90405 16.858C8.92205 17.002 8.90405 17.532 9.42409 17.692C10.1141 17.808 10.6641 17.274 11.148 16.798C11.148 16.798 11.232 16.72 11.278 16.674L11.2501 16.786C11.0501 17.486 11.3201 17.634 11.4901 17.688C12.004 17.838 12.6181 17.088 12.62 17.088C12.604 17.324 12.558 17.518 12.806 17.674C12.9197 17.6989 13.0376 17.6972 13.1504 17.6686C13.2632 17.6402 13.3678 17.5859 13.456 17.51C14.104 17.054 14.628 16.338 15.056 15.71H14.7781C14.7781 15.71 14.1141 16.668 13.684 16.876C13.684 16.876 13.606 16.916 13.5621 16.876C13.518 16.836 13.528 16.73 13.5621 16.66L15.2181 13.8H14.438C14.438 13.8 14.352 13.938 14.344 13.948C14.336 13.958 14.328 13.92 14.318 13.908C13.8341 13.238 12.7381 14.268 11.918 15.462C11.5896 15.9536 11.2064 16.4065 10.7761 16.812C10.7761 16.812 10.1541 17.382 9.88809 16.972C9.81233 16.7899 9.80668 16.5861 9.87209 16.4C10.1512 15.5627 10.6516 14.8164 11.32 14.24C11.3776 14.182 11.4499 14.1405 11.529 14.12C11.6083 14.0996 11.6916 14.101 11.7701 14.124C11.8106 14.1547 11.8379 14.1997 11.8465 14.2499C11.8551 14.3001 11.8441 14.3516 11.8161 14.394C11.7522 14.389 11.688 14.3982 11.6281 14.421C11.5684 14.4439 11.5144 14.4797 11.47 14.526C11.3902 14.5898 11.3303 14.6751 11.2973 14.7719C11.2644 14.8685 11.2598 14.9727 11.284 15.072C11.564 15.472 12.1221 14.672 12.084 14.204C12.0807 14.121 12.0572 14.0399 12.0158 13.9678C11.9744 13.8957 11.9161 13.8348 11.846 13.79C11.7345 13.7357 11.612 13.7075 11.488 13.7075C11.364 13.7075 11.2416 13.7357 11.1301 13.79C10.7772 13.9731 10.4617 14.2207 10.2001 14.52C9.88602 14.866 9.34805 15.25 9.18005 15.206C9.23405 15.06 9.69007 14.13 9.21205 13.782H9.20005ZM13.132 18.814C12.212 18.214 10.964 18.118 8.95005 18.676C6.80405 19.18 6.08805 19.504 5.15005 18.854C4.78805 18.536 4.65805 18.022 4.75005 17.284C4.97405 16.084 5.58005 14.918 6.65605 13.63C7.25605 12.96 7.81405 12.386 8.55005 12.156C9.11405 12.01 9.06205 12.454 8.99405 12.518C8.89321 12.5148 8.79348 12.5397 8.70605 12.59C8.6251 12.6493 8.55723 12.7247 8.50666 12.8114C8.45608 12.8982 8.42388 12.9943 8.41205 13.094C8.40005 13.486 8.80005 13.4 8.97805 13.2C9.15605 13 9.44602 12.494 9.22605 12.062C9.17738 11.9835 9.11234 11.9164 9.03537 11.8653C8.9584 11.8142 8.87131 11.7804 8.78005 11.766C8.10605 11.726 7.47805 12.048 6.89805 12.402C5.65053 13.2592 4.66367 14.4441 4.04605 15.826C3.71605 16.626 3.41605 17.786 3.86405 18.724C4.21205 19.376 4.93005 19.724 5.79005 19.648C6.40392 19.5614 7.01177 19.4365 7.61005 19.274C8.10005 19.156 10.6101 18.294 11.43 19.794C11.5288 19.6281 11.6692 19.4907 11.8371 19.3953C12.0051 19.2999 12.1949 19.2498 12.388 19.25C13.092 19.2253 13.7839 19.4365 14.3541 19.85C14.1541 19.554 13.598 19.118 13.132 18.816V18.814Z" fill="white"/>
</svg>
