<svg width="32" height="32" viewBox="0 0 32 32" fill="none" xmlns="http://www.w3.org/2000/svg">
<path d="M0 16C0 24.8365 7.16344 32 16 32C24.8365 32 32 24.8365 32 16C32 7.16344 24.8365 0 16 0C7.16344 0 0 7.16344 0 16Z" fill="#EFEFEF"/>
<path d="M16 0.666666C24.4 0.666666 31.3334 7.6 31.3334 16C31.3334 24.4 24.4 31.3334 16 31.3334C7.6 31.3334 0.666666 24.4 0.666666 16C0.666666 7.6 7.6 0.666666 16 0.666666ZM16 0C7.2 0 0 7.2 0 16C0 24.8 7.2 32 16 32C24.8 32 32 24.8 32 16C32 7.2 24.8 0 16 0Z" fill="#999999"/>
<path d="M7.12207 7.24406L9.60009 23.9181C9.62983 24.1163 9.72979 24.2973 9.88179 24.4279C10.0337 24.5586 10.2276 24.6304 10.428 24.6301H16.3681C16.5692 24.6313 16.764 24.56 16.9169 24.4292C17.0696 24.2985 17.1703 24.1169 17.2001 23.9181L19.678 7.24406C19.6959 7.12502 19.6879 7.00352 19.6544 6.88789C19.621 6.77225 19.563 6.6652 19.4843 6.57404C19.4057 6.48289 19.3084 6.40979 19.1989 6.35974C19.0894 6.3097 18.9704 6.28388 18.8501 6.28406H7.95007C7.82969 6.28388 7.7107 6.3097 7.60123 6.35974C7.49176 6.40979 7.39438 6.48289 7.31576 6.57404C7.23714 6.6652 7.17913 6.77225 7.1457 6.88789C7.11228 7.00352 7.10422 7.12502 7.12207 7.24406Z" fill="white"/>
<path d="M11.106 23.6322H15.776C15.8794 23.6322 15.9794 23.5948 16.0574 23.5267C16.1353 23.4587 16.186 23.3648 16.2 23.2623L17.722 12.3382C17.7303 12.2776 17.7255 12.2159 17.708 12.1572C17.6904 12.0986 17.6607 12.0444 17.6205 11.9982C17.5804 11.9521 17.5309 11.9149 17.4753 11.8894C17.4197 11.8639 17.3592 11.8505 17.298 11.8502H9.584C9.52273 11.8502 9.46212 11.8633 9.40635 11.8887C9.35058 11.9141 9.3009 11.9513 9.26071 11.9975C9.22051 12.0438 9.19071 12.0981 9.17334 12.1569C9.15597 12.2157 9.15143 12.2775 9.16002 12.3382L10.68 23.2623C10.6945 23.365 10.7456 23.4589 10.8238 23.5269C10.9021 23.5949 11.0024 23.6322 11.106 23.6322Z" fill="#FF9C00"/>
<path d="M19.198 25.548C22.304 25.548 24.822 23.0301 24.822 19.924C24.822 16.8181 22.304 14.3 19.198 14.3C16.0919 14.3 13.574 16.8181 13.574 19.924C13.574 23.0301 16.0919 25.548 19.198 25.548Z" fill="#EFEFEF"/>
<path d="M19.198 25.096C22.0534 25.096 24.368 22.7813 24.368 19.926C24.368 17.0707 22.0534 14.756 19.198 14.756C16.3427 14.756 14.028 17.0707 14.028 19.926C14.028 22.7813 16.3427 25.096 19.198 25.096Z" fill="#FF9C00"/>
<path d="M19.198 24.6299C21.7959 24.6299 23.902 22.5239 23.902 19.9259C23.902 17.328 21.7959 15.2219 19.198 15.2219C16.6001 15.2219 14.494 17.328 14.494 19.9259C14.494 22.5239 16.6001 24.6299 19.198 24.6299Z" fill="#FFEC9A"/>
<path d="M19.0459 19.2L17.5999 16.2C17.546 16.088 17.642 16 17.7499 15.96C18.6794 15.6027 19.7084 15.6027 20.6379 15.96C20.7679 16.0201 20.8379 16.088 20.7899 16.2L19.3479 19.2C19.3348 19.229 19.3135 19.2535 19.2867 19.2707C19.2599 19.2879 19.2288 19.2971 19.197 19.2971C19.1651 19.2971 19.1339 19.2879 19.1072 19.2707C19.0805 19.2535 19.0592 19.229 19.0459 19.2Z" fill="#FF9C00"/>
<path d="M19.7381 19.4164L21.198 16.4165C21.252 16.3065 21.374 16.3305 21.478 16.3865C21.8989 16.6433 22.2729 16.9699 22.584 17.3524C22.8845 17.7435 23.1171 18.1823 23.272 18.6505C23.304 18.7885 23.2981 18.8905 23.1781 18.9165L19.924 19.6525C19.8934 19.6596 19.8613 19.6578 19.8315 19.6474C19.8018 19.6369 19.7756 19.6183 19.7561 19.5936C19.7366 19.5688 19.7245 19.539 19.7213 19.5076C19.7181 19.4763 19.7239 19.4447 19.7381 19.4164Z" fill="#FF9C00"/>
<path d="M19.964 20.0261L23.22 19.308C23.34 19.2821 23.398 19.3921 23.42 19.508C23.5516 20.4908 23.3166 21.4875 22.76 22.308C22.672 22.42 22.588 22.4781 22.492 22.4001L19.892 20.308C19.8709 20.2874 19.8555 20.2616 19.8476 20.2333C19.8396 20.2049 19.8392 20.1749 19.8466 20.1463C19.8538 20.1177 19.8685 20.0916 19.8891 20.0704C19.9097 20.0493 19.9356 20.0341 19.964 20.0261Z" fill="#FF9C00"/>
<path d="M19.686 20.6003L22.286 22.6902C22.382 22.7662 22.33 22.8902 22.254 22.9702C21.5717 23.6933 20.6452 24.1374 19.654 24.2163C19.514 24.2163 19.416 24.1882 19.416 24.0643V20.7302C19.4167 20.6992 19.4259 20.669 19.4426 20.6428C19.4595 20.6167 19.4831 20.5958 19.5111 20.5823C19.5391 20.5688 19.5702 20.5634 19.6011 20.5666C19.632 20.5698 19.6614 20.5813 19.686 20.6003Z" fill="#FF9C00"/>
<path d="M18.6519 19.4158L17.1999 16.4177C17.146 16.3077 17.0219 16.3317 16.9179 16.3877C16.0592 16.8945 15.4182 17.7009 15.1179 18.6517C15.0859 18.7898 15.092 18.8917 15.2139 18.9178L18.466 19.6517C18.4967 19.6589 18.5287 19.6572 18.5585 19.6467C18.5882 19.6363 18.6144 19.6176 18.6339 19.5928C18.6534 19.5681 18.6654 19.5383 18.6686 19.5069C18.6718 19.4755 18.6661 19.4439 18.6519 19.4158Z" fill="#FF9C00"/>
<path d="M18.432 20.0261L15.176 19.308C15.056 19.2821 14.998 19.3921 14.976 19.508C14.8411 20.4909 15.0764 21.4888 15.636 22.308C15.724 22.42 15.808 22.4781 15.904 22.4001L18.504 20.308C18.5251 20.2874 18.5404 20.2616 18.5484 20.2333C18.5564 20.2049 18.5567 20.1749 18.5495 20.1463C18.5421 20.1177 18.5274 20.0916 18.5068 20.0704C18.4862 20.0493 18.4604 20.0341 18.432 20.0261Z" fill="#FF9C00"/>
<path d="M18.732 20.6002L16.132 22.6902C16.036 22.7661 16.088 22.8902 16.166 22.9702C16.8485 23.6932 17.775 24.1372 18.766 24.2162C18.908 24.2162 19.006 24.1882 19.006 24.0642V20.7302C19.0059 20.6985 18.9969 20.6674 18.9799 20.6406C18.9629 20.6138 18.9386 20.5923 18.91 20.5788C18.8813 20.5651 18.8494 20.5599 18.8179 20.5637C18.7864 20.5676 18.7566 20.5802 18.732 20.6002Z" fill="#FF9C00"/>
</svg>
