<!-- by TradingView --><svg width="18" height="18" xmlns="http://www.w3.org/2000/svg"><path fill="#E84242" d="M0 0h18v18H0z"/><path d="M7.123 9.08c-.115-.224-.3-.224-.415 0l-.726 1.518c-.115.22-.02.402.207.402h1.44c.23 0 .325-.183.21-.402l-.716-1.519zm-.842-1.628l-.378-.743-.161-.318c-.115-.223-.3-.223-.414 0l-2.19 4.207c-.116.223-.02.402.21.402h1.055c.19 0 .427-.15.523-.336L6.28 8.12a.846.846 0 000-.67zm7.805 1.628c-.115-.224-.3-.224-.415 0l-.726 1.518c-.115.22-.02.402.207.402h1.44c.23 0 .326-.183.21-.402l-.716-1.519zm-.842-1.65l-.378-.743-.16-.318c-.116-.224-.3-.224-.415 0l-2.101 4.229c-.115.223-.02.402.21.402h1.053c.19 0 .427-.15.522-.337l1.27-2.568a.824.824 0 000-.666zM11.32 6.402c.116-.223.02-.402-.21-.402H9.67c-.23 0-.322.18-.207.402l.727 1.401c.115.22.302.22.414 0l.717-1.4zM9.763 9.764l-.378.743-.161.318c-.116.223-.3.223-.415 0L6.705 6.402C6.59 6.18 6.685 6 6.915 6h1.056c.19 0 .427.15.523.337l1.269 2.758a.832.832 0 010 .67z" fill="#fff"/></svg>