<svg id="Layer_1" data-name="Layer 1" xmlns="http://www.w3.org/2000/svg" viewBox="0 0 362.39 430.64"><defs><style>.cls-1{fill:#4f4c4b;opacity:0.99;}.cls-2{fill:#2caae2;}.cls-3{fill:#fff;}</style></defs><rect class="cls-1" width="362.39" height="430.64"/><polygon class="cls-2" points="33.95 214.44 41.94 202.41 51.58 202.41 43.99 214.44 33.95 214.44"/><polygon class="cls-2" points="65.72 190.61 49.73 215.64 59.78 215.64 76.18 190.61 65.72 190.61"/><polygon class="cls-3" points="49.73 215.64 59.78 215.64 37.64 247.89 27.69 247.89 49.73 215.64"/><polygon class="cls-3" points="65.21 215.28 76.18 214.44 59.37 239.83 48.71 239.83 65.21 215.28"/><polygon class="cls-2" points="87.25 182.75 98.05 182.75 76.18 214.44 65.21 215.28 87.25 182.75"/><polygon class="cls-3" points="80.55 215.64 72.76 227.56 83.56 227.56 91.63 215.28 80.55 215.64"/><path class="cls-2" d="M109.4,214.58h-7.23V195.2h7c4.09,0,6.14,2.22,6.14,4.92a4.53,4.53,0,0,1-3.39,4.48,4.83,4.83,0,0,1,3.84,4.78C115.71,212.3,113.4,214.58,109.4,214.58Zm-.5-17.3h-4.2v6.29H109c2.37,0,3.73-1.17,3.73-3.15S111.37,197.28,108.9,197.28Zm.19,8.37H104.7v6.84h4.47c2.51,0,4-1.25,4-3.36S111.57,205.65,109.09,205.65Z"/><path class="cls-2" d="M120.63,197.25v6.48h7.06v2.09h-7.06v6.67h7.9v2.09H118.1V195.17h10.43v2.08Z"/><path class="cls-2" d="M130.7,209.41h2.69c.17,1.61,1.31,3.22,4,3.22,2.45,0,3.89-1.39,3.89-3.22,0-5.23-10.48-1.89-10.48-9.1,0-3.2,2.58-5.37,6.42-5.37s6.12,2,6.43,5h-2.78c-.17-1.3-1.4-2.78-3.76-2.81-2.09-.05-3.73,1-3.73,3.12,0,5,10.46,1.89,10.46,9.07,0,2.75-2.25,5.47-6.45,5.47C133.51,214.77,130.75,212.61,130.7,209.41Z"/><path class="cls-2" d="M158.39,195.2v2.05h-5.28v17.33h-2.53V197.25h-5.31V195.2Z"/><path class="cls-3" d="M110.31,240.48h-8.37V221.07h8c4.06,0,6.32,2.12,6.32,5a4.48,4.48,0,0,1-3.31,4.45,4.71,4.71,0,0,1,3.75,4.7C116.71,238.31,114.35,240.48,110.31,240.48Zm-.91-16.27h-3.56v4.87h3.56c1.83,0,2.89-.83,2.89-2.42S111.23,224.21,109.4,224.21Zm.27,7.88h-3.83v5.22h3.92c1.89,0,3-.91,3-2.55S111.57,232.09,109.67,232.09Z"/><path class="cls-3" d="M133,227a5.6,5.6,0,0,1-4.43,5.59l4.65,7.87h-4.51l-4.28-7.56H122.6v7.56h-3.89V221.07H126C130.67,221.07,133,223.77,133,227Zm-7.15-2.72H122.6V230h3.26c2.17,0,3.14-1.14,3.14-2.89S128,224.3,125.86,224.3Z"/><path class="cls-3" d="M134.48,230.72a9.94,9.94,0,1,1,10,10A9.75,9.75,0,0,1,134.48,230.72Zm15.88,0c0-3.95-2.42-6.42-5.93-6.42s-6,2.47-6,6.42,2.42,6.48,6,6.48S150.36,234.67,150.36,230.72Z"/><path class="cls-3" d="M171.8,221.07l-8,9.62,8.23,9.79H167.1L160,231.83v8.65h-3.89V221.07H160v8.71l7.07-8.71Z"/><path class="cls-3" d="M177.36,224.21v4.87h6.53v3.09h-6.53v5.14h7.37v3.17H173.47V221h11.26v3.17Z"/><path class="cls-3" d="M201.44,227a5.59,5.59,0,0,1-4.42,5.59l4.64,7.87h-4.5l-4.28-7.56H191v7.56h-3.89V221.07h7.28C199.11,221.07,201.44,223.77,201.44,227Zm-7.15-2.72H191V230h3.25c2.17,0,3.15-1.14,3.15-2.89S196.46,224.3,194.29,224.3Z"/><path class="cls-3" d="M208.86,234.89H213a2.66,2.66,0,0,0,2.94,2.59c1.84,0,2.92-1,2.92-2.36,0-4.2-10-1.67-10-8.71,0-3.5,2.84-5.62,6.84-5.62s6.7,2,7,5.54h-4.28a2.56,2.56,0,0,0-2.78-2.31c-1.53-.06-2.67.7-2.67,2.28,0,3.89,10,1.72,10,8.57,0,3.06-2.45,5.81-6.87,5.81C212,240.68,208.92,238.57,208.86,234.89Z"/><path class="cls-3" d="M224.24,230.72a9.95,9.95,0,1,1,10,10A9.76,9.76,0,0,1,224.24,230.72Zm15.88,0c0-3.95-2.42-6.42-5.92-6.42s-5.95,2.47-5.95,6.42,2.42,6.48,5.95,6.48S240.12,234.67,240.12,230.72Z"/><path class="cls-3" d="M249.8,237.4h6.4v3.08H245.9V221.07h3.9Z"/><path class="cls-3" d="M261.39,221.07v12c0,2.67,1.45,4.06,3.93,4.06s3.94-1.39,3.94-4.06v-12h3.93v12c0,5.12-3.67,7.62-7.93,7.62s-7.76-2.5-7.76-7.62v-12Z"/><path class="cls-3" d="M289,221.07v3.14h-5.18v16.27H280V224.21H274.8v-3.14Z"/><path class="cls-3" d="M294.65,221.07v19.41h-3.89V221.07Z"/><path class="cls-3" d="M296.43,230.72a9.95,9.95,0,1,1,10,10A9.76,9.76,0,0,1,296.43,230.72Zm15.88,0c0-3.95-2.42-6.42-5.92-6.42s-5.95,2.47-5.95,6.42,2.42,6.48,5.95,6.48S312.31,234.67,312.31,230.72Z"/><path class="cls-3" d="M334.7,240.48h-3.9L322,227.16v13.32h-3.9V221H322l8.81,13.35V221h3.9Z"/></svg>