<svg id="Layer_1" data-name="Layer 1" xmlns="http://www.w3.org/2000/svg" viewBox="0 0 362.39 430.64"><defs><style>.cls-1{fill:#4f4c4b;opacity:0.99;}.cls-2{fill:#2caae2;}.cls-3{fill:#fff;}</style></defs><rect class="cls-1" width="362.39" height="430.64"/><polygon class="cls-2" points="79.43 210.49 88.09 197.46 98.53 197.46 90.31 210.49 79.43 210.49"/><polygon class="cls-2" points="113.85 184.68 96.53 211.8 107.41 211.8 125.18 184.68 113.85 184.68"/><polygon class="cls-3" points="96.53 211.8 107.41 211.8 83.43 246.73 72.65 246.73 96.53 211.8"/><polygon class="cls-3" points="113.3 211.41 125.18 210.49 106.97 238 95.42 238 113.3 211.41"/><polygon class="cls-2" points="137.18 176.16 148.87 176.16 125.18 210.49 113.3 211.41 137.18 176.16"/><polygon class="cls-3" points="129.92 211.8 121.48 224.7 133.18 224.7 141.91 211.41 129.92 211.8"/><path class="cls-2" d="M161.16,191.11h-7.83v-21h7.53c4.43,0,6.66,2.41,6.66,5.33a4.91,4.91,0,0,1-3.68,4.85,5.24,5.24,0,0,1,4.16,5.18C168,188.64,165.5,191.11,161.16,191.11Zm-.54-18.73h-4.55v6.81h4.61c2.56,0,4-1.27,4-3.41S163.3,172.38,160.62,172.38Zm.21,9.07h-4.76v7.4h4.85c2.71,0,4.34-1.35,4.34-3.64S163.51,181.45,160.83,181.45Z"/><path class="cls-2" d="M173.33,172.35v7H181v2.26h-7.65v7.22h8.56v2.26h-11.3v-21h11.3v2.26Z"/><path class="cls-2" d="M184.24,185.51h2.92c.18,1.75,1.42,3.5,4.34,3.5,2.65,0,4.22-1.51,4.22-3.5,0-5.66-11.36-2-11.36-9.85,0-3.46,2.8-5.81,7-5.81,4,0,6.62,2.2,7,5.39h-3c-.18-1.42-1.5-3-4.06-3-2.26-.06-4,1.11-4,3.37,0,5.42,11.33,2.05,11.33,9.82,0,3-2.44,5.94-7,5.94C187.28,191.33,184.3,189,184.24,185.51Z"/><path class="cls-2" d="M214.24,170.12v2.23h-5.72v18.76h-2.74V172.35H200v-2.23Z"/><path class="cls-3" d="M162.16,219.18h-9.07v-21h8.68c4.39,0,6.83,2.29,6.83,5.42a4.84,4.84,0,0,1-3.58,4.82,5.1,5.1,0,0,1,4.06,5.09C169.08,216.83,166.52,219.18,162.16,219.18Zm-1-17.62h-3.85v5.27h3.85c2,0,3.14-.91,3.14-2.62S163.15,201.56,161.16,201.56Zm.3,8.52h-4.15v5.66h4.24c2,0,3.26-1,3.26-2.77S163.51,210.08,161.46,210.08Z"/><path class="cls-3" d="M186.74,204.6a6.07,6.07,0,0,1-4.79,6.05l5,8.53H182.1l-4.64-8.2h-2v8.2h-4.21v-21h7.89C184.21,198.15,186.74,201.07,186.74,204.6ZM179,201.65h-3.53v6.17H179c2.35,0,3.4-1.23,3.4-3.13S181.35,201.65,179,201.65Z"/><path class="cls-3" d="M188.34,208.6a10.77,10.77,0,1,1,10.78,10.79A10.56,10.56,0,0,1,188.34,208.6Zm17.19,0c0-4.27-2.62-6.95-6.41-6.95s-6.45,2.68-6.45,6.95,2.62,7,6.45,7S205.53,212.88,205.53,208.6Z"/><path class="cls-3" d="M228.76,198.15l-8.67,10.42L229,219.18h-5.33L216,209.81v9.37H211.8v-21H216v9.43l7.65-9.43Z"/><path class="cls-3" d="M234.79,201.56v5.27h7.08v3.34h-7.08v5.57h8v3.44h-12.2V198.12h12.2v3.44Z"/><path class="cls-3" d="M260.87,204.6a6.06,6.06,0,0,1-4.78,6.05l5,8.53h-4.88L251.6,211h-2v8.2h-4.22v-21h7.89C258.34,198.15,260.87,201.07,260.87,204.6Zm-7.74-2.95h-3.52v6.17h3.52c2.35,0,3.41-1.23,3.41-3.13S255.48,201.65,253.13,201.65Z"/><path class="cls-3" d="M152.55,241.18h4.52a2.89,2.89,0,0,0,3.19,2.81c2,0,3.16-1.06,3.16-2.56,0-4.55-10.84-1.81-10.81-9.43,0-3.8,3.07-6.09,7.41-6.09s7.26,2.2,7.53,6h-4.64a2.77,2.77,0,0,0-3-2.5c-1.66-.06-2.89.75-2.89,2.47,0,4.21,10.78,1.86,10.78,9.27,0,3.32-2.65,6.3-7.44,6.3C156,247.45,152.61,245.16,152.55,241.18Z"/><path class="cls-3" d="M169.21,236.67A10.77,10.77,0,1,1,180,247.45,10.56,10.56,0,0,1,169.21,236.67Zm17.2,0c0-4.28-2.62-7-6.42-7s-6.45,2.68-6.45,7,2.62,7,6.45,7S186.41,240.94,186.41,236.67Z"/><path class="cls-3" d="M196.89,243.9h6.93v3.34H192.67v-21h4.22Z"/><path class="cls-3" d="M209.45,226.21v13c0,2.89,1.57,4.39,4.25,4.39s4.28-1.5,4.28-4.39v-13h4.24v13c0,5.54-4,8.25-8.58,8.25s-8.4-2.71-8.4-8.25v-13Z"/><path class="cls-3" d="M239.4,226.21v3.41h-5.61v17.62h-4.21V229.62H224v-3.41Z"/><path class="cls-3" d="M245.48,226.21v21h-4.21v-21Z"/><path class="cls-3" d="M247.41,236.67a10.77,10.77,0,1,1,10.78,10.78A10.56,10.56,0,0,1,247.41,236.67Zm17.2,0c0-4.28-2.62-7-6.42-7s-6.44,2.68-6.44,7,2.62,7,6.44,7S264.61,240.94,264.61,236.67Z"/><path class="cls-3" d="M288.86,247.24h-4.22l-9.55-14.43v14.43h-4.21V226.18h4.21l9.55,14.46V226.18h4.22Z"/></svg>