<svg width="32" height="32" viewBox="0 0 32 32" fill="none" xmlns="http://www.w3.org/2000/svg">
<path d="M14.0001 27.7667C6.41682 27.7667 0.233398 21.5834 0.233398 14C0.233398 6.41669 6.41682 0.349976 14.0001 0.349976C21.5834 0.349976 27.7668 6.41669 27.7668 14C27.7668 21.5834 21.5834 27.7667 14.0001 27.7667Z" fill="white"/>
<g clip-path="url(#clip0)">
<path d="M7.01562 15.0031C9.47688 16.3023 12.0451 17.6622 14.0287 18.7144L20.9844 15.0031C18.4658 18.722 16.3676 21.8179 14.0287 25.2443C11.6859 21.8255 9.09852 18.0534 7.01562 15.0031ZM7.28315 13.9775L14.0363 10.3954L20.7016 13.9509L14.0401 17.5368L7.28315 13.9775ZM14.0287 9.24821L7.01562 12.9177L13.9981 2.75635L20.9844 12.9405L14.0287 9.24821Z" fill="#3AB83A"/>
<path d="M14.0286 18.7162L20.9843 15.005C18.4658 18.7238 14.0286 25.2461 14.0286 25.2461V18.7162ZM14.0363 10.3972L20.7015 13.9528L14.0401 17.5387L14.0363 10.3972ZM14.0286 9.25004L13.998 2.75818L20.9843 12.9423L14.0286 9.25004Z" fill="#0B8311"/>
<path d="M7.2832 13.9792L14.0364 14.53L20.7016 13.9564L14.0402 17.5423L7.2832 13.9792Z" fill="#0B8311"/>
<path d="M14.0361 14.53L20.7014 13.9564L14.04 17.5423L14.0361 14.53Z" fill="#146714"/>
</g>
<path d="M14 0.58329C21.35 0.58329 27.4167 6.65 27.4167 14C27.4167 21.35 21.35 27.4167 14 27.4167C6.65 27.4167 0.58329 21.35 0.58329 14C0.58329 6.65 6.65 0.58329 14 0.58329ZM14 0C6.3 0 0 6.3 0 14C0 21.7 6.3 28 14 28C21.7 28 28 21.7 28 14C28 6.3 21.7 0 14 0Z" fill="#999999"/>
<circle cx="24" cy="24" r="8" fill="white"/>
<path fill-rule="evenodd" clip-rule="evenodd" d="M31.9778 24.6C31.9925 24.4019 32 24.2018 32 24C32 23.7982 31.9925 23.5981 31.9778 23.4H16.0222C16.0075 23.5981 16 23.7982 16 24C16 24.2018 16.0075 24.4019 16.0222 24.6H31.9778ZM31.781 25.8668H16.219C16.3178 26.2801 16.4487 26.6811 16.6089 27.0668H31.3911C31.5513 26.6811 31.6822 26.2801 31.781 25.8668ZM30.7684 28.2667H17.2316C17.5028 28.696 17.8137 29.0977 18.1592 29.4667H29.8408C30.1863 29.0977 30.4972 28.696 30.7684 28.2667ZM28.4234 30.6669H19.5766C20.8436 31.5092 22.3645 32 24 32C25.6355 32 27.1564 31.5092 28.4234 30.6669ZM16.2033 22.2002H31.7967C31.7018 21.7871 31.5748 21.3862 31.4186 21.0002H16.5814C16.4252 21.3862 16.2982 21.7871 16.2033 22.2002ZM17.2313 19.7336H30.7687C30.4975 19.3043 30.1866 18.9026 29.8412 18.5336H18.1588C17.8134 18.9026 17.5025 19.3043 17.2313 19.7336ZM18.9713 17.7778H29.0287C27.6548 16.666 25.9052 16 24 16C22.0948 16 20.3452 16.666 18.9713 17.7778Z" fill="#B22233"/>
<path fill-rule="evenodd" clip-rule="evenodd" d="M24 16C19.5817 16 16 19.5817 16 24H24V16Z" fill="#112999"/>
<path fill-rule="evenodd" clip-rule="evenodd" d="M23.394 16.0227C23.3988 16.0223 23.4035 16.022 23.4082 16.0216L23.5434 16.4H23.8672L23.6101 16.587L23.7338 16.9333L23.4208 16.7247L23.1338 16.9333L23.2298 16.5973L22.9338 16.4H23.2862L23.394 16.0227ZM21.1626 16.518C21.2864 16.471 21.4117 16.427 21.5383 16.3861L21.5433 16.4H21.8671L21.6101 16.587L21.7338 16.9333L21.4338 16.7152L21.1338 16.9333L21.237 16.5721L21.1626 16.518ZM17.132 19.8959C17.1512 19.8638 17.1706 19.8319 17.1902 19.8002H17.3243L17.4671 19.4002L17.5814 19.8002H17.9338L17.6378 19.9975L17.7338 20.3335L17.4468 20.1248L17.1338 20.3335L17.2575 19.9871L17.132 19.8959ZM16.1518 22.4434C16.1591 22.4066 16.1666 22.3699 16.1743 22.3333H16.3389L16.4671 22L16.5697 22.3333H16.8671L16.6241 22.5101L16.7338 22.8667L16.4338 22.6485L16.1338 22.8667L16.2649 22.5257L16.1518 22.4434ZM16.5748 21.0178C16.5978 20.9606 16.6214 20.9037 16.6457 20.8472L16.7338 21.1334L16.5748 21.0178ZM16.7013 20.7207C16.7195 20.6803 16.738 20.6401 16.7568 20.6001H16.8671L16.7013 20.7207ZM20.2649 17.3925L20.1338 17.7334L20.4338 17.5153L20.7338 17.7334L20.6241 17.3769L20.8671 17.2001H20.5697L20.4671 16.8668L20.3389 17.2001H20.0005L20.2649 17.3925ZM22.1338 17.7334L22.236 17.4015L21.9338 17.2001H22.2979L22.4005 16.8668L22.5287 17.2001H22.8672L22.6027 17.3925L22.7338 17.7334L22.4208 17.5247L22.1338 17.7334ZM19.2649 18.2592L19.1338 18.6002L19.4468 18.3915L19.7338 18.6002L19.6317 18.2683L19.9338 18.0669H19.5697L19.4671 17.7335L19.3389 18.0669H19.0005L19.2649 18.2592ZM23.1338 18.6002L23.236 18.2683L22.9338 18.0669H23.2979L23.4005 17.7335L23.5287 18.0669H23.8672L23.6027 18.2592L23.7338 18.6002L23.4208 18.3915L23.1338 18.6002ZM21.2435 18.2436L21.1338 18.6002L21.4338 18.382L21.7338 18.6002L21.6026 18.2592L21.8671 18.0669H21.5287L21.4005 17.7335L21.2979 18.0669H21.0005L21.2435 18.2436ZM20.1338 19.4667L20.2649 19.1257L20.0005 18.9334H20.3389L20.4671 18.6001L20.5697 18.9334H20.8671L20.6241 19.1102L20.7338 19.4667L20.4338 19.2485L20.1338 19.4667ZM22.236 19.1348L22.1338 19.4667L22.4208 19.258L22.7338 19.4667L22.6027 19.1257L22.8672 18.9334H22.5287L22.4005 18.6001L22.2979 18.9334H21.9338L22.236 19.1348ZM18.1338 19.4667L18.2649 19.1257L18.0005 18.9334H18.3389L18.4671 18.6001L18.5697 18.9334H18.9338L18.6317 19.1348L18.7338 19.4667L18.4468 19.258L18.1338 19.4667ZM23.2298 19.9975L23.1338 20.3335L23.4208 20.1248L23.7338 20.3335L23.6101 19.9871L23.8672 19.8002H23.5434L23.4005 19.4002L23.2862 19.8002H22.9338L23.2298 19.9975ZM17.1338 23.7334L17.2649 23.3924L17.0005 23.2001H17.3389L17.4671 22.8668L17.5697 23.2001H17.8671L17.6241 23.3768L17.7338 23.7334L17.4338 23.5152L17.1338 23.7334ZM23.236 23.4015L23.1338 23.7334L23.4208 23.5247L23.7338 23.7334L23.6027 23.3924L23.8672 23.2001H23.5287L23.4005 22.8668L23.2979 23.2001H22.9338L23.236 23.4015ZM21.1338 23.7334L21.2435 23.3768L21.0005 23.2001H21.2979L21.4005 22.8668L21.5287 23.2001H21.8671L21.6026 23.3924L21.7338 23.7334L21.4338 23.5152L21.1338 23.7334ZM19.2649 23.3924L19.1338 23.7334L19.4338 23.5152L19.7338 23.7334L19.6241 23.3768L19.8671 23.2001H19.5697L19.4671 22.8668L19.3389 23.2001H19.0005L19.2649 23.3924ZM22.1338 22.8667L22.236 22.5348L21.9338 22.3333H22.2979L22.4005 22L22.5287 22.3333H22.8672L22.6027 22.5257L22.7338 22.8667L22.4208 22.658L22.1338 22.8667ZM20.2649 22.5257L20.1338 22.8667L20.4338 22.6485L20.7338 22.8667L20.6241 22.5101L20.8671 22.3333H20.5697L20.4671 22L20.3389 22.3333H20.0005L20.2649 22.5257ZM18.1338 22.8667L18.2649 22.5257L18.0005 22.3333H18.3389L18.4671 22L18.5697 22.3333H18.9338L18.6317 22.5348L18.7338 22.8667L18.4468 22.658L18.1338 22.8667ZM17.1338 22.0001L17.2649 21.6592L17.0005 21.4668H17.3389L17.4671 21.1335L17.5697 21.4668H17.9338L17.6317 21.6682L17.7338 22.0001L17.4468 21.7914L17.1338 22.0001ZM23.236 21.6682L23.1338 22.0001L23.4208 21.7914L23.7338 22.0001L23.6027 21.6592L23.8672 21.4668H23.5287L23.4005 21.1335L23.2979 21.4668H22.9338L23.236 21.6682ZM21.1338 22.0001L21.2435 21.6436L21.0005 21.4668H21.2979L21.4005 21.1335L21.5287 21.4668H21.8671L21.6026 21.6592L21.7338 22.0001L21.4338 21.782L21.1338 22.0001ZM19.2649 21.6592L19.1338 22.0001L19.4468 21.7914L19.7338 22.0001L19.6317 21.6682L19.9338 21.4668H19.5697L19.4671 21.1335L19.3389 21.4668H19.0005L19.2649 21.6592ZM22.1338 21.1334L22.236 20.8015L21.9338 20.6001H22.2979L22.4005 20.2667L22.5287 20.6001H22.8672L22.6027 20.7924L22.7338 21.1334L22.4208 20.9247L22.1338 21.1334ZM20.2649 20.7924L20.1338 21.1334L20.4338 20.9152L20.7338 21.1334L20.6241 20.7768L20.8671 20.6001H20.5697L20.4671 20.2667L20.3389 20.6001H20.0005L20.2649 20.7924ZM18.1338 21.1334L18.2649 20.7924L18.0005 20.6001H18.3389L18.4671 20.2667L18.5697 20.6001H18.9338L18.6317 20.8015L18.7338 21.1334L18.4468 20.9247L18.1338 21.1334ZM19.1338 20.3335L19.2575 19.9871L19.0005 19.8002H19.3243L19.4671 19.4002L19.5814 19.8002H19.9338L19.6378 19.9975L19.7338 20.3335L19.4468 20.1248L19.1338 20.3335ZM21.237 19.9722L21.1338 20.3335L21.4338 20.1153L21.7338 20.3335L21.6101 19.9871L21.8671 19.8002H21.5433L21.4005 19.4002L21.2862 19.8002H21.0005L21.237 19.9722Z" fill="white"/>
<defs>
<clipPath id="clip0">
<rect width="13.9688" height="22.4951" fill="white" transform="translate(7.01562 2.75305)"/>
</clipPath>
</defs>
</svg>
