<svg width="32" height="32" viewBox="0 0 32 32" fill="none" xmlns="http://www.w3.org/2000/svg">
<path d="M0 16C0 24.8365 7.16344 32 16 32C24.8365 32 32 24.8365 32 16C32 7.16344 24.8365 0 16 0C7.16344 0 0 7.16344 0 16Z" fill="#EFEFEF"/>
<path d="M16 0.666666C24.4 0.666666 31.3334 7.6 31.3334 16C31.3334 24.4 24.4 31.3334 16 31.3334C7.6 31.3334 0.666666 24.4 0.666666 16C0.666666 7.6 7.6 0.666666 16 0.666666ZM16 0C7.2 0 0 7.2 0 16C0 24.8 7.2 32 16 32C24.8 32 32 24.8 32 16C32 7.2 24.8 0 16 0Z" fill="#999999"/>
<path d="M14.6539 12.5539C15.154 12.3539 15.9499 12.024 16.418 11.8039C18.018 11.056 19.3439 10.92 21.018 11.4499C22.5039 11.92 23.514 13.184 24.1119 13.8899C24.9419 14.8659 25.3119 15.8639 25.834 17.0379C26.018 17.4599 25.5599 17.6719 25.154 17.4739C24.3099 17.0599 24.154 17.0459 23.1679 16.9099C22.3679 16.7999 20.1439 16.8119 18.85 16.1899C17.556 15.5679 16.5199 15.0499 15.7599 14.096C15.344 13.5639 14.932 13.176 14.6539 12.5539Z" fill="#549B0A"/>
<path d="M9.90795 5.53993C9.77393 6.29174 9.69638 7.05253 9.67595 7.81593C9.65685 8.58316 9.81139 9.3448 10.128 10.0439C10.5281 10.8415 11.1662 11.4949 11.954 11.9139C12.74 12.3308 13.6124 12.5587 14.502 12.5799C14.6352 12.456 14.7179 12.2872 14.734 12.1059C14.864 11.4179 14.958 10.7059 14.806 10.0199C14.7498 9.76814 14.666 9.52334 14.556 9.28993C14.4601 9.08321 14.3512 8.8828 14.23 8.68993C14.0227 8.37045 13.7842 8.07232 13.518 7.79993C13.2531 7.52556 12.9631 7.27649 12.652 7.05593C12.452 6.90793 12.226 6.78793 12.018 6.64393C11.854 6.53193 11.692 6.41793 11.54 6.29393C11.14 5.96053 10.8188 5.54247 10.6 5.06993C10.548 4.95993 10.464 4.81593 10.344 4.80993C10.224 4.80393 10.144 4.91393 10.096 5.00993C9.99736 5.1717 9.93336 5.35217 9.90795 5.53993Z" fill="#549B0A"/>
<path d="M19.8 14.2501C18.884 13.7601 17.91 13.4001 16.956 12.9861C16.45 12.7701 15.928 12.5361 15.38 12.5601C15.2182 12.6068 15.0649 12.6789 14.926 12.7741L14.286 11.9501L13.668 11.1501C13.61 11.0721 13.496 11.0261 13.446 11.0641C13.4076 11.0871 13.378 11.1223 13.362 11.1641C13.2935 11.3301 13.2464 11.5042 13.222 11.6821C13.2097 11.7212 13.2097 11.7631 13.222 11.8021C13.2429 11.8343 13.2718 11.8605 13.306 11.8781L13.89 12.2481L14.49 13.1001C14.3583 13.2048 14.2447 13.3304 14.154 13.4721C13.972 13.9901 14.042 14.5581 14.104 15.1041C14.218 16.1361 14.286 17.1741 14.49 18.1921C14.6632 19.2197 15.0599 20.1966 15.652 21.0541C16.306 21.9441 16.992 22.6261 17.978 23.1261C19.3 23.7981 20.73 24.3601 22.214 24.3441C22.4864 24.3417 22.7541 24.2731 22.994 24.1441L23.01 24.1321H23.024C23.2182 23.9413 23.3612 23.7047 23.44 23.4441C23.884 22.0281 23.762 20.4981 23.504 19.0441C23.304 17.9541 22.854 17.1001 22.192 16.2161C21.5493 15.3925 20.7324 14.7212 19.8 14.2501Z" fill="#663F25"/>
<path d="M20.3189 21.4202L19.7149 21.8682C19.5269 22.0077 19.4875 22.2733 19.627 22.4613C19.7666 22.6495 20.0321 22.6888 20.2202 22.5493L20.8242 22.1013C21.0122 21.9617 21.0516 21.6962 20.9121 21.5081C20.7725 21.32 20.507 21.2806 20.3189 21.4202Z" fill="#EFEFEF"/>
<path d="M19.6918 20.577L19.0878 21.025C18.8997 21.1645 18.8603 21.43 18.9999 21.6181C19.1394 21.8062 19.405 21.8456 19.593 21.706L20.197 21.258C20.385 21.1184 20.4244 20.8529 20.2849 20.6649C20.1453 20.4767 19.8798 20.4374 19.6918 20.577Z" fill="#EFEFEF"/>
<path d="M19.0632 19.7313L18.4593 20.1794C18.2712 20.3189 18.2319 20.5845 18.3714 20.7725C18.511 20.9606 18.7765 20.9999 18.9646 20.8604L19.5686 20.4123C19.7566 20.2729 19.796 20.0073 19.6565 19.8192C19.5169 19.6312 19.2514 19.5918 19.0632 19.7313Z" fill="#EFEFEF"/>
<path d="M18.4365 18.8847L17.8326 19.3328C17.6445 19.4723 17.6052 19.7379 17.7447 19.926C17.8842 20.114 18.1497 20.1534 18.3379 20.0139L18.9418 19.5658C19.1299 19.4263 19.1692 19.1607 19.0297 18.9727C18.8902 18.7846 18.6247 18.7453 18.4365 18.8847Z" fill="#EFEFEF"/>
<path d="M17.808 18.0397L17.204 18.4877C17.016 18.6273 16.9767 18.8928 17.1161 19.0809C17.2556 19.269 17.5212 19.3083 17.7093 19.1688L18.3132 18.7208C18.5013 18.5812 18.5407 18.3157 18.4011 18.1276C18.2616 17.9395 17.996 17.9001 17.808 18.0397Z" fill="#EFEFEF"/>
<path d="M17.1816 17.1928L16.5777 17.6408C16.3896 17.7803 16.3502 18.0459 16.4898 18.2339C16.6293 18.4221 16.8949 18.4614 17.0829 18.3218L17.6869 17.8738C17.8749 17.7343 17.9143 17.4688 17.7748 17.2807C17.6352 17.0926 17.3697 17.0532 17.1816 17.1928Z" fill="#EFEFEF"/>
<path d="M16.5544 16.3485L15.9505 16.7965C15.7624 16.9361 15.723 17.2016 15.8626 17.3897C16.0021 17.5778 16.2677 17.6171 16.4557 17.4776L17.0597 17.0295C17.2477 16.89 17.2871 16.6244 17.1476 16.4364C17.0081 16.2484 16.7425 16.209 16.5544 16.3485Z" fill="#EFEFEF"/>
<path d="M15.9277 15.5025L15.3238 15.9505C15.1357 16.09 15.0963 16.3556 15.2359 16.5436C15.3753 16.7318 15.6409 16.7711 15.829 16.6315L16.4329 16.1835C16.621 16.044 16.6603 15.7784 16.5208 15.5904C16.3814 15.4023 16.1158 15.3629 15.9277 15.5025Z" fill="#EFEFEF"/>
<path d="M21.7369 20.3687L21.133 20.8167C20.9449 20.9563 20.9056 21.2218 21.0452 21.4098C21.1847 21.598 21.4502 21.6373 21.6383 21.4977L22.2423 21.0497C22.4303 20.9103 22.4696 20.6447 22.3302 20.4566C22.1906 20.2685 21.9251 20.2291 21.7369 20.3687Z" fill="#EFEFEF"/>
<path d="M21.124 19.3721L20.5224 19.8233C20.335 19.9638 20.297 20.2296 20.4376 20.4169C20.5781 20.6042 20.8438 20.6422 21.0312 20.5017L21.6328 20.0505C21.82 19.9099 21.8581 19.6442 21.7176 19.4569C21.577 19.2696 21.3112 19.2315 21.124 19.3721Z" fill="#EFEFEF"/>
<path d="M20.4952 18.5338L19.8936 18.985C19.7064 19.1255 19.6683 19.3913 19.8088 19.5786C19.9494 19.7659 20.2152 19.8039 20.4024 19.6634L21.004 19.2122C21.1914 19.0717 21.2294 18.8059 21.0888 18.6186C20.9483 18.4313 20.6826 18.3933 20.4952 18.5338Z" fill="#EFEFEF"/>
<path d="M19.8565 17.8334L19.2525 18.2814C19.0645 18.4209 19.0251 18.6865 19.1646 18.8746C19.3041 19.0626 19.5697 19.102 19.7577 18.9625L20.3617 18.5144C20.5498 18.3749 20.5892 18.1093 20.4496 17.9213C20.3101 17.7332 20.0445 17.6939 19.8565 17.8334Z" fill="#EFEFEF"/>
<path d="M19.2281 16.9882L18.6242 17.4362C18.4361 17.5758 18.3968 17.8413 18.5363 18.0293C18.6758 18.2175 18.9414 18.2568 19.1294 18.1172L19.7334 17.6692C19.9214 17.5297 19.9608 17.2641 19.8213 17.0761C19.6818 16.888 19.4162 16.8486 19.2281 16.9882Z" fill="#EFEFEF"/>
<path d="M18.5997 16.1408L17.9958 16.5888C17.8077 16.7283 17.7683 16.9939 17.9079 17.182C18.0473 17.37 18.3129 17.4094 18.501 17.2699L19.1049 16.8218C19.293 16.6823 19.3323 16.4167 19.1928 16.2287C19.0534 16.0406 18.7878 16.0012 18.5997 16.1408Z" fill="#EFEFEF"/>
<path d="M17.9804 15.1694L17.3788 15.6206C17.1915 15.7612 17.1535 16.0269 17.294 16.2142C17.4345 16.4015 17.7003 16.4396 17.8876 16.299L18.4892 15.8478C18.6766 15.7073 18.7145 15.4415 18.574 15.2542C18.4335 15.0669 18.1678 15.0289 17.9804 15.1694Z" fill="#EFEFEF"/>
<path d="M17.3457 14.4506L16.7417 14.8986C16.5537 15.0382 16.5143 15.3037 16.6538 15.4918C16.7933 15.6799 17.0589 15.7192 17.247 15.5797L17.8509 15.1316C18.039 14.9921 18.0783 14.7265 17.9388 14.5385C17.7993 14.3504 17.5337 14.311 17.3457 14.4506Z" fill="#EFEFEF"/>
<path d="M21.9152 18.9262L21.8959 18.9405C21.7079 19.08 21.6685 19.3456 21.808 19.5336C21.9475 19.7217 22.2131 19.761 22.4011 19.6215L22.4204 19.6072C22.6085 19.4677 22.6478 19.2021 22.5083 19.0141C22.3688 18.826 22.1032 18.7866 21.9152 18.9262Z" fill="#EFEFEF"/>
<path d="M21.3832 18.0111L21.2692 18.0957C21.0811 18.2352 21.0418 18.5008 21.1813 18.6888C21.3208 18.8769 21.5864 18.9163 21.7744 18.7767L21.8885 18.6921C22.0765 18.5526 22.1159 18.287 21.9764 18.099C21.8369 17.9109 21.5713 17.8716 21.3832 18.0111Z" fill="#EFEFEF"/>
<path d="M20.918 17.0438L20.6418 17.2488C20.4537 17.3883 20.4143 17.6539 20.5539 17.8419C20.6934 18.03 20.959 18.0694 21.147 17.9298L21.4232 17.7249C21.6114 17.5854 21.6507 17.3199 21.5112 17.1317C21.3717 16.9437 21.1061 16.9043 20.918 17.0438Z" fill="#EFEFEF"/>
<path d="M20.2923 16.1991L20.0161 16.404C19.828 16.5436 19.7886 16.8091 19.9282 16.9972C20.0677 17.1853 20.3333 17.2246 20.5213 17.0851L20.7976 16.8802C20.9857 16.7407 21.025 16.4751 20.8855 16.287C20.746 16.099 20.4804 16.0595 20.2923 16.1991Z" fill="#EFEFEF"/>
<path d="M19.5016 15.4726L19.3875 15.5571C19.1994 15.6967 19.1601 15.9622 19.2996 16.1503C19.4392 16.3384 19.7047 16.3777 19.8928 16.2382L20.0068 16.1536C20.1948 16.0141 20.2343 15.7485 20.0947 15.5604C19.9552 15.3724 19.6896 15.333 19.5016 15.4726Z" fill="#EFEFEF"/>
<path d="M18.7794 14.6972L18.7601 14.7116C18.572 14.851 18.5327 15.1166 18.6722 15.3047C18.8118 15.4927 19.0773 15.5322 19.2653 15.3926L19.2846 15.3783C19.4727 15.2388 19.5121 14.9732 19.3725 14.7852C19.233 14.5971 18.9674 14.5578 18.7794 14.6972Z" fill="#EFEFEF"/>
<path d="M18.7275 22.465L18.7467 22.4506C18.9341 22.3101 18.972 22.0443 18.8315 21.857C18.691 21.6697 18.4253 21.6317 18.2379 21.7722L18.2187 21.7866C18.0314 21.9271 17.9934 22.1929 18.1339 22.3802C18.2744 22.5675 18.5402 22.6055 18.7275 22.465Z" fill="#EFEFEF"/>
<path d="M18.0358 21.5444L18.1498 21.4598C18.3379 21.3203 18.3772 21.0547 18.2377 20.8667C18.0982 20.6786 17.8327 20.6393 17.6446 20.7788L17.5305 20.8634C17.3425 21.0029 17.3032 21.2685 17.4426 21.4565C17.5821 21.6446 17.8477 21.684 18.0358 21.5444Z" fill="#EFEFEF"/>
<path d="M17.248 20.8201L17.5242 20.6152C17.7123 20.4756 17.7517 20.2101 17.6121 20.022C17.4727 19.8339 17.2071 19.7946 17.019 19.9341L16.7427 20.1391C16.5546 20.2785 16.5153 20.5441 16.6548 20.7322C16.7944 20.9203 17.0599 20.9597 17.248 20.8201Z" fill="#EFEFEF"/>
<path d="M16.6213 19.9719L16.8975 19.7669C17.0856 19.6274 17.125 19.3618 16.9854 19.1737C16.8459 18.9857 16.5803 18.9463 16.3923 19.0858L16.116 19.2907C15.9279 19.4303 15.8886 19.6958 16.0281 19.884C16.1676 20.072 16.4332 20.1113 16.6213 19.9719Z" fill="#EFEFEF"/>
<path d="M16.1554 19.0091L16.2695 18.9245C16.4575 18.7849 16.4968 18.5194 16.3574 18.3314C16.2178 18.1432 15.9523 18.1039 15.7641 18.2435L15.6502 18.3281C15.4621 18.4676 15.4227 18.7331 15.5623 18.9212C15.7017 19.1092 15.9673 19.1486 16.1554 19.0091Z" fill="#EFEFEF"/>
<path d="M15.6233 18.0914L15.6425 18.0771C15.8307 17.9375 15.87 17.672 15.7304 17.484C15.591 17.2958 15.3254 17.2565 15.1373 17.396L15.118 17.4104C14.93 17.5498 14.8906 17.8154 15.0301 18.0035C15.1697 18.1915 15.4352 18.2309 15.6233 18.0914Z" fill="#EFEFEF"/>
<path d="M21.6338 21.713L21.0298 22.161C20.8418 22.3006 20.8024 22.5661 20.9419 22.7542C21.0815 22.9423 21.347 22.9816 21.5351 22.8421L22.139 22.394C22.3272 22.2545 22.3665 21.9889 22.2269 21.8009C22.0874 21.6129 21.8219 21.5735 21.6338 21.713Z" fill="#EFEFEF"/>
<path d="M16.0308 14.1582L15.4268 14.6063C15.2388 14.7458 15.1993 15.0114 15.3389 15.1994C15.4784 15.3875 15.744 15.4268 15.932 15.2873L16.536 14.8393C16.724 14.6997 16.7634 14.4342 16.6239 14.2461C16.4844 14.058 16.2188 14.0187 16.0308 14.1582Z" fill="#EFEFEF"/>
<path d="M22.954 19.7478C22.91 19.7478 22.924 19.8258 22.928 19.8758C22.998 20.4543 23.0248 21.0373 23.008 21.6198C22.93 22.4198 22.71 23.0198 22.302 23.3298C21.894 23.6398 21.25 23.6678 20.46 23.5078C19.8977 23.3556 19.3475 23.1617 18.814 22.9278C18.768 22.9078 18.706 22.8758 18.684 22.9158C18.662 22.9558 18.708 23.0118 18.746 23.0318C19.628 23.4718 20.398 23.7897 21.306 23.8998C21.558 23.9298 22.094 24.0377 22.566 23.6857C23.038 23.3337 23.092 22.7918 23.136 22.5398C23.294 21.6418 23.214 20.8118 23.048 19.8418C23.04 19.7998 23.012 19.7337 22.954 19.7478Z" fill="#EFEFEF"/>
<path d="M15.38 12.56C15.2182 12.6066 15.0648 12.6789 14.9259 12.774L14.5439 12.2841C14.353 12.2849 14.163 12.3091 13.978 12.3561L14.498 13.0921C14.3662 13.1967 14.2527 13.3224 14.162 13.464C13.98 13.982 14.05 14.55 14.1119 15.096C14.226 16.128 14.2939 17.166 14.498 18.184C14.6217 18.8345 14.8231 19.4677 15.098 20.07C15.3645 19.5351 15.5576 18.9666 15.6719 18.3801C15.882 17.302 15.9499 16.096 16.0719 15.002C16.1546 14.4227 16.1061 13.8321 15.93 13.274C15.8929 13.1846 15.8353 13.1051 15.762 13.042L16.0599 12.642C15.8391 12.5788 15.6095 12.5511 15.38 12.56Z" fill="#EFEFEF"/>
<path d="M15.3499 18.1999C15.5499 17.1819 15.6139 16.1419 15.724 15.1099C15.7819 14.5639 15.842 14.1099 15.65 13.5299C15.5694 13.3701 15.4602 13.2264 15.328 13.1059L15.928 12.2539L16.528 11.4259C16.586 11.3479 16.596 11.2259 16.544 11.1879C16.5107 11.1583 16.4684 11.1407 16.424 11.1379C16.2453 11.1223 16.0654 11.1276 15.888 11.1539C15.8476 11.1537 15.8087 11.1686 15.7787 11.1956C15.7488 11.2226 15.73 11.2598 15.7259 11.2999L15.544 11.9659L14.9 12.7999C14.7587 12.682 14.5836 12.6119 14.4 12.5999C13.85 12.5999 13.38 12.7999 12.876 13.0219C11.924 13.4339 10.952 13.8039 10.038 14.2979C9.10494 14.7654 8.28571 15.4316 7.63798 16.2499C6.97998 17.1339 6.52798 17.9999 6.33998 19.0799C6.08598 20.5419 5.96998 22.0799 6.41998 23.4799C6.50133 23.7402 6.64558 23.9766 6.83998 24.1679L6.85598 24.1799H6.87198C7.11189 24.3108 7.38072 24.3795 7.65398 24.3799C9.13598 24.3799 10.564 23.8239 11.884 23.1459C12.868 22.6419 13.55 21.9459 14.202 21.0639C14.7883 20.204 15.18 19.2266 15.3499 18.1999Z" fill="#663F25"/>
<path d="M14.1199 14.3421C14.004 14.2541 12.2779 16.5421 10.9299 18.376C9.58193 20.21 7.77792 22.692 7.90592 22.788C8.03392 22.884 9.86993 20.4221 11.2179 18.588C12.5659 16.754 14.2379 14.428 14.1199 14.3421Z" fill="#EFEFEF"/>
<path d="M9.39996 17.2797C10.0741 16.3265 10.8824 15.4757 11.8 14.7537C11.8 14.7537 11.9099 14.6497 11.8859 14.6077C11.826 14.5077 11.6859 14.6197 11.6859 14.6197C10.6671 15.2506 9.78343 16.0773 9.08596 17.0517C8.36371 18.0057 7.83759 19.0933 7.53796 20.2517C7.53796 20.2517 7.47196 20.4138 7.58596 20.4517C7.63396 20.4517 7.69996 20.3258 7.69996 20.3258C8.1167 19.2337 8.68931 18.2077 9.39996 17.2797Z" fill="#EFEFEF"/>
<path d="M12.724 19.7322C13.4331 18.8039 14.0043 17.778 14.42 16.6862C14.42 16.6862 14.486 16.5502 14.534 16.5582C14.648 16.5882 14.582 16.7582 14.582 16.7582C14.2824 17.9167 13.7562 19.0042 13.034 19.9582C12.3367 20.9329 11.453 21.7594 10.434 22.3902C10.434 22.3902 10.298 22.5022 10.234 22.4022C10.212 22.3582 10.32 22.2542 10.32 22.2542C11.2383 21.5334 12.048 20.684 12.724 19.7322Z" fill="#EFEFEF"/>
</svg>
