<svg width="32" height="32" viewBox="0 0 32 32" fill="none" xmlns="http://www.w3.org/2000/svg">
<path d="M0 16C0 24.8365 7.16344 32 16 32C24.8365 32 32 24.8365 32 16C32 7.16344 24.8365 0 16 0C7.16344 0 0 7.16344 0 16Z" fill="#EFEFEF"/>
<path d="M16 0.666666C24.4 0.666666 31.3334 7.6 31.3334 16C31.3334 24.4 24.4 31.3334 16 31.3334C7.6 31.3334 0.666666 24.4 0.666666 16C0.666666 7.6 7.6 0.666666 16 0.666666ZM16 0C7.2 0 0 7.2 0 16C0 24.8 7.2 32 16 32C24.8 32 32 24.8 32 16C32 7.2 24.8 0 16 0Z" fill="#999999"/>
<path d="M25.0581 17.2656L20.3311 17.9948L19.2192 22.9746C19.4584 23.0387 19.709 23.0473 19.952 23L23.6067 22.2876C23.786 22.2527 23.9296 22.1187 23.9769 21.9423L25.0579 17.9076C25.1143 17.6973 25.1143 17.4759 25.0581 17.2656Z" fill="#9BDBF2"/>
<path d="M18.082 15.9659C17.755 17.1939 17.1221 19.604 16.7653 20.9267L16.8064 21.0935L18.5722 22.6301C18.7589 22.7926 18.9803 22.9104 19.2195 22.9744L20.5634 17.9589L18.082 15.9659Z" fill="#00B4FD"/>
<path d="M17.0179 15.111L17.0178 15.1111C16.8639 15.265 16.7533 15.4568 16.6969 15.6671L15.6158 19.7018C15.5686 19.8781 15.626 20.066 15.7637 20.1859L16.8068 21.0936C17.0516 20.218 17.8448 17.1897 18.1401 16.0876C18.1457 16.0669 18.152 16.047 18.158 16.0268L17.0179 15.111Z" fill="#00B4FD"/>
<path d="M24.7938 16.8426L21.7816 14.2213C21.6705 14.1247 21.5211 14.0847 21.3765 14.1128L19.4883 14.4809C19.1365 14.6395 18.3904 15.0815 18.1044 16.0573L20.5113 18.1518L25.0579 17.2656C25.0139 17.1015 24.922 16.9542 24.7938 16.8426Z" fill="#A4E7FF"/>
<path d="M18.1399 16.0878C18.4859 14.7963 19.6671 14.4463 19.6672 14.4463L17.4578 14.8769C17.291 14.9094 17.1377 14.991 17.0176 15.1112L18.1399 16.0878Z" fill="#A4E7FF"/>
<path d="M15.7553 15.1469L12.0263 18.1419L13.5533 23.0104C13.7924 22.9464 14.0138 22.8286 14.2006 22.6661L17.0095 20.2218C17.1472 20.1019 17.2046 19.9141 17.1573 19.7377L16.0763 15.703C16.0199 15.4927 15.9092 15.3009 15.7553 15.1469Z" fill="#9BDBF2"/>
<path d="M9.06445 17.5095C9.39524 18.7364 10.0522 21.1402 10.4045 22.4641L10.5234 22.5879L12.821 23.0357C13.064 23.0831 13.3146 23.0744 13.5537 23.0103L12.2098 17.9948L9.06445 17.5095Z" fill="#00B4FD"/>
<path d="M7.71412 17.3014L7.71409 17.3015C7.65784 17.5118 7.65789 17.7332 7.71423 17.9435L8.79532 21.9782C8.84257 22.1545 8.98621 22.2885 9.16542 22.3235L10.5226 22.588C10.2969 21.7073 9.46965 18.6882 9.17433 17.5861C9.16877 17.5653 9.16435 17.545 9.15942 17.5244L7.71412 17.3014Z" fill="#00B4FD"/>
<path d="M15.3148 14.9126L11.3955 14.1486C11.251 14.1205 11.1016 14.1605 10.9905 14.2572L9.53926 15.52C9.31391 15.8333 8.88876 16.5892 9.12899 17.5772L12.2607 18.1876L15.755 15.1469C15.6349 15.0267 15.4816 14.9451 15.3148 14.9126Z" fill="#A4E7FF"/>
<path d="M9.17503 17.5862C8.82896 16.2946 9.6769 15.401 9.67696 15.4009L7.97893 16.8786C7.85073 16.9901 7.75877 17.1374 7.71482 17.3016L9.17503 17.5862Z" fill="#A4E7FF"/>
<path d="M19.7953 8.11978L15.9974 11.0269L17.4103 15.9297C17.6509 15.8713 17.8749 15.7587 18.0655 15.6006L20.9306 13.2225C21.0711 13.1059 21.1329 12.9194 21.0897 12.742L20.1031 8.68317C20.0517 8.47161 19.9455 8.27733 19.7953 8.11978Z" fill="#9BDBF2"/>
<path d="M13.0508 10.3258C13.3529 11.5601 13.9535 13.9785 14.2749 15.3103L14.3909 15.4369L16.6773 15.9382C16.9192 15.9912 17.1699 15.9884 17.4105 15.9299L16.184 10.8843L13.0508 10.3258Z" fill="#00B4FD"/>
<path d="M11.7063 10.0861C11.6451 10.295 11.64 10.5165 11.6914 10.728L12.678 14.7868C12.7212 14.9642 12.8616 15.1015 13.04 15.1407L14.3907 15.4368C14.1855 14.5511 13.429 11.5134 13.1595 10.4047C13.1544 10.3839 13.1504 10.3634 13.146 10.3427L11.7063 10.0861Z" fill="#00B4FD"/>
<path d="M19.3604 7.87528L15.4601 7.02011C15.3162 6.98859 15.1659 7.02513 15.0526 7.11917L13.5723 8.34779C13.3397 8.65578 12.897 9.4015 13.1141 10.3949L16.2308 11.0782L19.7951 8.11983C19.6778 7.99684 19.5264 7.91169 19.3604 7.87528Z" fill="#A4E7FF"/>
<path d="M13.1594 10.4047C12.8436 9.10545 13.7122 8.23178 13.7122 8.23178L11.9802 9.66936C11.8494 9.77791 11.754 9.92303 11.7063 10.0861L13.1594 10.4047Z" fill="#A4E7FF"/>
</svg>
