<svg width="32" height="32" viewBox="0 0 32 32" fill="none" xmlns="http://www.w3.org/2000/svg">
<mask id="mask0" mask-type="alpha" maskUnits="userSpaceOnUse" x="0" y="0" width="28" height="28">
<circle cx="14" cy="14" r="14" fill="#C4C4C4"/>
</mask>
<g mask="url(#mask0)">
<path d="M28 0H0V28H28V0Z" fill="#00237C"/>
<path d="M20.9038 9.79834V10.6086L22.5243 9.79834H20.9038Z" fill="white"/>
<path d="M21.2135 10.7485L20.7375 10.094L22.5243 9.79651L21.2135 10.7485Z" fill="white"/>
<path d="M20.9038 9.79834V10.6086L19.2833 9.79834H20.9038Z" fill="white"/>
<path d="M20.594 10.7485L21.07 10.094L19.2833 9.79651L20.594 10.7485Z" fill="white"/>
<path d="M21.4043 10.1624L20.6343 10.4126L21.9048 11.7023L21.4043 10.1624Z" fill="white"/>
<path d="M20.5941 10.7485L21.07 10.094L21.9048 11.7005L20.5941 10.7485Z" fill="white"/>
<path d="M20.4033 10.1622L21.1733 10.4124L20.9038 8.62219L20.4033 10.1622Z" fill="white"/>
<path d="M21.4043 10.1621L20.6343 10.4123L20.9038 8.62207L21.4043 10.1621Z" fill="white"/>
<path d="M20.4033 10.1624L21.1733 10.4126L19.9028 11.7023L20.4033 10.1624Z" fill="white"/>
<path d="M21.2135 10.7485L20.7375 10.094L19.9028 11.7005L21.2135 10.7485Z" fill="white"/>
<path d="M20.9038 9.97681V10.5123L21.9748 9.97681H20.9038Z" fill="#B22233"/>
<path d="M21.1085 10.6068L20.7935 10.1728L21.9748 9.97681L21.1085 10.6068Z" fill="#B22233"/>
<path d="M20.9038 9.97681V10.5123L19.8328 9.97681H20.9038Z" fill="#B22233"/>
<path d="M20.699 10.6068L21.014 10.1728L19.8328 9.97681L20.699 10.6068Z" fill="#B22233"/>
<path d="M21.2345 10.2235L20.7252 10.3985L21.5652 11.2508L21.2345 10.2235Z" fill="#B22233"/>
<path d="M20.699 10.6068L21.014 10.1729L21.5652 11.2351L20.699 10.6068Z" fill="#B22233"/>
<path d="M20.573 10.2236L21.0823 10.3986L20.9073 9.21558L20.573 10.2236Z" fill="#B22233"/>
<path d="M21.2345 10.2235L20.7253 10.3985L20.9003 9.21545L21.2345 10.2235Z" fill="#B22233"/>
<path d="M20.573 10.2235L21.0822 10.3985L20.2422 11.2508L20.573 10.2235Z" fill="#B22233"/>
<path d="M21.1085 10.6068L20.7935 10.1729L20.2422 11.2351L21.1085 10.6068Z" fill="#B22233"/>
<path d="M25.144 13.5486V14.2678L26.586 13.5486H25.144Z" fill="white"/>
<path d="M25.4187 14.3902L24.9952 13.8057L26.586 13.5432L25.4187 14.3902Z" fill="white"/>
<path d="M25.144 13.5486V14.2678L23.702 13.5486H25.144Z" fill="white"/>
<path d="M24.8693 14.3902L25.2928 13.8057L23.702 13.5432L24.8693 14.3902Z" fill="white"/>
<path d="M25.5885 13.8652L24.9042 14.0892L26.0347 15.2372L25.5885 13.8652Z" fill="white"/>
<path d="M24.8693 14.3902L25.2928 13.8057L26.0348 15.2372L24.8693 14.3902Z" fill="white"/>
<path d="M24.6978 13.8653L25.3838 14.0892L25.144 12.495L24.6978 13.8653Z" fill="white"/>
<path d="M25.5885 13.8654L24.9042 14.0894L25.144 12.4951L25.5885 13.8654Z" fill="white"/>
<path d="M24.6978 13.8652L25.3838 14.0892L24.2533 15.2372L24.6978 13.8652Z" fill="white"/>
<path d="M25.4188 14.3902L24.9953 13.8057L24.2533 15.2372L25.4188 14.3902Z" fill="white"/>
<path d="M25.144 13.7235V14.168L26.0365 13.7235H25.144Z" fill="#B22233"/>
<path d="M25.3137 14.2486L25.0512 13.8881L26.0365 13.7253L25.3137 14.2486Z" fill="#B22233"/>
<path d="M25.144 13.7235V14.168L24.2515 13.7235H25.144Z" fill="#B22233"/>
<path d="M24.9742 14.2486L25.235 13.8881L24.2515 13.7253L24.9742 14.2486Z" fill="#B22233"/>
<path d="M25.4187 13.9213L24.9952 14.0595L25.6952 14.77L25.4187 13.9213Z" fill="#B22233"/>
<path d="M24.9742 14.2484L25.235 13.8879L25.7022 14.7734L24.9742 14.2484Z" fill="#B22233"/>
<path d="M24.8674 13.9213L25.2927 14.0595L25.1439 13.0725L24.8674 13.9213Z" fill="#B22233"/>
<path d="M25.4187 13.9213L24.9952 14.0595L25.1439 13.0725L25.4187 13.9213Z" fill="#B22233"/>
<path d="M24.8675 13.9213L25.2927 14.0595L24.5927 14.77L24.8675 13.9213Z" fill="#B22233"/>
<path d="M25.3137 14.2484L25.0512 13.8879L24.5927 14.7734L25.3137 14.2484Z" fill="#B22233"/>
<path d="M15.9565 14.7736V15.5838L17.577 14.7736H15.9565Z" fill="white"/>
<path d="M16.2663 15.7273L15.7903 15.0728L17.577 14.7753L16.2663 15.7273Z" fill="white"/>
<path d="M15.9566 14.7734V15.5837L14.3361 14.7734H15.9566Z" fill="white"/>
<path d="M15.6468 15.7273L16.1228 15.0728L14.3361 14.7753L15.6468 15.7273Z" fill="white"/>
<path d="M16.457 15.1392L15.687 15.3894L16.9575 16.6792L16.457 15.1392Z" fill="white"/>
<path d="M15.6468 15.7271L16.1228 15.0726L16.9575 16.6791L15.6468 15.7271Z" fill="white"/>
<path d="M15.456 15.1391L16.226 15.3894L15.9565 13.5991L15.456 15.1391Z" fill="white"/>
<path d="M16.457 15.139L15.687 15.3892L15.9565 13.599L16.457 15.139Z" fill="white"/>
<path d="M15.456 15.1392L16.226 15.3894L14.9555 16.6792L15.456 15.1392Z" fill="white"/>
<path d="M16.2663 15.7271L15.7903 15.0726L14.9555 16.6791L16.2663 15.7271Z" fill="white"/>
<path d="M15.9565 14.9485V15.484L17.0275 14.9485H15.9565Z" fill="#B22233"/>
<path d="M16.1612 15.5837L15.8463 15.1497L17.0275 14.9537L16.1612 15.5837Z" fill="#B22233"/>
<path d="M15.9565 14.9486V15.4841L14.8855 14.9486H15.9565Z" fill="#B22233"/>
<path d="M15.7518 15.5837L16.0667 15.1497L14.8855 14.9537L15.7518 15.5837Z" fill="#B22233"/>
<path d="M16.2872 15.1953L15.778 15.3598L16.618 16.2121L16.2872 15.1953Z" fill="#B22233"/>
<path d="M15.7518 15.5839L16.0668 15.1499L16.618 16.2121L15.7518 15.5839Z" fill="#B22233"/>
<path d="M15.6258 15.1954L16.135 15.3599L15.96 14.1769L15.6258 15.1954Z" fill="#B22233"/>
<path d="M16.2872 15.1954L15.778 15.3599L15.953 14.1769L16.2872 15.1954Z" fill="#B22233"/>
<path d="M15.6258 15.1953L16.135 15.3598L15.295 16.2121L15.6258 15.1953Z" fill="#B22233"/>
<path d="M16.1613 15.5839L15.8463 15.1499L15.295 16.2121L16.1613 15.5839Z" fill="#B22233"/>
<path d="M20.9037 22.5856V23.4851L22.7028 22.5856H20.9037Z" fill="white"/>
<path d="M21.2467 23.6427L20.7217 22.9164L22.7062 22.5857L21.2467 23.6427Z" fill="white"/>
<path d="M20.9037 22.5856V23.4851L19.1047 22.5856H20.9037Z" fill="white"/>
<path d="M20.5608 23.6427L21.0858 22.9164L19.1013 22.5857L20.5608 23.6427Z" fill="white"/>
<path d="M21.4602 22.9985L20.6045 23.2768L22.015 24.7083L21.4602 22.9985Z" fill="white"/>
<path d="M20.5607 23.6426L21.0857 22.9164L22.0115 24.6996L20.5607 23.6426Z" fill="white"/>
<path d="M20.3472 22.9986L21.203 23.2768L20.9037 21.2888L20.3472 22.9986Z" fill="white"/>
<path d="M21.4584 22.9986L20.6044 23.2768L20.9037 21.2888L21.4584 22.9986Z" fill="white"/>
<path d="M20.3472 22.9985L21.203 23.2768L19.7925 24.7083L20.3472 22.9985Z" fill="white"/>
<path d="M21.2468 23.6426L20.7218 22.9164L19.796 24.6996L21.2468 23.6426Z" fill="white"/>
<path d="M20.9037 22.7642V23.3889L22.1532 22.7642H20.9037Z" fill="#B22233"/>
<path d="M21.1417 23.4992L20.7742 22.9934L22.1532 22.7642L21.1417 23.4992Z" fill="#B22233"/>
<path d="M20.9037 22.7642V23.3889L19.6542 22.7642H20.9037Z" fill="#B22233"/>
<path d="M20.6657 23.4992L21.0315 22.9934L19.6542 22.7642L20.6657 23.4992Z" fill="#B22233"/>
<path d="M21.2888 23.0459L20.6956 23.2384L21.6756 24.2324L21.2888 23.0459Z" fill="#B22233"/>
<path d="M20.6658 23.499L21.0315 22.9933L21.6755 24.2323L20.6658 23.499Z" fill="#B22233"/>
<path d="M20.517 23.0458L21.112 23.2383L20.9037 21.8575L20.517 23.0458Z" fill="#B22233"/>
<path d="M21.2887 23.0457L20.6954 23.2382L20.9037 21.8574L21.2887 23.0457Z" fill="#B22233"/>
<path d="M20.517 23.0459L21.112 23.2384L20.132 24.2324L20.517 23.0459Z" fill="#B22233"/>
<path d="M21.1418 23.499L20.7743 22.9933L20.132 24.2323L21.1418 23.499Z" fill="#B22233"/>
<path d="M13.2825 0L8.71674 3.26375V0H6.23875V3.09051L1.67649 0H0V1.10076L3.31624 3.5245H0V6.538H3.35824L0 8.97576L0.00175171 10.0853H1.66949L6.23875 6.83726V10.0853H8.71674V7.01226L13.2825 10.0853H14.952L14.9502 8.96001L11.6428 6.538H14.9502V3.5245H11.6865L14.9502 1.11825L14.952 0H13.2825Z" fill="white"/>
<path d="M14.952 4.18426H8.21976V0H6.72002V4.18426H0.00177002V5.71375H6.72002V10.0853H8.21976V5.71375H14.952V4.18426Z" fill="#B22233"/>
<path d="M4.98575 3.53676H3.871L0 0.750757V0L4.98575 3.53676Z" fill="#B22233"/>
<path d="M8.85327 3.53501H9.98028L14.9555 0H13.8425L8.85327 3.53501Z" fill="#B22233"/>
<path d="M9.96979 6.53638H11.074L14.952 9.33287V10.0854L9.96979 6.53638Z" fill="#B22233"/>
<path d="M6.10225 6.53638H4.99974L0 10.0854H1.11125L6.10225 6.53638Z" fill="#B22233"/>
</g>
<mask id="mask1" mask-type="alpha" maskUnits="userSpaceOnUse" x="16" y="16" width="16" height="16">
<circle cx="24" cy="24" r="8" fill="#C4C4C4"/>
</mask>
<g mask="url(#mask1)">
<path d="M32 16H16V32H32V16Z" fill="#C61C1C"/>
<path d="M29.587 16H18.412V32H29.587V16Z" fill="white"/>
<path d="M24 19.46L23.237 20.882C23.151 21.036 22.996 21.0219 22.837 20.9359L22.285 20.65L22.696 22.834C22.783 23.234 22.505 23.2339 22.368 23.0609L21.405 21.982L21.248 22.53C21.2347 22.5746 21.2051 22.6126 21.1651 22.6365C21.1251 22.6604 21.0776 22.6684 21.032 22.659L19.814 22.403L20.134 23.567C20.202 23.825 20.256 23.932 20.065 24.001L19.631 24.201L21.731 25.901C21.7738 25.9333 21.8062 25.9777 21.824 26.0284C21.8418 26.0791 21.8442 26.1339 21.831 26.1859L21.647 26.7859C22.369 26.7019 23.016 26.577 23.739 26.5C23.802 26.493 23.909 26.6 23.909 26.672L23.809 28.879H24.16L24.105 26.679C24.105 26.605 24.205 26.495 24.265 26.502C24.987 26.579 25.634 26.702 26.356 26.788L26.173 26.188C26.1598 26.1359 26.1622 26.0811 26.18 26.0304C26.1978 25.9797 26.2301 25.9353 26.273 25.903L28.373 24.203L27.939 24.003C27.748 23.934 27.801 23.827 27.87 23.569L28.19 22.405L26.972 22.6609C26.9262 22.6704 26.8786 22.6625 26.8384 22.6386C26.7983 22.6147 26.7685 22.5767 26.755 22.532L26.599 21.984L25.636 23.063C25.499 23.235 25.221 23.2349 25.308 22.8359L25.719 20.652L25.167 20.938C25.012 21.024 24.857 21.038 24.767 20.884" fill="#C61C1C"/>
<path d="M24 16.3333C28.2 16.3333 31.6667 19.8 31.6667 24C31.6667 28.2 28.2 31.6667 24 31.6667C19.8 31.6667 16.3333 28.2 16.3333 24C16.3333 19.8 19.8 16.3333 24 16.3333ZM24 16C19.6 16 16 19.6 16 24C16 28.4 19.6 32 24 32C28.4 32 32 28.4 32 24C32 19.6 28.4 16 24 16Z" fill="#999999"/>
</g>
</svg>
