<svg width="32" height="32" viewBox="0 0 32 32" fill="none" xmlns="http://www.w3.org/2000/svg">
<mask id="mask0" mask-type="alpha" maskUnits="userSpaceOnUse" x="0" y="0" width="28" height="28">
<circle cx="14" cy="14" r="14" fill="#C4C4C4"/>
</mask>
<g mask="url(#mask0)">
<path d="M0 0V28H28V0H0Z" fill="#00237C"/>
<path d="M28 2.16664L17.864 9.51186V0H10.2375V9.51359L0 2.11765V7.25597L4.018 10.1384H0V17.7986H4.0985L0 20.7213V25.8264L10.2375 18.4427V28H17.864V18.4444L28 25.7791V20.674L23.9995 17.7986H28V10.1384H24.08L28 7.30322V2.16664Z" fill="white"/>
<path d="M28 11.6918H16.324V0H11.7407V11.6918H0V16.275H11.7407V28H16.324V16.275H28V11.6918Z" fill="#B22233"/>
<path d="M8.75 9.625H5.27753L0 5.84919V3.5L8.75 9.625Z" fill="#B22233"/>
<path d="M20.125 17.5H23.0855L28 21.3663V23.625L20.125 17.5Z" fill="#B22233"/>
<path d="M18.375 9.625H21.8194L28 5.10284V2.625L18.375 9.625Z" fill="#B22233"/>
<path d="M9.625 17.5H6.38414L0 22.794V25.375L9.625 17.5Z" fill="#B22233"/>
</g>
<mask id="mask1" mask-type="alpha" maskUnits="userSpaceOnUse" x="16" y="16" width="16" height="16">
<circle cx="24" cy="24" r="8" fill="#C4C4C4"/>
</mask>
<g mask="url(#mask1)">
<path d="M32 16H16V32H32V16Z" fill="#00237C"/>
<path d="M27.945 21.5989V22.0619L28.871 21.5989H27.945Z" fill="white"/>
<path d="M28.122 22.1419L27.85 21.7679L28.871 21.5979L28.122 22.1419Z" fill="white"/>
<path d="M27.945 21.5989V22.0619L27.019 21.5989H27.945Z" fill="white"/>
<path d="M27.768 22.1419L28.04 21.7679L27.019 21.5979L27.768 22.1419Z" fill="white"/>
<path d="M28.2311 21.807L27.7911 21.95L28.5171 22.687L28.2311 21.807Z" fill="white"/>
<path d="M27.768 22.1419L28.04 21.7679L28.517 22.6859L27.768 22.1419Z" fill="white"/>
<path d="M27.659 21.807L28.099 21.95L27.945 20.927L27.659 21.807Z" fill="white"/>
<path d="M28.2311 21.807L27.7911 21.95L27.9451 20.927L28.2311 21.807Z" fill="white"/>
<path d="M27.659 21.807L28.099 21.95L27.373 22.687L27.659 21.807Z" fill="white"/>
<path d="M28.122 22.1419L27.85 21.7679L27.373 22.6859L28.122 22.1419Z" fill="white"/>
<path d="M27.9451 21.701V22.0071L28.5571 21.701H27.9451Z" fill="#B22233"/>
<path d="M28.062 22.061L27.882 21.813L28.557 21.701L28.062 22.061Z" fill="#B22233"/>
<path d="M27.945 21.701V22.0071L27.333 21.701H27.945Z" fill="#B22233"/>
<path d="M27.828 22.061L28.008 21.813L27.333 21.701L27.828 22.061Z" fill="#B22233"/>
<path d="M28.134 21.842L27.843 21.942L28.323 22.429L28.134 21.842Z" fill="#B22233"/>
<path d="M27.828 22.0611L28.008 21.8131L28.323 22.4201L27.828 22.0611Z" fill="#B22233"/>
<path d="M27.756 21.8421L28.047 21.9421L27.947 21.2661L27.756 21.8421Z" fill="#B22233"/>
<path d="M28.134 21.8421L27.843 21.9421L27.943 21.2661L28.134 21.8421Z" fill="#B22233"/>
<path d="M27.756 21.842L28.047 21.942L27.567 22.429L27.756 21.842Z" fill="#B22233"/>
<path d="M28.062 22.0611L27.882 21.8131L27.567 22.4201L28.062 22.0611Z" fill="#B22233"/>
<path d="M30.3681 23.7419V24.1529L31.1921 23.7419H30.3681Z" fill="white"/>
<path d="M30.525 24.2229L30.283 23.8889L31.192 23.7389L30.525 24.2229Z" fill="white"/>
<path d="M30.3681 23.7419V24.1529L29.5441 23.7419H30.3681Z" fill="white"/>
<path d="M30.2111 24.2229L30.4531 23.8889L29.5441 23.7389L30.2111 24.2229Z" fill="white"/>
<path d="M30.622 23.923L30.231 24.051L30.877 24.707L30.622 23.923Z" fill="white"/>
<path d="M30.2111 24.2229L30.4531 23.8889L30.8771 24.7069L30.2111 24.2229Z" fill="white"/>
<path d="M30.1131 23.9229L30.5051 24.0509L30.3681 23.1399L30.1131 23.9229Z" fill="white"/>
<path d="M30.622 23.9229L30.231 24.0509L30.368 23.1399L30.622 23.9229Z" fill="white"/>
<path d="M30.1131 23.923L30.5051 24.051L29.8591 24.707L30.1131 23.923Z" fill="white"/>
<path d="M30.5251 24.2229L30.2831 23.8889L29.8591 24.7069L30.5251 24.2229Z" fill="white"/>
<path d="M30.368 23.8419V24.0959L30.878 23.8419H30.368Z" fill="#B22233"/>
<path d="M30.4649 24.1419L30.3149 23.9359L30.8779 23.8429L30.4649 24.1419Z" fill="#B22233"/>
<path d="M30.368 23.8419V24.0959L29.858 23.8419H30.368Z" fill="#B22233"/>
<path d="M30.271 24.1419L30.42 23.9359L29.858 23.8429L30.271 24.1419Z" fill="#B22233"/>
<path d="M30.525 23.955L30.283 24.034L30.683 24.44L30.525 23.955Z" fill="#B22233"/>
<path d="M30.271 24.1419L30.42 23.9359L30.687 24.4419L30.271 24.1419Z" fill="#B22233"/>
<path d="M30.2099 23.955L30.4529 24.034L30.3679 23.47L30.2099 23.955Z" fill="#B22233"/>
<path d="M30.5249 23.955L30.2829 24.034L30.3679 23.47L30.5249 23.955Z" fill="#B22233"/>
<path d="M30.21 23.955L30.453 24.034L30.053 24.44L30.21 23.955Z" fill="#B22233"/>
<path d="M30.465 24.1419L30.315 23.9359L30.053 24.4419L30.465 24.1419Z" fill="#B22233"/>
<path d="M25.1181 24.4419V24.9049L26.0441 24.4419H25.1181Z" fill="white"/>
<path d="M25.2951 24.987L25.0231 24.613L26.0441 24.443L25.2951 24.987Z" fill="white"/>
<path d="M25.118 24.4419V24.9049L24.192 24.4419H25.118Z" fill="white"/>
<path d="M24.941 24.987L25.213 24.613L24.192 24.443L24.941 24.987Z" fill="white"/>
<path d="M25.404 24.6509L24.964 24.7939L25.69 25.5309L25.404 24.6509Z" fill="white"/>
<path d="M24.941 24.9869L25.213 24.6129L25.69 25.5309L24.941 24.9869Z" fill="white"/>
<path d="M24.832 24.651L25.272 24.794L25.118 23.771L24.832 24.651Z" fill="white"/>
<path d="M25.404 24.651L24.964 24.794L25.118 23.771L25.404 24.651Z" fill="white"/>
<path d="M24.832 24.6509L25.272 24.7939L24.546 25.5309L24.832 24.6509Z" fill="white"/>
<path d="M25.295 24.9869L25.023 24.6129L24.546 25.5309L25.295 24.9869Z" fill="white"/>
<path d="M25.118 24.5421V24.8481L25.73 24.5421H25.118Z" fill="#B22233"/>
<path d="M25.235 24.905L25.055 24.657L25.73 24.545L25.235 24.905Z" fill="#B22233"/>
<path d="M25.1181 24.5421V24.8481L24.506 24.5421H25.1181Z" fill="#B22233"/>
<path d="M25.001 24.905L25.181 24.657L24.506 24.545L25.001 24.905Z" fill="#B22233"/>
<path d="M25.307 24.6831L25.0161 24.7771L25.496 25.2641L25.307 24.6831Z" fill="#B22233"/>
<path d="M25.0011 24.9051L25.1811 24.6571L25.4961 25.2641L25.0011 24.9051Z" fill="#B22233"/>
<path d="M24.9291 24.6831L25.2201 24.7771L25.1201 24.1011L24.9291 24.6831Z" fill="#B22233"/>
<path d="M25.307 24.6831L25.0161 24.7771L25.1161 24.1011L25.307 24.6831Z" fill="#B22233"/>
<path d="M24.9291 24.6831L25.22 24.7771L24.7401 25.2641L24.9291 24.6831Z" fill="#B22233"/>
<path d="M25.235 24.9051L25.0551 24.6571L24.7401 25.2641L25.235 24.9051Z" fill="#B22233"/>
<path d="M27.9449 28.9061V29.4201L28.9729 28.9061H27.9449Z" fill="white"/>
<path d="M28.1409 29.5101L27.8409 29.0951L28.9749 28.9061L28.1409 29.5101Z" fill="white"/>
<path d="M27.945 28.9061V29.4201L26.917 28.9061H27.945Z" fill="white"/>
<path d="M27.749 29.5101L28.049 29.0951L26.915 28.9061L27.749 29.5101Z" fill="white"/>
<path d="M28.2629 29.1421L27.7739 29.3011L28.5799 30.1191L28.2629 29.1421Z" fill="white"/>
<path d="M27.749 29.5101L28.049 29.0951L28.578 30.1141L27.749 29.5101Z" fill="white"/>
<path d="M27.627 29.142L28.116 29.301L27.9449 28.165L27.627 29.142Z" fill="white"/>
<path d="M28.2619 29.142L27.7739 29.301L27.9449 28.165L28.2619 29.142Z" fill="white"/>
<path d="M27.6269 29.1421L28.1159 29.3011L27.3099 30.1191L27.6269 29.1421Z" fill="white"/>
<path d="M28.141 29.5101L27.841 29.0951L27.312 30.1141L28.141 29.5101Z" fill="white"/>
<path d="M27.9449 29.0081V29.3651L28.6589 29.0081H27.9449Z" fill="#B22233"/>
<path d="M28.0809 29.4281L27.8709 29.1391L28.6589 29.0081L28.0809 29.4281Z" fill="#B22233"/>
<path d="M27.9449 29.0081V29.3651L27.2309 29.0081H27.9449Z" fill="#B22233"/>
<path d="M27.8089 29.4281L28.0179 29.1391L27.2309 29.0081L27.8089 29.4281Z" fill="#B22233"/>
<path d="M28.1649 29.1691L27.8259 29.2791L28.3859 29.8471L28.1649 29.1691Z" fill="#B22233"/>
<path d="M27.8089 29.428L28.0179 29.139L28.3859 29.847L27.8089 29.428Z" fill="#B22233"/>
<path d="M27.7239 29.1691L28.0639 29.2791L27.9449 28.4901L27.7239 29.1691Z" fill="#B22233"/>
<path d="M28.1648 29.1691L27.8258 29.2791L27.9448 28.4901L28.1648 29.1691Z" fill="#B22233"/>
<path d="M27.7238 29.1691L28.0638 29.2791L27.5038 29.8471L27.7238 29.1691Z" fill="#B22233"/>
<path d="M28.0808 29.428L27.8708 29.139L27.5038 29.847L28.0808 29.428Z" fill="#B22233"/>
<path d="M23.59 16L20.981 17.865V16H19.565V17.766L16.958 16H16V16.629L17.895 18.014H16V19.736H17.919L16 21.129L16.001 21.763H16.954L19.565 19.907V21.763H20.981V20.007L23.59 21.763H24.544L24.543 21.12L22.653 19.736H24.543V18.014H22.678L24.543 16.639L24.544 16H23.59Z" fill="white"/>
<path d="M24.544 18.391H20.697V16H19.84V18.391H16.001V19.265H19.84V21.763H20.697V19.265H24.544V18.391Z" fill="#B22233"/>
<path d="M18.849 18.021H18.212L16 16.429V16L18.849 18.021Z" fill="#B22233"/>
<path d="M21.059 18.02H21.703L24.546 16H23.91L21.059 18.02Z" fill="#B22233"/>
<path d="M21.697 19.7351H22.328L24.544 21.3331V21.7631L21.697 19.7351Z" fill="#B22233"/>
<path d="M19.487 19.7351H18.857L16 21.7631H16.635L19.487 19.7351Z" fill="#B22233"/>
</g>
</svg>
