<svg width="32" height="32" viewBox="0 0 32 32" fill="none" xmlns="http://www.w3.org/2000/svg">
<path d="M0 14C0 21.732 6.26801 28 14 28C21.732 28 28 21.732 28 14C28 6.26801 21.732 0 14 0C6.26801 0 0 6.26801 0 14Z" fill="#00237C"/>
<path d="M3.41873 12.4024L3.81203 13.6219H5.08747L4.05645 14.3781L4.44086 15.5975L3.41873 14.8435L2.38771 15.5975L2.78102 14.3781L1.75 13.6219H3.02321L3.41873 12.4024ZM4.46752 8.24751H3.19431L4.21866 9.0015L3.82536 10.2232L4.85638 9.46688L5.8874 10.2232L5.49409 9.0015L6.52511 8.24751H5.25634L4.86304 7.02592L4.46752 8.24751ZM8.26275 4.42598H6.98956L8.02057 5.18L7.625 6.39269L8.66271 5.64762L9.68923 6.39269L9.29376 5.17105L10.3248 4.41703H9.05159L8.66271 3.20434L8.26275 4.42598ZM13.5956 2.97164H12.3268L13.3578 3.72566L12.9645 4.94731L13.9956 4.19328L15.0266 4.94731L14.6333 3.72566L15.6643 2.97164H14.3888L13.9956 1.75L13.5956 2.97164ZM18.9284 4.42598H17.6663L18.6973 5.18L18.3018 6.39269L19.3284 5.64762L20.3638 6.39269L19.9727 5.17105L21.0015 4.41703H19.7284L19.3284 3.20434L18.9284 4.42598ZM22.7236 8.24751H21.4481L22.4792 9.0015L22.0859 10.2232L23.1169 9.46688L24.1479 10.2232L23.7724 9.0015L24.8034 8.24751H23.5303L23.1347 7.02592L22.7236 8.24751ZM24.1679 13.6174H22.8925L23.9235 14.3737L23.5502 15.5975L24.5812 14.8435L25.6123 15.5975L25.219 14.3781L26.25 13.6219H24.9745L24.5812 12.4024L24.1679 13.6174ZM4.45642 18.9872H3.19431L4.21866 19.7525L3.82536 20.9741L4.85638 20.2201L5.8874 20.9741L5.49409 19.7525L6.52511 18.9984H5.25634L4.86304 17.7768L4.45642 18.9872ZM8.26275 22.8199H6.98956L8.02057 23.574L7.625 24.7956L8.66271 24.0394L9.69373 24.7956L9.29816 23.574L10.3292 22.8199H9.05159L8.66271 21.6073L8.26275 22.8199ZM13.5956 24.2743H12.3268L13.3578 25.0283L12.9645 26.25L13.9956 25.4937L15.0266 26.25L14.6333 25.0283L15.6643 24.2743H14.3888L13.9956 23.0526L13.5956 24.2743ZM18.9284 22.8199H17.6663L18.6973 23.574L18.3018 24.7956L19.3328 24.0394L20.3638 24.7956L19.9727 23.574L21.0015 22.8199H19.7284L19.3284 21.6073L18.9284 22.8199ZM22.7236 18.9984H21.4481L22.4792 19.7525L22.0859 20.9741L23.1169 20.2201L24.1479 20.9741L23.7724 19.7525L24.8034 18.9984H23.5303L23.1347 17.7768L22.7236 18.9984Z" fill="#FFC300"/>
<path d="M16 24C16 28.4183 19.5817 32 24 32C28.4183 32 32 28.4183 32 24C32 19.5817 28.4183 16 24 16C19.5817 16 16 19.5817 16 24Z" fill="white"/>
<path d="M24 16.3333C28.2 16.3333 31.6667 19.8 31.6667 24C31.6667 28.2 28.2 31.6667 24 31.6667C19.8 31.6667 16.3333 28.2 16.3333 24C16.3333 19.8 19.8 16.3333 24 16.3333ZM24 16C19.6 16 16 19.6 16 24C16 28.4 19.6 32 24 32C28.4 32 32 28.4 32 24C32 19.6 28.4 16 24 16Z" fill="#999999"/>
<path d="M24.0001 27.5C25.9331 27.5 27.5001 25.933 27.5001 24C27.5001 22.067 25.9331 20.5 24.0001 20.5C22.0671 20.5 20.5001 22.067 20.5001 24C20.5001 25.933 22.0671 27.5 24.0001 27.5Z" fill="#B22233"/>
</svg>
