<svg width="32" height="32" viewBox="0 0 32 32" fill="none" xmlns="http://www.w3.org/2000/svg">
<path d="M0 14C0 21.732 6.26801 28 14 28C21.732 28 28 21.732 28 14C28 6.26801 21.732 0 14 0C6.26801 0 0 6.26801 0 14Z" fill="#00237C"/>
<path d="M3.41873 12.4024L3.81203 13.6219H5.08747L4.05645 14.3781L4.44086 15.5975L3.41873 14.8435L2.38771 15.5975L2.78102 14.3781L1.75 13.6219H3.02321L3.41873 12.4024ZM4.46752 8.24751H3.19431L4.21866 9.0015L3.82536 10.2232L4.85638 9.46688L5.8874 10.2232L5.49409 9.0015L6.52511 8.24751H5.25634L4.86304 7.02592L4.46752 8.24751ZM8.26275 4.42598H6.98956L8.02057 5.18L7.625 6.39269L8.66271 5.64762L9.68923 6.39269L9.29376 5.17105L10.3248 4.41703H9.05159L8.66271 3.20434L8.26275 4.42598ZM13.5956 2.97164H12.3268L13.3578 3.72566L12.9645 4.94731L13.9956 4.19328L15.0266 4.94731L14.6333 3.72566L15.6643 2.97164H14.3888L13.9956 1.75L13.5956 2.97164ZM18.9284 4.42598H17.6663L18.6973 5.18L18.3018 6.39269L19.3284 5.64762L20.3638 6.39269L19.9727 5.17105L21.0015 4.41703H19.7284L19.3284 3.20434L18.9284 4.42598ZM22.7236 8.24751H21.4481L22.4792 9.0015L22.0859 10.2232L23.1169 9.46688L24.1479 10.2232L23.7724 9.0015L24.8034 8.24751H23.5303L23.1347 7.02592L22.7236 8.24751ZM24.1679 13.6174H22.8925L23.9235 14.3737L23.5502 15.5975L24.5812 14.8435L25.6123 15.5975L25.219 14.3781L26.25 13.6219H24.9745L24.5812 12.4024L24.1679 13.6174ZM4.45642 18.9872H3.19431L4.21866 19.7525L3.82536 20.9741L4.85638 20.2201L5.8874 20.9741L5.49409 19.7525L6.52511 18.9984H5.25634L4.86304 17.7768L4.45642 18.9872ZM8.26275 22.8199H6.98956L8.02057 23.574L7.625 24.7956L8.66271 24.0394L9.69373 24.7956L9.29816 23.574L10.3292 22.8199H9.05159L8.66271 21.6073L8.26275 22.8199ZM13.5956 24.2743H12.3268L13.3578 25.0283L12.9645 26.25L13.9956 25.4937L15.0266 26.25L14.6333 25.0283L15.6643 24.2743H14.3888L13.9956 23.0526L13.5956 24.2743ZM18.9284 22.8199H17.6663L18.6973 23.574L18.3018 24.7956L19.3328 24.0394L20.3638 24.7956L19.9727 23.574L21.0015 22.8199H19.7284L19.3284 21.6073L18.9284 22.8199ZM22.7236 18.9984H21.4481L22.4792 19.7525L22.0859 20.9741L23.1169 20.2201L24.1479 20.9741L23.7724 19.7525L24.8034 18.9984H23.5303L23.1347 17.7768L22.7236 18.9984Z" fill="#FFC300"/>
<mask id="mask0" mask-type="alpha" maskUnits="userSpaceOnUse" x="16" y="16" width="16" height="16">
<path d="M16 24C16 28.4183 19.5817 32 24 32C28.4183 32 32 28.4183 32 24C32 19.5817 28.4183 16 24 16C19.5817 16 16 19.5817 16 24Z" fill="#3A4782"/>
</mask>
<g mask="url(#mask0)">
<path d="M32 16H16V32H32V16Z" fill="white"/>
<path d="M32 16H16V17.2203H32V16Z" fill="#B22233"/>
<path d="M32 18.4408H16V19.6611H32V18.4408Z" fill="#B22233"/>
<path d="M32 20.9492H16V22.1696H32V20.9492Z" fill="#B22233"/>
<path d="M32 23.3896H16V24.61H32V23.3896Z" fill="#B22233"/>
<path d="M32 25.8983H16V27.1187H32V25.8983Z" fill="#B22233"/>
<path d="M32 28.339H16V29.5593H32V28.339Z" fill="#B22233"/>
<path d="M32 30.7797H16V32H32V30.7797Z" fill="#B22233"/>
<path d="M16 16H24.7457V24.6102H16" fill="#3C3B6E"/>
<path d="M23.4575 17.2543L23.7288 16.3729L24.0677 17.2543L23.2542 16.7119H24.2033" fill="white"/>
<path d="M21.4238 17.2543L21.695 16.3729L22.0339 17.2543L21.2882 16.7119H22.1695" fill="white"/>
<path d="M19.3898 17.2543L19.7288 16.3729L20 17.2543L19.2543 16.7119H20.2034" fill="white"/>
<path d="M17.356 17.2543L17.695 16.3729L17.9662 17.2543L17.2205 16.7119H18.1696" fill="white"/>
<path d="M20.4069 18.1356L20.7459 17.2543L21.0171 18.1356L20.2714 17.5932H21.2205" fill="white"/>
<path d="M22.4407 18.1356L22.712 17.2543L23.0509 18.1356L22.3052 17.5932H23.1865" fill="white"/>
<path d="M18.3729 18.1356L18.7118 17.2543L18.983 18.1356L18.2373 17.5932H19.1864" fill="white"/>
<path d="M16.4069 18.1356L16.678 17.2543L16.9492 18.1356L16.2035 17.5932H17.1526" fill="white"/>
<path d="M19.3898 18.9492L19.7288 18.0679L20 18.9492L19.2543 18.4069H20.2034" fill="white"/>
<path d="M23.4575 18.9492L23.7288 18.0679L24.0677 18.9492L23.2542 18.4069H24.2033" fill="white"/>
<path d="M21.4238 18.9492L21.695 18.0679L22.0339 18.9492L21.2882 18.4069H22.1695" fill="white"/>
<path d="M17.356 18.9492L17.695 18.0679L17.9662 18.9492L17.2205 18.4069H18.1696" fill="white"/>
<path d="M20.4069 19.8306L20.7459 18.9492L21.0171 19.8306L20.2714 19.2882H21.2205" fill="white"/>
<path d="M22.4407 19.8306L22.712 18.9492L23.0509 19.8306L22.3052 19.2882H23.1865" fill="white"/>
<path d="M18.3729 19.8306L18.7118 18.9492L18.983 19.8306L18.2373 19.2882H19.1864" fill="white"/>
<path d="M16.4069 19.8306L16.678 18.9492L16.9492 19.8306L16.2035 19.2882H17.1526" fill="white"/>
<path d="M23.4575 20.7119L23.7288 19.8306L24.0677 20.7119L23.2542 20.1696H24.2033" fill="white"/>
<path d="M17.356 24.1694L17.695 23.2881L17.9662 24.1694L17.2205 23.627H18.1696" fill="white"/>
<path d="M23.4575 24.1694L23.7288 23.2881L24.0677 24.1694L23.2542 23.627H24.2033" fill="white"/>
<path d="M21.4238 24.1694L21.695 23.2881L22.0339 24.1694L21.2882 23.627H22.1695" fill="white"/>
<path d="M19.3898 24.1694L19.7288 23.2881L20 24.1694L19.2543 23.627H20.2034" fill="white"/>
<path d="M22.4407 23.2881L22.712 22.4067L23.0509 23.2881L22.3052 22.7457H23.1865" fill="white"/>
<path d="M20.4069 23.2881L20.7459 22.4067L21.0171 23.2881L20.2714 22.7457H21.2205" fill="white"/>
<path d="M18.3729 23.2881L18.7118 22.4067L18.983 23.2881L18.2373 22.7457H19.1864" fill="white"/>
<path d="M16.4069 23.2881L16.678 22.4067L16.9492 23.2881L16.2035 22.7457H17.1526" fill="white"/>
<path d="M17.356 22.4069L17.695 21.5255L17.9662 22.4069L17.2205 21.8645H18.1696" fill="white"/>
<path d="M23.4575 22.4069L23.7288 21.5255L24.0677 22.4069L23.2542 21.8645H24.2033" fill="white"/>
<path d="M21.4238 22.4069L21.695 21.5255L22.0339 22.4069L21.2882 21.8645H22.1695" fill="white"/>
<path d="M19.3898 22.4069L19.7288 21.5255L20 22.4069L19.2543 21.8645H20.2034" fill="white"/>
<path d="M22.4407 21.5934L22.712 20.6442L23.0509 21.5934L22.3052 21.0509H23.1865" fill="white"/>
<path d="M20.4069 21.5934L20.7459 20.6442L21.0171 21.5934L20.2714 21.0509H21.2205" fill="white"/>
<path d="M18.3729 21.5934L18.7118 20.6442L18.983 21.5934L18.2373 21.0509H19.1864" fill="white"/>
<path d="M16.4069 21.5934L16.678 20.6442L16.9492 21.5934L16.2035 21.0509H17.1526" fill="white"/>
<path d="M19.3898 20.7119L19.7288 19.8306L20 20.7119L19.2543 20.1696H20.2034" fill="white"/>
<path d="M21.4238 20.7119L21.695 19.8306L22.0339 20.7119L21.2882 20.1696H22.1695" fill="white"/>
<path d="M17.356 20.7119L17.695 19.8306L17.9662 20.7119L17.2205 20.1696H18.1696" fill="white"/>
</g>
</svg>
