<svg width="32" height="32" viewBox="0 0 32 32" fill="none" xmlns="http://www.w3.org/2000/svg">
<mask id="mask0" mask-type="alpha" maskUnits="userSpaceOnUse" x="0" y="0" width="28" height="28">
<circle cx="14" cy="14" r="14" fill="#C4C4C4"/>
</mask>
<g mask="url(#mask0)">
<path d="M0.00524902 0H28.0052V28H0.00524902V0Z" fill="#00237C"/>
<path d="M5.89053 15.5452L6.35078 16.975L7.75427 16.443L6.92478 17.6942L8.21452 18.4608L6.72002 18.5903L6.92478 20.0777L5.89053 18.9893L4.85628 20.0777L5.06277 18.5903L3.56653 18.4608L4.85803 17.6942L4.02678 16.443L5.43203 16.975L5.89053 15.5452Z" fill="white"/>
<path d="M21.7823 18.1195L22.001 18.8002L22.6695 18.5465L22.274 19.1415L22.89 19.5072L22.1778 19.5685L22.2758 20.2772L21.7823 19.7592L21.2905 20.2772L21.3885 19.5685L20.6763 19.5072L21.2905 19.1415L20.895 18.5465L21.5635 18.8002L21.7823 18.1195Z" fill="white"/>
<path d="M17.8097 11.8282L18.0285 12.509L18.697 12.2552L18.3015 12.852L18.9157 13.216L18.2035 13.2772L18.3015 13.9859L17.8097 13.468L17.318 13.9859L17.416 13.2772L16.7037 13.216L17.318 12.852L16.9225 12.2552L17.591 12.509L17.8097 11.8282Z" fill="white"/>
<path d="M21.7823 7.52502L22.001 8.20578L22.6695 7.95204L22.274 8.54704L22.89 8.91278L22.1778 8.97403L22.2758 9.68279L21.7823 9.16477L21.2905 9.68279L21.3885 8.97403L20.6763 8.91278L21.2905 8.54704L20.895 7.95204L21.5635 8.20578L21.7823 7.52502Z" fill="white"/>
<path d="M25.3137 10.7695L25.5325 11.4503L26.2009 11.1965L25.8055 11.7915L26.4214 12.1573L25.7092 12.2185L25.8072 12.9273L25.3137 12.4093L24.822 12.9273L24.92 12.2185L24.2077 12.1573L24.822 11.7915L24.4265 11.1965L25.095 11.4503L25.3137 10.7695Z" fill="white"/>
<path d="M23.3712 13.9562L23.5445 14.3815L24.0012 14.4147L23.6512 14.7105L23.7615 15.155L23.3712 14.9135L22.9827 15.155L23.0912 14.7105L22.743 14.4147L23.1997 14.3815L23.3712 13.9562Z" fill="white"/>
<path d="M6.23699 0H8.73249V3.54027H14.9642V6.5485H8.73249V10.0887H6.23699V6.5485H0.00524902V3.53326H6.23699V0Z" fill="white"/>
<path d="M0.00524902 0H1.6765L14.9607 8.96699V10.0958H13.2825L0.00524902 1.12351V0Z" fill="white"/>
<path d="M14.9607 0H13.2825L0 8.96699V10.0958H1.67125L14.9607 1.12351V0Z" fill="white"/>
<path d="M6.73399 0H8.23024V4.21226H14.9607V5.88174H8.23024V10.0958H6.73399V5.88174H0.00524902V4.21226H6.73399V0Z" fill="#B22233"/>
<path d="M0.00524902 0L5.16424 3.54027H4.04949L0.00524902 0.752508V0ZM14.9607 0H13.846L8.86024 3.54027H9.97499L14.9607 0Z" fill="#B22233"/>
<path d="M14.9607 10.0957L9.79999 6.54846H10.9147L14.9607 9.34846V10.0957ZM0.00524902 10.0957H1.12L6.10749 6.54846H4.99275L0.00524902 10.0957Z" fill="#B22233"/>
</g>
<mask id="mask1" mask-type="alpha" maskUnits="userSpaceOnUse" x="16" y="16" width="16" height="16">
<circle cx="24" cy="24" r="8" fill="#C4C4C4"/>
</mask>
<g mask="url(#mask1)">
<path d="M32 16H16V32H32V16Z" fill="#00237C"/>
<path d="M27.945 21.599V22.062L28.871 21.599H27.945Z" fill="white"/>
<path d="M28.122 22.142L27.85 21.768L28.871 21.598L28.122 22.142Z" fill="white"/>
<path d="M27.945 21.599V22.062L27.019 21.599H27.945Z" fill="white"/>
<path d="M27.768 22.142L28.04 21.768L27.019 21.598L27.768 22.142Z" fill="white"/>
<path d="M28.2311 21.807L27.7911 21.95L28.5171 22.687L28.2311 21.807Z" fill="white"/>
<path d="M27.768 22.1419L28.04 21.7679L28.517 22.6859L27.768 22.1419Z" fill="white"/>
<path d="M27.659 21.8069L28.099 21.9499L27.945 20.9269L27.659 21.8069Z" fill="white"/>
<path d="M28.2311 21.8069L27.7911 21.9499L27.9451 20.9269L28.2311 21.8069Z" fill="white"/>
<path d="M27.659 21.807L28.099 21.95L27.373 22.687L27.659 21.807Z" fill="white"/>
<path d="M28.122 22.1419L27.85 21.7679L27.373 22.6859L28.122 22.1419Z" fill="white"/>
<path d="M27.9451 21.701V22.0071L28.5571 21.701H27.9451Z" fill="#B22233"/>
<path d="M28.062 22.061L27.882 21.813L28.557 21.701L28.062 22.061Z" fill="#B22233"/>
<path d="M27.945 21.701V22.0071L27.333 21.701H27.945Z" fill="#B22233"/>
<path d="M27.828 22.061L28.008 21.813L27.333 21.701L27.828 22.061Z" fill="#B22233"/>
<path d="M28.134 21.842L27.843 21.942L28.323 22.429L28.134 21.842Z" fill="#B22233"/>
<path d="M27.828 22.061L28.008 21.813L28.323 22.4201L27.828 22.061Z" fill="#B22233"/>
<path d="M27.756 21.8421L28.047 21.9421L27.947 21.2661L27.756 21.8421Z" fill="#B22233"/>
<path d="M28.134 21.842L27.843 21.942L27.943 21.266L28.134 21.842Z" fill="#B22233"/>
<path d="M27.756 21.842L28.047 21.942L27.567 22.429L27.756 21.842Z" fill="#B22233"/>
<path d="M28.062 22.061L27.882 21.813L27.567 22.4201L28.062 22.061Z" fill="#B22233"/>
<path d="M30.3681 23.742V24.153L31.1921 23.742H30.3681Z" fill="white"/>
<path d="M30.525 24.223L30.283 23.889L31.192 23.739L30.525 24.223Z" fill="white"/>
<path d="M30.3681 23.742V24.153L29.5441 23.742H30.3681Z" fill="white"/>
<path d="M30.2111 24.223L30.4531 23.889L29.5441 23.739L30.2111 24.223Z" fill="white"/>
<path d="M30.622 23.923L30.231 24.051L30.877 24.707L30.622 23.923Z" fill="white"/>
<path d="M30.2111 24.2229L30.4531 23.8889L30.8771 24.7069L30.2111 24.2229Z" fill="white"/>
<path d="M30.1131 23.923L30.5051 24.051L30.3681 23.14L30.1131 23.923Z" fill="white"/>
<path d="M30.622 23.923L30.231 24.051L30.368 23.14L30.622 23.923Z" fill="white"/>
<path d="M30.1131 23.923L30.5051 24.051L29.8591 24.707L30.1131 23.923Z" fill="white"/>
<path d="M30.5251 24.2229L30.2831 23.8889L29.8591 24.7069L30.5251 24.2229Z" fill="white"/>
<path d="M30.368 23.8419V24.0959L30.878 23.8419H30.368Z" fill="#B22233"/>
<path d="M30.4649 24.142L30.3149 23.9359L30.8779 23.843L30.4649 24.142Z" fill="#B22233"/>
<path d="M30.368 23.8419V24.0959L29.858 23.8419H30.368Z" fill="#B22233"/>
<path d="M30.271 24.142L30.42 23.9359L29.858 23.843L30.271 24.142Z" fill="#B22233"/>
<path d="M30.525 23.955L30.283 24.034L30.683 24.44L30.525 23.955Z" fill="#B22233"/>
<path d="M30.271 24.1419L30.42 23.9359L30.687 24.4419L30.271 24.1419Z" fill="#B22233"/>
<path d="M30.2099 23.955L30.4529 24.034L30.3679 23.47L30.2099 23.955Z" fill="#B22233"/>
<path d="M30.5249 23.955L30.2829 24.034L30.3679 23.47L30.5249 23.955Z" fill="#B22233"/>
<path d="M30.21 23.955L30.453 24.034L30.053 24.44L30.21 23.955Z" fill="#B22233"/>
<path d="M30.465 24.1419L30.315 23.9359L30.053 24.4419L30.465 24.1419Z" fill="#B22233"/>
<path d="M25.1181 24.442V24.905L26.0441 24.442H25.1181Z" fill="white"/>
<path d="M25.2951 24.987L25.0231 24.613L26.0441 24.443L25.2951 24.987Z" fill="white"/>
<path d="M25.118 24.442V24.905L24.192 24.442H25.118Z" fill="white"/>
<path d="M24.941 24.987L25.213 24.613L24.192 24.443L24.941 24.987Z" fill="white"/>
<path d="M25.404 24.6509L24.964 24.7939L25.69 25.5309L25.404 24.6509Z" fill="white"/>
<path d="M24.941 24.9869L25.213 24.6129L25.69 25.5309L24.941 24.9869Z" fill="white"/>
<path d="M24.832 24.6509L25.272 24.7939L25.118 23.7709L24.832 24.6509Z" fill="white"/>
<path d="M25.404 24.6509L24.964 24.7939L25.118 23.7709L25.404 24.6509Z" fill="white"/>
<path d="M24.832 24.6509L25.272 24.7939L24.546 25.5309L24.832 24.6509Z" fill="white"/>
<path d="M25.295 24.9869L25.023 24.6129L24.546 25.5309L25.295 24.9869Z" fill="white"/>
<path d="M25.118 24.542V24.848L25.73 24.542H25.118Z" fill="#B22233"/>
<path d="M25.235 24.905L25.055 24.657L25.73 24.545L25.235 24.905Z" fill="#B22233"/>
<path d="M25.1181 24.5421V24.8481L24.506 24.5421H25.1181Z" fill="#B22233"/>
<path d="M25.001 24.905L25.181 24.657L24.506 24.545L25.001 24.905Z" fill="#B22233"/>
<path d="M25.307 24.683L25.0161 24.777L25.496 25.264L25.307 24.683Z" fill="#B22233"/>
<path d="M25.0011 24.905L25.1811 24.657L25.4961 25.264L25.0011 24.905Z" fill="#B22233"/>
<path d="M24.9291 24.6831L25.2201 24.7771L25.1201 24.1011L24.9291 24.6831Z" fill="#B22233"/>
<path d="M25.307 24.6831L25.0161 24.7771L25.1161 24.1011L25.307 24.6831Z" fill="#B22233"/>
<path d="M24.9291 24.683L25.22 24.777L24.7401 25.264L24.9291 24.683Z" fill="#B22233"/>
<path d="M25.235 24.905L25.0551 24.657L24.7401 25.264L25.235 24.905Z" fill="#B22233"/>
<path d="M27.9449 28.906V29.42L28.9729 28.906H27.9449Z" fill="white"/>
<path d="M28.1409 29.5101L27.8409 29.0951L28.9749 28.9061L28.1409 29.5101Z" fill="white"/>
<path d="M27.945 28.906V29.42L26.917 28.906H27.945Z" fill="white"/>
<path d="M27.749 29.5101L28.049 29.0951L26.915 28.9061L27.749 29.5101Z" fill="white"/>
<path d="M28.2629 29.1421L27.7739 29.3011L28.5799 30.1191L28.2629 29.1421Z" fill="white"/>
<path d="M27.749 29.5101L28.049 29.0951L28.578 30.1141L27.749 29.5101Z" fill="white"/>
<path d="M27.627 29.142L28.116 29.301L27.9449 28.165L27.627 29.142Z" fill="white"/>
<path d="M28.2619 29.142L27.7739 29.301L27.9449 28.165L28.2619 29.142Z" fill="white"/>
<path d="M27.6269 29.1421L28.1159 29.3011L27.3099 30.1191L27.6269 29.1421Z" fill="white"/>
<path d="M28.141 29.5101L27.841 29.0951L27.312 30.1141L28.141 29.5101Z" fill="white"/>
<path d="M27.9449 29.008V29.365L28.6589 29.008H27.9449Z" fill="#B22233"/>
<path d="M28.0809 29.428L27.8709 29.139L28.6589 29.008L28.0809 29.428Z" fill="#B22233"/>
<path d="M27.9449 29.008V29.365L27.2309 29.008H27.9449Z" fill="#B22233"/>
<path d="M27.8089 29.428L28.0179 29.139L27.2309 29.008L27.8089 29.428Z" fill="#B22233"/>
<path d="M28.1649 29.169L27.8259 29.279L28.3859 29.847L28.1649 29.169Z" fill="#B22233"/>
<path d="M27.8089 29.428L28.0179 29.139L28.3859 29.847L27.8089 29.428Z" fill="#B22233"/>
<path d="M27.7239 29.169L28.0639 29.279L27.9449 28.49L27.7239 29.169Z" fill="#B22233"/>
<path d="M28.1648 29.1689L27.8258 29.2789L27.9448 28.4899L28.1648 29.1689Z" fill="#B22233"/>
<path d="M27.7238 29.169L28.0638 29.279L27.5038 29.847L27.7238 29.169Z" fill="#B22233"/>
<path d="M28.0808 29.428L27.8708 29.139L27.5038 29.847L28.0808 29.428Z" fill="#B22233"/>
<path d="M23.59 16L20.981 17.865V16H19.565V17.766L16.958 16H16V16.629L17.895 18.014H16V19.736H17.919L16 21.129L16.001 21.763H16.954L19.565 19.907V21.763H20.981V20.007L23.59 21.763H24.544L24.543 21.12L22.653 19.736H24.543V18.014H22.678L24.543 16.639L24.544 16H23.59Z" fill="white"/>
<path d="M24.544 18.391H20.697V16H19.84V18.391H16.001V19.265H19.84V21.763H20.697V19.265H24.544V18.391Z" fill="#B22233"/>
<path d="M18.849 18.021H18.212L16 16.429V16L18.849 18.021Z" fill="#B22233"/>
<path d="M21.059 18.02H21.703L24.546 16H23.91L21.059 18.02Z" fill="#B22233"/>
<path d="M21.697 19.735H22.328L24.544 21.333V21.763L21.697 19.735Z" fill="#B22233"/>
<path d="M19.487 19.735H18.857L16 21.763H16.635L19.487 19.735Z" fill="#B22233"/>
</g>
</svg>
