<svg width="32" height="32" viewBox="0 0 32 32" fill="none" xmlns="http://www.w3.org/2000/svg">
<mask id="mask0" mask-type="alpha" maskUnits="userSpaceOnUse" x="0" y="0" width="28" height="28">
<circle cx="14" cy="14" r="14" fill="#C4C4C4"/>
</mask>
<g mask="url(#mask0)">
<path d="M0 0V28H28V0H0Z" fill="#00237C"/>
<path d="M28 2.16664L17.864 9.51186V0H10.2375V9.51359L0 2.11765V7.25597L4.018 10.1384H0V17.7986H4.0985L0 20.7213V25.8264L10.2375 18.4427V28H17.864V18.4444L28 25.7791V20.674L23.9995 17.7986H28V10.1384H24.08L28 7.30322V2.16664Z" fill="white"/>
<path d="M28 11.6918H16.324V0H11.7407V11.6918H0V16.275H11.7407V28H16.324V16.275H28V11.6918Z" fill="#B22233"/>
<path d="M8.75 9.625H5.27753L0 5.84919V3.5L8.75 9.625Z" fill="#B22233"/>
<path d="M20.125 17.5H23.0855L28 21.3663V23.625L20.125 17.5Z" fill="#B22233"/>
<path d="M18.375 9.625H21.8194L28 5.10284V2.625L18.375 9.625Z" fill="#B22233"/>
<path d="M9.625 17.5H6.38414L0 22.794V25.375L9.625 17.5Z" fill="#B22233"/>
</g>
<mask id="mask1" mask-type="alpha" maskUnits="userSpaceOnUse" x="16" y="16" width="16" height="16">
<path d="M16 24C16 28.4183 19.5817 32 24 32C28.4183 32 32 28.4183 32 24C32 19.5817 28.4183 16 24 16C19.5817 16 16 19.5817 16 24Z" fill="#3A4782"/>
</mask>
<g mask="url(#mask1)">
<path d="M32 16H16V32H32V16Z" fill="white"/>
<path d="M32 16H16V17.2203H32V16Z" fill="#B22233"/>
<path d="M32 18.4408H16V19.6611H32V18.4408Z" fill="#B22233"/>
<path d="M32 20.9492H16V22.1696H32V20.9492Z" fill="#B22233"/>
<path d="M32 23.3896H16V24.61H32V23.3896Z" fill="#B22233"/>
<path d="M32 25.8983H16V27.1187H32V25.8983Z" fill="#B22233"/>
<path d="M32 28.339H16V29.5593H32V28.339Z" fill="#B22233"/>
<path d="M32 30.7797H16V32H32V30.7797Z" fill="#B22233"/>
<path d="M16 16H24.7457V24.6102H16" fill="#3C3B6E"/>
<path d="M23.4576 17.2543L23.7288 16.3729L24.0678 17.2543L23.2542 16.7119H24.2033" fill="white"/>
<path d="M21.4238 17.2543L21.695 16.3729L22.034 17.2543L21.2883 16.7119H22.1696" fill="white"/>
<path d="M19.3898 17.2543L19.7288 16.3729L20 17.2543L19.2543 16.7119H20.2034" fill="white"/>
<path d="M17.356 17.2543L17.6949 16.3729L17.9661 17.2543L17.2204 16.7119H18.1695" fill="white"/>
<path d="M20.4069 18.1356L20.7458 17.2543L21.017 18.1356L20.2713 17.5932H21.2204" fill="white"/>
<path d="M22.4407 18.1356L22.712 17.2543L23.0509 18.1356L22.3052 17.5932H23.1865" fill="white"/>
<path d="M18.3729 18.1356L18.7119 17.2543L18.9831 18.1356L18.2374 17.5932H19.1865" fill="white"/>
<path d="M16.4069 18.1356L16.678 17.2543L16.9492 18.1356L16.2035 17.5932H17.1526" fill="white"/>
<path d="M19.3898 18.9492L19.7288 18.0679L20 18.9492L19.2543 18.4069H20.2034" fill="white"/>
<path d="M23.4576 18.9492L23.7288 18.0679L24.0678 18.9492L23.2542 18.4069H24.2033" fill="white"/>
<path d="M21.4238 18.9492L21.695 18.0679L22.034 18.9492L21.2883 18.4069H22.1696" fill="white"/>
<path d="M17.356 18.9492L17.6949 18.0679L17.9661 18.9492L17.2204 18.4069H18.1695" fill="white"/>
<path d="M20.4069 19.8306L20.7458 18.9492L21.017 19.8306L20.2713 19.2882H21.2204" fill="white"/>
<path d="M22.4407 19.8306L22.712 18.9492L23.0509 19.8306L22.3052 19.2882H23.1865" fill="white"/>
<path d="M18.3729 19.8306L18.7119 18.9492L18.9831 19.8306L18.2374 19.2882H19.1865" fill="white"/>
<path d="M16.4069 19.8306L16.678 18.9492L16.9492 19.8306L16.2035 19.2882H17.1526" fill="white"/>
<path d="M23.4576 20.7119L23.7288 19.8306L24.0678 20.7119L23.2542 20.1696H24.2033" fill="white"/>
<path d="M17.356 24.1694L17.6949 23.2881L17.9661 24.1694L17.2204 23.627H18.1695" fill="white"/>
<path d="M23.4576 24.1694L23.7288 23.2881L24.0678 24.1694L23.2542 23.627H24.2033" fill="white"/>
<path d="M21.4238 24.1694L21.695 23.2881L22.034 24.1694L21.2883 23.627H22.1696" fill="white"/>
<path d="M19.3898 24.1694L19.7288 23.2881L20 24.1694L19.2543 23.627H20.2034" fill="white"/>
<path d="M22.4407 23.2881L22.712 22.4067L23.0509 23.2881L22.3052 22.7457H23.1865" fill="white"/>
<path d="M20.4069 23.2881L20.7458 22.4067L21.017 23.2881L20.2713 22.7457H21.2204" fill="white"/>
<path d="M18.3729 23.2881L18.7119 22.4067L18.9831 23.2881L18.2374 22.7457H19.1865" fill="white"/>
<path d="M16.4069 23.2881L16.678 22.4067L16.9492 23.2881L16.2035 22.7457H17.1526" fill="white"/>
<path d="M17.356 22.4069L17.6949 21.5255L17.9661 22.4069L17.2204 21.8645H18.1695" fill="white"/>
<path d="M23.4576 22.4069L23.7288 21.5255L24.0678 22.4069L23.2542 21.8645H24.2033" fill="white"/>
<path d="M21.4238 22.4069L21.695 21.5255L22.034 22.4069L21.2883 21.8645H22.1696" fill="white"/>
<path d="M19.3898 22.4069L19.7288 21.5255L20 22.4069L19.2543 21.8645H20.2034" fill="white"/>
<path d="M22.4407 21.5934L22.712 20.6442L23.0509 21.5934L22.3052 21.0509H23.1865" fill="white"/>
<path d="M20.4069 21.5934L20.7458 20.6442L21.017 21.5934L20.2713 21.0509H21.2204" fill="white"/>
<path d="M18.3729 21.5934L18.7119 20.6442L18.9831 21.5934L18.2374 21.0509H19.1865" fill="white"/>
<path d="M16.4069 21.5934L16.678 20.6442L16.9492 21.5934L16.2035 21.0509H17.1526" fill="white"/>
<path d="M19.3898 20.7119L19.7288 19.8306L20 20.7119L19.2543 20.1696H20.2034" fill="white"/>
<path d="M21.4238 20.7119L21.695 19.8306L22.034 20.7119L21.2883 20.1696H22.1696" fill="white"/>
<path d="M17.356 20.7119L17.6949 19.8306L17.9661 20.7119L17.2204 20.1696H18.1695" fill="white"/>
</g>
</svg>
