<svg width="32" height="32" viewBox="0 0 32 32" fill="none" xmlns="http://www.w3.org/2000/svg">
<mask id="mask0" mask-type="alpha" maskUnits="userSpaceOnUse" x="0" y="0" width="28" height="28">
<circle cx="14" cy="14" r="14" fill="#C4C4C4"/>
</mask>
<g mask="url(#mask0)">
<path d="M0.00524902 0H28.0052V28H0.00524902V0Z" fill="#00237C"/>
<path d="M5.89053 15.5452L6.35078 16.975L7.75427 16.443L6.92478 17.6942L8.21452 18.4608L6.72002 18.5903L6.92478 20.0777L5.89053 18.9893L4.85628 20.0777L5.06277 18.5903L3.56653 18.4608L4.85803 17.6942L4.02678 16.443L5.43203 16.975L5.89053 15.5452Z" fill="white"/>
<path d="M21.7823 18.1195L22.001 18.8002L22.6695 18.5465L22.274 19.1415L22.89 19.5072L22.1778 19.5685L22.2758 20.2772L21.7823 19.7592L21.2905 20.2772L21.3885 19.5685L20.6763 19.5072L21.2905 19.1415L20.895 18.5465L21.5635 18.8002L21.7823 18.1195Z" fill="white"/>
<path d="M17.8097 11.8282L18.0285 12.509L18.697 12.2552L18.3015 12.852L18.9157 13.216L18.2035 13.2772L18.3015 13.9859L17.8097 13.468L17.318 13.9859L17.416 13.2772L16.7037 13.216L17.318 12.852L16.9225 12.2552L17.591 12.509L17.8097 11.8282Z" fill="white"/>
<path d="M21.7823 7.52502L22.001 8.20578L22.6695 7.95204L22.274 8.54704L22.89 8.91278L22.1778 8.97403L22.2758 9.68279L21.7823 9.16477L21.2905 9.68279L21.3885 8.97403L20.6763 8.91278L21.2905 8.54704L20.895 7.95204L21.5635 8.20578L21.7823 7.52502Z" fill="white"/>
<path d="M25.3137 10.7695L25.5325 11.4503L26.2009 11.1965L25.8055 11.7915L26.4214 12.1573L25.7092 12.2185L25.8072 12.9273L25.3137 12.4093L24.822 12.9273L24.92 12.2185L24.2077 12.1573L24.822 11.7915L24.4265 11.1965L25.095 11.4503L25.3137 10.7695Z" fill="white"/>
<path d="M23.3712 13.9562L23.5445 14.3815L24.0012 14.4147L23.6512 14.7105L23.7615 15.155L23.3712 14.9135L22.9827 15.155L23.0912 14.7105L22.743 14.4147L23.1997 14.3815L23.3712 13.9562Z" fill="white"/>
<path d="M6.23699 0H8.73249V3.54027H14.9642V6.5485H8.73249V10.0887H6.23699V6.5485H0.00524902V3.53326H6.23699V0Z" fill="white"/>
<path d="M0.00524902 0H1.6765L14.9607 8.96699V10.0958H13.2825L0.00524902 1.12351V0Z" fill="white"/>
<path d="M14.9607 0H13.2825L0 8.96699V10.0958H1.67125L14.9607 1.12351V0Z" fill="white"/>
<path d="M6.73399 0H8.23024V4.21226H14.9607V5.88174H8.23024V10.0958H6.73399V5.88174H0.00524902V4.21226H6.73399V0Z" fill="#B22233"/>
<path d="M0.00524902 0L5.16424 3.54027H4.04949L0.00524902 0.752508V0ZM14.9607 0H13.846L8.86024 3.54027H9.97499L14.9607 0Z" fill="#B22233"/>
<path d="M14.9607 10.0957L9.79999 6.54846H10.9147L14.9607 9.34846V10.0957ZM0.00524902 10.0957H1.12L6.10749 6.54846H4.99275L0.00524902 10.0957Z" fill="#B22233"/>
</g>
<mask id="mask1" mask-type="alpha" maskUnits="userSpaceOnUse" x="16" y="16" width="16" height="16">
<circle cx="24" cy="24" r="8" fill="#C4C4C4"/>
</mask>
<g mask="url(#mask1)">
<path d="M32 16H16V32H32V16Z" fill="#C61C1C"/>
<path d="M29.587 16H18.412V32H29.587V16Z" fill="white"/>
<path d="M24 19.46L23.237 20.882C23.151 21.036 22.996 21.022 22.837 20.936L22.285 20.65L22.696 22.834C22.783 23.234 22.505 23.234 22.368 23.061L21.405 21.982L21.248 22.53C21.2347 22.5747 21.2051 22.6127 21.1651 22.6366C21.1251 22.6605 21.0776 22.6685 21.032 22.659L19.814 22.403L20.134 23.567C20.202 23.825 20.256 23.932 20.065 24.001L19.631 24.201L21.731 25.901C21.7738 25.9334 21.8062 25.9777 21.824 26.0284C21.8418 26.0791 21.8442 26.1339 21.831 26.186L21.647 26.786C22.369 26.702 23.016 26.577 23.739 26.5C23.802 26.493 23.909 26.6 23.909 26.672L23.809 28.879H24.16L24.105 26.679C24.105 26.605 24.205 26.495 24.265 26.502C24.987 26.579 25.634 26.702 26.356 26.788L26.173 26.188C26.1598 26.1359 26.1622 26.0811 26.18 26.0304C26.1978 25.9797 26.2301 25.9354 26.273 25.903L28.373 24.203L27.939 24.003C27.748 23.934 27.801 23.827 27.87 23.569L28.19 22.405L26.972 22.661C26.9262 22.6705 26.8786 22.6625 26.8384 22.6387C26.7983 22.6148 26.7685 22.5767 26.755 22.532L26.599 21.984L25.636 23.063C25.499 23.235 25.221 23.235 25.308 22.836L25.719 20.652L25.167 20.938C25.012 21.024 24.857 21.038 24.767 20.884" fill="#C61C1C"/>
<path d="M24 16.3333C28.2 16.3333 31.6667 19.8 31.6667 24C31.6667 28.2 28.2 31.6667 24 31.6667C19.8 31.6667 16.3333 28.2 16.3333 24C16.3333 19.8 19.8 16.3333 24 16.3333ZM24 16C19.6 16 16 19.6 16 24C16 28.4 19.6 32 24 32C28.4 32 32 28.4 32 24C32 19.6 28.4 16 24 16Z" fill="#999999"/>
</g>
</svg>
