<!-- by TradingView --><svg width="18" height="18" xmlns="http://www.w3.org/2000/svg"><path fill="#F0F3FA" d="M0 0h18v18H0z"/><path d="M3 5l2.5 1.5V14L3 12.5V5z" fill="#2891F9"/><path d="M5.5 8.5L8 9v3.5L5.5 14V8.5zM9 6.5l2.5.5v2.5L9 11V6.5z" fill="#2BBDF7"/><path d="M3 5l6 3.5V11L3 7.5V5z" fill="#2891F9"/><path d="M5.5 3.5l6 3.5L9 8.5 3 5l2.5-1.5z" fill="#2B6DEF"/><path d="M10 5l2.5 1.5V14L10 12.5V5z" fill="#2891F9"/><path d="M12.5 6.5L15 5v7.5L12.5 14V6.5z" fill="#2BBDF7"/><path d="M12.5 3.5L15 5l-2.5 1.5L10 5l2.5-1.5z" fill="#2B6DEF"/></svg>