<svg width="34" height="34" viewBox="0 0 34 34" fill="none" xmlns="http://www.w3.org/2000/svg">
<path d="M17 34C26.3888 34 34 26.3888 34 17C34 7.61116 26.3888 0 17 0C7.61116 0 0 7.61116 0 17C0 26.3888 7.61116 34 17 34Z" fill="#EF0027"/>
<path d="M23.3027 10.5326L7.96875 7.71057L16.0384 28.0171L27.2829 14.3172L23.3027 10.5326ZM23.0563 11.7757L25.4023 14.0059L18.9869 15.1672L23.0563 11.7757ZM17.5929 14.9345L10.8311 9.32663L21.8833 11.3603L17.5929 14.9345ZM17.1116 15.9269L16.0087 25.0431L10.064 10.0799L17.1116 15.9269ZM18.1316 16.4103L25.2365 15.1247L17.0871 25.0516L18.1316 16.4103Z" fill="white"/>
</svg>
