<svg width="53" height="51" viewBox="0 0 53 51" fill="none" xmlns="http://www.w3.org/2000/svg">
<ellipse cx="26.5" cy="25.5" rx="26.5" ry="25.5" fill="#0070E4" fill-opacity="0.2"/>
<g clip-path="url(#clip0_251_8620)">
<path d="M35.1666 26C35.1666 31.06 31.0599 35.1667 25.9999 35.1667C20.9399 35.1667 16.8333 31.06 16.8333 26C16.8333 20.94 20.9399 16.8333 25.9999 16.8333" stroke="#292D32" stroke-width="2" stroke-linecap="round" stroke-linejoin="round"/>
<path d="M35.1667 20.5V16.8333H31.5" stroke="#292D32" stroke-width="2" stroke-linecap="round" stroke-linejoin="round"/>
<path d="M30.5833 21.4167L35.1666 16.8333" stroke="#292D32" stroke-width="2" stroke-linecap="round" stroke-linejoin="round"/>
<path d="M24 27.8216C24 28.7108 24.6875 29.4258 25.5308 29.4258H27.2542C27.9875 29.4258 28.5833 28.8025 28.5833 28.0233C28.5833 27.1891 28.2167 26.8866 27.6758 26.6941L24.9167 25.7316C24.3758 25.5391 24.0092 25.2458 24.0092 24.4025C24.0092 23.6325 24.605 23 25.3383 23H27.0617C27.905 23 28.5925 23.715 28.5925 24.6041" stroke="black" stroke-linecap="round" stroke-linejoin="round"/>
<path d="M26 22V30.25" stroke="black" stroke-linecap="round" stroke-linejoin="round"/>
</g>
<defs>
<clipPath id="clip0_251_8620">
<rect width="22" height="22" fill="white" transform="translate(15 15)"/>
</clipPath>
</defs>
</svg>
