<svg width="53" height="51" viewBox="0 0 53 51" fill="none" xmlns="http://www.w3.org/2000/svg">
<ellipse cx="26.5" cy="25.5" rx="26.5" ry="25.5" fill="#0070E4" fill-opacity="0.2"/>
<path d="M31.2341 26.6508L28.4841 29.4008C28.3989 29.4868 28.2975 29.5549 28.1858 29.6015C28.0741 29.648 27.9543 29.672 27.8333 29.672C27.7122 29.672 27.5924 29.648 27.4807 29.6015C27.369 29.5549 27.2676 29.4868 27.1824 29.4008C27.0965 29.3156 27.0283 29.2142 26.9818 29.1025C26.9352 28.9908 26.9113 28.871 26.9113 28.75C26.9113 28.629 26.9352 28.5092 26.9818 28.3975C27.0283 28.2858 27.0965 28.1844 27.1824 28.0992L29.2908 26L27.1824 23.9008C27.0098 23.7282 26.9128 23.4941 26.9128 23.25C26.9128 23.0059 27.0098 22.7718 27.1824 22.5992C27.355 22.4266 27.5891 22.3296 27.8333 22.3296C28.0774 22.3296 28.3115 22.4266 28.4841 22.5992L31.2341 25.3492C31.32 25.4344 31.3882 25.5358 31.4347 25.6475C31.4813 25.7592 31.5052 25.879 31.5052 26C31.5052 26.121 31.4813 26.2408 31.4347 26.3525C31.3882 26.4642 31.32 26.5656 31.2341 26.6508ZM26.6508 25.3492L23.9008 22.5992C23.7281 22.4266 23.494 22.3296 23.2499 22.3296C23.0058 22.3296 22.7717 22.4266 22.5991 22.5992C22.4265 22.7718 22.3295 23.0059 22.3295 23.25C22.3295 23.4941 22.4265 23.7282 22.5991 23.9008L23.7908 25.0833H17.7499C17.5068 25.0833 17.2736 25.1799 17.1017 25.3518C16.9298 25.5237 16.8333 25.7569 16.8333 26C16.8333 26.2431 16.9298 26.4763 17.1017 26.6482C17.2736 26.8201 17.5068 26.9167 17.7499 26.9167H23.7908L22.5991 28.0992C22.5132 28.1844 22.445 28.2858 22.3984 28.3975C22.3519 28.5092 22.3279 28.629 22.3279 28.75C22.3279 28.871 22.3519 28.9908 22.3984 29.1025C22.445 29.2142 22.5132 29.3156 22.5991 29.4008C22.6843 29.4868 22.7857 29.5549 22.8974 29.6015C23.0091 29.648 23.1289 29.672 23.2499 29.672C23.3709 29.672 23.4907 29.648 23.6024 29.6015C23.7142 29.5549 23.8155 29.4868 23.9008 29.4008L26.6508 26.6508C26.7367 26.5656 26.8049 26.4642 26.8514 26.3525C26.8979 26.2408 26.9219 26.121 26.9219 26C26.9219 25.879 26.8979 25.7592 26.8514 25.6475C26.8049 25.5358 26.7367 25.4344 26.6508 25.3492Z" fill="black"/>
<path d="M33.3334 34.25H30.5834C30.3403 34.25 30.1071 34.1534 29.9352 33.9815C29.7633 33.8096 29.6667 33.5764 29.6667 33.3333C29.6667 33.0902 29.7633 32.8571 29.9352 32.6852C30.1071 32.5132 30.3403 32.4167 30.5834 32.4167H33.3334V19.5833H30.5834C30.3403 19.5833 30.1071 19.4868 29.9352 19.3148C29.7633 19.1429 29.6667 18.9098 29.6667 18.6667C29.6667 18.4236 29.7633 18.1904 29.9352 18.0185C30.1071 17.8466 30.3403 17.75 30.5834 17.75H33.3334C33.8196 17.75 34.286 17.9432 34.6298 18.287C34.9736 18.6308 35.1667 19.0971 35.1667 19.5833V32.4167C35.1667 32.9029 34.9736 33.3692 34.6298 33.713C34.286 34.0568 33.8196 34.25 33.3334 34.25Z" fill="black"/>
</svg>
