<svg width="53" height="51" viewBox="0 0 53 51" fill="none" xmlns="http://www.w3.org/2000/svg">
<ellipse cx="26.5" cy="25.5" rx="26.5" ry="25.5" fill="#0070E4" fill-opacity="0.2"/>
<path d="M27 30C26.4696 30 25.9609 29.7893 25.5858 29.4142C25.2107 29.0391 25 28.5304 25 28C25 26.89 25.89 26 27 26C27.5304 26 28.0391 26.2107 28.4142 26.5858C28.7893 26.9609 29 27.4696 29 28C29 28.5304 28.7893 29.0391 28.4142 29.4142C28.0391 29.7893 27.5304 30 27 30ZM33 33V23H21V33H33ZM33 21C33.5304 21 34.0391 21.2107 34.4142 21.5858C34.7893 21.9609 35 22.4696 35 23V33C35 33.5304 34.7893 34.0391 34.4142 34.4142C34.0391 34.7893 33.5304 35 33 35H21C20.4696 35 19.9609 34.7893 19.5858 34.4142C19.2107 34.0391 19 33.5304 19 33V23C19 21.89 19.89 21 21 21H22V19C22 17.6739 22.5268 16.4021 23.4645 15.4645C24.4021 14.5268 25.6739 14 27 14C27.6566 14 28.3068 14.1293 28.9134 14.3806C29.52 14.6319 30.0712 15.0002 30.5355 15.4645C30.9998 15.9288 31.3681 16.48 31.6194 17.0866C31.8707 17.6932 32 18.3434 32 19V21H33ZM27 16C26.2044 16 25.4413 16.3161 24.8787 16.8787C24.3161 17.4413 24 18.2044 24 19V21H30V19C30 18.2044 29.6839 17.4413 29.1213 16.8787C28.5587 16.3161 27.7956 16 27 16Z" fill="black"/>
</svg>
