<svg width="53" height="51" viewBox="0 0 53 51" fill="none" xmlns="http://www.w3.org/2000/svg">
<ellipse cx="26.5" cy="25.5" rx="26.5" ry="25.5" fill="#0070E4" fill-opacity="0.2"/>
<g clip-path="url(#clip0_251_11135)">
<path d="M16 32H36V34H16V32ZM17.15 27.95L18 26.47L18.85 27.95L20.15 27.2L19.3 25.72H21V24.22H19.3L20.15 22.75L18.85 22L18 23.47L17.15 22L15.85 22.75L16.7 24.22H15V25.72H16.7L15.85 27.2L17.15 27.95ZM23.85 27.2L25.15 27.95L26 26.47L26.85 27.95L28.15 27.2L27.3 25.72H29V24.22H27.3L28.15 22.75L26.85 22L26 23.47L25.15 22L23.85 22.75L24.7 24.22H23V25.72H24.7L23.85 27.2ZM37 24.22H35.3L36.15 22.75L34.85 22L34 23.47L33.15 22L31.85 22.75L32.7 24.22H31V25.72H32.7L31.85 27.2L33.15 27.95L34 26.47L34.85 27.95L36.15 27.2L35.3 25.72H37V24.22Z" fill="black"/>
</g>
<defs>
<clipPath id="clip0_251_11135">
<rect width="22" height="22" fill="white" transform="translate(15 15)"/>
</clipPath>
</defs>
</svg>
