<svg width="53" height="51" viewBox="0 0 53 51" fill="none" xmlns="http://www.w3.org/2000/svg">
<ellipse cx="26.5" cy="25.5" rx="26.5" ry="25.5" fill="#0070E4" fill-opacity="0.2"/>
<path d="M20.125 18C19.2962 18 18.5013 18.3292 17.9153 18.9153C17.3292 19.5013 17 20.2962 17 21.125V28.875C17 29.7038 17.3292 30.4987 17.9153 31.0847C18.5013 31.6708 19.2962 32 20.125 32H33.875C34.7038 32 35.4987 31.6708 36.0847 31.0847C36.6708 30.4987 37 29.7038 37 28.875V21.125C37 20.2962 36.6708 19.5013 36.0847 18.9153C35.4987 18.3292 34.7038 18 33.875 18H20.125ZM18.25 21.125C18.25 20.6277 18.4475 20.1508 18.7992 19.7992C19.1508 19.4475 19.6277 19.25 20.125 19.25H33.875C34.3723 19.25 34.8492 19.4475 35.2008 19.7992C35.5525 20.1508 35.75 20.6277 35.75 21.125V28.875C35.75 29.3723 35.5525 29.8492 35.2008 30.2008C34.8492 30.5525 34.3723 30.75 33.875 30.75H20.125C19.6277 30.75 19.1508 30.5525 18.7992 30.2008C18.4475 29.8492 18.25 29.3723 18.25 28.875V21.125ZM21.067 23.183C20.9498 23.0658 20.7908 22.9999 20.625 22.9999C20.4592 22.9999 20.3002 23.0658 20.183 23.183C20.0658 23.3002 19.9999 23.4592 19.9999 23.625C19.9999 23.7908 20.0658 23.9498 20.183 24.067L21.116 25L20.183 25.933C20.0658 26.0502 19.9999 26.2092 19.9999 26.375C19.9999 26.5408 20.0658 26.6998 20.183 26.817C20.3002 26.9342 20.4592 27.0001 20.625 27.0001C20.7908 27.0001 20.9498 26.9342 21.067 26.817L22 25.884L22.933 26.817C23.0502 26.9342 23.2092 27.0001 23.375 27.0001C23.5408 27.0001 23.6998 26.9342 23.817 26.817C23.9342 26.6998 24.0001 26.5408 24.0001 26.375C24.0001 26.2092 23.9342 26.0502 23.817 25.933L22.884 25L23.817 24.067C23.9342 23.9498 24.0001 23.7908 24.0001 23.625C24.0001 23.4592 23.9342 23.3002 23.817 23.183C23.6998 23.0658 23.5408 22.9999 23.375 22.9999C23.2092 22.9999 23.0502 23.0658 22.933 23.183L22 24.116L21.067 23.183ZM25.683 23.183C25.741 23.1249 25.8099 23.0789 25.8858 23.0475C25.9616 23.0161 26.0429 22.9999 26.125 22.9999C26.2071 22.9999 26.2884 23.0161 26.3642 23.0475C26.4401 23.0789 26.509 23.1249 26.567 23.183L27.5 24.116L28.433 23.183C28.5502 23.0658 28.7092 22.9999 28.875 22.9999C29.0408 22.9999 29.1998 23.0658 29.317 23.183C29.4342 23.3002 29.5001 23.4592 29.5001 23.625C29.5001 23.7908 29.4342 23.9498 29.317 24.067L28.384 25L29.317 25.933C29.4342 26.0502 29.5001 26.2092 29.5001 26.375C29.5001 26.5408 29.4342 26.6998 29.317 26.817C29.1998 26.9342 29.0408 27.0001 28.875 27.0001C28.7092 27.0001 28.5502 26.9342 28.433 26.817L27.5 25.884L26.567 26.817C26.4498 26.9342 26.2908 27.0001 26.125 27.0001C25.9592 27.0001 25.8002 26.9342 25.683 26.817C25.5658 26.6998 25.4999 26.5408 25.4999 26.375C25.4999 26.2092 25.5658 26.0502 25.683 25.933L26.616 25L25.683 24.067C25.6249 24.009 25.5789 23.9401 25.5475 23.8642C25.5161 23.7884 25.4999 23.7071 25.4999 23.625C25.4999 23.5429 25.5161 23.4616 25.5475 23.3858C25.5789 23.3099 25.6249 23.241 25.683 23.183ZM31.625 25.75C31.4592 25.75 31.3003 25.8158 31.1831 25.9331C31.0658 26.0503 31 26.2092 31 26.375C31 26.5408 31.0658 26.6997 31.1831 26.8169C31.3003 26.9342 31.4592 27 31.625 27H33.875C34.0408 27 34.1997 26.9342 34.3169 26.8169C34.4342 26.6997 34.5 26.5408 34.5 26.375C34.5 26.2092 34.4342 26.0503 34.3169 25.9331C34.1997 25.8158 34.0408 25.75 33.875 25.75H31.625Z" fill="black"/>
</svg>
