<svg width="53" height="51" viewBox="0 0 53 51" fill="none" xmlns="http://www.w3.org/2000/svg">
<ellipse cx="26.5" cy="25.5" rx="26.5" ry="25.5" fill="#0070E4" fill-opacity="0.2"/>
<g clip-path="url(#clip0_251_8630)">
<path d="M34.5 21.5H33V18.5H31.5V21.5H30V30.5H31.5V33.5H33V30.5H34.5V21.5ZM33 29H31.5V23H33V29Z" fill="black"/>
<path d="M25.5 20H24V17H22.5V20H21V27.5H22.5V30.5H24V27.5H25.5V20ZM24 26H22.5V21.5H24V26Z" fill="black"/>
<path d="M37.5 36.5H18C17.6022 36.5 17.2206 36.342 16.9393 36.0607C16.658 35.7794 16.5 35.3978 16.5 35V15.5H18V35H37.5V36.5Z" fill="black"/>
</g>
<defs>
<clipPath id="clip0_251_8630">
<rect width="24" height="24" fill="white" transform="translate(15 14)"/>
</clipPath>
</defs>
</svg>
