<svg width="96" height="103" viewBox="0 0 96 103" fill="none" xmlns="http://www.w3.org/2000/svg">
<g clip-path="url(#clip0_177_378)">
<path opacity="0.2" d="M1.485 50.7336C1.485 45.6616 3.17999 40.8682 6.20099 37.0057C3.15199 33.0986 1.485 28.2662 1.485 23.3057C1.485 11.0047 11.49 0.999996 23.7856 0.999997L72.6999 0.999999C84.9953 1 95 11.0047 95 23.3057C95 28.2662 93.3335 33.093 90.2847 37.0001C93.3056 40.8627 95 45.6616 95 50.728C95 55.7945 93.1161 61.1173 89.6939 65.147L65.2368 93.946C60.9897 98.946 54.7973 101.81 48.2427 101.81C41.6881 101.81 35.4902 98.946 31.2487 93.946L6.792 65.147C3.369 61.1173 1.485 56.0007 1.485 50.728L1.485 50.7336Z" stroke="url(#paint0_linear_177_378)" stroke-miterlimit="10"/>
<path opacity="0.4" d="M8.17422 50.7332C8.17422 45.1986 11.0672 40.3272 15.4202 37.5515L11.8922 33.3936C9.49521 30.5734 8.18021 26.9895 8.18021 23.3053C8.18021 14.694 15.1802 7.68799 23.7915 7.68799L72.7002 7.68799C81.3059 7.68799 88.312 14.694 88.312 23.3053C88.312 26.9895 86.991 30.5734 84.5943 33.3936L81.0662 37.546C85.4192 40.3216 88.312 45.193 88.312 50.7276C88.312 54.4118 86.991 57.9956 84.5943 60.8159L60.1372 89.615C57.1665 93.115 52.8302 95.122 48.2431 95.122C43.656 95.122 39.3197 93.115 36.3489 89.615L11.8922 60.8159C9.49521 57.9956 8.17422 54.4118 8.17422 50.7276L8.17422 50.7332Z" stroke="url(#paint1_linear_177_378)" stroke-miterlimit="10"/>
<path opacity="0.6" d="M14.862 23.3113C14.862 18.3898 18.864 14.3823 23.7857 14.3823L72.6999 14.3823C77.6215 14.3823 81.6233 18.3898 81.6233 23.3113C81.6233 25.4126 80.8709 27.4581 79.4998 29.0744L68.6869 41.8102L72.7055 41.8102C77.627 41.8102 81.6289 45.8177 81.6289 50.7392C81.6289 52.8404 80.8765 54.886 79.5053 56.5023L55.0482 85.301C53.3483 87.302 50.8736 88.445 48.2484 88.445C45.6232 88.445 43.1485 87.297 41.4485 85.301L16.991 56.5023C15.62 54.8915 14.868 52.846 14.868 50.7448C14.868 45.8232 18.87 41.8158 23.7912 41.8158L27.8098 41.8158L16.997 29.08C15.626 27.4692 14.873 25.4237 14.873 23.3224L14.862 23.3113Z" stroke="url(#paint2_linear_177_378)" stroke-miterlimit="10"/>
<path d="M49.9373 80.965L62.8737 65.7267L74.3944 52.1605C75.6262 50.7113 74.5951 48.4874 72.6944 48.4874L54.2234 48.4874L62.8737 38.2988L74.3944 24.7326C75.6262 23.2835 74.5951 21.0596 72.6944 21.0596L23.7802 21.0596C21.8796 21.0596 20.8484 23.2835 22.0802 24.7326L33.6009 38.2988L42.2512 48.4874L23.7802 48.4874C21.8796 48.4874 20.8484 50.7113 22.0802 52.1605L33.6009 65.7267L46.5374 80.965C47.4291 82.013 49.0455 82.013 49.9373 80.965Z" stroke="#60406B" stroke-miterlimit="10"/>
</g>
<defs>
<linearGradient id="paint0_linear_177_378" x1="-4.25899" y1="10.9979" x2="123.485" y2="61.844" gradientUnits="userSpaceOnUse">
<stop stop-color="#D38ED7"/>
<stop offset="0.55" stop-color="#7DFFD0" stop-opacity="0.2"/>
<stop offset="1" stop-color="#7DFFD0" stop-opacity="0.46"/>
</linearGradient>
<linearGradient id="paint1_linear_177_378" x1="3.25122" y1="16.3593" x2="113.079" y2="59.5522" gradientUnits="userSpaceOnUse">
<stop stop-color="#D38ED7"/>
<stop offset="0.55" stop-color="white" stop-opacity="0.2"/>
<stop offset="1" stop-color="white" stop-opacity="0.46"/>
</linearGradient>
<linearGradient id="paint2_linear_177_378" x1="10.761" y1="21.7275" x2="102.665" y2="57.2774" gradientUnits="userSpaceOnUse">
<stop stop-color="#D38ED7"/>
<stop offset="0.55" stop-color="white" stop-opacity="0.2"/>
<stop offset="1" stop-color="white" stop-opacity="0.46"/>
</linearGradient>
<clipPath id="clip0_177_378">
<rect width="103" height="96" fill="white" transform="translate(96) rotate(90)"/>
</clipPath>
</defs>
</svg>
