<svg width="20" height="20" viewBox="0 0 20 20" fill="none" xmlns="http://www.w3.org/2000/svg">
<g clip-path="url(#clip0_2890_17238)">
<path d="M19.6988 12.4192C18.3631 17.7764 12.9369 21.0364 7.57909 19.7008C2.22377 18.3652 -1.03654 12.9389 0.299398 7.58206C1.6344 2.22425 7.06034 -1.03638 12.4166 0.299249C17.7741 1.63487 21.0344 7.06175 19.6988 12.4192Z" fill="#F89F33"/>
<path d="M14.4082 8.57531C14.6069 7.24469 13.5938 6.52938 12.2085 6.05219L12.6578 4.24969L11.5603 3.97625L11.1228 5.73125C10.8347 5.65938 10.5385 5.59156 10.2441 5.52437L10.6847 3.75781L9.58815 3.48438L9.13847 5.28625C8.89972 5.23188 8.66534 5.17813 8.43784 5.12156L8.43909 5.11594L6.92597 4.73813L6.63409 5.91C6.63409 5.91 7.44815 6.09656 7.43097 6.10812C7.87534 6.21906 7.95597 6.51312 7.94222 6.74625L7.43034 8.79969C7.46097 8.8075 7.50065 8.81875 7.5444 8.83625L7.42878 8.8075L6.71097 11.6841C6.65659 11.8191 6.51878 12.0216 6.20815 11.9447C6.21909 11.9606 5.41065 11.7456 5.41065 11.7456L4.86597 13.0019L6.29409 13.3578C6.55972 13.4244 6.82003 13.4941 7.07597 13.5597L6.6219 15.3831L7.71784 15.6566L8.16784 13.8528C8.4669 13.9341 8.75753 14.0091 9.0419 14.0797L8.59378 15.875L9.69097 16.1484L10.145 14.3288C12.016 14.6828 13.4232 14.54 14.0147 12.8481C14.4919 11.4856 13.9913 10.6997 13.0069 10.1869C13.7238 10.0209 14.2641 9.54938 14.4082 8.57531ZM11.901 12.0906C11.5616 13.4531 9.26784 12.7169 8.52378 12.5319L9.12628 10.1166C9.87003 10.3022 12.2544 10.6697 11.901 12.0906ZM12.24 8.55562C11.9307 9.795 10.0213 9.16531 9.40159 9.01094L9.94784 6.82031C10.5675 6.97469 12.5625 7.26281 12.24 8.55562Z" fill="#0D0D0D"/>
</g>
<defs>
<clipPath id="clip0_2890_17238">
<rect width="20" height="20" fill="white"/>
</clipPath>
</defs>
</svg>
