<svg width="20" height="21" viewBox="0 0 20 21" fill="none" xmlns="http://www.w3.org/2000/svg">
<rect y="0.5" width="20" height="20" rx="10" fill="#F80000"/>
<g clip-path="url(#clip0_2890_17243)">
<path d="M7.5 10.0833L8.75 8.83333V15.5H7.5V10.0833ZM9.58333 15.5H10.8333V10.5L9.58333 9.25V15.5ZM5.41667 15.5H6.66667V10.9167L5.41667 12.1667V15.5ZM14.5454 5.5H12.0833L13.0996 6.51625L11.4583 8.1575L8.95833 5.6575L5.01917 9.59708L5.90292 10.4808L8.95833 7.42542L11.4583 9.92542L13.9837 7.4L15 8.41625V5.95458C15 5.70375 14.7967 5.5 14.5454 5.5ZM12.9167 11.75H13.75C13.98 11.75 14.1667 11.9367 14.1667 12.1667H15C15 11.4775 14.4392 10.9167 13.75 10.9167V10.5H12.9167V10.9167C12.2275 10.9167 11.6667 11.4775 11.6667 12.1667C11.6667 12.7329 12.0725 13.2125 12.6312 13.3054L13.8979 13.5162C14.0537 13.5421 14.1667 13.6754 14.1667 13.8333C14.1667 14.0633 13.98 14.25 13.75 14.25H12.9167C12.6867 14.25 12.5 14.0633 12.5 13.8333H11.6667C11.6667 14.5225 12.2275 15.0833 12.9167 15.0833V15.5H13.75V15.0833C14.4392 15.0833 15 14.5225 15 13.8333C15 13.2671 14.5942 12.7875 14.0354 12.6946L12.7687 12.4837C12.6129 12.4579 12.5 12.3246 12.5 12.1667C12.5 11.9367 12.6867 11.75 12.9167 11.75Z" fill="#0D0D0D"/>
</g>
<defs>
<clipPath id="clip0_2890_17243">
<rect width="10" height="10" fill="white" transform="translate(5 5.5)"/>
</clipPath>
</defs>
</svg>
