<svg width="24" height="24" viewBox="0 0 24 24" fill="none" xmlns="http://www.w3.org/2000/svg">
<g clip-path="url(#clip0_2890_17098)">
<path d="M0 0H24V24H0V0Z" fill="#E82127"/>
<path d="M12 20L14 9.33333C15.7787 9.33333 16.2054 9.696 16.2867 10.496C16.2867 10.496 17.4787 10.0493 18.0814 9.14133C15.7334 8.04933 13.3334 8 13.3334 8L12 9.66667L10.6667 8C10.6667 8 8.26671 8.04933 5.92004 9.14133C6.52004 10.048 7.71338 10.496 7.71338 10.496C7.79471 9.696 8.23338 9.33467 10 9.33333L12 20Z" fill="white"/>
<path d="M12 7.47717C14.1504 7.45267 16.2813 7.88676 18.2507 8.7505C18.5467 8.21317 18.6667 7.99984 18.6667 7.99984C16.236 7.0345 13.96 6.6745 12 6.6665C10.04 6.6745 7.76404 7.0345 5.33337 7.99984C5.33337 7.99984 5.48537 8.2665 5.75071 8.7505C7.7196 7.88645 9.85003 7.45324 12 7.47717Z" fill="white"/>
</g>
<defs>
<clipPath id="clip0_2890_17098">
<rect width="24" height="24" rx="12" fill="white"/>
</clipPath>
</defs>
</svg>
