<svg width="24" height="24" viewBox="0 0 24 24" fill="none" xmlns="http://www.w3.org/2000/svg">
<g clip-path="url(#clip0_2890_17087)">
<path d="M0 0H24V24H0V0Z" fill="url(#paint0_linear_2890_17087)"/>
<path d="M18.1773 8.2415C17.9976 7.89938 17.7526 7.59586 17.456 7.34816C17.2929 7.20467 17.092 7.11117 16.8773 7.07883C16.6888 7.02733 16.4952 6.99737 16.3 6.9895H16.252C16.012 6.9895 15.5293 7.0335 15.24 7.39216C15.096 7.5255 15.048 7.7495 15.096 7.9735C15.144 8.15216 15.24 8.28683 15.4333 8.33083C15.4333 8.33083 15.4813 8.33083 15.5773 8.37616C15.5293 8.37616 15.4813 8.4655 15.4813 8.4655C15.3853 8.59883 15.144 8.82283 14.4693 8.82283H14.4213C14.0853 8.82283 13.7946 8.7335 13.4586 8.33083C13.2666 8.06283 13.1213 7.66016 13.1213 6.94416C13.1213 6.58683 13.0733 6.2735 12.9773 6.0495C12.9192 5.87778 12.7988 5.73409 12.64 5.64683C12.544 5.5575 12.4 5.5135 12.2066 5.46816C12.0146 5.3335 11.7266 5.3335 11.4853 5.3335C11.196 5.3335 11.0506 5.37883 10.9546 5.51216C10.9546 5.51216 10.9546 5.5575 10.9066 5.5575H10.7146C10.5693 5.5575 10.4253 5.6015 10.2813 5.6015C10.0522 5.63415 9.83595 5.7271 9.65462 5.87083C9.54393 5.96618 9.46102 6.08963 9.41462 6.22816C9.36662 6.3615 9.41462 6.45216 9.46262 6.49616C9.46262 6.49616 9.46262 6.5415 9.51062 6.5415C9.60662 6.45216 9.75062 6.40816 9.99195 6.40816C10.2813 6.40816 10.7146 6.5415 10.8586 6.7655C11.0506 7.07883 11.0026 7.30283 10.9546 7.61483C10.8586 8.37483 10.5213 8.77883 9.89595 8.86816H9.55862C9.07729 8.86816 8.73995 8.73483 8.59595 8.4655C8.49862 8.37616 8.49862 8.33216 8.49862 8.33216C8.49862 8.33216 8.54795 8.33216 8.59595 8.28683C8.78795 8.1975 8.88395 8.10816 8.93195 7.92816C8.95443 7.82672 8.95313 7.72146 8.92815 7.6206C8.90316 7.51975 8.85518 7.42605 8.78795 7.34683C8.54795 7.12283 8.21062 6.9895 7.77729 6.9895C7.53729 6.9895 7.34395 7.0335 7.19862 7.07883C6.62129 7.21216 6.18795 7.57083 5.85195 8.2415C5.57979 8.7705 5.41571 9.3484 5.36929 9.9415C5.32091 10.4924 5.32091 11.0466 5.36929 11.5975C5.46529 12.4028 5.60929 12.8948 5.80262 13.3868C5.99595 13.9242 6.28395 14.4162 6.57329 14.8642C6.66929 15.0428 6.71729 15.1322 6.76529 15.1775C6.82448 15.127 6.87377 15.066 6.91062 14.9975C7.09812 14.7982 7.27482 14.589 7.43995 14.3708C7.58395 14.2815 7.72929 14.0135 7.82529 13.8348L7.87329 13.7455L7.96929 13.8348C8.01576 13.8726 8.053 13.9204 8.07819 13.9747C8.10337 14.029 8.11583 14.0883 8.11462 14.1482C8.11462 14.2815 8.06529 14.4162 8.01729 14.6842C7.92129 14.9535 7.77729 15.3108 7.58395 15.5802C7.58395 15.6242 7.53595 15.6695 7.53595 15.6695C7.43995 15.8482 7.39195 15.9375 7.43995 15.9828C7.56852 15.9598 7.68656 15.8968 7.77729 15.8028C7.92129 15.7135 8.25729 15.4455 8.69195 14.8642C9.02929 14.4615 9.26929 14.0135 9.51062 13.5215L9.55862 13.4322L9.65462 13.4762C9.70262 13.4762 9.75062 13.5215 9.75062 13.5668C9.79995 13.6562 9.79995 13.7455 9.79995 13.8788C9.75062 14.1922 9.55862 14.6388 9.41329 14.9535C9.17329 15.4895 8.69195 16.1162 8.35462 16.5642C8.35462 16.5642 8.25862 16.6535 8.25862 16.6975C8.31372 16.7539 8.37883 16.7996 8.45062 16.8322L8.59595 16.9215C9.07595 17.2802 9.51062 17.5935 10.0893 17.8615C10.5213 18.0855 11.436 18.5322 12.0146 18.6668C12.592 18.5335 13.508 18.0855 13.94 17.8615C14.4608 17.5864 14.96 17.2722 15.4333 16.9215L15.5773 16.8322C15.6733 16.7882 15.7213 16.6988 15.7706 16.6988C15.7706 16.6988 15.7213 16.6535 15.7213 16.6082L15.6733 16.5642C15.3373 16.1162 14.8546 15.4895 14.6146 14.9535C14.4693 14.6402 14.2773 14.1482 14.2293 13.8788C14.2293 13.7455 14.2293 13.6562 14.2773 13.5655C14.2773 13.5215 14.3253 13.5215 14.3733 13.4762C14.4213 13.4322 14.4693 13.4322 14.4693 13.4322L14.5186 13.5215C14.7586 14.0148 15.048 14.4162 15.3373 14.8642C15.7706 15.4455 16.1066 15.7135 16.252 15.8028C16.396 15.8922 16.54 15.9828 16.588 15.9828H16.6373C16.6853 15.9375 16.6373 15.8482 16.54 15.6695C16.54 15.6242 16.492 15.5802 16.492 15.5802C16.3175 15.297 16.1723 14.9968 16.0586 14.6842C15.9626 14.4175 15.9146 14.2815 15.9146 14.1482C15.9146 14.0148 15.9626 13.8788 16.0586 13.8348L16.1546 13.7895L16.204 13.8788C16.3 14.0588 16.492 14.3268 16.54 14.4162C16.6373 14.5495 16.9733 14.9095 17.0706 15.0428L17.2146 15.1762C17.2626 15.1322 17.3106 15.0428 17.408 14.9095V14.8642C17.7012 14.3918 17.9584 13.8979 18.1773 13.3868C18.398 12.8115 18.5436 12.2101 18.6106 11.5975C18.6586 11.1042 18.7066 10.5682 18.6106 9.9415C18.6106 9.31483 18.4666 8.68816 18.1773 8.2415Z" fill="white"/>
</g>
<defs>
<linearGradient id="paint0_linear_2890_17087" x1="2.124" y1="5.69067" x2="20.32" y2="21.088" gradientUnits="userSpaceOnUse">
<stop stop-color="#20C4F4"/>
<stop offset="1" stop-color="#006E98"/>
</linearGradient>
<clipPath id="clip0_2890_17087">
<rect width="24" height="24" rx="12" fill="white"/>
</clipPath>
</defs>
</svg>
