<svg width="24" height="24" viewBox="0 0 24 24" fill="none" xmlns="http://www.w3.org/2000/svg">
<path d="M19.8825 4.88109L19.1465 4.14515C18.9385 3.93716 18.5545 3.96917 18.3145 4.25711L15.7543 6.80108C14.6023 6.30514 13.3384 6.06514 12.0103 6.06514C8.05822 6.08107 4.63444 8.38504 2.98633 11.6973C2.8903 11.9052 2.8903 12.1612 2.98633 12.3372C3.75426 13.9052 4.90633 15.2012 6.34633 16.1772L4.25034 18.3051C4.01034 18.5451 3.97833 18.9291 4.13838 19.1371L4.87432 19.8731C5.08231 20.081 5.4663 20.049 5.7063 19.7611L19.7542 5.71321C20.0582 5.47334 20.0902 5.08938 19.8822 4.88137L19.8825 4.88109ZM12.8583 9.71298C12.5863 9.64896 12.2984 9.56901 12.0264 9.56901C10.6663 9.56901 9.57842 10.657 9.57842 12.0169C9.57842 12.2889 9.64244 12.5769 9.72239 12.8489L8.65028 13.9049C8.33032 13.345 8.15433 12.7209 8.15433 12.017C8.15433 9.88899 9.86636 8.17697 11.9943 8.17697C12.6984 8.17697 13.3224 8.35295 13.8823 8.67291L12.8583 9.71298Z" fill="#9295A6"/>
<path d="M21.0344 11.6974C20.4745 10.5774 19.7384 9.56945 18.8265 8.75342L15.8504 11.6974V12.0174C15.8504 14.1454 14.1384 15.8574 12.0104 15.8574H11.6905L9.80249 17.7454C10.5065 17.8893 11.2425 17.9854 11.9625 17.9854C15.9146 17.9854 19.3384 15.6814 20.9865 12.3532C21.1305 12.1292 21.1305 11.9053 21.0345 11.6973L21.0344 11.6974Z" fill="#9295A6"/>
</svg>
