<svg width="347" height="128" viewBox="0 0 347 128" fill="none" xmlns="http://www.w3.org/2000/svg">
<path d="M69.6439 61.1912L50.3557 47.0264L1.12363 68.1308L20.4118 82.2957L69.6439 61.1912Z" fill="#008BFC" stroke="#008BFC"/>
<path d="M44.8478 15.2194L48.7819 26.5373L12.5897 38.6636L20.4576 55.6402L78.68 29.7709L44.8478 15.2194Z" fill="#0250FC"/>
<path d="M33.8321 112.781L29.898 101.463L66.0902 89.3364L58.2223 72.3598L-2.00222e-05 98.2291L33.8321 112.781Z" fill="#0AC4FD"/>
<path d="M112.137 66.9707H103.644V26.0693H126.963V33.1682H112.137V43.7107H125.912V50.8095H112.137V66.9707Z" fill="white"/>
<path d="M167.755 66.9707H157.911L148.458 51.5043L139.034 66.9707H129.791L143.266 45.8857L130.661 26.0693H140.145L148.908 40.7805L157.491 26.0693H166.795L154.04 46.3388L167.755 66.9707Z" fill="white"/>
<path d="M220.973 66.9707H212.389V49.3293H196.303V66.9707H187.66V26.0693H196.303V42.1097H212.389V26.0693H220.973V66.9707Z" fill="white"/>
<path d="M264.327 26.0693V52.5314C264.327 55.5522 263.644 58.2029 262.286 60.476C260.943 62.7567 259 64.5088 256.464 65.7322C253.943 66.9405 250.942 67.5447 247.46 67.5447C242.238 67.5447 238.172 66.2004 235.276 63.4968C232.394 60.8008 230.954 57.1079 230.954 52.4105V26.0693H239.537V51.1116C239.537 54.2532 240.167 56.5717 241.428 58.0594C242.688 59.532 244.774 60.2646 247.7 60.2646C250.521 60.2646 252.562 59.5245 253.823 58.0292C255.083 56.5415 255.713 54.2155 255.713 51.0512V26.0693H264.327Z" fill="white"/>
<path d="M274.262 26.0693H286.927C292.689 26.0693 296.868 26.9001 299.471 28.5464C302.067 30.2003 303.373 32.8283 303.373 36.4306C303.373 38.8699 302.803 40.8712 301.662 42.442C300.522 43.9977 299.006 44.9341 297.131 45.2513V45.5232C299.712 46.1122 301.572 47.1997 302.713 48.7856C303.853 50.3791 304.423 52.4861 304.423 55.099C304.423 58.8448 303.08 61.7674 300.402 63.8593C297.716 65.9361 294.077 66.9707 289.478 66.9707H274.262V26.0693ZM282.905 42.2607H287.887C290.228 42.2607 291.916 41.8982 292.959 41.1732C294.017 40.4483 294.55 39.2399 294.55 37.5483C294.55 36.0002 293.979 34.8825 292.839 34.1952C291.698 33.5156 289.898 33.1682 287.437 33.1682H282.905V42.2607ZM282.905 49.1481V59.8115H288.517C290.873 59.8115 292.614 59.3583 293.739 58.4521C294.88 57.5308 295.45 56.1261 295.45 54.2532C295.45 50.8548 293.034 49.1481 288.217 49.1481H282.905Z" fill="white"/>
<path d="M112.736 96.5315L111.625 92.8763H106.073L104.963 96.5315H101.481L106.854 81.1255H110.815L116.217 96.5315H112.736ZM110.845 90.1576C109.825 86.8574 109.239 84.9921 109.104 84.5692C108.984 84.1312 108.894 83.7762 108.834 83.5119C108.609 84.4181 107.964 86.6384 106.884 90.1576H110.845Z" fill="white"/>
<path d="M118.12 96.5311V81.1855H121.361V93.8426H127.514V96.5311H118.12Z" fill="white"/>
<path d="M130.171 96.5311V81.1855H133.412V93.8426H139.565V96.5311H130.171Z" fill="white"/>
<path d="M147.763 96.5311V81.1855H151.005V96.5311H147.763Z" fill="white"/>
<path d="M168.33 96.5311H164.219L157.616 84.9313H157.496C157.631 86.9854 157.706 88.4505 157.706 89.3114V96.5311H154.825V81.1855H158.907L165.509 92.6947H165.599C165.479 90.701 165.419 89.2963 165.419 88.4656V81.1855H168.33V96.5311Z" fill="white"/>
<path d="M191.544 88.8593C191.544 91.3967 190.914 93.3527 189.653 94.7196C188.408 96.0714 186.622 96.7435 184.281 96.7435C181.94 96.7435 180.14 96.0714 178.879 94.7196C177.634 93.3527 177.019 91.3892 177.019 88.8291C177.019 86.2765 177.649 84.3205 178.909 82.9687C180.17 81.6245 181.97 80.9448 184.311 80.9448C186.652 80.9448 188.438 81.6321 189.683 82.999C190.921 84.3508 191.544 86.3067 191.544 88.8593ZM180.41 88.8593C180.41 90.5736 180.725 91.865 181.37 92.7259C182.03 93.5943 182.998 94.0248 184.281 94.0248C186.862 94.0248 188.153 92.303 188.153 88.8593C188.153 85.4005 186.87 83.6635 184.311 83.6635C183.006 83.6635 182.03 84.1015 181.37 84.9625C180.725 85.8309 180.41 87.1299 180.41 88.8593Z" fill="white"/>
<path d="M208.192 96.5311H204.08L197.477 84.9313H197.357C197.492 86.9854 197.567 88.4505 197.567 89.3114V96.5311H194.686V81.1855H198.768L205.37 92.6947H205.46C205.34 90.701 205.28 89.2963 205.28 88.4656V81.1855H208.192V96.5311Z" fill="white"/>
<path d="M220.792 96.5311H212.029V81.1855H220.792V83.874H215.27V87.2271H220.402V89.8854H215.27V93.8426H220.792V96.5311Z" fill="white"/>
</svg>
