<svg width="24" height="24" viewBox="0 0 24 24" fill="none" xmlns="http://www.w3.org/2000/svg">
<path d="M12 18.3529C10.0294 18.3529 8.24996 17.7793 6.66172 16.6323C5.04407 15.4852 3.76466 13.9411 2.82349 11.9999C3.76466 10.0587 5.04407 8.51462 6.66172 7.36756C8.24996 6.2205 10.0294 5.64697 12 5.64697C13.8823 5.64697 15.647 6.24991 17.2941 7.4558C18.9411 8.63227 20.2353 10.147 21.1764 11.9999C20.2353 13.8529 18.9411 15.3823 17.2941 16.5881C15.647 17.7646 13.8823 18.3529 12 18.3529ZM12 16.2352C13.1764 16.2352 14.1764 15.8234 15 14.9999C15.8235 14.1764 16.2353 13.1764 16.2353 11.9999C16.2353 10.8234 15.8235 9.82344 15 8.99991C14.1764 8.17638 13.1764 7.76462 12 7.76462C10.8235 7.76462 9.82349 8.17638 8.99996 8.99991C8.17643 9.82344 7.76466 10.8234 7.76466 11.9999C7.76466 13.1764 8.17643 14.1764 8.99996 14.9999C9.82349 15.8234 10.8235 16.2352 12 16.2352ZM12 14.4705C11.3235 14.4705 10.75 14.2352 10.2794 13.7646C9.77937 13.2646 9.52937 12.6764 9.52937 11.9999C9.52937 11.3234 9.77937 10.7499 10.2794 10.2793C10.75 9.77933 11.3235 9.52933 12 9.52933C12.6764 9.52933 13.2647 9.77933 13.7647 10.2793C14.2353 10.7499 14.4705 11.3234 14.4705 11.9999C14.4705 12.6764 14.2353 13.2646 13.7647 13.7646C13.2647 14.2352 12.6764 14.4705 12 14.4705Z" fill="#9295A6"/>
</svg>
