<svg width="42" height="42" viewBox="0 0 42 42" fill="none" xmlns="http://www.w3.org/2000/svg">
<g clip-path="url(#clip0_2669_549)">
<path d="M3.5 18.668H38.5V39.668H3.5V18.668Z" fill="#66757F"/>
<path d="M2.33333 39.668H39.6667C40.2855 39.668 40.879 39.9138 41.3166 40.3514C41.7542 40.789 42 41.3825 42 42.0013H0C0 41.3825 0.245833 40.789 0.683417 40.3514C1.121 39.9138 1.71449 39.668 2.33333 39.668Z" fill="#CCD6DD"/>
<path d="M21 26.832C20.0717 26.832 19.1815 27.2008 18.5251 27.8572C17.8687 28.5135 17.5 29.4038 17.5 30.332V37.332H24.5V30.332C24.5 29.4038 24.1313 28.5135 23.4749 27.8572C22.8185 27.2008 21.9283 26.832 21 26.832Z" fill="#292F33"/>
<path d="M3.5 24.5H8.16667V37.3333H3.5V24.5ZM10.5 24.5H15.1667V37.3333H10.5V24.5ZM33.8333 24.5H38.5V37.3333H33.8333V24.5ZM26.8333 24.5H31.5V37.3333H26.8333V24.5Z" fill="#CCD6DD"/>
<path d="M2.3335 37.332H39.6668V39.6654H2.3335V37.332Z" fill="#AAB8C2"/>
<path d="M42 12.8333L21 0L0 12.8333H42Z" fill="#66757F"/>
<path d="M21.0002 2.79688L2.3335 13.9969V18.6635H39.6668V13.9969L21.0002 2.79688Z" fill="#CCD6DD"/>
<path d="M3.5 22.168H8.16667V24.5013H3.5V22.168ZM10.5 22.168H15.1667V24.5013H10.5V22.168ZM26.8333 22.168H31.5V24.5013H26.8333V22.168ZM33.8333 22.168H38.5V24.5013H33.8333V22.168Z" fill="#8899A6"/>
<path d="M1.16666 14H40.8333V19.8333H1.16666V14Z" fill="#CCD6DD"/>
<path d="M42 14.0013C42 14.3107 41.8771 14.6075 41.6583 14.8263C41.4395 15.0451 41.1427 15.168 40.8333 15.168H1.16667C0.857247 15.168 0.560501 15.0451 0.341709 14.8263C0.122916 14.6075 0 14.3107 0 14.0013V12.8346C0 12.5252 0.122916 12.2285 0.341709 12.0097C0.560501 11.7909 0.857247 11.668 1.16667 11.668H40.8333C41.1427 11.668 41.4395 11.7909 41.6583 12.0097C41.8771 12.2285 42 12.5252 42 12.8346V14.0013ZM42 21.0013C42 21.3107 41.8771 21.6075 41.6583 21.8263C41.4395 22.0451 41.1427 22.168 40.8333 22.168H1.16667C0.857247 22.168 0.560501 22.0451 0.341709 21.8263C0.122916 21.6075 0 21.3107 0 21.0013V19.8346C0 19.5252 0.122916 19.2285 0.341709 19.0097C0.560501 18.7909 0.857247 18.668 1.16667 18.668H40.8333C41.1427 18.668 41.4395 18.7909 41.6583 19.0097C41.8771 19.2285 42 19.5252 42 19.8346V21.0013Z" fill="#AAB8C2"/>
<path d="M15.1665 37.332H26.8332V39.6654H15.1665V37.332Z" fill="#E1E8ED"/>
<path d="M12.8335 39.668H29.1668V42.0013H12.8335V39.668Z" fill="#F5F8FA"/>
</g>
<defs>
<clipPath id="clip0_2669_549">
<rect width="42" height="42" fill="white"/>
</clipPath>
</defs>
</svg>
