<svg width="20" height="20" viewBox="0 0 20 20" fill="none" xmlns="http://www.w3.org/2000/svg">
<rect width="20" height="20" rx="10" fill="#6046FF"/>
<g clip-path="url(#clip0_2890_17149)">
<path d="M12.5355 5.03369H5.59337C5.26566 5.03369 5 5.29936 5 5.62706C5 5.95479 5.26566 6.22043 5.59337 6.22043L6.85115 6.22183C7.03464 6.22183 7.18344 6.3706 7.18344 6.55412C7.18344 6.73764 7.03464 6.88641 6.85115 6.88641H5.79808V9.40652H5.59337C5.26566 9.40652 5 9.67214 5 9.99989C5 10.3276 5.26566 10.5933 5.59337 10.5933L6.85115 10.595C7.03464 10.595 7.18344 10.7437 7.18344 10.9273C7.18344 11.1108 7.03464 11.2595 6.85115 11.2595H5.79808V13.7793H5.59337C5.26566 13.7793 5 14.0449 5 14.3727C5 14.7004 5.26566 14.966 5.59337 14.966H10.8202C10.1718 14.436 9.75715 13.6302 9.75715 12.7293C9.75715 12.0645 10.1706 11.1836 11.0212 10.0362C11.608 9.24468 12.1868 8.62187 12.2112 8.59577L12.3308 8.4675V6.22043H12.5355C12.8632 6.22043 13.1289 5.95479 13.1289 5.62706C13.1288 5.29936 12.8632 5.03369 12.5355 5.03369Z" fill="white"/>
<path d="M13.9303 10.5203C13.4107 9.8195 12.8837 9.25248 12.8785 9.24683C12.8516 9.21801 12.814 9.20166 12.7746 9.20166C12.7352 9.20166 12.6976 9.21801 12.6707 9.24683C12.6654 9.25248 12.1384 9.8195 11.6189 10.5203C10.9091 11.4777 10.5493 12.2208 10.5493 12.7291C10.5493 13.9561 11.5476 14.9545 12.7746 14.9545C14.0017 14.9545 15 13.9562 15 12.7291C14.9999 12.2207 14.6401 11.4777 13.9303 10.5203ZM12.9968 14.2343C12.8802 14.2619 12.76 14.2759 12.6395 14.2759C11.7831 14.2759 11.0864 13.5791 11.0864 12.7228C11.0864 12.6047 11.1227 12.3908 11.2958 12.0422C11.3132 12.0072 11.3534 11.9898 11.3908 12.0009C11.4283 12.0121 11.4524 12.0486 11.4477 12.0875C11.4437 12.121 11.4417 12.1526 11.4417 12.1814C11.4417 13.0993 12.0946 13.8966 12.9941 14.0772C13.0311 14.0846 13.058 14.1169 13.0587 14.1547C13.0594 14.1925 13.0336 14.2256 12.9968 14.2343Z" fill="white"/>
</g>
<defs>
<clipPath id="clip0_2890_17149">
<rect width="10" height="10" fill="white" transform="translate(5 5)"/>
</clipPath>
</defs>
</svg>
