<svg width="20" height="20" viewBox="0 0 20 20" fill="none" xmlns="http://www.w3.org/2000/svg">
<rect width="20" height="20" rx="10" fill="#0070E4"/>
<g clip-path="url(#clip0_2890_17132)">
<path d="M12.3995 8.33469L13.247 9.1824C13.7546 9.69003 13.7546 10.4404 13.7546 10.4404L13.8895 10.2144C14.1115 9.84213 14.2816 9.39532 14.2533 9.02789C14.207 8.42647 13.8277 7.96306 13.601 7.73642L13.2993 7.43483L13.8991 6.83489L11.7277 6.75732L11.8053 8.92869L12.3995 8.33469Z" fill="white"/>
<path d="M7.60062 11.6973L6.75302 10.8499C6.24539 10.3421 6.24539 9.5918 6.24539 9.5918L6.11053 9.8177C5.8886 10.1899 5.71841 10.6368 5.74674 11.0041C5.79305 11.6057 6.1722 12.0691 6.39917 12.2957L6.70075 12.5974L6.10081 13.1972L8.27239 13.2748L8.19472 11.1035L7.60062 11.6973Z" fill="white"/>
<path d="M7.95032 6.88293C7.95032 6.95862 7.97917 7.01621 8.03698 7.05584C8.09458 7.09546 8.18208 7.1262 8.29906 7.14773V6.62891C8.16766 6.64343 8.0765 6.67271 8.02612 6.71682C7.97561 6.76093 7.95032 6.81623 7.95032 6.88293Z" fill="white"/>
<path d="M8.9813 7.83234C8.9262 7.79367 8.84205 7.7644 8.72864 7.74463V8.25248C8.95192 8.22373 9.06358 8.14083 9.06358 8.00388C9.06358 7.92841 9.03619 7.87112 8.9813 7.83234Z" fill="white"/>
<path d="M10.9505 7.442C10.9505 6.09336 9.85717 5 8.50853 5C7.15979 5 6.06653 6.09336 6.06653 7.442C6.06653 8.79076 7.15979 9.884 8.50853 9.884C9.85717 9.88412 10.9505 8.79085 10.9505 7.442ZM9.41623 8.53631C9.25504 8.66781 9.026 8.74978 8.7287 8.78208V9.06056H8.29905V8.79577C8.12238 8.79033 7.95627 8.77466 7.8004 8.74863C7.64463 8.72239 7.51543 8.6859 7.41277 8.63907V8.10947C7.48291 8.13477 7.55138 8.15683 7.61818 8.17575C7.68457 8.19467 7.75334 8.21088 7.82339 8.22446C7.89364 8.23794 7.96766 8.24871 8.04491 8.25686C8.12238 8.26492 8.20715 8.26993 8.29905 8.2717V7.67993C8.18552 7.66372 8.07304 7.64166 7.96119 7.61365C7.84954 7.58584 7.74929 7.54403 7.66001 7.488C7.57084 7.43228 7.49818 7.35837 7.44236 7.26638C7.38674 7.1746 7.35862 7.05574 7.35862 6.91C7.35862 6.79093 7.38025 6.68525 7.42344 6.59242C7.46661 6.49959 7.52881 6.41951 7.60993 6.35188C7.69104 6.28424 7.78963 6.22988 7.90588 6.18838C8.02202 6.14709 8.153 6.11823 8.29894 6.10204V5.82344H8.72858V6.09357C8.85999 6.10089 8.99389 6.11584 9.12979 6.13831C9.26569 6.16078 9.3904 6.19204 9.50393 6.23166V6.76659C9.2268 6.67658 8.96796 6.62598 8.72858 6.61521V7.21515C8.842 7.23313 8.95417 7.25687 9.06499 7.28666C9.17581 7.31644 9.2748 7.35973 9.3623 7.41649C9.44949 7.47316 9.52078 7.54748 9.57566 7.63937C9.63065 7.73115 9.65815 7.84928 9.65815 7.99344C9.65825 8.22384 9.57743 8.40469 9.41623 8.53631Z" fill="white"/>
<path d="M11.5388 10.1162C10.19 10.1162 9.0968 11.2095 9.0968 12.5582C9.0968 13.9069 10.1901 15.0002 11.5388 15.0002C12.8874 15.0002 13.9808 13.9069 13.9808 12.5582C13.9808 11.2095 12.8874 10.1162 11.5388 10.1162ZM12.523 13.9444C12.4834 13.9606 12.437 13.9754 12.3839 13.9889C12.3306 14.0025 12.2753 14.0136 12.2177 14.0227C12.16 14.0317 12.1009 14.0385 12.0407 14.0429C11.9804 14.0473 11.9223 14.0496 11.8663 14.0496C11.1224 14.0496 10.6685 13.7542 10.5046 13.1634H10.1561V12.7284H10.4371C10.4352 12.7032 10.434 12.6783 10.433 12.654C10.4322 12.6297 10.4317 12.6051 10.4317 12.5796C10.4317 12.5221 10.4344 12.4661 10.4398 12.4122H10.1561V11.9771H10.5128C10.6027 11.6745 10.7622 11.4416 10.991 11.2786C11.2196 11.1155 11.5134 11.0339 11.8719 11.0339C11.926 11.0339 11.983 11.0368 12.0435 11.0421C12.1037 11.0475 12.1619 11.0547 12.2178 11.0637C12.2735 11.0728 12.3259 11.0839 12.3745 11.0975C12.4231 11.1111 12.4638 11.1251 12.4961 11.1394V11.6798C12.4132 11.651 12.3203 11.6267 12.2178 11.6068C12.1151 11.587 12.0133 11.5771 11.9124 11.5771C11.5557 11.5771 11.3153 11.7104 11.1909 11.9769H12.1042V12.4121H11.0911C11.0855 12.4606 11.0829 12.512 11.0829 12.5662C11.0829 12.5948 11.0838 12.6247 11.0855 12.6553C11.0874 12.686 11.0892 12.7102 11.0911 12.7283H11.9017V13.1633H11.1856C11.2449 13.2858 11.3343 13.3735 11.4532 13.4268C11.572 13.4798 11.7287 13.5065 11.9233 13.5065C11.9683 13.5065 12.0173 13.5039 12.0705 13.4984C12.1237 13.493 12.1772 13.4859 12.2313 13.4767C12.2853 13.4678 12.3376 13.457 12.3881 13.4443C12.4382 13.4317 12.4835 13.4182 12.5231 13.4037V13.9444H12.523Z" fill="white"/>
</g>
<defs>
<clipPath id="clip0_2890_17132">
<rect width="10" height="10" fill="white" transform="translate(5 5)"/>
</clipPath>
</defs>
</svg>
