<svg width="20" height="20" viewBox="0 0 20 20" fill="none" xmlns="http://www.w3.org/2000/svg">
<rect width="20" height="20" rx="10" fill="#C20075"/>
<path d="M11.25 5.5V14.5C11.25 15.33 10.6917 16 10 16C9.30833 16 8.75 15.33 8.75 14.5V5.5C8.75 4.67 9.30833 4 10 4C10.6917 4 11.25 4.67 11.25 5.5ZM13.75 7C13.0583 7 12.5 7.67 12.5 8.5V14.5C12.5 15.33 13.0583 16 13.75 16C14.4417 16 15 15.33 15 14.5V8.5C15 7.67 14.4417 7 13.75 7ZM6.25 10C5.55833 10 5 10.67 5 11.5V14.5C5 15.33 5.55833 16 6.25 16C6.94167 16 7.5 15.33 7.5 14.5V11.5C7.5 10.67 6.94167 10 6.25 10Z" fill="white"/>
</svg>
