<svg width="250" height="90" viewBox="0 0 250 90" fill="none" xmlns="http://www.w3.org/2000/svg">
<path d="M7.80005 46.8296L17.78 31.8096H29.81L20.34 46.8296H7.80005Z" fill="#2CAAE2"/>
<path d="M47.46 17.0889L27.5 48.3289H40.04L60.51 17.0889H47.46Z" fill="#2CAAE2"/>
<path d="M27.5 48.3291H40.04L12.41 88.5791H0L27.5 48.3291Z" fill="#4F4C4B"/>
<path d="M46.82 47.8791L60.51 46.8291L39.53 78.5191H26.23L46.82 47.8791Z" fill="#4F4C4B"/>
<path d="M74.3301 7.2793H87.8101L60.5101 46.8293L46.8201 47.8793L74.3301 7.2793Z" fill="#2CAAE2"/>
<path d="M65.97 48.3289L56.25 63.1989H69.72L79.79 47.8789L65.97 48.3289Z" fill="#4F4C4B"/>
<path d="M101.97 24.5096H92.9401V0.30957H101.62C106.72 0.30957 109.29 3.08957 109.29 6.44957C109.29 9.49957 107.38 11.2796 105.05 12.0396C107.69 12.4896 109.84 15.0296 109.84 18.0096C109.85 21.6596 106.97 24.5096 101.97 24.5096ZM101.34 2.90958H96.1001V10.7496H101.41C104.36 10.7496 106.06 9.28957 106.06 6.82957C106.07 4.43957 104.43 2.90958 101.34 2.90958ZM101.59 13.3596H96.1101V21.8996H101.7C104.82 21.8996 106.7 20.3396 106.7 17.6996C106.69 15.0296 104.68 13.3596 101.59 13.3596Z" fill="#2CAAE2"/>
<path d="M115.99 2.87953V10.9695H124.81V13.5695H115.99V21.8995H125.85V24.4995H112.83V0.269531H125.85V2.86952H115.99V2.87953Z" fill="#2CAAE2"/>
<path d="M128.55 18.05H131.92C132.13 20.06 133.55 22.08 136.92 22.08C139.97 22.08 141.78 20.34 141.78 18.05C141.78 11.52 128.69 15.69 128.69 6.7C128.69 2.71 131.92 0 136.71 0C141.33 0 144.35 2.53001 144.73 6.21001H141.26C141.05 4.58001 139.52 2.74 136.57 2.7C133.97 2.63 131.92 3.99 131.92 6.59C131.92 12.84 144.97 8.95 144.97 17.91C144.97 21.35 142.16 24.75 136.92 24.75C132.06 24.75 128.62 22.04 128.55 18.05Z" fill="#2CAAE2"/>
<path d="M163.12 0.30957V2.87958H156.52V24.5096H153.36V2.87958H146.73V0.30957H163.12Z" fill="#2CAAE2"/>
<path d="M103.12 56.8403H92.67V32.6104H102.67C107.74 32.6104 110.55 35.2504 110.55 38.8604C110.55 41.8104 108.78 43.6504 106.42 44.4104C109.16 44.9004 111.11 47.4303 111.11 50.2803C111.1 54.1303 108.15 56.8403 103.12 56.8403ZM101.97 36.5303H97.53V42.6104H101.97C104.26 42.6104 105.58 41.5703 105.58 39.5903C105.58 37.6403 104.26 36.5303 101.97 36.5303ZM102.32 46.3504H97.53V52.8804H102.42C104.78 52.8804 106.17 51.7304 106.17 49.6904C106.17 47.6004 104.68 46.3504 102.32 46.3504Z" fill="#4F4C4B"/>
<path d="M131.44 40.0296C131.44 42.9796 129.81 45.9696 125.92 47.0096L131.72 56.8296H126.1L120.75 47.3896H118.46V56.8296H113.6V32.5996H122.69C128.52 32.6096 131.44 35.9696 131.44 40.0296ZM122.52 36.6296H118.46V43.7496H122.52C125.23 43.7496 126.44 42.3296 126.44 40.1396C126.44 37.9896 125.22 36.6296 122.52 36.6296Z" fill="#4F4C4B"/>
<path d="M133.27 44.6498C133.27 37.3898 138.86 32.2598 145.7 32.2598C152.61 32.2598 158.09 37.3998 158.09 44.6498C158.09 51.9398 152.57 57.0798 145.7 57.0798C138.86 57.0798 133.27 51.9398 133.27 44.6498ZM153.09 44.6498C153.09 39.7198 150.07 36.6298 145.7 36.6298C141.29 36.6298 138.27 39.7198 138.27 44.6498C138.27 49.5798 141.29 52.7398 145.7 52.7398C150.07 52.7398 153.09 49.5798 153.09 44.6498Z" fill="#4F4C4B"/>
<path d="M179.85 32.6104L169.85 44.6203L180.13 56.8403H173.99L165.17 46.0404V56.8403H160.31V32.6104H165.17V43.4803L173.99 32.6104H179.85Z" fill="#4F4C4B"/>
<path d="M186.79 36.5303V42.6103H194.95V46.4603H186.79V52.8803H195.99V56.8403H181.93V32.5703H195.99V36.5303H186.79Z" fill="#4F4C4B"/>
<path d="M216.85 40.0296C216.85 42.9796 215.22 45.9696 211.33 47.0096L217.13 56.8296H211.51L206.16 47.3896H203.87V56.8296H199.01V32.5996H208.1C213.93 32.6096 216.85 35.9696 216.85 40.0296ZM207.93 36.6296H203.87V43.7496H207.93C210.64 43.7496 211.85 42.3296 211.85 40.1396C211.85 37.9896 210.64 36.6296 207.93 36.6296Z" fill="#4F4C4B"/>
<path d="M92.04 82.1898H97.25C97.39 84.1298 98.6701 85.4198 100.93 85.4198C103.22 85.4198 104.57 84.2098 104.57 82.4698C104.57 77.2298 92.07 80.3899 92.11 71.5999C92.11 67.2299 95.6501 64.5898 100.65 64.5898C105.61 64.5898 109.02 67.1198 109.33 71.4998H103.98C103.88 69.8998 102.59 68.6498 100.51 68.6198C98.6 68.5498 97.1801 69.4898 97.1801 71.4698C97.1801 76.3298 109.61 73.6199 109.61 82.1599C109.61 85.9799 106.55 89.4198 101.04 89.4198C96 89.4098 92.11 86.7698 92.04 82.1898Z" fill="#4F4C4B"/>
<path d="M111.23 76.9798C111.23 69.7198 116.82 64.5898 123.66 64.5898C130.57 64.5898 136.05 69.7298 136.05 76.9798C136.05 84.2698 130.53 89.4099 123.66 89.4099C116.82 89.4099 111.23 84.2698 111.23 76.9798ZM131.06 76.9798C131.06 72.0498 128.04 68.9599 123.67 68.9599C119.26 68.9599 116.24 72.0498 116.24 76.9798C116.24 81.9098 119.26 85.0699 123.67 85.0699C128.04 85.0699 131.06 81.9098 131.06 76.9798Z" fill="#4F4C4B"/>
<path d="M143.13 85.3097H151.11V89.1597H138.27V64.9297H143.13V85.3097Z" fill="#4F4C4B"/>
<path d="M157.6 64.9404V79.9404C157.6 83.2704 159.41 85.0104 162.49 85.0104C165.61 85.0104 167.42 83.2704 167.42 79.9404V64.9404H172.31V79.9004C172.31 86.2904 167.73 89.4104 162.42 89.4104C157.11 89.4104 152.74 86.2904 152.74 79.9004V64.9404H157.6Z" fill="#4F4C4B"/>
<path d="M192.1 64.9404V68.8604H185.64V89.1704H180.78V68.8604H174.32V64.9404H192.1Z" fill="#4F4C4B"/>
<path d="M199.11 64.9404V89.1704H194.25V64.9404H199.11Z" fill="#4F4C4B"/>
<path d="M201.33 76.9798C201.33 69.7198 206.92 64.5898 213.76 64.5898C220.67 64.5898 226.15 69.7298 226.15 76.9798C226.15 84.2698 220.63 89.4099 213.76 89.4099C206.92 89.4099 201.33 84.2698 201.33 76.9798ZM221.15 76.9798C221.15 72.0498 218.13 68.9599 213.76 68.9599C209.35 68.9599 206.33 72.0498 206.33 76.9798C206.33 81.9098 209.35 85.0699 213.76 85.0699C218.13 85.0699 221.15 81.9098 221.15 76.9798Z" fill="#4F4C4B"/>
<path d="M249.09 89.1704H244.23L233.23 72.5404V89.1704H228.37V64.9004H233.23L244.23 81.5604V64.9004H249.09V89.1704Z" fill="#4F4C4B"/>
</svg>
