<svg width="217" height="78" viewBox="0 0 217 78" fill="none" xmlns="http://www.w3.org/2000/svg">
<path d="M6.77002 40.6394L15.44 27.6094H25.87L17.66 40.6394H6.77002Z" fill="#2CAAE2"/>
<path d="M41.2 14.8291L23.87 41.9491H34.76L52.53 14.8291H41.2Z" fill="#2CAAE2"/>
<path d="M23.87 41.9492H34.76L10.77 76.8792H0L23.87 41.9492Z" fill="white"/>
<path d="M40.64 41.5497L52.53 40.6396L34.31 68.1497H22.76L40.64 41.5497Z" fill="white"/>
<path d="M64.52 6.30957H76.22L52.53 40.6396L40.64 41.5496L64.52 6.30957Z" fill="#2CAAE2"/>
<path d="M57.2601 41.9498L48.8201 54.8498H60.5201L69.2601 41.5498L57.2601 41.9498Z" fill="white"/>
<path d="M88.5099 21.2595H80.6799V0.269531H88.2099C92.6399 0.269531 94.8699 2.67952 94.8699 5.59952C94.8699 8.24952 93.21 9.78952 91.2 10.4495C93.49 10.8395 95.36 13.0395 95.36 15.6295C95.35 18.7895 92.8499 21.2595 88.5099 21.2595ZM87.9699 2.52954H83.42V9.33954H88.0299C90.5899 9.33954 92.0699 8.06954 92.0699 5.93954C92.0599 3.84954 90.6499 2.52954 87.9699 2.52954ZM88.1799 11.5895H83.42V18.9995H88.27C90.98 18.9995 92.61 17.6395 92.61 15.3595C92.6 13.0395 90.8599 11.5895 88.1799 11.5895Z" fill="#2CAAE2"/>
<path d="M100.68 2.50024V9.52023H108.33V11.7802H100.68V19.0102H109.23V21.2702H97.9399V0.240234H109.23V2.50024H100.68Z" fill="#2CAAE2"/>
<path d="M111.58 15.66H114.5C114.68 17.41 115.92 19.15 118.84 19.15C121.49 19.15 123.06 17.64 123.06 15.66C123.06 10 111.7 13.61 111.7 5.81C111.7 2.35 114.5 0 118.66 0C122.67 0 125.29 2.19998 125.62 5.38998H122.61C122.43 3.96998 121.1 2.37998 118.54 2.34998C116.28 2.28998 114.5 3.46 114.5 5.72C114.5 11.14 125.83 7.76998 125.83 15.54C125.83 18.52 123.39 21.47 118.84 21.47C114.63 21.48 111.64 19.13 111.58 15.66Z" fill="#2CAAE2"/>
<path d="M141.59 0.269531V2.49954H135.87V21.2695H133.13V2.49954H127.38V0.269531H141.59Z" fill="#2CAAE2"/>
<path d="M89.4999 49.3298H80.4299V28.2998H89.0999C93.4999 28.2998 95.9399 30.5898 95.9399 33.7198C95.9399 36.2798 94.4 37.8798 92.36 38.5398C94.74 38.9598 96.4299 41.1598 96.4299 43.6298C96.4299 46.9798 93.8699 49.3298 89.4999 49.3298ZM88.5099 31.7098H84.6499V36.9798H88.5099C90.4999 36.9798 91.64 36.0798 91.64 34.3598C91.64 32.6698 90.4999 31.7098 88.5099 31.7098ZM88.8099 40.2298H84.6499V45.8898H88.8999C90.9499 45.8898 92.1499 44.8998 92.1499 43.1198C92.1499 41.3098 90.8599 40.2298 88.8099 40.2298Z" fill="white"/>
<path d="M114.08 34.7498C114.08 37.3098 112.66 39.8998 109.29 40.7998L114.32 49.3298H109.44L104.8 41.1398H102.81V49.3298H98.59V28.2998H106.48C111.55 28.2998 114.08 31.2198 114.08 34.7498ZM106.34 31.7998H102.82V37.9798H106.34C108.69 37.9798 109.74 36.7398 109.74 34.8498C109.74 32.9698 108.69 31.7998 106.34 31.7998Z" fill="white"/>
<path d="M115.68 38.75C115.68 32.45 120.53 28 126.46 28C132.45 28 137.21 32.46 137.21 38.75C137.21 45.07 132.42 49.53 126.46 49.53C120.53 49.54 115.68 45.08 115.68 38.75ZM132.88 38.75C132.88 34.47 130.26 31.79 126.46 31.79C122.63 31.79 120.01 34.47 120.01 38.75C120.01 43.03 122.63 45.77 126.46 45.77C130.26 45.77 132.88 43.03 132.88 38.75Z" fill="white"/>
<path d="M156.11 28.3L147.44 38.7201L156.36 49.32H151.03L143.38 39.95V49.32H139.16V28.29H143.38V37.7201L151.03 28.29H156.11V28.3Z" fill="white"/>
<path d="M162.13 31.7095V36.9795H169.21V40.3195H162.13V45.8895H170.11V49.3195H157.91V28.2695H170.11V31.6995H162.13V31.7095Z" fill="white"/>
<path d="M188.22 34.7498C188.22 37.3098 186.8 39.8998 183.43 40.7998L188.46 49.3298H183.58L178.94 41.1398H176.95V49.3298H172.73V28.2998H180.62C185.69 28.2998 188.22 31.2198 188.22 34.7498ZM180.48 31.7998H176.96V37.9798H180.48C182.83 37.9798 183.88 36.7398 183.88 34.8498C183.88 32.9698 182.83 31.7998 180.48 31.7998Z" fill="white"/>
<path d="M79.89 71.3296H84.41C84.53 73.0196 85.64 74.1296 87.6 74.1296C89.59 74.1296 90.76 73.0795 90.76 71.5695C90.76 67.0195 79.92 69.7596 79.95 62.1396C79.95 58.3496 83.02 56.0596 87.36 56.0596C91.67 56.0596 94.62 58.2596 94.89 62.0496H90.25C90.16 60.6596 89.05 59.5796 87.24 59.5496C85.58 59.4896 84.35 60.2996 84.35 62.0196C84.35 66.2396 95.13 63.8896 95.13 71.2996C95.13 74.6096 92.48 77.5995 87.69 77.5995C83.33 77.5995 79.95 75.3096 79.89 71.3296Z" fill="white"/>
<path d="M96.55 66.8203C96.55 60.5203 101.4 56.0703 107.33 56.0703C113.32 56.0703 118.08 60.5303 118.08 66.8203C118.08 73.1503 113.29 77.6003 107.33 77.6003C101.4 77.6003 96.55 73.1403 96.55 66.8203ZM113.75 66.8203C113.75 62.5403 111.13 59.8603 107.33 59.8603C103.5 59.8603 100.88 62.5403 100.88 66.8203C100.88 71.1003 103.5 73.8403 107.33 73.8403C111.13 73.8303 113.75 71.0903 113.75 66.8203Z" fill="white"/>
<path d="M124.24 74.0501H131.17V77.3901H120.03V56.3701H124.25V74.0501H124.24Z" fill="white"/>
<path d="M136.8 56.3604V69.3704C136.8 72.2604 138.37 73.7704 141.05 73.7704C143.76 73.7704 145.33 72.2604 145.33 69.3704V56.3604H149.58V69.3404C149.58 74.8804 145.6 77.5904 141 77.5904C136.4 77.5904 132.6 74.8804 132.6 69.3404V56.3604H136.8Z" fill="white"/>
<path d="M166.74 56.3604V59.7603H161.14V77.3804H156.92V59.7603H151.32V56.3604H166.74Z" fill="white"/>
<path d="M172.83 56.3604V77.3804H168.61V56.3604H172.83Z" fill="white"/>
<path d="M174.76 66.8203C174.76 60.5203 179.61 56.0703 185.54 56.0703C191.53 56.0703 196.29 60.5303 196.29 66.8203C196.29 73.1503 191.5 77.6003 185.54 77.6003C179.6 77.6003 174.76 73.1403 174.76 66.8203ZM191.95 66.8203C191.95 62.5403 189.33 59.8603 185.53 59.8603C181.7 59.8603 179.08 62.5403 179.08 66.8203C179.08 71.1003 181.7 73.8403 185.53 73.8403C189.33 73.8303 191.95 71.0903 191.95 66.8203Z" fill="white"/>
<path d="M216.2 77.3898H211.98L202.43 62.9598V77.3898H198.21V56.3398H202.43L211.98 70.7998V56.3398H216.2V77.3898Z" fill="white"/>
</svg>
