<svg id="Layer_1" data-name="Layer 1" xmlns="http://www.w3.org/2000/svg" viewBox="0 0 362.39 430.64"><defs><style>.cls-1{fill:#2caae2;}.cls-2{fill:#4f4c4b;}</style></defs><polygon class="cls-1" points="123.24 213.55 139.26 189.44 158.57 189.44 143.37 213.55 123.24 213.55"/><polygon class="cls-1" points="186.91 165.81 154.87 215.96 175 215.96 207.86 165.81 186.91 165.81"/><polygon class="cls-2" points="154.87 215.96 175 215.96 130.63 280.58 110.71 280.58 154.87 215.96"/><polygon class="cls-2" points="185.88 215.24 207.86 213.55 174.18 264.43 152.82 264.43 185.88 215.24"/><polygon class="cls-1" points="230.04 150.06 251.68 150.06 207.86 213.55 185.88 215.24 230.04 150.06"/><polygon class="cls-2" points="216.63 215.96 201.02 239.83 222.65 239.83 238.81 215.24 216.63 215.96"/></svg>