<svg width="83" height="82" viewBox="0 0 83 82" fill="none" xmlns="http://www.w3.org/2000/svg">
<ellipse cx="41.5" cy="40.847" rx="41" ry="40.847" fill="#0070E4" fill-opacity="0.3"/>
<mask id="mask0_63_3440" style="mask-type:luminance" maskUnits="userSpaceOnUse" x="9" y="10" width="65" height="62">
<path d="M73.4732 10.4028H9.52539V71.1379H73.4732V10.4028Z" fill="white"/>
</mask>
<g mask="url(#mask0_63_3440)">
<g opacity="0.812597">
<path d="M41.5762 40.1506C41.5548 40.1245 41.5274 40.1034 41.496 40.0889C41.4646 40.0744 41.4303 40.0669 41.3954 40.0669C41.3605 40.0669 41.3262 40.0744 41.2948 40.0889C41.2635 40.1034 41.2361 40.1245 41.2146 40.1506L37.9998 44.0134C37.9732 44.0456 37.9569 44.0842 37.9524 44.1248C37.9479 44.1654 37.9554 44.2064 37.9744 44.243C37.9932 44.2798 38.0225 44.3106 38.0591 44.3322C38.0956 44.3538 38.1377 44.3652 38.1807 44.3652H40.3018V50.9732C40.3018 51.0932 40.4051 51.1913 40.5314 51.1913H42.2536C42.3799 51.1913 42.4833 51.0932 42.4833 50.9732V44.3678H44.6101C44.8025 44.3678 44.9088 44.1579 44.791 44.0162L41.5762 40.1506Z" fill="#0070E4"/>
</g>
<path d="M41.531 40.1463C41.5081 40.1185 41.4789 40.0961 41.4454 40.0806C41.412 40.0652 41.3754 40.0571 41.3383 40.0571C41.3011 40.0571 41.2646 40.0652 41.2311 40.0806C41.1978 40.0961 41.1685 40.1185 41.1456 40.1463L37.7198 44.2627C37.6915 44.297 37.6741 44.3381 37.6693 44.3814C37.6645 44.4246 37.6725 44.4683 37.6927 44.5074C37.7127 44.5465 37.744 44.5794 37.7829 44.6024C37.8219 44.6254 37.8668 44.6375 37.9126 44.6375H40.1729V51.6793C40.1729 51.8072 40.283 51.9117 40.4176 51.9117H42.2528C42.3874 51.9117 42.4976 51.8072 42.4976 51.6793V44.6404H44.764C44.969 44.6404 45.0822 44.4167 44.9567 44.2656L41.531 40.1463Z" fill="#0070E4"/>
<path d="M50.6245 37.0145C49.2236 33.5052 45.6542 31.0098 41.4729 31.0098C37.2917 31.0098 33.7221 33.5023 32.3212 37.0116C29.6998 37.6652 27.7637 39.9341 27.7637 42.6299C27.7637 45.8401 30.5012 48.4401 33.8781 48.4401H35.1046C35.2392 48.4401 35.3494 48.3355 35.3494 48.2077V46.4647C35.3494 46.3368 35.2392 46.2323 35.1046 46.2323H33.8781C32.8473 46.2323 31.8777 45.8429 31.1558 45.1371C30.437 44.4341 30.0546 43.487 30.0883 42.5051C30.1158 41.7382 30.3911 41.0177 30.8897 40.4106C31.4005 39.7917 32.1162 39.3414 32.9115 39.141L34.0707 38.8534L34.4959 37.7902C34.759 37.1278 35.126 36.509 35.5879 35.9484C36.0439 35.3927 36.584 34.9042 37.1907 34.4988C38.4479 33.6592 39.9282 33.2147 41.4729 33.2147C43.0175 33.2147 44.498 33.6592 45.755 34.4988C46.3637 34.9055 46.902 35.3935 47.3578 35.9484C47.8197 36.509 48.1866 37.1307 48.4499 37.7902L48.8718 38.8506L50.028 39.141C51.686 39.5652 52.8451 40.9973 52.8451 42.6299C52.8451 43.5916 52.4505 44.4979 51.7349 45.1777C51.3838 45.513 50.9663 45.7789 50.5065 45.9598C50.0465 46.1408 49.5533 46.2336 49.0554 46.2323H47.8289C47.6944 46.2323 47.5842 46.3368 47.5842 46.4647V48.2077C47.5842 48.3355 47.6944 48.4401 47.8289 48.4401H49.0554C52.4323 48.4401 55.1699 45.8401 55.1699 42.6299C55.1699 39.937 53.2397 37.6711 50.6245 37.0145Z" fill="#0070E4"/>
</g>
</svg>
