<svg width="15" height="14" viewBox="0 0 15 14" fill="none" xmlns="http://www.w3.org/2000/svg">
<path fill-rule="evenodd" clip-rule="evenodd" d="M14.1654 7.00004C14.1654 10.6819 11.1806 13.6667 7.4987 13.6667C3.8168 13.6667 0.832031 10.6819 0.832031 7.00004C0.832031 3.31814 3.8168 0.333374 7.4987 0.333374C11.1806 0.333374 14.1654 3.31814 14.1654 7.00004ZM8.4415 3.94285L7.70823 3.20955C7.59296 3.09432 7.40443 3.09432 7.28916 3.20955C5.32186 5.17688 5.32186 8.36564 7.28916 10.333C7.40443 10.4482 7.59296 10.4482 7.70823 10.333L8.43943 9.60177C8.55463 9.48657 8.55463 9.29797 8.43943 9.18277C8.17963 8.92297 7.96803 8.62757 7.8109 8.31537C7.7983 8.28604 7.77736 8.26091 7.75643 8.23997C7.7019 8.18551 7.62856 8.15404 7.5469 8.15197H6.62503C6.3359 7.25524 6.33383 6.28517 6.62503 5.39059H7.5469C7.66423 5.39059 7.7627 5.32563 7.81296 5.22926C7.9701 4.91709 8.17963 4.62377 8.4415 4.36187C8.55676 4.24664 8.55676 4.05808 8.4415 3.94285ZM7.37303 4.79766C7.49663 4.57349 7.64743 4.35978 7.82136 4.16074L7.50496 3.84438C7.2473 4.13979 7.0357 4.46035 6.87016 4.79766H7.37303ZM7.81923 9.38391C7.64743 9.18697 7.49663 8.97324 7.36883 8.74491L6.8681 8.74277C7.03776 9.08011 7.24936 9.40064 7.5071 9.69611L7.81923 9.38391Z" fill="#020202" fill-opacity="0.5"/>
</svg>
