<svg width="38" height="38" viewBox="0 0 38 38" fill="none" xmlns="http://www.w3.org/2000/svg">
<rect width="38" height="38" rx="19" fill="#0070E4"/>
<path d="M21.1047 20.9431C21.1047 20.3436 20.6761 19.8369 20.0852 19.7377L17.7281 19.2997C16.6369 19.1171 15.8385 18.1723 15.8385 17.0545C15.8385 15.7984 16.8581 14.7767 18.1114 14.7767H18.4716V14.2489C18.4716 13.9575 18.7076 13.7211 18.9983 13.7211C19.289 13.7211 19.5249 13.9575 19.5249 14.2489V14.7767H19.8851C21.2027 14.7767 22.158 15.6644 22.158 16.8877C22.158 17.1791 21.9221 17.4155 21.6314 17.4155C21.3407 17.4155 21.1047 17.1791 21.1047 16.8877C21.1047 16.1584 20.4918 15.8322 19.8851 15.8322H18.1114C17.4384 15.8322 16.8918 16.3811 16.8918 17.0545C16.8918 17.6541 17.3205 18.1607 17.9103 18.2599L20.2674 18.698C21.3586 18.8806 22.158 19.8253 22.158 20.9431C22.158 22.1992 21.1385 23.221 19.8851 23.221H19.5249V23.7488C19.5249 24.0401 19.289 24.2766 18.9983 24.2766C18.7076 24.2766 18.4716 24.0401 18.4716 23.7488V23.221H18.1114C16.7949 23.221 15.8385 22.3333 15.8385 21.1099C15.8385 20.8186 16.0745 20.5821 16.3652 20.5821C16.6559 20.5821 16.8918 20.8186 16.8918 21.1099C16.8918 21.8393 17.5048 22.1655 18.1114 22.1655H19.8851C20.5581 22.1655 21.1047 21.6166 21.1047 20.9431ZM31.2527 9.02921L28.7165 6.4864C28.5111 6.28057 28.1773 6.28057 27.9719 6.4864C27.7665 6.69224 27.7665 7.02684 27.9719 7.23267L30.2321 9.49787H18.9993C13.7721 9.49893 9.5191 13.7612 9.5191 18.9988C9.5191 21.2503 10.3185 23.4342 11.772 25.1463C11.8763 25.2688 12.0237 25.3321 12.1733 25.3321C12.2933 25.3321 12.4145 25.2909 12.5135 25.2065C12.7346 25.0175 12.762 24.685 12.5735 24.4623C11.2822 22.9402 10.5723 20.9991 10.5723 18.9978C10.5723 14.3418 14.3524 10.5534 18.9983 10.5534H30.2321L27.9719 12.8186C27.7665 13.0244 27.7665 13.3591 27.9719 13.5649C28.0751 13.6683 28.2099 13.719 28.3447 13.719C28.4795 13.719 28.6144 13.6673 28.7176 13.5649L31.2538 11.0231C31.5202 10.7571 31.6666 10.4025 31.6666 10.0256C31.6666 9.64882 31.5202 9.29415 31.2538 9.02816L31.2527 9.02921ZM25.5052 12.8133C25.283 13.0012 25.2545 13.3348 25.442 13.5575C26.7206 15.0764 27.4242 17.0091 27.4242 18.9988C27.4242 23.6548 23.6441 27.4432 18.9983 27.4432H7.7644L10.0257 25.178C10.2311 24.9722 10.2311 24.6375 10.0257 24.4317C9.82033 24.2259 9.48645 24.2259 9.28107 24.4317L6.74487 26.9724C6.19613 27.5234 6.19613 28.4196 6.74487 28.9706L9.28107 31.5113C9.38429 31.6147 9.5191 31.6654 9.65392 31.6654C9.78873 31.6654 9.92355 31.6136 10.0268 31.5113C10.2321 31.3054 10.2321 30.9708 10.0268 30.765L7.76651 28.4998H19.0004C24.2276 28.4998 28.4795 24.2375 28.4795 18.9999C28.4795 16.7611 27.6875 14.5867 26.2488 12.8788C26.0613 12.6561 25.7285 12.6286 25.5073 12.8155L25.5052 12.8133Z" fill="white"/>
</svg>
