<svg width="19" height="24" viewBox="0 0 19 24" fill="none" xmlns="http://www.w3.org/2000/svg">
<path fill-rule="evenodd" clip-rule="evenodd" d="M9.30032 1.84615C7.07712 1.84615 5.27486 3.55829 5.27486 5.67032C5.27486 7.78233 7.07712 9.49448 9.30032 9.49448C11.5236 9.49448 13.3257 7.78233 13.3257 5.67032C13.3257 3.55829 11.5236 1.84615 9.30032 1.84615ZM3.33154 5.67032C3.33154 2.53869 6.00385 0 9.30032 0C12.5967 0 15.2691 2.53869 15.2691 5.67032C15.2691 8.80194 12.5967 11.3407 9.30032 11.3407C6.00385 11.3407 3.33154 8.80194 3.33154 5.67032Z" fill="#232530"/>
<path fill-rule="evenodd" clip-rule="evenodd" d="M6.83562 16.0884C4.13367 16.0884 1.94332 18.1692 1.94332 20.7361C1.94332 20.8638 1.96651 20.952 1.9898 21.002C2.00856 21.0422 2.02239 21.0499 2.02852 21.0532C2.69499 21.4254 4.61221 22.1542 9.30018 22.1542C13.9881 22.1542 15.9048 21.4256 16.5712 21.0536C16.5774 21.0501 16.5918 21.0422 16.6105 21.002C16.6339 20.952 16.657 20.8638 16.657 20.7361C16.657 18.1692 14.4667 16.0884 11.7647 16.0884H6.83562ZM0 20.7361C0 17.1497 3.0604 14.2422 6.83562 14.2422H11.7647C15.5399 14.2422 18.6004 17.1497 18.6004 20.7361C18.6004 21.3537 18.3806 22.1847 17.5559 22.6452C16.4692 23.252 14.1586 24.0004 9.30018 24.0004C4.44176 24.0004 2.13123 23.252 1.04442 22.6452C0.219764 22.1847 0 21.3537 0 20.7361Z" fill="#232530"/>
</svg>
