<svg width="25" height="24" viewBox="0 0 25 24" fill="none" xmlns="http://www.w3.org/2000/svg">
<path d="M16.3152 11.0555C16.1488 10.9828 15.9824 10.9172 15.8136 10.8562C16.9808 9.91172 17.7261 8.47031 17.7261 6.85781C17.7261 4.02187 15.4199 1.71562 12.5839 1.71562C9.748 1.71562 7.44175 4.02187 7.44175 6.85781C7.44175 8.47265 8.1894 9.9164 9.35659 10.8586C5.74253 12.1781 3.15503 15.6516 3.15503 19.718H4.86831C4.86831 15.4641 8.33003 12.0047 12.5816 12.0047C13.6433 12.0047 14.6699 12.2156 15.6332 12.6305L16.3152 11.0555ZM12.5839 3.4289C14.4753 3.4289 16.0128 4.9664 16.0128 6.85781C16.0128 8.74922 14.4753 10.2867 12.5839 10.2867C10.6925 10.2867 9.15503 8.74687 9.15503 6.85781C9.15503 4.96875 10.6925 3.4289 12.5839 3.4289ZM14.9558 14.918C14.9558 15.157 15.0871 15.375 15.298 15.4852L18.298 17.0695C18.3917 17.1187 18.4949 17.1445 18.598 17.1445C18.7011 17.1445 18.8042 17.1187 18.898 17.0695L21.898 15.4852C22.1089 15.3727 22.2402 15.1547 22.2402 14.918C22.2402 14.6812 22.1089 14.4609 21.898 14.3508L18.898 12.7641C18.7105 12.6656 18.4855 12.6656 18.298 12.7641L15.298 14.3508C15.0871 14.4609 14.9558 14.6789 14.9558 14.918ZM18.598 14.0602L20.2222 14.918L18.598 15.7758L16.9738 14.918L18.598 14.0602Z" fill="#232530"/>
<path d="M18.598 17.8922L15.1527 16.0711L14.5527 17.2078L18.598 19.3453L22.627 17.2172L22.027 16.0805L18.598 17.8922Z" fill="#232530"/>
<path d="M18.598 19.9547L15.1527 18.1359L14.5527 19.2703L18.598 21.4102L22.6129 19.2867L22.0129 18.15L18.598 19.9547Z" fill="#232530"/>
</svg>
