<svg width="25" height="24" viewBox="0 0 25 24" fill="none" xmlns="http://www.w3.org/2000/svg">
<path fill-rule="evenodd" clip-rule="evenodd" d="M12.6003 8.25C10.5293 8.25 8.85034 9.92893 8.85034 12C8.85034 14.0711 10.5293 15.75 12.6003 15.75C14.6714 15.75 16.3503 14.0711 16.3503 12C16.3503 9.92893 14.6714 8.25 12.6003 8.25ZM10.3503 12C10.3503 10.7574 11.3577 9.75 12.6003 9.75C13.8429 9.75 14.8503 10.7574 14.8503 12C14.8503 13.2426 13.8429 14.25 12.6003 14.25C11.3577 14.25 10.3503 13.2426 10.3503 12Z" fill="#232530"/>
<path fill-rule="evenodd" clip-rule="evenodd" d="M12.6003 1.25C11.8957 1.25 11.2522 1.44359 10.5489 1.77037C9.86842 2.08656 9.08073 2.55304 8.09491 3.13685L7.34182 3.58283C6.35567 4.16682 5.56805 4.63324 4.9611 5.07944C4.33349 5.54083 3.85211 6.01311 3.50368 6.63212C3.15582 7.25014 2.99875 7.91095 2.9234 8.69506C2.85033 9.45539 2.85033 10.3865 2.85034 11.556V12.444C2.85033 13.6135 2.85033 14.5446 2.9234 15.3049C2.99875 16.0891 3.15582 16.7499 3.50368 17.3679C3.85211 17.9869 4.33349 18.4592 4.9611 18.9206C5.56805 19.3668 6.35567 19.8332 7.34182 20.4172L8.09494 20.8632C9.08072 21.447 9.86844 21.9135 10.5489 22.2296C11.2522 22.5564 11.8957 22.75 12.6003 22.75C13.3049 22.75 13.9484 22.5564 14.6517 22.2296C15.3322 21.9134 16.1199 21.447 17.1057 20.8632L17.8588 20.4172C18.8449 19.8332 19.6326 19.3668 20.2395 18.9206C20.8672 18.4592 21.3485 17.9869 21.697 17.3679C22.0448 16.7499 22.2019 16.0891 22.2772 15.3049C22.3503 14.5446 22.3503 13.6135 22.3503 12.4441V11.556C22.3503 10.3866 22.3503 9.45538 22.2772 8.69506C22.2019 7.91095 22.0448 7.25014 21.697 6.63212C21.3485 6.01311 20.8672 5.54083 20.2395 5.07944C19.6326 4.63324 18.845 4.16683 17.8588 3.58285L17.1057 3.13685C16.1199 2.55303 15.3322 2.08656 14.6517 1.77037C13.9484 1.44359 13.3049 1.25 12.6003 1.25ZM8.82558 4.44744C9.85272 3.83917 10.5764 3.41161 11.181 3.13069C11.7705 2.85676 12.191 2.75 12.6003 2.75C13.0096 2.75 13.4301 2.85676 14.0196 3.13069C14.6242 3.41161 15.3479 3.83917 16.3751 4.44744L17.0612 4.85379C18.0882 5.46197 18.8112 5.89115 19.3511 6.288C19.877 6.67467 20.1813 6.99746 20.3898 7.36788C20.5989 7.73929 20.7202 8.1739 20.7841 8.83855C20.8495 9.51884 20.8503 10.378 20.8503 11.5937V12.4063C20.8503 13.622 20.8495 14.4812 20.7841 15.1614C20.7202 15.8261 20.5989 16.2607 20.3898 16.6321C20.1813 17.0025 19.877 17.3253 19.3511 17.712C18.8112 18.1089 18.0882 18.538 17.0612 19.1462L16.3751 19.5526C15.3479 20.1608 14.6242 20.5884 14.0196 20.8693C13.4301 21.1432 13.0096 21.25 12.6003 21.25C12.191 21.25 11.7705 21.1432 11.181 20.8693C10.5764 20.5884 9.85272 20.1608 8.82558 19.5526L8.13943 19.1462C7.11244 18.538 6.3894 18.1089 5.84957 17.712C5.3236 17.3253 5.01934 17.0025 4.81084 16.6321C4.60179 16.2607 4.48039 15.8261 4.41652 15.1614C4.35114 14.4812 4.35034 13.622 4.35034 12.4063V11.5937C4.35034 10.378 4.35114 9.51884 4.41652 8.83855C4.48039 8.1739 4.60179 7.73929 4.81084 7.36788C5.01934 6.99746 5.3236 6.67467 5.84957 6.288C6.3894 5.89115 7.11244 5.46197 8.13943 4.85379L8.82558 4.44744Z" fill="#232530"/>
</svg>
