<svg width="24" height="24" viewBox="0 0 24 24" fill="none" xmlns="http://www.w3.org/2000/svg">
<path fill-rule="evenodd" clip-rule="evenodd" d="M9.36273 3.53846C7.6027 3.53846 6.17591 4.96525 6.17591 6.72528C6.17591 8.4853 7.6027 9.91209 9.36273 9.91209C11.1228 9.91209 12.5495 8.4853 12.5495 6.72528C12.5495 4.96525 11.1228 3.53846 9.36273 3.53846ZM4.63745 6.72528C4.63745 4.11558 6.75303 2 9.36273 2C11.9724 2 14.088 4.11558 14.088 6.72528C14.088 9.33497 11.9724 11.4506 9.36273 11.4506C6.75303 11.4506 4.63745 9.33497 4.63745 6.72528Z" fill="#232530"/>
<path fill-rule="evenodd" clip-rule="evenodd" d="M7.41153 15.4066C5.27249 15.4066 3.53846 17.1406 3.53846 19.2797C3.53846 19.3861 3.55682 19.4596 3.57526 19.5013C3.59011 19.5348 3.60106 19.5412 3.60591 19.544C4.13353 19.8541 5.65133 20.4615 9.36264 20.4615C13.0739 20.4615 14.5913 19.8543 15.1189 19.5443C15.1238 19.5414 15.1352 19.5348 15.15 19.5013C15.1685 19.4596 15.1868 19.3861 15.1868 19.2797C15.1868 17.1406 13.4528 15.4066 11.3137 15.4066H7.41153ZM2 19.2797C2 16.291 4.42282 13.8681 7.41153 13.8681H11.3137C14.3024 13.8681 16.7253 16.291 16.7253 19.2797C16.7253 19.7944 16.5513 20.4869 15.8984 20.8706C15.0381 21.3763 13.2089 22 9.36264 22C5.51639 22 3.68722 21.3763 2.82683 20.8706C2.17398 20.4869 2 19.7944 2 19.2797Z" fill="#232530"/>
<path fill-rule="evenodd" clip-rule="evenodd" d="M15.5431 3.88721C15.654 3.47709 16.0763 3.23448 16.4864 3.34532C18.1832 3.80392 19.3626 5.47949 19.3626 7.38461C19.3626 9.39763 17.9829 11.2126 16.0478 11.4451C15.626 11.4957 15.243 11.1949 15.1923 10.7731C15.1416 10.3513 15.4425 9.96823 15.8643 9.91757C16.8962 9.79361 17.8242 8.75741 17.8242 7.38461C17.8242 6.08213 17.0256 5.0847 16.085 4.8305C15.6749 4.71966 15.4323 4.29733 15.5431 3.88721Z" fill="#232530"/>
<path fill-rule="evenodd" clip-rule="evenodd" d="M17.8383 14.4901C17.9196 14.0731 18.3236 13.801 18.7406 13.8824C20.6336 14.2516 21.9999 15.91 21.9999 17.8388V18.3735C21.9999 18.8469 21.8579 19.5212 21.2403 19.9159C20.8245 20.1817 20.1797 20.4649 19.1854 20.666C18.769 20.7503 18.3632 20.481 18.2789 20.0646C18.1947 19.6482 18.4639 19.2424 18.8803 19.1581C19.7286 18.9865 20.187 18.7633 20.4117 18.6197L20.4135 18.6179C20.4152 18.6158 20.4212 18.6077 20.4286 18.5896C20.445 18.5498 20.4614 18.4784 20.4614 18.3735V17.8388C20.4614 16.6462 19.6166 15.6207 18.4461 15.3924C18.0291 15.311 17.757 14.9071 17.8383 14.4901Z" fill="#232530"/>
</svg>
