<svg width="16" height="16" viewBox="0 0 16 16" fill="none" xmlns="http://www.w3.org/2000/svg">
<path fill-rule="evenodd" clip-rule="evenodd" d="M6.18283 1.99968C6.18283 1.76898 6.06357 1.55469 5.86751 1.43311C5.67146 1.31153 5.42649 1.29995 5.21984 1.40249C4.05249 1.98173 3.07013 2.87551 2.38347 3.98309C1.69692 5.0905 1.33328 6.36762 1.3335 7.67057C1.33247 9.2491 1.86536 10.7816 2.84555 12.0189C3.82574 13.2562 5.19559 14.1256 6.73247 14.4859C8.26934 14.8461 9.88286 14.6759 11.3108 14.003C12.7387 13.3302 13.8971 12.1941 14.5976 10.7795C14.6999 10.5729 14.6882 10.328 14.5666 10.1321C14.445 9.93618 14.2308 9.81701 14.0002 9.81701C11.2659 9.81701 9.34513 9.13915 8.10283 7.89678C6.86053 6.65441 6.18283 4.7336 6.18283 1.99968ZM3.5167 4.68564C3.88053 4.09878 4.34692 3.58608 4.89075 3.1704C5.06489 5.55786 5.7946 7.47409 7.16 8.83956C8.52564 10.2053 10.4423 10.9352 12.8306 11.1092C12.2831 11.8269 11.5685 12.4077 10.7424 12.7969C9.58666 13.3416 8.28067 13.4793 7.03674 13.1877C5.7928 12.8962 4.68404 12.1924 3.89068 11.191C3.09732 10.1895 2.666 8.94909 2.66683 7.67144C2.66656 6.61664 2.96091 5.58213 3.5167 4.68564Z" fill="#232530"/>
</svg>
