<svg width="25" height="25" viewBox="0 0 25 25" fill="none" xmlns="http://www.w3.org/2000/svg">
<path d="M10.4583 5.5415V5.9165H14.2083V5.5415C14.2083 5.04422 14.0107 4.56731 13.6591 4.21568C13.3074 3.86405 12.8305 3.6665 12.3333 3.6665C11.836 3.6665 11.3591 3.86405 11.0074 4.21568C10.6558 4.56731 10.4583 5.04422 10.4583 5.5415ZM8.95825 5.9165V5.5415C8.95825 4.6464 9.31383 3.78795 9.94677 3.15502C10.5797 2.52208 11.4381 2.1665 12.3333 2.1665C13.2284 2.1665 14.0868 2.52208 14.7197 3.15502C15.3527 3.78795 15.7083 4.6464 15.7083 5.5415V5.9165H21.3333C21.5322 5.9165 21.7229 5.99552 21.8636 6.13617C22.0042 6.27683 22.0833 6.46759 22.0833 6.6665C22.0833 6.86542 22.0042 7.05618 21.8636 7.19683C21.7229 7.33749 21.5322 7.4165 21.3333 7.4165H20.2023L18.7833 19.8425C18.6786 20.7576 18.2408 21.6023 17.5534 22.2153C16.8659 22.8284 15.9769 23.1669 15.0558 23.1665H9.61075C8.68965 23.1669 7.8006 22.8284 7.11314 22.2153C6.42568 21.6023 5.98789 20.7576 5.88325 19.8425L4.46425 7.4165H3.33325C3.13434 7.4165 2.94357 7.33749 2.80292 7.19683C2.66227 7.05618 2.58325 6.86542 2.58325 6.6665C2.58325 6.46759 2.66227 6.27683 2.80292 6.13617C2.94357 5.99552 3.13434 5.9165 3.33325 5.9165H8.95825ZM7.37425 19.6715C7.43687 20.2204 7.69927 20.7271 8.11144 21.0951C8.52362 21.463 9.05676 21.6664 9.60925 21.6665H15.0565C15.609 21.6664 16.1421 21.463 16.5543 21.0951C16.9665 20.7271 17.2289 20.2204 17.2915 19.6715L18.6933 7.4165H5.974L7.37425 19.6715ZM10.0833 10.0415C10.2822 10.0415 10.4729 10.1205 10.6136 10.2612C10.7542 10.4018 10.8333 10.5926 10.8333 10.7915V18.2915C10.8333 18.4904 10.7542 18.6812 10.6136 18.8218C10.4729 18.9625 10.2822 19.0415 10.0833 19.0415C9.88434 19.0415 9.69357 18.9625 9.55292 18.8218C9.41227 18.6812 9.33325 18.4904 9.33325 18.2915V10.7915C9.33325 10.5926 9.41227 10.4018 9.55292 10.2612C9.69357 10.1205 9.88434 10.0415 10.0833 10.0415ZM15.3333 10.7915C15.3333 10.5926 15.2542 10.4018 15.1136 10.2612C14.9729 10.1205 14.7822 10.0415 14.5833 10.0415C14.3843 10.0415 14.1936 10.1205 14.0529 10.2612C13.9123 10.4018 13.8333 10.5926 13.8333 10.7915V18.2915C13.8333 18.4904 13.9123 18.6812 14.0529 18.8218C14.1936 18.9625 14.3843 19.0415 14.5833 19.0415C14.7822 19.0415 14.9729 18.9625 15.1136 18.8218C15.2542 18.6812 15.3333 18.4904 15.3333 18.2915V10.7915Z" fill="#F61F32"/>
</svg>
