<svg width="24" height="24" viewBox="0 0 24 24" fill="none" xmlns="http://www.w3.org/2000/svg">
<path d="M20.5708 17.0605L20.5571 17.0519C20.4722 16.9937 20.3999 16.9191 20.3443 16.8325C20.2887 16.7459 20.251 16.649 20.2334 16.5476C20.2159 16.4462 20.2188 16.3423 20.242 16.2421C20.2652 16.1418 20.3083 16.0472 20.3686 15.9638C21.5416 13.9254 21.9299 11.5288 21.4607 9.22423C20.9915 6.91967 19.6969 4.86572 17.8203 3.44821C15.9436 2.03069 13.614 1.34714 11.2689 1.52596C8.9239 1.70477 6.72483 2.73365 5.08481 4.41933C3.44478 6.105 2.47665 8.33148 2.36227 10.6805C2.24788 13.0296 2.99512 15.3396 4.46361 17.1767C5.93211 19.0137 8.02081 20.2514 10.3374 20.6572C12.654 21.063 15.039 20.609 17.0445 19.3805C17.3872 19.1697 17.8327 19.2606 18.0674 19.5861L18.0708 19.5878C18.1271 19.6659 18.167 19.7545 18.1881 19.8484C18.2092 19.9422 18.2111 20.0394 18.1937 20.134C18.1762 20.2287 18.1398 20.3188 18.0866 20.3989C18.0334 20.4791 17.9645 20.5477 17.8841 20.6005L17.7401 20.6947C15.4118 22.0945 12.6522 22.595 9.98063 22.1021C7.30905 21.6091 4.90976 20.1567 3.23432 18.0182C1.55888 15.8797 0.722831 13.2025 0.883528 10.4906C1.04422 7.77868 2.19058 5.21901 4.10685 3.29332C6.02312 1.36764 8.57714 0.208742 11.2882 0.0347506C13.9993 -0.139241 16.6806 0.68367 18.8273 2.3486C20.974 4.01354 22.4381 6.40568 22.9442 9.07481C23.4502 11.7439 22.9632 14.506 21.5749 16.8411C21.5257 16.9241 21.46 16.996 21.3818 17.0524C21.3037 17.1088 21.2147 17.1486 21.1205 17.1692C21.0263 17.1897 20.9289 17.1907 20.8344 17.172C20.7398 17.1533 20.6501 17.1153 20.5708 17.0605ZM7.97682 7.71865C8.14474 7.55244 8.55597 7.49247 8.75645 7.71865C9.0049 7.98081 8.92437 8.40918 8.75645 8.58909L6.16398 11.1079L8.69305 13.5033C8.86097 13.6695 8.88325 14.1441 8.69305 14.3326C8.46345 14.5605 7.99396 14.5245 7.83803 14.3686L4.8823 11.4232C4.80205 11.3423 4.75701 11.233 4.75701 11.119C4.75701 11.0051 4.80205 10.8958 4.8823 10.8149L7.97682 7.72036V7.71865ZM16.0233 7.71865L19.1178 10.8132C19.198 10.894 19.2431 11.0034 19.2431 11.1173C19.2431 11.2312 19.198 11.3406 19.1178 11.4214L16.1638 14.3703C16.0078 14.5245 15.564 14.6222 15.307 14.3703C15.0654 14.1304 15.1408 13.637 15.307 13.4708L17.8464 11.1113L15.2248 8.5651C15.0569 8.38519 15.002 7.9414 15.2248 7.72036C15.4424 7.50618 15.8553 7.55416 16.0233 7.72036V7.71865ZM12.8465 7.1018C12.9305 6.87905 13.3468 6.73855 13.6124 6.83793C13.866 6.93217 14.0151 7.28343 13.9465 7.50618L11.1365 15.2339C11.0542 15.4567 10.6533 15.5458 10.4288 15.4618C10.1906 15.3796 9.93189 15.0506 10.0176 14.8295L12.8448 7.1018H12.8465Z" fill="#232530"/>
</svg>
