<svg width="25" height="25" viewBox="0 0 25 25" fill="none" xmlns="http://www.w3.org/2000/svg">
<path d="M12.3333 3.6665H5.33325C4.80282 3.6665 4.29411 3.87722 3.91904 4.25229C3.54397 4.62736 3.33325 5.13607 3.33325 5.6665V19.6665C3.33325 20.1969 3.54397 20.7056 3.91904 21.0807C4.29411 21.4558 4.80282 21.6665 5.33325 21.6665H19.3333C19.8637 21.6665 20.3724 21.4558 20.7475 21.0807C21.1225 20.7056 21.3333 20.1969 21.3333 19.6665V12.6665" stroke="#0070E4" stroke-width="2" stroke-linecap="round" stroke-linejoin="round"/>
<path d="M18.7083 3.29173C19.1061 2.89391 19.6456 2.67041 20.2083 2.67041C20.7709 2.67041 21.3104 2.89391 21.7083 3.29173C22.1061 3.68956 22.3296 4.22912 22.3296 4.79173C22.3296 5.35434 22.1061 5.89391 21.7083 6.29173L12.3333 15.6667L8.33325 16.6667L9.33325 12.6667L18.7083 3.29173Z" stroke="#0070E4" stroke-width="2" stroke-linecap="round" stroke-linejoin="round"/>
</svg>
