<svg width="24" height="24" viewBox="0 0 24 24" fill="none" xmlns="http://www.w3.org/2000/svg">
<path fill-rule="evenodd" clip-rule="evenodd" d="M9.30007 1.84615C7.07688 1.84615 5.27462 3.55829 5.27462 5.67032C5.27462 7.78233 7.07688 9.49448 9.30007 9.49448C11.5233 9.49448 13.3255 7.78233 13.3255 5.67032C13.3255 3.55829 11.5233 1.84615 9.30007 1.84615ZM3.3313 5.67032C3.3313 2.53869 6.00361 0 9.30007 0C12.5965 0 15.2688 2.53869 15.2688 5.67032C15.2688 8.80194 12.5965 11.3407 9.30007 11.3407C6.00361 11.3407 3.3313 8.80194 3.3313 5.67032Z" fill="#232530"/>
<path fill-rule="evenodd" clip-rule="evenodd" d="M6.83562 16.0879C4.13367 16.0879 1.94332 18.1687 1.94332 20.7356C1.94332 20.8633 1.96651 20.9515 1.9898 21.0016C2.00856 21.0418 2.02239 21.0494 2.02852 21.0528C2.69499 21.4249 4.61221 22.1538 9.30018 22.1538C13.9881 22.1538 15.9048 21.4252 16.5712 21.0532C16.5774 21.0497 16.5918 21.0418 16.6105 21.0016C16.6339 20.9515 16.657 20.8633 16.657 20.7356C16.657 18.1687 14.4667 16.0879 11.7647 16.0879H6.83562ZM0 20.7356C0 17.1492 3.0604 14.2417 6.83562 14.2417H11.7647C15.5399 14.2417 18.6004 17.1492 18.6004 20.7356C18.6004 21.3533 18.3806 22.1843 17.5559 22.6447C16.4692 23.2516 14.1586 24 9.30018 24C4.44176 24 2.13123 23.2516 1.04442 22.6447C0.219764 22.1843 0 21.3533 0 20.7356Z" fill="#232530"/>
<g clip-path="url(#clip0_125_7528)">
<path d="M19.2104 12.975C19.9081 12.975 20.4736 12.4377 20.4736 11.775C20.4736 11.1122 19.9081 10.575 19.2104 10.575C18.5128 10.575 17.9473 11.1122 17.9473 11.775C17.9473 12.4377 18.5128 12.975 19.2104 12.975Z" stroke="#232530" stroke-width="0.8" stroke-miterlimit="10" stroke-linecap="round" stroke-linejoin="round"/>
<path d="M15 12.1273V11.4233C15 11.0073 15.3579 10.6633 15.8 10.6633C16.5621 10.6633 16.8737 10.1513 16.4905 9.52334C16.2716 9.16334 16.4021 8.69534 16.7853 8.48735L17.5137 8.09135C17.8463 7.90335 18.2758 8.01535 18.4737 8.33135L18.52 8.40735C18.8989 9.03534 19.5221 9.03534 19.9053 8.40735L19.9516 8.33135C20.1495 8.01535 20.5789 7.90335 20.9116 8.09135L21.64 8.48735C22.0232 8.69534 22.1537 9.16334 21.9347 9.52334C21.5516 10.1513 21.8632 10.6633 22.6253 10.6633C23.0632 10.6633 23.4253 11.0033 23.4253 11.4233V12.1273C23.4253 12.5433 23.0674 12.8873 22.6253 12.8873C21.8632 12.8873 21.5516 13.3993 21.9347 14.0273C22.1537 14.3913 22.0232 14.8553 21.64 15.0633L20.9116 15.4593C20.5789 15.6473 20.1495 15.5353 19.9516 15.2193L19.9053 15.1433C19.5263 14.5153 18.9032 14.5153 18.52 15.1433L18.4737 15.2193C18.2758 15.5353 17.8463 15.6473 17.5137 15.4593L16.7853 15.0633C16.4021 14.8553 16.2716 14.3873 16.4905 14.0273C16.8737 13.3993 16.5621 12.8873 15.8 12.8873C15.3579 12.8873 15 12.5433 15 12.1273Z" stroke="#232530" stroke-width="0.8" stroke-miterlimit="10" stroke-linecap="round" stroke-linejoin="round"/>
</g>
<defs>
<clipPath id="clip0_125_7528">
<rect width="10.1053" height="9.59997" fill="white" transform="translate(13.8948 7.19998)"/>
</clipPath>
</defs>
</svg>
