<svg width="35" height="35" viewBox="0 0 35 35" fill="none" xmlns="http://www.w3.org/2000/svg">
<path d="M29.236 24.0235C27.4805 21.875 26.2411 20.7812 26.2411 14.8579C26.2411 9.43359 23.4712 7.50107 21.1914 6.5625C20.8886 6.43809 20.6035 6.15234 20.5113 5.84131C20.1114 4.48027 18.9903 3.28125 17.5 3.28125C16.0098 3.28125 14.888 4.48096 14.4922 5.84268C14.3999 6.15713 14.1149 6.43809 13.812 6.5625C11.5295 7.50244 8.76234 9.42812 8.76234 14.8579C8.75892 20.7812 7.51956 21.875 5.7641 24.0235C5.03675 24.9136 5.67386 26.25 6.94603 26.25H28.0609C29.3262 26.25 29.9592 24.9095 29.236 24.0235Z" stroke="#0070E4" stroke-width="2" stroke-linecap="round" stroke-linejoin="round"/>
<path d="M21.875 26.25V27.3438C21.875 28.5041 21.4141 29.6169 20.5936 30.4373C19.7731 31.2578 18.6603 31.7188 17.5 31.7188C16.3397 31.7188 15.2269 31.2578 14.4064 30.4373C13.5859 29.6169 13.125 28.5041 13.125 27.3438V26.25" stroke="#0070E4" stroke-width="2" stroke-linecap="round" stroke-linejoin="round"/>
<circle cx="30" cy="27" r="4" transform="rotate(180 30 27)" fill="#FF4040"/>
</svg>
