<svg width="24" height="24" viewBox="0 0 24 24" fill="none" xmlns="http://www.w3.org/2000/svg">
<path d="M16.6295 13.8904L17.085 13.4375L16.0273 12.3738L15.5719 12.8267L16.6295 13.8904ZM18.6146 13.2478L20.5251 14.2864L21.2415 12.9686L19.331 11.93L18.6146 13.2478ZM20.8929 16.3506L19.4723 17.7631L20.5299 18.8268L21.9505 17.4143L20.8929 16.3506ZM18.6067 18.2179C17.1568 18.353 13.4056 18.2326 9.34423 14.1942L8.28659 15.2579C12.7186 19.6648 16.9369 19.88 18.7459 19.7114L18.6067 18.2179ZM9.34423 14.1942C5.47285 10.3448 4.83156 7.10718 4.75173 5.70258L3.25415 5.78769C3.35461 7.55552 4.14868 11.1435 8.28659 15.2579L9.34423 14.1942ZM10.7195 8.01394L11.0063 7.72875L9.94875 6.66508L9.66194 6.95026L10.7195 8.01394ZM11.2346 4.09354L9.9737 2.40914L8.77291 3.30808L10.0338 4.99249L11.2346 4.09354ZM5.73268 2.04252L4.16308 3.60321L5.22072 4.66689L6.79032 3.1062L5.73268 2.04252ZM10.1907 7.4821C9.66194 6.95026 9.66122 6.95097 9.6605 6.95169C9.66026 6.95193 9.65954 6.95266 9.65905 6.95315C9.65807 6.95414 9.65707 6.95514 9.65606 6.95617C9.65403 6.95824 9.65193 6.96039 9.64977 6.96263C9.64544 6.96712 9.64086 6.97198 9.63604 6.97722C9.62639 6.98769 9.6158 6.99967 9.60446 7.0132C9.58179 7.04025 9.5561 7.07356 9.5291 7.11341C9.47497 7.1933 9.41599 7.29893 9.36594 7.43177C9.26381 7.70282 9.20906 8.06013 9.2777 8.50258C9.41194 9.36786 10.0078 10.5108 11.5343 12.0286L12.5919 10.9649C11.1634 9.54451 10.8231 8.68012 10.7599 8.27262C10.7298 8.07869 10.761 7.98324 10.7696 7.96064C10.7748 7.94666 10.7773 7.94523 10.7709 7.95478C10.7677 7.95945 10.7624 7.96676 10.7541 7.97661C10.75 7.98154 10.7451 7.98712 10.7394 7.99334C10.7365 7.99645 10.7335 7.99972 10.7301 8.00315C10.7285 8.00487 10.7268 8.00662 10.725 8.00842C10.7241 8.00932 10.7232 8.01023 10.7223 8.01115C10.7219 8.01161 10.7212 8.01231 10.7209 8.01254C10.7202 8.01324 10.7195 8.01394 10.1907 7.4821ZM11.5343 12.0286C13.0613 13.5469 14.2096 14.1378 15.0763 14.2708C15.5192 14.3387 15.8763 14.2845 16.1472 14.1836C16.28 14.1341 16.3858 14.0758 16.4658 14.0222C16.5058 13.9954 16.5392 13.9699 16.5663 13.9474C16.5799 13.9362 16.5919 13.9257 16.6024 13.9161C16.6077 13.9113 16.6126 13.9068 16.6171 13.9025C16.6194 13.9003 16.6215 13.8982 16.6236 13.8962C16.6246 13.8952 16.6256 13.8942 16.6266 13.8932C16.6271 13.8927 16.6279 13.892 16.6281 13.8918C16.6288 13.8911 16.6295 13.8904 16.1007 13.3585C15.5719 12.8267 15.5726 12.826 15.5733 12.8253C15.5735 12.8251 15.5742 12.8244 15.5747 12.8239C15.5756 12.823 15.5765 12.8221 15.5774 12.8212C15.5793 12.8195 15.581 12.8178 15.5827 12.8161C15.5862 12.8128 15.5895 12.8098 15.5926 12.8069C15.5988 12.8013 15.6044 12.7964 15.6094 12.7924C15.6192 12.7842 15.6265 12.779 15.631 12.7759C15.6403 12.7697 15.6384 12.7725 15.6236 12.778C15.5991 12.7871 15.501 12.8184 15.3038 12.7881C14.8905 12.7248 14.02 12.3848 12.5919 10.9649L11.5343 12.0286ZM9.9737 2.40914C8.95439 1.04755 6.95001 0.832097 5.73268 2.04252L6.79032 3.1062C7.322 2.57753 8.26628 2.63134 8.77291 3.30808L9.9737 2.40914ZM4.75173 5.70258C4.73206 5.35647 4.8908 4.99493 5.22072 4.66689L4.16308 3.60321C3.62576 4.13748 3.20334 4.89378 3.25415 5.78769L4.75173 5.70258ZM19.4723 17.7631C19.1975 18.0364 18.9029 18.1903 18.6067 18.2179L18.7459 19.7114C19.4805 19.6429 20.0824 19.2718 20.5299 18.8268L19.4723 17.7631ZM11.0063 7.72875C11.9908 6.74983 12.064 5.20143 11.2346 4.09354L10.0338 4.99249C10.4373 5.53147 10.3773 6.23891 9.94875 6.66508L11.0063 7.72875ZM20.5251 14.2864C21.3429 14.731 21.4703 15.7764 20.8929 16.3506L21.9505 17.4143C23.2908 16.0816 22.8775 13.8579 21.2415 12.9686L20.5251 14.2864ZM17.085 13.4375C17.469 13.0557 18.0871 12.9611 18.6146 13.2478L19.331 11.93C18.2474 11.3409 16.9026 11.5036 16.0273 12.3738L17.085 13.4375Z" fill="#232530"/>
</svg>
