<svg width="24" height="25" viewBox="0 0 24 25" fill="none" xmlns="http://www.w3.org/2000/svg">
<path d="M12 4.41602C19.5 4.41602 24 12.666 24 12.666C24 12.666 19.5 20.916 12 20.916C4.5 20.916 0 12.666 0 12.666C0 12.666 4.5 4.41602 12 4.41602ZM12 5.91602C6.72 5.91602 2.997 10.7925 1.7625 12.666C2.9955 14.538 6.7185 19.416 12 19.416C17.28 19.416 21.003 14.5395 22.2375 12.666C21.0045 10.794 17.2815 5.91602 12 5.91602ZM12 7.41602C13.3924 7.41602 14.7277 7.96914 15.7123 8.95371C16.6969 9.93827 17.25 11.2736 17.25 12.666C17.25 14.0584 16.6969 15.3938 15.7123 16.3783C14.7277 17.3629 13.3924 17.916 12 17.916C10.6076 17.916 9.27226 17.3629 8.28769 16.3783C7.30312 15.3938 6.75 14.0584 6.75 12.666C6.75 11.2736 7.30312 9.93827 8.28769 8.95371C9.27226 7.96914 10.6076 7.41602 12 7.41602ZM12 8.91602C11.0058 8.91719 10.0527 9.31266 9.34965 10.0157C8.64665 10.7187 8.25118 11.6718 8.25 12.666C8.25 14.733 9.9315 16.416 12 16.416C14.0685 16.416 15.75 14.733 15.75 12.666C15.75 10.599 14.0685 8.91602 12 8.91602Z" fill="#0070E4"/>
</svg>
