<svg width="25" height="24" viewBox="0 0 25 24" fill="none" xmlns="http://www.w3.org/2000/svg">
<g clip-path="url(#clip0_125_7552)">
<path d="M8.60034 11C9.92642 11 11.1982 10.4732 12.1359 9.53553C13.0736 8.59785 13.6003 7.32608 13.6003 6C13.6003 4.67392 13.0736 3.40215 12.1359 2.46447C11.1982 1.52678 9.92642 1 8.60034 1C7.27426 1 6.00249 1.52678 5.06481 2.46447C4.12713 3.40215 3.60034 4.67392 3.60034 6C3.60034 7.32608 4.12713 8.59785 5.06481 9.53553C6.00249 10.4732 7.27426 11 8.60034 11ZM8.60034 11C10.6133 11 12.3723 11.76 13.6233 13.023M8.60034 11C4.60034 11 1.60034 14 1.60034 18V23H8.60034M23.6003 15L20.6003 12L14.6003 18M18.1003 14.5L21.1003 17.5M10.6003 19.5C10.6006 20.1633 10.8644 20.7993 11.3336 21.2682C11.8028 21.737 12.439 22.0003 13.1023 22C13.7656 21.9997 14.4017 21.736 14.8705 21.2668C15.3394 20.7976 15.6026 20.1613 15.6023 19.498C15.6021 18.8347 15.3383 18.1987 14.8691 17.7298C14.3999 17.261 13.7636 16.9977 13.1003 16.998C12.437 16.9983 11.801 17.262 11.3322 17.7312C10.8633 18.2004 10.6001 18.8367 10.6003 19.5Z" stroke="#232530" stroke-width="1.5"/>
</g>
<defs>
<clipPath id="clip0_125_7552">
<rect width="24" height="24" fill="white" transform="translate(0.600342)"/>
</clipPath>
</defs>
</svg>
