<svg width="32" height="32" viewBox="0 0 32 32" fill="none" xmlns="http://www.w3.org/2000/svg">
<path d="M14 28C21.732 28 28 21.732 28 14C28 6.26801 21.732 0 14 0C6.26802 0 0 6.26801 0 14C0 21.732 6.26802 28 14 28Z" fill="white"/>
<path d="M13.0427 27.7617C11.9658 27.6426 11.2479 27.5235 10.5299 27.4043C5.26496 26.0937 1.19659 21.6851 0.239317 16.3234C0.119659 15.4894 0 15.0128 0 13.9405C0 12.749 1.25862e-08 12.5107 0.119659 11.5574C1.07692 6.0766 5.14531 1.54894 10.5299 0.357447C11.8462 0 12.4445 0 13.8804 0C15.077 0 15.436 2.50653e-08 16.3932 0.238299C20.1026 0.953189 23.453 3.09787 25.6069 6.19575C27.1625 8.57877 28 11.2 28 14.0596C28 17.5149 26.8035 20.6128 24.5299 23.2341C24.171 23.7106 23.2137 24.5447 22.8547 24.9022C22.0171 25.617 21.1795 26.0937 20.2222 26.5702C18.5471 27.4043 16.8719 27.8809 15.077 28C14.8376 27.8809 13.2821 27.8809 13.0427 27.7617ZM13.6411 22.2808C13.7607 22.2808 14.0001 22.1618 14.2394 22.1618C14.8376 22.0426 14.9573 22.0426 14.9573 21.9234C14.9573 21.9234 14.8376 21.4469 14.7179 20.8511C14.5983 20.2553 14.4786 19.7787 14.4786 19.6596V19.5404L14.9573 19.4213C15.1966 19.3022 15.436 19.3022 15.5556 19.3022H15.6753V19.4213C15.6753 19.5404 15.7949 19.8979 15.9145 20.3745C16.1539 21.566 16.2735 21.6851 16.2735 21.6851C16.3932 21.6851 17.7094 21.3277 17.7094 21.3277C17.7094 21.3277 17.7094 21.0894 17.5898 20.8511C17.3504 19.7787 17.1112 18.8256 17.1112 18.8256C17.1112 18.8256 17.3504 18.7064 17.4701 18.7064C18.7863 18.2298 19.3847 17.8724 19.983 17.3958C20.4616 16.9191 20.8206 16.2042 20.9402 15.4894C21.0599 14.7745 20.8206 13.7021 20.3419 13.1064C20.1026 12.749 19.7437 12.5107 19.3847 12.2723C19.1453 12.1532 18.6667 12.0341 18.4274 12.0341C17.9488 12.0341 17.9488 11.9149 18.0684 11.7958C18.4274 11.3192 18.6667 10.7235 18.7863 10.2468C18.906 9.41276 18.4274 8.22132 17.7094 7.74468C17.4701 7.62554 17.1112 7.38724 16.8719 7.38724C16.5128 7.26809 15.6753 7.26809 14.8376 7.38724C14.5983 7.38724 14.2394 7.38724 14.2394 7.38724C14.2394 7.38724 14.1197 7.02979 14.0001 6.5532C13.6411 5.24255 13.5214 4.88511 13.5214 4.88511C13.5214 4.88511 12.2052 5.24255 12.0855 5.24255C12.0855 5.24255 12.0855 5.3617 12.2052 6.0766C12.4445 7.02979 12.5642 7.38723 12.5642 7.50639V7.62554L12.2052 7.74468C11.4872 7.86383 11.3676 7.86383 11.3676 7.74468C11.3676 7.74468 10.8889 5.48086 10.7693 5.48086L9.33331 5.8383C9.33331 5.8383 9.33331 6.19575 9.57268 7.02979C9.69228 7.62554 9.81197 8.22132 9.81197 8.22132C9.81197 8.22132 9.69228 8.34042 8.37607 8.69786C7.65813 8.93622 6.94018 9.05531 6.94018 9.05531C6.94018 9.05531 6.82052 9.05531 6.94018 9.17449C6.94018 9.17449 7.05984 9.41276 7.05984 9.7702C7.29916 10.4851 7.29916 10.7235 7.41881 10.7235C7.41881 10.7235 7.65813 10.7235 7.77779 10.6043C8.61544 10.366 8.97441 10.366 9.2137 10.6043C9.2137 10.6043 9.33331 10.7235 9.33331 10.8425C9.33331 10.9617 9.69228 12.2723 10.1709 13.8213C10.5299 15.3703 10.8889 16.9191 11.0086 17.0383C11.1283 17.3958 11.1283 17.8724 11.1283 17.9915C11.1283 18.1107 10.8889 18.3489 10.7693 18.3489C10.6496 18.3489 10.4103 18.4681 10.1709 18.4681C9.93165 18.4681 9.69236 18.5873 9.69236 18.5873C9.57268 18.5873 9.57268 18.5873 9.57268 18.8256C9.57268 18.9447 9.57268 19.183 9.57268 19.4213C9.57268 20.1362 9.69236 20.4936 9.69236 20.4936C9.69236 20.4936 9.81197 20.4936 10.0513 20.3745C10.7693 20.1362 12.5642 19.7787 12.6838 19.7787C12.6838 19.7787 12.8035 19.8979 12.9231 20.6128C13.0427 21.2085 13.4017 22.2808 13.4017 22.2808C13.4017 22.4 13.5214 22.4 13.6411 22.2808Z" fill="#F6921E"/>
<path d="M13.881 17.4222C13.881 17.4222 13.773 16.9037 13.557 16.3851C13.449 15.8667 13.233 15.2444 13.233 15.0371C13.125 14.8296 13.125 14.7259 13.125 14.6222C13.125 14.6222 13.233 14.5185 13.989 14.3111C14.745 14.1037 15.177 14.1037 15.717 14C16.149 14 16.257 14 16.365 14C17.229 14.2074 17.6609 14.9333 17.445 15.6593C17.229 16.1778 16.6889 16.5926 15.717 16.9037C15.501 17.1111 13.989 17.5259 13.881 17.4222C13.881 17.5259 13.881 17.5259 13.881 17.4222Z" fill="#F08B16"/>
<path d="M12.8864 13.1023C12.7803 12.9865 12.25 10.3242 12.25 10.2085C12.25 10.0927 12.25 10.0927 12.5682 9.97698C13.7348 9.62972 14.4773 9.51394 14.9015 9.74542C15.4318 9.97698 15.75 10.4399 15.75 11.0188C15.75 11.2502 15.75 11.2502 15.6439 11.4817C15.4318 11.829 15.1136 12.292 14.4773 12.5235C13.947 12.8708 12.8864 13.218 12.8864 13.1023Z" fill="#F08B16"/>
<path d="M14 0.583333C21.35 0.583333 27.4167 6.65 27.4167 14C27.4167 21.35 21.35 27.4167 14 27.4167C6.65 27.4167 0.583333 21.35 0.583333 14C0.583333 6.65 6.65 0.583333 14 0.583333ZM14 0C6.3 0 0 6.3 0 14C0 21.7 6.3 28 14 28C21.7 28 28 21.7 28 14C28 6.3 21.7 0 14 0Z" fill="#F08B16"/>
<circle cx="24" cy="24" r="8" fill="white"/>
<path fill-rule="evenodd" clip-rule="evenodd" d="M31.9778 24.6C31.9925 24.4019 32 24.2018 32 24C32 23.7982 31.9925 23.5981 31.9778 23.4H16.0222C16.0075 23.5981 16 23.7982 16 24C16 24.2018 16.0075 24.4019 16.0222 24.6H31.9778ZM31.781 25.8668H16.219C16.3178 26.2801 16.4487 26.6811 16.6089 27.0668H31.3911C31.5513 26.6811 31.6822 26.2801 31.781 25.8668ZM30.7684 28.2667H17.2316C17.5028 28.696 17.8137 29.0977 18.1592 29.4667H29.8408C30.1863 29.0977 30.4972 28.696 30.7684 28.2667ZM28.4234 30.6669H19.5766C20.8436 31.5092 22.3645 32 24 32C25.6355 32 27.1564 31.5092 28.4234 30.6669ZM16.2033 22.2002H31.7967C31.7018 21.7871 31.5748 21.3862 31.4186 21.0002H16.5814C16.4252 21.3862 16.2982 21.7871 16.2033 22.2002ZM17.2313 19.7336H30.7687C30.4975 19.3043 30.1866 18.9026 29.8412 18.5336H18.1588C17.8134 18.9026 17.5025 19.3043 17.2313 19.7336ZM18.9713 17.7778H29.0287C27.6548 16.666 25.9052 16 24 16C22.0948 16 20.3452 16.666 18.9713 17.7778Z" fill="#B22233"/>
<path fill-rule="evenodd" clip-rule="evenodd" d="M24 16C19.5817 16 16 19.5817 16 24H24V16Z" fill="#112999"/>
<path fill-rule="evenodd" clip-rule="evenodd" d="M23.394 16.0227C23.3988 16.0223 23.4035 16.022 23.4082 16.0216L23.5434 16.4H23.8672L23.6101 16.587L23.7338 16.9333L23.4208 16.7247L23.1338 16.9333L23.2298 16.5973L22.9338 16.4H23.2862L23.394 16.0227ZM21.1626 16.518C21.2864 16.471 21.4117 16.427 21.5383 16.3861L21.5433 16.4H21.8671L21.6101 16.587L21.7338 16.9333L21.4338 16.7152L21.1338 16.9333L21.237 16.5721L21.1626 16.518ZM17.132 19.8959C17.1512 19.8638 17.1706 19.8319 17.1902 19.8002H17.3243L17.4671 19.4002L17.5814 19.8002H17.9338L17.6378 19.9975L17.7338 20.3335L17.4468 20.1248L17.1338 20.3335L17.2575 19.9871L17.132 19.8959ZM16.1518 22.4434C16.1591 22.4066 16.1666 22.3699 16.1743 22.3333H16.3389L16.4671 22L16.5697 22.3333H16.8671L16.6241 22.5101L16.7338 22.8667L16.4338 22.6485L16.1338 22.8667L16.2649 22.5257L16.1518 22.4434ZM16.5748 21.0178C16.5978 20.9606 16.6214 20.9037 16.6457 20.8472L16.7338 21.1334L16.5748 21.0178ZM16.7013 20.7207C16.7195 20.6803 16.738 20.6401 16.7568 20.6001H16.8671L16.7013 20.7207ZM20.2649 17.3925L20.1338 17.7334L20.4338 17.5153L20.7338 17.7334L20.6241 17.3769L20.8671 17.2001H20.5697L20.4671 16.8668L20.3389 17.2001H20.0005L20.2649 17.3925ZM22.1338 17.7334L22.236 17.4015L21.9338 17.2001H22.2979L22.4005 16.8668L22.5287 17.2001H22.8672L22.6027 17.3925L22.7338 17.7334L22.4208 17.5247L22.1338 17.7334ZM19.2649 18.2592L19.1338 18.6002L19.4468 18.3915L19.7338 18.6002L19.6317 18.2683L19.9338 18.0669H19.5697L19.4671 17.7335L19.3389 18.0669H19.0005L19.2649 18.2592ZM23.1338 18.6002L23.236 18.2683L22.9338 18.0669H23.2979L23.4005 17.7335L23.5287 18.0669H23.8672L23.6027 18.2592L23.7338 18.6002L23.4208 18.3915L23.1338 18.6002ZM21.2435 18.2436L21.1338 18.6002L21.4338 18.382L21.7338 18.6002L21.6026 18.2592L21.8671 18.0669H21.5287L21.4005 17.7335L21.2979 18.0669H21.0005L21.2435 18.2436ZM20.1338 19.4667L20.2649 19.1257L20.0005 18.9334H20.3389L20.4671 18.6001L20.5697 18.9334H20.8671L20.6241 19.1102L20.7338 19.4667L20.4338 19.2485L20.1338 19.4667ZM22.236 19.1348L22.1338 19.4667L22.4208 19.258L22.7338 19.4667L22.6027 19.1257L22.8672 18.9334H22.5287L22.4005 18.6001L22.2979 18.9334H21.9338L22.236 19.1348ZM18.1338 19.4667L18.2649 19.1257L18.0005 18.9334H18.3389L18.4671 18.6001L18.5697 18.9334H18.9338L18.6317 19.1348L18.7338 19.4667L18.4468 19.258L18.1338 19.4667ZM23.2298 19.9975L23.1338 20.3335L23.4208 20.1248L23.7338 20.3335L23.6101 19.9871L23.8672 19.8002H23.5434L23.4005 19.4002L23.2862 19.8002H22.9338L23.2298 19.9975ZM17.1338 23.7334L17.2649 23.3924L17.0005 23.2001H17.3389L17.4671 22.8668L17.5697 23.2001H17.8671L17.6241 23.3768L17.7338 23.7334L17.4338 23.5152L17.1338 23.7334ZM23.236 23.4015L23.1338 23.7334L23.4208 23.5247L23.7338 23.7334L23.6027 23.3924L23.8672 23.2001H23.5287L23.4005 22.8668L23.2979 23.2001H22.9338L23.236 23.4015ZM21.1338 23.7334L21.2435 23.3768L21.0005 23.2001H21.2979L21.4005 22.8668L21.5287 23.2001H21.8671L21.6026 23.3924L21.7338 23.7334L21.4338 23.5152L21.1338 23.7334ZM19.2649 23.3924L19.1338 23.7334L19.4338 23.5152L19.7338 23.7334L19.6241 23.3768L19.8671 23.2001H19.5697L19.4671 22.8668L19.3389 23.2001H19.0005L19.2649 23.3924ZM22.1338 22.8667L22.236 22.5348L21.9338 22.3333H22.2979L22.4005 22L22.5287 22.3333H22.8672L22.6027 22.5257L22.7338 22.8667L22.4208 22.658L22.1338 22.8667ZM20.2649 22.5257L20.1338 22.8667L20.4338 22.6485L20.7338 22.8667L20.6241 22.5101L20.8671 22.3333H20.5697L20.4671 22L20.3389 22.3333H20.0005L20.2649 22.5257ZM18.1338 22.8667L18.2649 22.5257L18.0005 22.3333H18.3389L18.4671 22L18.5697 22.3333H18.9338L18.6317 22.5348L18.7338 22.8667L18.4468 22.658L18.1338 22.8667ZM17.1338 22.0001L17.2649 21.6592L17.0005 21.4668H17.3389L17.4671 21.1335L17.5697 21.4668H17.9338L17.6317 21.6682L17.7338 22.0001L17.4468 21.7914L17.1338 22.0001ZM23.236 21.6682L23.1338 22.0001L23.4208 21.7914L23.7338 22.0001L23.6027 21.6592L23.8672 21.4668H23.5287L23.4005 21.1335L23.2979 21.4668H22.9338L23.236 21.6682ZM21.1338 22.0001L21.2435 21.6436L21.0005 21.4668H21.2979L21.4005 21.1335L21.5287 21.4668H21.8671L21.6026 21.6592L21.7338 22.0001L21.4338 21.782L21.1338 22.0001ZM19.2649 21.6592L19.1338 22.0001L19.4468 21.7914L19.7338 22.0001L19.6317 21.6682L19.9338 21.4668H19.5697L19.4671 21.1335L19.3389 21.4668H19.0005L19.2649 21.6592ZM22.1338 21.1334L22.236 20.8015L21.9338 20.6001H22.2979L22.4005 20.2667L22.5287 20.6001H22.8672L22.6027 20.7924L22.7338 21.1334L22.4208 20.9247L22.1338 21.1334ZM20.2649 20.7924L20.1338 21.1334L20.4338 20.9152L20.7338 21.1334L20.6241 20.7768L20.8671 20.6001H20.5697L20.4671 20.2667L20.3389 20.6001H20.0005L20.2649 20.7924ZM18.1338 21.1334L18.2649 20.7924L18.0005 20.6001H18.3389L18.4671 20.2667L18.5697 20.6001H18.9338L18.6317 20.8015L18.7338 21.1334L18.4468 20.9247L18.1338 21.1334ZM19.1338 20.3335L19.2575 19.9871L19.0005 19.8002H19.3243L19.4671 19.4002L19.5814 19.8002H19.9338L19.6378 19.9975L19.7338 20.3335L19.4468 20.1248L19.1338 20.3335ZM21.237 19.9722L21.1338 20.3335L21.4338 20.1153L21.7338 20.3335L21.6101 19.9871L21.8671 19.8002H21.5433L21.4005 19.4002L21.2862 19.8002H21.0005L21.237 19.9722Z" fill="white"/>
</svg>
