<svg width="32" height="32" viewBox="0 0 32 32" fill="none" xmlns="http://www.w3.org/2000/svg">
<path d="M14.0946 27.4167C6.51122 27.4167 0.327881 21.2333 0.327881 13.65C0.327881 6.06667 6.51122 0 14.0946 0C21.6779 0 27.8612 6.06667 27.8612 13.65C27.8612 21.2333 21.6779 27.4167 14.0946 27.4167Z" fill="white"/>
<mask id="mask0" mask-type="alpha" maskUnits="userSpaceOnUse" x="0" y="0" width="28" height="28">
<path d="M14.0946 27.4167C6.51122 27.4167 0.327881 21.2333 0.327881 13.65C0.327881 6.06667 6.51122 0 14.0946 0C21.6779 0 27.8612 6.06667 27.8612 13.65C27.8612 21.2333 21.6779 27.4167 14.0946 27.4167Z" fill="white"/>
</mask>
<g mask="url(#mask0)">
<rect x="-0.00012207" width="28.3281" height="28.3281" fill="white"/>
<path d="M-0.00012207 19.6526H9.02947V13.3319L14.1816 18.4841L19.3161 13.3496V19.6526H28.328V28.3281H-0.00012207V19.6526Z" fill="#4C4D4E"/>
<path d="M-0.00012207 17.1739H6.51535V7.29449L14.1639 14.9431L21.8302 7.27679V17.1739H28.328V0H-0.00012207V17.1739Z" fill="#E96624"/>
</g>
<path fill-rule="evenodd" clip-rule="evenodd" d="M0 14C0 6.3 6.3 0 14 0C21.7 0 28 6.3 28 14C28 21.7 21.7 28 14 28C6.3 28 0 21.7 0 14ZM27.4168 14C27.4168 6.65 21.3502 0.583331 14.0002 0.583331C6.65017 0.583331 0.583502 6.65 0.583502 14C0.583502 21.35 6.65017 27.4167 14.0002 27.4167C21.3502 27.4167 27.4168 21.35 27.4168 14Z" fill="#999999"/>
<mask id="mask1" mask-type="alpha" maskUnits="userSpaceOnUse" x="16" y="16" width="16" height="16">
<path d="M16 24C16 28.4183 19.5817 32 24 32C28.4183 32 32 28.4183 32 24C32 19.5817 28.4183 16 24 16C19.5817 16 16 19.5817 16 24Z" fill="#3A4782"/>
</mask>
<g mask="url(#mask1)">
<path d="M32 16H16V32H32V16Z" fill="white"/>
<path d="M32 16H16V17.2203H32V16Z" fill="#B22233"/>
<path d="M32 18.4408H16V19.6611H32V18.4408Z" fill="#B22233"/>
<path d="M32 20.9492H16V22.1696H32V20.9492Z" fill="#B22233"/>
<path d="M32 23.3896H16V24.61H32V23.3896Z" fill="#B22233"/>
<path d="M32 25.8983H16V27.1187H32V25.8983Z" fill="#B22233"/>
<path d="M32 28.339H16V29.5593H32V28.339Z" fill="#B22233"/>
<path d="M32 30.7797H16V32H32V30.7797Z" fill="#B22233"/>
<path d="M16 16H24.7457V24.6102H16" fill="#3C3B6E"/>
<path d="M23.4575 17.2543L23.7288 16.3729L24.0677 17.2543L23.2542 16.7119H24.2033" fill="white"/>
<path d="M21.4238 17.2543L21.695 16.3729L22.0339 17.2543L21.2882 16.7119H22.1695" fill="white"/>
<path d="M19.3898 17.2543L19.7288 16.3729L20 17.2543L19.2543 16.7119H20.2034" fill="white"/>
<path d="M17.356 17.2543L17.695 16.3729L17.9662 17.2543L17.2205 16.7119H18.1696" fill="white"/>
<path d="M20.4069 18.1356L20.7459 17.2543L21.0171 18.1356L20.2714 17.5932H21.2205" fill="white"/>
<path d="M22.4407 18.1356L22.712 17.2543L23.0509 18.1356L22.3052 17.5932H23.1865" fill="white"/>
<path d="M18.3729 18.1356L18.7118 17.2543L18.983 18.1356L18.2373 17.5932H19.1864" fill="white"/>
<path d="M16.4069 18.1356L16.678 17.2543L16.9492 18.1356L16.2035 17.5932H17.1526" fill="white"/>
<path d="M19.3898 18.9492L19.7288 18.0679L20 18.9492L19.2543 18.4069H20.2034" fill="white"/>
<path d="M23.4575 18.9492L23.7288 18.0679L24.0677 18.9492L23.2542 18.4069H24.2033" fill="white"/>
<path d="M21.4238 18.9492L21.695 18.0679L22.0339 18.9492L21.2882 18.4069H22.1695" fill="white"/>
<path d="M17.356 18.9492L17.695 18.0679L17.9662 18.9492L17.2205 18.4069H18.1696" fill="white"/>
<path d="M20.4069 19.8306L20.7459 18.9492L21.0171 19.8306L20.2714 19.2882H21.2205" fill="white"/>
<path d="M22.4407 19.8306L22.712 18.9492L23.0509 19.8306L22.3052 19.2882H23.1865" fill="white"/>
<path d="M18.3729 19.8306L18.7118 18.9492L18.983 19.8306L18.2373 19.2882H19.1864" fill="white"/>
<path d="M16.4069 19.8306L16.678 18.9492L16.9492 19.8306L16.2035 19.2882H17.1526" fill="white"/>
<path d="M23.4575 20.7119L23.7288 19.8306L24.0677 20.7119L23.2542 20.1696H24.2033" fill="white"/>
<path d="M17.356 24.1694L17.695 23.2881L17.9662 24.1694L17.2205 23.627H18.1696" fill="white"/>
<path d="M23.4575 24.1694L23.7288 23.2881L24.0677 24.1694L23.2542 23.627H24.2033" fill="white"/>
<path d="M21.4238 24.1694L21.695 23.2881L22.0339 24.1694L21.2882 23.627H22.1695" fill="white"/>
<path d="M19.3898 24.1694L19.7288 23.2881L20 24.1694L19.2543 23.627H20.2034" fill="white"/>
<path d="M22.4407 23.2881L22.712 22.4067L23.0509 23.2881L22.3052 22.7457H23.1865" fill="white"/>
<path d="M20.4069 23.2881L20.7459 22.4067L21.0171 23.2881L20.2714 22.7457H21.2205" fill="white"/>
<path d="M18.3729 23.2881L18.7118 22.4067L18.983 23.2881L18.2373 22.7457H19.1864" fill="white"/>
<path d="M16.4069 23.2881L16.678 22.4067L16.9492 23.2881L16.2035 22.7457H17.1526" fill="white"/>
<path d="M17.356 22.4069L17.695 21.5255L17.9662 22.4069L17.2205 21.8645H18.1696" fill="white"/>
<path d="M23.4575 22.4069L23.7288 21.5255L24.0677 22.4069L23.2542 21.8645H24.2033" fill="white"/>
<path d="M21.4238 22.4069L21.695 21.5255L22.0339 22.4069L21.2882 21.8645H22.1695" fill="white"/>
<path d="M19.3898 22.4069L19.7288 21.5255L20 22.4069L19.2543 21.8645H20.2034" fill="white"/>
<path d="M22.4407 21.5934L22.712 20.6442L23.0509 21.5934L22.3052 21.0509H23.1865" fill="white"/>
<path d="M20.4069 21.5934L20.7459 20.6442L21.0171 21.5934L20.2714 21.0509H21.2205" fill="white"/>
<path d="M18.3729 21.5934L18.7118 20.6442L18.983 21.5934L18.2373 21.0509H19.1864" fill="white"/>
<path d="M16.4069 21.5934L16.678 20.6442L16.9492 21.5934L16.2035 21.0509H17.1526" fill="white"/>
<path d="M19.3898 20.7119L19.7288 19.8306L20 20.7119L19.2543 20.1696H20.2034" fill="white"/>
<path d="M21.4238 20.7119L21.695 19.8306L22.0339 20.7119L21.2882 20.1696H22.1695" fill="white"/>
<path d="M17.356 20.7119L17.695 19.8306L17.9662 20.7119L17.2205 20.1696H18.1696" fill="white"/>
</g>
</svg>
