<svg width="32" height="32" viewBox="0 0 32 32" fill="none" xmlns="http://www.w3.org/2000/svg">
<path d="M0 16C0 24.8365 7.16344 32 16 32C24.8365 32 32 24.8365 32 16C32 7.16344 24.8365 0 16 0C7.16344 0 0 7.16344 0 16Z" fill="#EFEFEF"/>
<path d="M16 0.666666C24.4 0.666666 31.3334 7.6 31.3334 16C31.3334 24.4 24.4 31.3334 16 31.3334C7.6 31.3334 0.666666 24.4 0.666666 16C0.666666 7.6 7.6 0.666666 16 0.666666ZM16 0C7.2 0 0 7.2 0 16C0 24.8 7.2 32 16 32C24.8 32 32 24.8 32 16C32 7.2 24.8 0 16 0Z" fill="#999999"/>
<path d="M22.4599 18.6139C22.3119 17.6699 22.69 16.8739 22.1899 15.1659C21.69 13.4579 20.7499 13.1979 20.4519 12.1659C20.154 11.1339 20.4039 10.4439 20.0939 9.37989C19.5679 7.57989 17.0799 8.1339 16.7239 8.2379C16.3679 8.3419 13.9719 9.2179 14.4999 11.0219C14.81 12.0859 15.3959 12.5379 15.6999 13.5619C16.0039 14.5859 15.346 15.3099 15.8439 17.0199C16.3419 18.7299 17.0859 19.1999 17.4679 20.0719C17.834 20.9119 17.4959 21.6439 17.978 23.2919C18.1791 23.9753 18.5736 24.5858 19.114 25.0499C19.762 25.6499 21.1999 25.9439 21.5679 26.1819C21.8039 26.3359 21.906 26.5819 22.0199 26.6479C22.386 26.8679 22.6919 26.3219 22.8199 26.1579C23.0855 25.7687 23.3074 25.3515 23.482 24.9139C23.7159 24.3899 24.0359 22.9859 23.8459 21.9639C23.831 21.8408 23.8062 21.7191 23.7719 21.5999C23.282 19.9539 22.5999 19.5199 22.4599 18.6139Z" fill="#549B0A"/>
<path d="M21.4946 24.4764C22.528 24.2151 23.1113 22.9972 22.7975 21.7561C22.4837 20.5148 21.3915 19.7206 20.3581 19.9819C19.3247 20.2431 18.7415 21.4611 19.0553 22.7022C19.369 23.9434 20.4612 24.7377 21.4946 24.4764Z" fill="#477C04"/>
<path d="M19.6928 18.4994C20.7262 18.2381 21.3095 17.0201 20.9957 15.779C20.6818 14.5379 19.5897 13.7435 18.5563 14.0048C17.5229 14.2662 16.9396 15.484 17.2535 16.7252C17.5672 17.9663 18.6594 18.7607 19.6928 18.4994Z" fill="#477C04"/>
<path d="M17.9413 12.8724C18.8687 12.638 19.3919 11.5441 19.11 10.4294C18.8282 9.31461 17.8479 8.601 16.9206 8.83548C15.9931 9.06998 15.4699 10.1637 15.7517 11.2785C16.0336 12.3933 17.0139 13.1069 17.9413 12.8724Z" fill="#477C04"/>
<path d="M16.724 8.24558C16.37 8.34958 13.972 9.21758 14.498 11.0215C14.81 12.0855 15.396 12.5376 15.698 13.5616C16 14.5856 15.344 15.3095 15.842 17.0196C15.9341 17.3399 16.0504 17.6528 16.19 17.9556C16.7054 17.2854 17.0963 16.528 17.344 15.7196C17.908 13.9575 17.272 13.2756 17.61 12.2176C17.948 11.1596 18.484 10.8636 18.836 9.76555C18.9202 9.49063 18.9392 9.19986 18.8917 8.91627C18.8441 8.63268 18.7312 8.36404 18.562 8.13159C17.9479 8.04667 17.3229 8.08543 16.724 8.24558Z" fill="#EFEFEF"/>
<path d="M15.3159 18.6605C15.7159 17.7965 16.4779 17.3465 17.0199 15.6605C17.562 13.9745 16.9259 13.2145 17.2519 12.2005C17.578 11.1865 18.1739 10.7465 18.512 9.69248C18.8139 8.74651 18.296 8.04251 17.6859 7.57051L18.3019 6.97051C18.4453 6.81837 18.6065 6.68406 18.7819 6.57051C18.961 6.45972 19.176 6.42245 19.3819 6.46651C19.4389 6.48666 19.498 6.50008 19.5579 6.50651C19.5883 6.51005 19.6191 6.50382 19.6457 6.48871C19.6723 6.47361 19.6934 6.45042 19.706 6.42251C19.7129 6.38819 19.7129 6.35282 19.706 6.31851C19.6839 6.14051 19.744 5.94251 19.6459 5.7925C19.6076 5.74246 19.5587 5.70146 19.5027 5.67243C19.4467 5.64339 19.385 5.62704 19.322 5.62451C18.922 5.57651 18.5339 5.80851 18.2059 6.05451C17.8846 6.29496 17.5793 6.55619 17.2919 6.83651C17.1847 6.92503 17.0911 7.02881 17.0139 7.14451C16.8039 7.03299 16.5852 6.93868 16.36 6.86251C16.0059 6.74851 13.534 6.13051 12.96 7.9205C12.622 8.97451 12.858 9.67855 12.5319 10.6945C12.206 11.7105 11.2599 11.9465 10.718 13.6425C10.176 15.3385 10.534 16.1425 10.362 17.0825C10.2 17.9805 9.50597 18.4005 8.98397 20.0325C8.76847 20.7119 8.75388 21.439 8.94197 22.1265C9.14197 22.9805 10.198 24.1485 10.3959 24.5385C10.49 24.7205 10.43 24.8025 10.4839 24.9245C10.658 25.3145 11.198 25.1825 11.392 25.1125C11.8295 24.9386 12.2467 24.7172 12.6359 24.4525C13.122 24.1485 14.1719 23.1645 14.586 22.2105C14.6422 22.0997 14.6896 21.9847 14.728 21.8665C15.248 20.2325 14.928 19.4925 15.3159 18.6605Z" fill="#549B0A"/>
</svg>
