<svg width="32" height="32" viewBox="0 0 32 32" fill="none" xmlns="http://www.w3.org/2000/svg">
<path d="M0 16C0 24.8365 7.16344 32 16 32C24.8365 32 32 24.8365 32 16C32 7.16344 24.8365 0 16 0C7.16344 0 0 7.16344 0 16Z" fill="#EFEFEF"/>
<path d="M16 0.666666C24.4 0.666666 31.3334 7.6 31.3334 16C31.3334 24.4 24.4 31.3334 16 31.3334C7.6 31.3334 0.666666 24.4 0.666666 16C0.666666 7.6 7.6 0.666666 16 0.666666ZM16 0C7.2 0 0 7.2 0 16C0 24.8 7.2 32 16 32C24.8 32 32 24.8 32 16C32 7.2 24.8 0 16 0Z" fill="#999999"/>
<path d="M11.8778 21.8944C12.0778 22.2583 11.8639 22.7463 11.5018 22.7463H6.33387C5.97188 22.7463 5.75588 22.2583 5.95787 21.8944L6.99988 20.0003C7.0351 19.9294 7.0888 19.8693 7.15533 19.8264C7.22186 19.7834 7.29874 19.7592 7.37787 19.7563H10.4499C10.529 19.7592 10.6059 19.7834 10.6724 19.8264C10.7389 19.8693 10.7927 19.9294 10.8279 20.0003L11.8778 21.8944ZM17.9039 20.0003C17.8688 19.9297 17.8154 19.8698 17.7493 19.8269C17.6831 19.784 17.6067 19.7596 17.5279 19.7563H14.4618C14.3828 19.7592 14.3059 19.7834 14.2393 19.8264C14.1728 19.8693 14.1191 19.9294 14.0839 20.0003L13.0339 21.8944C12.8339 22.2583 13.0479 22.7463 13.4119 22.7463H18.5779C18.9399 22.7463 19.1559 22.2583 18.9539 21.8944L17.9039 20.0003ZM17.9039 11.7863C17.8688 11.7157 17.8154 11.6558 17.7493 11.6129C17.6831 11.5699 17.6067 11.5456 17.5279 11.5424H14.4618C14.3828 11.5452 14.3059 11.5695 14.2393 11.6124C14.1728 11.6553 14.1191 11.7154 14.0839 11.7863L13.0339 13.6803C12.8339 14.0443 13.0479 14.5323 13.4119 14.5323H18.5779C18.9399 14.5323 19.1559 14.0443 18.9539 13.6803L17.9039 11.7863ZM24.9799 20.0003C24.9445 19.9291 24.8904 19.8689 24.8235 19.8258C24.7566 19.7829 24.6793 19.7588 24.5999 19.7563H21.5379C21.4587 19.7592 21.3818 19.7834 21.3153 19.8264C21.2488 19.8693 21.1951 19.9294 21.1599 20.0003L20.1098 21.8944C19.9098 22.2583 20.1239 22.7463 20.4879 22.7463H25.6538C26.0159 22.7463 26.2319 22.2583 26.0298 21.8944L24.9799 20.0003ZM21.5799 15.8923C21.5442 15.8215 21.4901 15.7617 21.4232 15.719C21.3563 15.6764 21.2792 15.6527 21.1999 15.6503H18.1319C18.053 15.6532 17.9764 15.6772 17.9098 15.7198C17.8434 15.7623 17.7896 15.8219 17.7539 15.8923L16.7039 17.7883C16.5039 18.1504 16.7199 18.6384 17.0819 18.6384H22.2479C22.6099 18.6384 22.8259 18.1504 22.6259 17.7883L21.5799 15.8923ZM14.2399 15.8923C14.2042 15.8219 14.1503 15.7623 14.0839 15.7198C14.0174 15.6772 13.9407 15.6532 13.8618 15.6503H10.7999C10.7213 15.6536 10.6451 15.6777 10.579 15.7202C10.5129 15.7628 10.4594 15.8222 10.4239 15.8923L9.37387 17.7883C9.17387 18.1504 9.38788 18.6384 9.74984 18.6384H14.9059C15.2698 18.6384 15.4858 18.1504 15.2839 17.7883L14.2399 15.8923Z" fill="#D8D8D8"/>
<path d="M15.9999 10.2324C15.9331 10.2324 15.869 10.2058 15.8217 10.1586C15.7745 10.1114 15.748 10.0473 15.748 9.98043V7.90642C15.748 7.83959 15.7745 7.77549 15.8217 7.72823C15.869 7.68097 15.9331 7.65442 15.9999 7.65442C16.0667 7.65442 16.1308 7.68097 16.1782 7.72823C16.2254 7.77549 16.252 7.83959 16.252 7.90642V9.98043C16.252 10.0473 16.2254 10.1114 16.1782 10.1586C16.1308 10.2058 16.0667 10.2324 15.9999 10.2324Z" fill="#D8D8D8"/>
<path d="M18.8279 10.5508C18.783 10.5504 18.739 10.5387 18.6999 10.5167C18.6426 10.4823 18.6013 10.4266 18.5848 10.3618C18.5684 10.297 18.5781 10.2284 18.6119 10.1707L19.7658 8.22675C19.8006 8.17077 19.8558 8.13061 19.9198 8.11485C19.9837 8.09911 20.0513 8.10903 20.108 8.14249C20.1648 8.17596 20.2062 8.23031 20.2233 8.29391C20.2405 8.35751 20.2321 8.42529 20.1998 8.48275L19.0458 10.4287C19.0234 10.4665 18.9914 10.4975 18.9532 10.519C18.9149 10.5403 18.8717 10.5514 18.8279 10.5508Z" fill="#D8D8D8"/>
<path d="M13.16 10.5502C13.1165 10.55 13.0739 10.5387 13.036 10.5173C12.9982 10.496 12.9665 10.4653 12.944 10.4281L11.8 8.48215C11.7797 8.45375 11.7655 8.42144 11.7583 8.38727C11.7512 8.35311 11.7512 8.31782 11.7584 8.28367C11.7656 8.2495 11.7799 8.21721 11.8002 8.18883C11.8205 8.16047 11.8465 8.13662 11.8765 8.11882C11.9065 8.10103 11.94 8.08966 11.9746 8.08546C12.0092 8.08125 12.0444 8.08428 12.0778 8.09438C12.1112 8.10447 12.1422 8.12139 12.1688 8.14407C12.1953 8.16676 12.2168 8.19471 12.232 8.22615L13.386 10.1701C13.403 10.1987 13.4142 10.2302 13.4189 10.263C13.4237 10.2958 13.422 10.3293 13.4138 10.3614C13.4056 10.3936 13.3912 10.4238 13.3713 10.4503C13.3514 10.4769 13.3265 10.4993 13.298 10.5161C13.2559 10.5397 13.2082 10.5515 13.16 10.5502Z" fill="#D8D8D8"/>
</svg>
