<svg width="32" height="32" viewBox="0 0 32 32" fill="none" xmlns="http://www.w3.org/2000/svg">
<path d="M0 16C0 24.8365 7.16344 32 16 32C24.8365 32 32 24.8365 32 16C32 7.16344 24.8365 0 16 0C7.16344 0 0 7.16344 0 16Z" fill="#EFEFEF"/>
<path d="M16 0.666666C24.4 0.666666 31.3334 7.6 31.3334 16C31.3334 24.4 24.4 31.3334 16 31.3334C7.6 31.3334 0.666666 24.4 0.666666 16C0.666666 7.6 7.6 0.666666 16 0.666666ZM16 0C7.2 0 0 7.2 0 16C0 24.8 7.2 32 16 32C24.8 32 32 24.8 32 16C32 7.2 24.8 0 16 0Z" fill="#999999"/>
<path d="M14.1781 25.7641C13.606 25.6881 12.484 24.9841 12.204 24.7641C10.508 23.4481 9.54804 21.2261 9.45609 19.0821C9.36404 16.9381 9.71209 15.8001 10.948 14.0542C11.1061 13.8302 11.308 13.5902 11.5841 13.5721C11.812 13.5582 12.1 13.8501 12.0001 14.6501C11.9361 15.1641 11.918 15.8241 12.326 16.2501C12.478 16.4081 12.9681 16.7521 13.75 16.4501C14.3 16.2382 14.35 15.6121 14.35 15.2382C14.364 14.4222 13.7381 13.2782 13.734 12.5161C13.718 9.1261 16.2581 6.9741 17.15 6.28411C17.3035 6.16922 17.4638 6.0637 17.63 5.96811C17.9761 5.76811 18.492 5.96811 18.468 6.36811C18.436 6.88011 18.4341 6.96811 18.3841 7.66811C18.2571 9.00098 18.4755 10.344 19.0181 11.5681C19.734 13.1441 21.284 14.5022 21.9761 16.1502C22.6003 17.5865 22.7407 19.187 22.3761 20.7102C21.9921 22.1641 21.1761 23.3241 20.148 24.4181C19.6001 24.9841 18.356 25.6401 17.588 25.8001C17.3517 25.8574 17.1031 25.8334 16.8821 25.7321C16.8417 25.6973 16.809 25.6544 16.7862 25.6062C16.7634 25.558 16.7509 25.5055 16.7495 25.4522C16.7482 25.3989 16.7581 25.3459 16.7785 25.2966C16.799 25.2474 16.8295 25.2029 16.868 25.1662C17.1121 24.9241 17.8321 24.6382 17.9941 24.4921C18.6581 23.8921 19.3061 22.7241 19.076 21.8581C18.86 21.0581 18.3621 20.3102 17.9381 19.5921C17.2261 18.3921 15.5061 17.6421 15.5861 18.6081C15.6161 18.9822 15.8181 19.2961 16.0001 19.6241C16.3441 20.2421 16.494 21.4241 16.2321 21.8241C15.886 22.3441 15.0001 22.5422 14.412 22.3321C14.0321 22.1941 13.5621 21.6542 13.3381 21.3182C13.06 20.9001 13.2401 20.1662 13.126 20.0561C12.884 19.8241 12.692 20.0561 12.598 20.1641C12.4976 20.3182 12.4295 20.491 12.398 20.6721C12.2866 21.3951 12.4211 22.1346 12.78 22.7721C13.0902 23.3999 13.5413 23.9475 14.0981 24.3721C14.3497 24.5292 14.5768 24.7227 14.772 24.9461C14.9041 25.1461 14.94 25.3461 14.772 25.5342C14.6973 25.6155 14.6049 25.6785 14.5018 25.7183C14.3989 25.7582 14.2881 25.7739 14.1781 25.7641Z" fill="#37BFEF"/>
<path d="M12.25 23.3242C11.792 21.5702 12.29 20.4922 12.576 19.9662C12.648 19.8322 12.7179 19.7202 12.858 19.6862C12.9251 19.667 12.997 19.6752 13.0582 19.7089C13.1193 19.7427 13.1644 19.7993 13.184 19.8662C13.33 20.2222 13.29 20.6842 13.418 21.1502C13.4956 21.501 13.6926 21.8139 13.9753 22.0357C14.258 22.2574 14.6088 22.3742 14.968 22.3662C15.568 22.3662 16.368 21.8942 16.368 21.1002C16.368 20.8342 16.1179 20.2502 16 20.0122C15.6743 19.4071 15.5187 18.7248 15.5499 18.0382C15.62 17.2762 16.0539 16.6202 16.594 16.0802C16.72 15.9542 17.17 15.5322 17.4219 15.7642C17.548 15.8782 17.4219 16.0622 17.376 16.3742C17.2875 16.8874 17.2916 17.4124 17.388 17.9242C17.56 18.9242 18.4939 19.8522 18.884 20.4842C19.684 21.7842 19.684 22.2842 19.618 23.0342C19.5179 24.2962 18.722 25.4343 17.922 25.7042C17.2561 25.9042 16.563 25.9987 15.868 25.9842C15.168 25.9842 14.196 25.8442 13.892 25.6922C13.22 25.3543 12.5499 24.4743 12.25 23.3242Z" fill="#6CE3FF"/>
</svg>
