<svg width="32" height="32" viewBox="0 0 32 32" fill="none" xmlns="http://www.w3.org/2000/svg">
<mask id="mask0" mask-type="alpha" maskUnits="userSpaceOnUse" x="0" y="0" width="28" height="28">
<circle cx="14" cy="14" r="14" fill="#C4C4C4"/>
</mask>
<g mask="url(#mask0)">
<path d="M0 0V28H28V0H0Z" fill="#00237C"/>
<path d="M28 2.16664L17.864 9.51186V0H10.2375V9.51359L0 2.11765V7.25597L4.018 10.1384H0V17.7986H4.0985L0 20.7213V25.8264L10.2375 18.4427V28H17.864V18.4444L28 25.7791V20.674L23.9995 17.7986H28V10.1384H24.08L28 7.30322V2.16664Z" fill="white"/>
<path d="M28 11.6918H16.324V0H11.7407V11.6918H0V16.275H11.7407V28H16.324V16.275H28V11.6918Z" fill="#B22233"/>
<path d="M8.75 9.625H5.27753L0 5.84919V3.5L8.75 9.625Z" fill="#B22233"/>
<path d="M20.125 17.5H23.0855L28 21.3663V23.625L20.125 17.5Z" fill="#B22233"/>
<path d="M18.375 9.625H21.8194L28 5.10284V2.625L18.375 9.625Z" fill="#B22233"/>
<path d="M9.625 17.5H6.38414L0 22.794V25.375L9.625 17.5Z" fill="#B22233"/>
</g>
<mask id="mask1" mask-type="alpha" maskUnits="userSpaceOnUse" x="16" y="16" width="16" height="16">
<circle cx="24" cy="24" r="8" fill="#C4C4C4"/>
</mask>
<g mask="url(#mask1)">
<path d="M32 16H16V32H32V16Z" fill="#C61C1C"/>
<path d="M29.587 16H18.412V32H29.587V16Z" fill="white"/>
<path d="M24 19.46L23.237 20.882C23.151 21.036 22.996 21.0219 22.837 20.9359L22.285 20.65L22.696 22.834C22.783 23.234 22.505 23.2339 22.368 23.0609L21.405 21.982L21.248 22.53C21.2347 22.5746 21.2051 22.6126 21.1651 22.6365C21.1251 22.6604 21.0776 22.6684 21.032 22.659L19.814 22.403L20.134 23.567C20.202 23.825 20.256 23.932 20.065 24.001L19.631 24.201L21.731 25.901C21.7738 25.9333 21.8062 25.9777 21.824 26.0284C21.8418 26.0791 21.8442 26.1339 21.831 26.1859L21.647 26.7859C22.369 26.7019 23.016 26.577 23.739 26.5C23.802 26.493 23.909 26.6 23.909 26.672L23.809 28.879H24.16L24.105 26.679C24.105 26.605 24.205 26.495 24.265 26.502C24.987 26.579 25.634 26.702 26.356 26.788L26.173 26.188C26.1598 26.1359 26.1622 26.0811 26.18 26.0304C26.1978 25.9797 26.2301 25.9353 26.273 25.903L28.373 24.203L27.939 24.003C27.748 23.934 27.801 23.827 27.87 23.569L28.19 22.405L26.972 22.6609C26.9262 22.6704 26.8786 22.6625 26.8384 22.6386C26.7983 22.6147 26.7685 22.5767 26.755 22.532L26.599 21.984L25.636 23.063C25.499 23.235 25.221 23.2349 25.308 22.8359L25.719 20.652L25.167 20.938C25.012 21.024 24.857 21.038 24.767 20.884" fill="#C61C1C"/>
<path d="M24 16.3333C28.2 16.3333 31.6667 19.8 31.6667 24C31.6667 28.2 28.2 31.6667 24 31.6667C19.8 31.6667 16.3333 28.2 16.3333 24C16.3333 19.8 19.8 16.3333 24 16.3333ZM24 16C19.6 16 16 19.6 16 24C16 28.4 19.6 32 24 32C28.4 32 32 28.4 32 24C32 19.6 28.4 16 24 16Z" fill="#999999"/>
</g>
</svg>
