<svg width="32" height="32" viewBox="0 0 32 32" fill="none" xmlns="http://www.w3.org/2000/svg">
<path d="M0 14C0 21.732 6.26801 28 14 28C21.732 28 28 21.732 28 14C28 6.26801 21.732 0 14 0C6.26801 0 0 6.26801 0 14Z" fill="white"/>
<path d="M14 0.58329C21.35 0.58329 27.4167 6.65 27.4167 14C27.4167 21.35 21.35 27.4167 14 27.4167C6.65 27.4167 0.58329 21.35 0.58329 14C0.58329 6.65 6.65 0.58329 14 0.58329ZM14 0C6.3 0 0 6.3 0 14C0 21.7 6.3 28 14 28C21.7 28 28 21.7 28 14C28 6.3 21.7 0 14 0Z" fill="#999999"/>
<path d="M8.75417 9.50833C8.24976 9.50833 7.8305 9.33966 7.49637 9.00232C7.16546 8.6682 7 8.25214 7 7.75417C7 7.25298 7.16546 6.83692 7.49637 6.50601C7.8305 6.16867 8.24976 6 8.75417 6C9.05938 6 9.34049 6.07229 9.59751 6.21686C9.85775 6.35822 10.0602 6.55099 10.2047 6.79516L9.63125 7.12768C9.54772 6.97668 9.42884 6.85941 9.27463 6.77588C9.12042 6.68914 8.94693 6.64576 8.75417 6.64576C8.42646 6.64576 8.16141 6.74857 7.95901 6.95419C7.75982 7.16302 7.66022 7.42968 7.66022 7.75417C7.66022 8.07544 7.75982 8.34049 7.95901 8.54932C8.16141 8.75494 8.42646 8.85775 8.75417 8.85775C8.94693 8.85775 9.12042 8.81598 9.27463 8.73245C9.43206 8.64571 9.55093 8.52844 9.63125 8.38065L10.2047 8.71317C10.0602 8.95734 9.85775 9.15172 9.59751 9.29629C9.34049 9.43765 9.05938 9.50833 8.75417 9.50833Z" fill="#141528"/>
<path d="M12.5313 7.40719V6.06747H13.1915V9.44086H12.5313V8.04331H11.2783V9.44086H10.6133V6.06747H11.2783V7.40719H12.5313Z" fill="#141528"/>
<path d="M13.8182 9.44086V6.06747H14.4832V9.44086H13.8182Z" fill="#141528"/>
<path d="M17.0594 8.12524V6.06747H17.7245V9.44086H17.2185L15.7727 7.37827V9.44086H15.1077V6.06747H15.6137L17.0594 8.12524Z" fill="#141528"/>
<path d="M21.2417 9.44086H20.5188L20.3164 8.83365H18.9719L18.7695 9.44086H18.0514L19.2321 6.06747H20.0562L21.2417 9.44086ZM19.6466 6.83371L19.1839 8.21198H20.1092L19.6466 6.83371Z" fill="#141528"/>
<path d="M9.53417 16.0052H10.4667C11.3474 16.0052 12.0813 16.2685 12.6684 16.7952C13.2642 17.3133 13.5621 18.0385 13.5621 18.9711C13.5621 19.9036 13.2469 20.6332 12.6166 21.1598C12.0036 21.6865 11.2394 21.9499 10.3242 21.9499C9.58166 21.9499 8.92977 21.7858 8.36855 21.4577C7.81595 21.121 7.41446 20.6375 7.16406 20.0072L8.69233 19.1135C8.90819 19.8388 9.45215 20.2014 10.3242 20.2014C10.7818 20.2014 11.1358 20.0935 11.3862 19.8777C11.6453 19.6532 11.7748 19.351 11.7748 18.9711C11.7748 18.5998 11.6496 18.3019 11.3992 18.0774C11.1488 17.8529 10.8077 17.7407 10.376 17.7407H7.63031L7.99295 12.7026H13.1347V14.3733H9.65074L9.53417 16.0052Z" fill="#141528"/>
<path d="M17.8637 21.9499C16.7326 21.9499 15.8432 21.5225 15.1957 20.6677C14.5567 19.7956 14.2373 18.6516 14.2373 17.2356C14.2373 15.8195 14.5567 14.6798 15.1957 13.8164C15.8432 12.953 16.7326 12.5212 17.8637 12.5212C19.012 12.5212 19.9014 12.953 20.5317 13.8164C21.1706 14.6798 21.4901 15.8195 21.4901 17.2356C21.4901 18.6516 21.1706 19.7956 20.5317 20.6677C19.9014 21.5225 19.012 21.9499 17.8637 21.9499ZM19.7157 17.2356C19.7157 16.2685 19.556 15.5303 19.2365 15.0209C18.9257 14.5114 18.4681 14.2567 17.8637 14.2567C17.2593 14.2567 16.8016 14.5114 16.4908 15.0209C16.18 15.5303 16.0246 16.2685 16.0246 17.2356C16.0246 18.2026 16.18 18.9408 16.4908 19.4503C16.8016 19.951 17.2593 20.2014 17.8637 20.2014C18.4681 20.2014 18.9257 19.9467 19.2365 19.4373C19.556 18.9279 19.7157 18.194 19.7157 17.2356Z" fill="#141528"/>
<path d="M24 32C28.4183 32 32 28.4183 32 24C32 19.5817 28.4183 16 24 16C19.5817 16 16 19.5817 16 24C16 28.4183 19.5817 32 24 32Z" fill="#C61C1C"/>
<path d="M22.9507 18.97L22.8507 20.146L22.2437 19.134L23.3307 19.596L22.1797 19.861L22.9507 18.97Z" fill="#FFDE00"/>
<path d="M24.396 20.351L23.843 21.395L23.676 20.226L24.499 21.073L23.335 20.873L24.396 20.351Z" fill="#FFDE00"/>
<path d="M24.5327 22.433L23.6027 23.161L23.9277 22.025L24.3277 23.134L23.3477 22.475L24.5327 22.433Z" fill="#FFDE00"/>
<path d="M22.9274 23.306L22.8724 24.486L22.2234 23.499L23.3284 23.916L22.1904 24.228L22.9274 23.306Z" fill="#FFDE00"/>
<path d="M19.6049 19.5341L20.7049 22.901L17.8369 20.8231H21.3789L18.5159 22.9091L19.6049 19.5341Z" fill="#FFDE00"/>
</svg>
