<svg width="32" height="32" viewBox="0 0 32 32" fill="none" xmlns="http://www.w3.org/2000/svg">
<path d="M0 14C0 21.732 6.26801 28 14 28C21.732 28 28 21.732 28 14C28 6.26801 21.732 0 14 0C6.26801 0 0 6.26801 0 14Z" fill="#00237C"/>
<path d="M3.41873 12.4024L3.81203 13.6219H5.08747L4.05645 14.3781L4.44086 15.5975L3.41873 14.8435L2.38771 15.5975L2.78102 14.3781L1.75 13.6219H3.02321L3.41873 12.4024ZM4.46752 8.24751H3.19431L4.21866 9.0015L3.82536 10.2232L4.85638 9.46688L5.8874 10.2232L5.49409 9.0015L6.52511 8.24751H5.25634L4.86304 7.02592L4.46752 8.24751ZM8.26275 4.42598H6.98956L8.02057 5.18L7.625 6.39269L8.66271 5.64762L9.68923 6.39269L9.29376 5.17105L10.3248 4.41703H9.05159L8.66271 3.20434L8.26275 4.42598ZM13.5956 2.97164H12.3268L13.3578 3.72566L12.9645 4.94731L13.9956 4.19328L15.0266 4.94731L14.6333 3.72566L15.6643 2.97164H14.3888L13.9956 1.75L13.5956 2.97164ZM18.9284 4.42598H17.6663L18.6973 5.18L18.3018 6.39269L19.3284 5.64762L20.3638 6.39269L19.9727 5.17105L21.0015 4.41703H19.7284L19.3284 3.20434L18.9284 4.42598ZM22.7236 8.24751H21.4481L22.4792 9.0015L22.0859 10.2232L23.1169 9.46688L24.1479 10.2232L23.7724 9.0015L24.8034 8.24751H23.5303L23.1347 7.02592L22.7236 8.24751ZM24.1679 13.6174H22.8925L23.9235 14.3737L23.5502 15.5975L24.5812 14.8435L25.6123 15.5975L25.219 14.3781L26.25 13.6219H24.9745L24.5812 12.4024L24.1679 13.6174ZM4.45642 18.9872H3.19431L4.21866 19.7525L3.82536 20.9741L4.85638 20.2201L5.8874 20.9741L5.49409 19.7525L6.52511 18.9984H5.25634L4.86304 17.7768L4.45642 18.9872ZM8.26275 22.8199H6.98956L8.02057 23.574L7.625 24.7956L8.66271 24.0394L9.69373 24.7956L9.29816 23.574L10.3292 22.8199H9.05159L8.66271 21.6073L8.26275 22.8199ZM13.5956 24.2743H12.3268L13.3578 25.0283L12.9645 26.25L13.9956 25.4937L15.0266 26.25L14.6333 25.0283L15.6643 24.2743H14.3888L13.9956 23.0526L13.5956 24.2743ZM18.9284 22.8199H17.6663L18.6973 23.574L18.3018 24.7956L19.3328 24.0394L20.3638 24.7956L19.9727 23.574L21.0015 22.8199H19.7284L19.3284 21.6073L18.9284 22.8199ZM22.7236 18.9984H21.4481L22.4792 19.7525L22.0859 20.9741L23.1169 20.2201L24.1479 20.9741L23.7724 19.7525L24.8034 18.9984H23.5303L23.1347 17.7768L22.7236 18.9984Z" fill="#FFC300"/>
<mask id="mask0" mask-type="alpha" maskUnits="userSpaceOnUse" x="16" y="16" width="16" height="16">
<circle cx="24" cy="24" r="8" fill="#C4C4C4"/>
</mask>
<g mask="url(#mask0)">
<path d="M16.0029 16H32.0029V32H16.0029V16Z" fill="#00237C"/>
<path d="M19.3661 24.8831L19.6291 25.7001L20.4311 25.3961L19.9571 26.1111L20.6941 26.5491L19.8401 26.6231L19.9571 27.4731L19.3661 26.8511L18.7751 27.4731L18.8931 26.6231L18.0381 26.5491L18.7761 26.1111L18.3011 25.3961L19.1041 25.7001L19.3661 24.8831Z" fill="white"/>
<path d="M28.4471 26.354L28.5721 26.743L28.9541 26.598L28.7281 26.938L29.0801 27.147L28.6731 27.182L28.7291 27.587L28.4471 27.291L28.1661 27.587L28.2221 27.182L27.8151 27.147L28.1661 26.938L27.9401 26.598L28.3221 26.743L28.4471 26.354Z" fill="white"/>
<path d="M26.1769 22.759L26.3019 23.148L26.6839 23.0031L26.4579 23.344L26.8089 23.552L26.4019 23.587L26.4579 23.992L26.1769 23.696L25.8959 23.992L25.9519 23.587L25.5449 23.552L25.8959 23.344L25.6699 23.0031L26.0519 23.148L26.1769 22.759Z" fill="white"/>
<path d="M28.4471 20.3L28.5721 20.689L28.9541 20.5441L28.7281 20.8841L29.0801 21.0931L28.6731 21.1281L28.7291 21.5331L28.4471 21.237L28.1661 21.5331L28.2221 21.1281L27.8151 21.0931L28.1661 20.8841L27.9401 20.5441L28.3221 20.689L28.4471 20.3Z" fill="white"/>
<path d="M30.465 22.1541L30.59 22.5431L30.972 22.3981L30.746 22.738L31.098 22.9471L30.691 22.982L30.747 23.387L30.465 23.0911L30.184 23.387L30.24 22.982L29.833 22.9471L30.184 22.738L29.958 22.3981L30.34 22.5431L30.465 22.1541Z" fill="white"/>
<path d="M29.355 23.975L29.454 24.218L29.715 24.237L29.515 24.406L29.578 24.66L29.355 24.522L29.133 24.66L29.195 24.406L28.996 24.237L29.257 24.218L29.355 23.975Z" fill="white"/>
<path d="M19.5639 16H20.9899V18.023H24.5509V19.742H20.9899V21.765H19.5639V19.742H16.0029V18.019H19.5639V16Z" fill="white"/>
<path d="M16.0029 16H16.9579L24.5489 21.124V21.769H23.5899L16.0029 16.642V16Z" fill="white"/>
<path d="M24.549 16H23.59L16 21.124V21.769H16.955L24.549 16.642V16Z" fill="white"/>
<path d="M19.8479 16H20.7029V18.407H24.5489V19.361H20.7029V21.769H19.8479V19.361H16.0029V18.407H19.8479V16Z" fill="#B22233"/>
<path d="M16.0029 16L18.9509 18.023H18.3139L16.0029 16.43V16ZM24.5489 16H23.9119L21.0629 18.023H21.6999L24.5489 16Z" fill="#B22233"/>
<path d="M24.5489 21.7689L21.5999 19.7419H22.2369L24.5489 21.3419V21.7689ZM16.0029 21.7689H16.6399L19.4899 19.7419H18.8529L16.0029 21.7689Z" fill="#B22233"/>
</g>
</svg>
