<svg width="32" height="32" viewBox="0 0 32 32" fill="none" xmlns="http://www.w3.org/2000/svg">
<mask id="mask0" mask-type="alpha" maskUnits="userSpaceOnUse" x="0" y="0" width="28" height="28">
<circle cx="14" cy="14" r="14" fill="#C4C4C4"/>
</mask>
<g mask="url(#mask0)">
<path d="M0 0V28H28V0H0Z" fill="#00237C"/>
<path d="M28 2.16664L17.864 9.51186V0H10.2375V9.51359L0 2.11765V7.25597L4.018 10.1384H0V17.7986H4.0985L0 20.7213V25.8264L10.2375 18.4427V28H17.864V18.4444L28 25.7791V20.674L23.9995 17.7986H28V10.1384H24.08L28 7.30322V2.16664Z" fill="white"/>
<path d="M28 11.6918H16.324V0H11.7407V11.6918H0V16.275H11.7407V28H16.324V16.275H28V11.6918Z" fill="#B22233"/>
<path d="M8.75 9.625H5.27753L0 5.84919V3.5L8.75 9.625Z" fill="#B22233"/>
<path d="M20.125 17.5H23.0855L28 21.3663V23.625L20.125 17.5Z" fill="#B22233"/>
<path d="M18.375 9.625H21.8194L28 5.10284V2.625L18.375 9.625Z" fill="#B22233"/>
<path d="M9.625 17.5H6.38414L0 22.794V25.375L9.625 17.5Z" fill="#B22233"/>
</g>
<path d="M16 24C16 28.4183 19.5817 32 24 32C28.4183 32 32 28.4183 32 24C32 19.5817 28.4183 16 24 16C19.5817 16 16 19.5817 16 24Z" fill="white"/>
<path d="M24 16.3333C28.2 16.3333 31.6667 19.8 31.6667 24C31.6667 28.2 28.2 31.6667 24 31.6667C19.8 31.6667 16.3333 28.2 16.3333 24C16.3333 19.8 19.8 16.3333 24 16.3333ZM24 16C19.6 16 16 19.6 16 24C16 28.4 19.6 32 24 32C28.4 32 32 28.4 32 24C32 19.6 28.4 16 24 16Z" fill="#999999"/>
<path d="M24.0001 27.5C25.9331 27.5 27.5001 25.933 27.5001 24C27.5001 22.067 25.9331 20.5 24.0001 20.5C22.0671 20.5 20.5001 22.067 20.5001 24C20.5001 25.933 22.0671 27.5 24.0001 27.5Z" fill="#B22233"/>
</svg>
