<svg width="32" height="32" viewBox="0 0 32 32" fill="none" xmlns="http://www.w3.org/2000/svg">
<circle cx="14" cy="14" r="14" fill="white"/>
<path d="M14 0.58329C21.35 0.58329 27.4167 6.65 27.4167 14C27.4167 21.35 21.35 27.4167 14 27.4167C6.65 27.4167 0.58329 21.35 0.58329 14C0.58329 6.65 6.65 0.58329 14 0.58329ZM14 0C6.3 0 0 6.3 0 14C0 21.7 6.3 28 14 28C21.7 28 28 21.7 28 14C28 6.3 21.7 0 14 0Z" fill="#999999"/>
<path d="M11.3833 18H9.71033L9.2419 16.74H6.13022L5.66179 18H4L6.73248 11H8.63964L11.3833 18ZM7.69164 12.59L6.62095 15.45H8.76232L7.69164 12.59Z" fill="#141528"/>
<path d="M13.6804 15.11V16.68H16.9706V18H12.1413V11H16.9148V12.32H13.6804V13.81H16.636V15.11H13.6804Z" fill="#141528"/>
<path d="M21.6021 14.4L24 18H22.249L20.7322 15.72L19.2154 18H17.4755L19.8622 14.41L17.5982 11H19.3381L20.7322 13.1L22.1263 11H23.8662L21.6021 14.4Z" fill="#141528"/>
<mask id="mask0" mask-type="alpha" maskUnits="userSpaceOnUse" x="16" y="16" width="16" height="16">
<path d="M24 32C28.4183 32 32 28.4183 32 24C32 19.5817 28.4183 16 24 16C19.5817 16 16 19.5817 16 24C16 28.4183 19.5817 32 24 32Z" fill="#006C35"/>
</mask>
<g mask="url(#mask0)">
<path d="M24 32C28.4183 32 32 28.4183 32 24C32 19.5817 28.4183 16 24 16C19.5817 16 16 19.5817 16 24C16 28.4183 19.5817 32 24 32Z" fill="white"/>
<path d="M24 16C20.2968 16 17.159 18.075 16 21H32C30.841 18.075 27.7032 16 24 16Z" fill="#ED4C5C"/>
<path d="M24 32C27.7032 32 30.841 29.925 32 27H16C17.159 29.925 20.2968 32 24 32Z" fill="#428BC1"/>
<path d="M16.4533 21C16.16 21.93 16 22.95 16 24C16 25.05 16.16 26.07 16.4533 27H31.5467C31.84 26.07 32 25.05 32 24C32 22.95 31.84 21.93 31.5467 21H16.4533Z" fill="white"/>
<path d="M24 16.3333C28.2 16.3333 31.6667 19.8 31.6667 24C31.6667 28.2 28.2 31.6667 24 31.6667C19.8 31.6667 16.3333 28.2 16.3333 24C16.3333 19.8 19.8 16.3333 24 16.3333ZM24 16C19.6 16 16 19.6 16 24C16 28.4 19.6 32 24 32C28.4 32 32 28.4 32 24C32 19.6 28.4 16 24 16Z" fill="#999999"/>
</g>
</svg>
