<svg width="32" height="32" viewBox="0 0 32 32" fill="none" xmlns="http://www.w3.org/2000/svg">
<mask id="mask0" mask-type="alpha" maskUnits="userSpaceOnUse" x="0" y="0" width="28" height="28">
<circle cx="14" cy="14" r="14" fill="#C4C4C4"/>
</mask>
<g mask="url(#mask0)">
<path d="M0.00524902 0H28.0052V28H0.00524902V0Z" fill="#00237C"/>
<path d="M5.89053 15.5452L6.35078 16.975L7.75427 16.443L6.92478 17.6942L8.21452 18.4608L6.72002 18.5903L6.92478 20.0777L5.89053 18.9893L4.85628 20.0777L5.06277 18.5903L3.56653 18.4608L4.85803 17.6942L4.02678 16.443L5.43203 16.975L5.89053 15.5452Z" fill="white"/>
<path d="M21.7823 18.1195L22.001 18.8002L22.6695 18.5465L22.274 19.1415L22.89 19.5072L22.1778 19.5685L22.2758 20.2772L21.7823 19.7592L21.2905 20.2772L21.3885 19.5685L20.6763 19.5072L21.2905 19.1415L20.895 18.5465L21.5635 18.8002L21.7823 18.1195Z" fill="white"/>
<path d="M17.8097 11.8282L18.0285 12.509L18.697 12.2552L18.3015 12.852L18.9157 13.216L18.2035 13.2772L18.3015 13.9859L17.8097 13.468L17.318 13.9859L17.416 13.2772L16.7037 13.216L17.318 12.852L16.9225 12.2552L17.591 12.509L17.8097 11.8282Z" fill="white"/>
<path d="M21.7823 7.52502L22.001 8.20578L22.6695 7.95204L22.274 8.54704L22.89 8.91278L22.1778 8.97403L22.2758 9.68279L21.7823 9.16477L21.2905 9.68279L21.3885 8.97403L20.6763 8.91278L21.2905 8.54704L20.895 7.95204L21.5635 8.20578L21.7823 7.52502Z" fill="white"/>
<path d="M25.3137 10.7695L25.5325 11.4503L26.2009 11.1965L25.8055 11.7915L26.4214 12.1573L25.7092 12.2185L25.8072 12.9273L25.3137 12.4093L24.822 12.9273L24.92 12.2185L24.2077 12.1573L24.822 11.7915L24.4265 11.1965L25.095 11.4503L25.3137 10.7695Z" fill="white"/>
<path d="M23.3712 13.9562L23.5445 14.3815L24.0012 14.4147L23.6512 14.7105L23.7615 15.155L23.3712 14.9135L22.9827 15.155L23.0912 14.7105L22.743 14.4147L23.1997 14.3815L23.3712 13.9562Z" fill="white"/>
<path d="M6.23699 0H8.73249V3.54027H14.9642V6.5485H8.73249V10.0887H6.23699V6.5485H0.00524902V3.53326H6.23699V0Z" fill="white"/>
<path d="M0.00524902 0H1.6765L14.9607 8.96699V10.0958H13.2825L0.00524902 1.12351V0Z" fill="white"/>
<path d="M14.9607 0H13.2825L0 8.96699V10.0958H1.67125L14.9607 1.12351V0Z" fill="white"/>
<path d="M6.73399 0H8.23024V4.21226H14.9607V5.88174H8.23024V10.0958H6.73399V5.88174H0.00524902V4.21226H6.73399V0Z" fill="#B22233"/>
<path d="M0.00524902 0L5.16424 3.54027H4.04949L0.00524902 0.752508V0ZM14.9607 0H13.846L8.86024 3.54027H9.97499L14.9607 0Z" fill="#B22233"/>
<path d="M14.9607 10.0957L9.79999 6.54846H10.9147L14.9607 9.34846V10.0957ZM0.00524902 10.0957H1.12L6.10749 6.54846H4.99275L0.00524902 10.0957Z" fill="#B22233"/>
</g>
<mask id="mask1" mask-type="alpha" maskUnits="userSpaceOnUse" x="16" y="16" width="16" height="16">
<path d="M16 24C16 28.4183 19.5817 32 24 32C28.4183 32 32 28.4183 32 24C32 19.5817 28.4183 16 24 16C19.5817 16 16 19.5817 16 24Z" fill="#3A4782"/>
</mask>
<g mask="url(#mask1)">
<path d="M32 16H16V32H32V16Z" fill="white"/>
<path d="M32 16H16V17.2203H32V16Z" fill="#B22233"/>
<path d="M32 18.4407H16V19.6611H32V18.4407Z" fill="#B22233"/>
<path d="M32 20.9492H16V22.1695H32V20.9492Z" fill="#B22233"/>
<path d="M32 23.3897H16V24.61H32V23.3897Z" fill="#B22233"/>
<path d="M32 25.8983H16V27.1187H32V25.8983Z" fill="#B22233"/>
<path d="M32 28.339H16V29.5593H32V28.339Z" fill="#B22233"/>
<path d="M32 30.7797H16V32H32V30.7797Z" fill="#B22233"/>
<path d="M16 16H24.7457V24.6102H16" fill="#3C3B6E"/>
<path d="M23.4576 17.2543L23.7288 16.3729L24.0678 17.2543L23.2542 16.7119H24.2033" fill="white"/>
<path d="M21.4238 17.2543L21.695 16.3729L22.034 17.2543L21.2883 16.7119H22.1696" fill="white"/>
<path d="M19.3898 17.2543L19.7288 16.3729L20 17.2543L19.2543 16.7119H20.2034" fill="white"/>
<path d="M17.356 17.2543L17.6949 16.3729L17.9661 17.2543L17.2204 16.7119H18.1695" fill="white"/>
<path d="M20.4069 18.1356L20.7458 17.2543L21.017 18.1356L20.2713 17.5932H21.2204" fill="white"/>
<path d="M22.4407 18.1356L22.712 17.2543L23.0509 18.1356L22.3052 17.5932H23.1865" fill="white"/>
<path d="M18.3729 18.1356L18.7119 17.2543L18.9831 18.1356L18.2374 17.5932H19.1865" fill="white"/>
<path d="M16.4069 18.1356L16.678 17.2543L16.9492 18.1356L16.2035 17.5932H17.1526" fill="white"/>
<path d="M19.3898 18.9492L19.7288 18.0678L20 18.9492L19.2543 18.4068H20.2034" fill="white"/>
<path d="M23.4576 18.9492L23.7288 18.0678L24.0678 18.9492L23.2542 18.4068H24.2033" fill="white"/>
<path d="M21.4238 18.9492L21.695 18.0678L22.034 18.9492L21.2883 18.4068H22.1696" fill="white"/>
<path d="M17.356 18.9492L17.6949 18.0678L17.9661 18.9492L17.2204 18.4068H18.1695" fill="white"/>
<path d="M20.4069 19.8306L20.7458 18.9492L21.017 19.8306L20.2713 19.2882H21.2204" fill="white"/>
<path d="M22.4407 19.8306L22.712 18.9492L23.0509 19.8306L22.3052 19.2882H23.1865" fill="white"/>
<path d="M18.3729 19.8306L18.7119 18.9492L18.9831 19.8306L18.2374 19.2882H19.1865" fill="white"/>
<path d="M16.4069 19.8306L16.678 18.9492L16.9492 19.8306L16.2035 19.2882H17.1526" fill="white"/>
<path d="M23.4576 20.7119L23.7288 19.8305L24.0678 20.7119L23.2542 20.1695H24.2033" fill="white"/>
<path d="M17.356 24.1694L17.6949 23.2881L17.9661 24.1694L17.2204 23.627H18.1695" fill="white"/>
<path d="M23.4576 24.1694L23.7288 23.2881L24.0678 24.1694L23.2542 23.627H24.2033" fill="white"/>
<path d="M21.4238 24.1694L21.695 23.2881L22.034 24.1694L21.2883 23.627H22.1696" fill="white"/>
<path d="M19.3898 24.1694L19.7288 23.2881L20 24.1694L19.2543 23.627H20.2034" fill="white"/>
<path d="M22.4407 23.2881L22.712 22.4067L23.0509 23.2881L22.3052 22.7456H23.1865" fill="white"/>
<path d="M20.4069 23.2881L20.7458 22.4067L21.017 23.2881L20.2713 22.7456H21.2204" fill="white"/>
<path d="M18.3729 23.2881L18.7119 22.4067L18.9831 23.2881L18.2374 22.7456H19.1865" fill="white"/>
<path d="M16.4069 23.2881L16.678 22.4067L16.9492 23.2881L16.2035 22.7456H17.1526" fill="white"/>
<path d="M17.356 22.4069L17.6949 21.5255L17.9661 22.4069L17.2204 21.8645H18.1695" fill="white"/>
<path d="M23.4576 22.4069L23.7288 21.5255L24.0678 22.4069L23.2542 21.8645H24.2033" fill="white"/>
<path d="M21.4238 22.4069L21.695 21.5255L22.034 22.4069L21.2883 21.8645H22.1696" fill="white"/>
<path d="M19.3898 22.4069L19.7288 21.5255L20 22.4069L19.2543 21.8645H20.2034" fill="white"/>
<path d="M22.4407 21.5934L22.712 20.6442L23.0509 21.5934L22.3052 21.0509H23.1865" fill="white"/>
<path d="M20.4069 21.5934L20.7458 20.6442L21.017 21.5934L20.2713 21.0509H21.2204" fill="white"/>
<path d="M18.3729 21.5934L18.7119 20.6442L18.9831 21.5934L18.2374 21.0509H19.1865" fill="white"/>
<path d="M16.4069 21.5934L16.678 20.6442L16.9492 21.5934L16.2035 21.0509H17.1526" fill="white"/>
<path d="M19.3898 20.7119L19.7288 19.8305L20 20.7119L19.2543 20.1695H20.2034" fill="white"/>
<path d="M21.4238 20.7119L21.695 19.8305L22.034 20.7119L21.2883 20.1695H22.1696" fill="white"/>
<path d="M17.356 20.7119L17.6949 19.8305L17.9661 20.7119L17.2204 20.1695H18.1695" fill="white"/>
</g>
</svg>
